<svg xmlns="http://www.w3.org/2000/svg" viewBox="0 0 512 512">
  <defs>
    <linearGradient id="gradient" x1="74.98" y1="423.02" x2="437.02" y2="60.98" gradientUnits="userSpaceOnUse">
      <stop offset="0" stop-color="#1976d7"/>
      <stop offset="1" stop-color="#2aadf4"/>
    </linearGradient>
  </defs>
  <circle cx="256" cy="256" r="256" fill="url(#gradient)"/>
  <path fill="white" d="M375.9,143.2c-4.7-5.6-13.3-8.4-25.7-8.4s-9.6.4-12.2,1.3c-16.3,6.9-28.3,21-36,42.4-25.7,94.7-38.6,150-38.6,165.8s3.4,20.6,10.3,25.7,14.4,7.7,22.5,7.7c15.9,0,31.5-7.1,46.9-21.2,15.4-14.1,25.9-31.5,31.5-52.1,1.3-4.3,2.6-6.6,3.9-7.1,1.3-.4,4.7-.9,10.3-1.3h2.6c6.4,0,9.6,1.7,9.6,5.1s-.4,2.8-1.3,7.1c-6.9,24.4-20.1,46.1-39.8,64.9-19.7,18.9-42.6,28.3-68.8,28.3s-52.7-13.5-68.1-40.5c-17.6,26.6-37.7,39.8-60.4,39.8h-3.9c-21,0-36-5.6-45-16.7-9-11.1-13.7-22.9-14.1-35.3,0-13.7,4.1-24.8,12.2-33.4,8.1-8.6,17.8-12.9,28.9-12.9,18.4,0,27.6,9,27.6,27s-2.6,16.1-7.7,22.5-10.1,10.7-14.8,12.9c-4.7,2.1-7.5,3.2-8.4,3.2l-1.9.6c0,.4,1.3,1.3,3.9,2.6,2.6,1.3,6,2.8,10.3,4.5,4.3,1.7,8.4,2.4,12.2,1.9,15.4,0,28.7-9.6,39.8-28.9,3.9-6.9,8.8-21.4,14.8-43.7,6-22.3,12-45.4,18-69.4,6-24,9.4-38.1,10.3-42.4,2.1-11.6,3.2-19.9,3.2-25.1,0-12-3.2-20.6-9.6-25.7s-13.7-7.7-21.8-7.7c-17.1,0-33.2,6.9-48.2,20.6s-25.5,31.3-31.5,52.7c-.9,3.9-1.9,6-3.2,6.4s-4.7.9-10.3,1.3h-9c-2.6-2.6-3.9-4.9-3.9-7.1,3-18,14.6-38.8,34.7-62.3,20.1-23.6,45-35.6,74.5-36,15,0,28.7,3.9,41.1,11.6,12.4,7.7,21.6,17.4,27.6,28.9,18-27,39.6-40.5,64.9-40.5s29.6,4.7,41.1,14.1c11.6,9.4,17.6,22.1,18,37.9,0,12.4-3,22.5-9,30.2-6,7.7-11.8,12.4-17.4,14.1s-10.5,2.6-14.8,2.6c-8.1,0-14.8-2.4-19.9-7.1-5.1-4.7-7.7-10.9-7.7-18.6,0-19.7,10.7-33.2,32.1-40.5Z"/>
</svg>