<?xml version="1.0" encoding="UTF-8"?>
<svg id="a" data-name="Слой 1" xmlns="http://www.w3.org/2000/svg" viewBox="0 0 1200 500">
  <path d="M373.02,172.03c-.09.02-.16.04-.23.06,2.34,1.88,5.18,2.83,8.44,2.83,2.59,0,4.49-1.22,5.81-3.72.81-1.56,1.21-4.02,1.21-7.3v-1.48c0-4.5-1.52-7.55-4.51-9.05-.7-.27-2.17-.44-4.37-.49l-3.21-.08-.37-.25-.04-.06c-.1-.16-.21-.44-.21-1.39,0-1.13.32-1.7.96-1.7,1.35,0,2.78-.12,4.23-.36,1.58-.23,3.04-1.23,4.35-2.96,1.32-1.75,2-4.46,2-8.06v-.59c0-2.66-.81-4.52-2.42-5.53-1.02-.65-2.12-.98-3.28-.98-1.52,0-2.94.26-4.22.79-1.27.52-2.17,1.06-2.68,1.61l-.36.39s.1.02.16.03c.3.06.61.21.9.44.22.18.49.33.8.47.44.19.76.53.94,1.02.14.36.32.71.55,1.02.3.42.4,1,.29,1.72,0,1.16-.38,2.2-1.12,3.09-.76.92-1.97,1.41-3.6,1.47h-.01c-1.44,0-2.57-.46-3.38-1.38-.79-.9-1.22-2.07-1.28-3.49h0c0-2.82,1.24-5.35,3.67-7.54,2.43-2.17,5.4-3.27,8.83-3.27,1.76,0,2.83.02,3.29.08h.02c3.71.6,6.6,1.96,8.57,4.03,1.98,2.08,3.01,4.38,3.06,6.83,0,2.64-.87,5.22-2.58,7.69-1.58,2.28-3.75,4-6.44,5.12.45.12,1.08.32,1.9.61,1.01.36,1.99.89,2.9,1.6,4.13,2.67,6.22,6.26,6.22,10.66,0,3.98-1.58,7.51-4.7,10.47-3.11,2.96-7.11,4.47-11.87,4.47-4.01,0-7.52-1.09-10.43-3.25-2.95-2.18-4.44-5-4.44-8.36,0-1.48.49-2.69,1.45-3.6.95-.9,2.15-1.38,3.57-1.43h.01c1.48,0,2.71.48,3.66,1.44.96.96,1.44,2.16,1.44,3.59,0,.58-.08,1.12-.24,1.6-.15.46-.34.89-.55,1.25-.22.39-.53.73-.92,1.01-.35.25-.66.46-.91.61-.28.17-.57.28-.86.34ZM387.9,46.37c-.19.75-.5,1.52-.93,2.28-.45.79-.82,1.52-1.12,2.17-.28.61-.79,1.38-1.51,2.29-.74.94-1.31,1.69-1.71,2.23-.39.53-1.08,1.37-2.05,2.49-.98,1.13-1.7,1.95-2.14,2.44-.44.49-1.28,1.41-2.51,2.73-1.23,1.33-2.08,2.25-2.52,2.74-1.03,1.18-2.27,2.57-3.7,4.14-1.2,1.35-1.93,2.21-2.24,2.61-.34.46-.52.91-.52,1.33v2.66h28.18v-.51c.13-.33.38-1.49,1.11-6.84.71-5.19.91-6.5.95-6.67l.02-.05v-.65h-3.7v.56c-.99,5.07-1.43,6.09-1.58,6.29-.33.12-2.36.33-12.17.33l-4.71-.06,3.7-3.52c3.14-2.99,5.62-5.27,7.38-6.79,2.56-2.22,4.56-4.06,5.94-5.5,1.4-1.45,2.61-3.17,3.61-5.12,1.01-1.97,1.52-4.06,1.52-6.24-.05-4.47-1.63-8.17-4.71-10.99-3.06-2.81-6.93-4.24-11.49-4.24-3.98,0-7.35,1.33-10.02,3.95-2.67,2.62-4.03,5.77-4.03,9.36,0,1.37.43,2.55,1.28,3.5.86.97,2.02,1.46,3.46,1.46h.01c1.52-.05,2.73-.54,3.58-1.45.85-.91,1.28-2.04,1.28-3.36,0-1.69-.52-2.94-1.56-3.7-.95-.7-1.89-1.07-2.81-1.1.1-.19.26-.48.54-.92.46-.74,1.3-1.53,2.48-2.33,1.16-.79,2.54-1.19,4.08-1.19,3.01,0,5.26,1.06,6.88,3.25,1.62,2.19,2.44,4.83,2.44,7.84,0,.91-.07,1.7-.21,2.36-.15.68-.32,1.43-.51,2.21ZM359.19,109.84h46.22v-4.44h-46.22v4.44ZM875.51,467.19c-2.74-5.22-4.12-12.85-4.12-22.66,0-11.03,1.84-19.56,5.47-25.35v-.02c3.63-5.23,8.63-7.88,14.89-7.88,3.1,0,6.23.85,9.32,2.52,3.11,1.68,5.67,4.69,7.59,8.94,2.35,5.28,3.55,12.61,3.55,21.79,0,9.81-1.39,17.44-4.12,22.66-1.29,2.71-3.09,4.9-5.36,6.52-2.25,1.61-4.25,2.62-5.95,3.01-1.66.38-3.32.61-4.92.67h0s0,0,0,0c-1.67,0-3.36-.2-5.03-.58-1.7-.39-3.7-1.44-5.95-3.11-2.26-1.68-4.06-3.87-5.35-6.51ZM881.61,443.29c0,9.91.25,16.51.75,19.63.49,3.05,1.59,5.48,3.28,7.23,1.7,1.82,3.72,2.7,6.2,2.7s4.4-.88,6.1-2.69c1.76-1.82,2.86-4.4,3.29-7.69.44-3.37.69-9.83.75-19.17,0-9.08-.25-15.14-.75-18.01-.49-2.8-1.5-5.04-3.01-6.67-1.79-1.91-3.94-2.88-6.38-2.88s-4.68.97-6.47,2.88c-1.51,1.57-2.52,3.78-3,6.58-.5,2.86-.75,8.96-.75,18.11ZM849.22,411.94c-.59-.44-1.22-.66-1.89-.66-.78,0-1.25.14-1.49.44-.73.67-1.59,1.34-2.57,2.01-.97.67-2.71,1.41-5.18,2.21-2.47.8-5.2,1.27-8.11,1.4h-2.26v5.3h2.3c2.03-.13,3.9-.35,5.55-.67,1.66-.32,2.96-.64,3.87-.97l.59-.23v47.96c-.17.12-.32.27-.43.37-.21.21-.32.31-.38.35-.12.02-.32.07-.75.19-.41.12-.9.21-1.44.27-.55.06-1.33.09-2.32.09h-6.54v5.3h1.68c1.3-.19,6.28-.28,14.81-.28s13.7.09,14.99.28h1.58s0-5.3,0-5.3h-2.94c-2.69,0-4.65-.06-5.82-.19-1.51-.16-1.99-.29-2.15-.35-.16-.06-.43-.22-.84-.61l-.09-28.22v-28.56l-.19-.14ZM910.22,282.92c-.59-.44-1.22-.66-1.89-.66-.78,0-1.25.14-1.49.44-.73.67-1.59,1.34-2.57,2.01-.97.67-2.71,1.41-5.18,2.21-2.47.8-5.2,1.27-8.11,1.4h-2.26v5.3h2.3c2.03-.13,3.9-.35,5.55-.67,1.66-.32,2.96-.64,3.87-.97l.59-.23v47.95c-.12.08-.26.2-.43.38-.21.21-.32.31-.38.35-.12.02-.32.07-.75.19-.41.12-.9.21-1.44.27-.55.06-1.33.09-2.32.09h-6.54v5.3h1.68c1.3-.19,6.28-.28,14.81-.28s13.7.09,14.99.28h1.58s0-5.3,0-5.3h-2.94c-2.69,0-4.65-.06-5.82-.19-1.51-.16-1.99-.29-2.15-.35-.16-.06-.43-.22-.84-.61l-.09-28.22v-28.56l-.19-.14ZM923.35,467.19c-2.74-5.22-4.12-12.85-4.12-22.66,0-11.03,1.84-19.56,5.47-25.35v-.02c3.63-5.23,8.63-7.88,14.89-7.88,3.1,0,6.23.85,9.32,2.52,3.11,1.68,5.67,4.69,7.59,8.94,2.35,5.28,3.55,12.61,3.55,21.79,0,9.81-1.39,17.44-4.12,22.66-1.29,2.71-3.09,4.9-5.36,6.52-2.25,1.61-4.25,2.62-5.95,3.01-1.66.38-3.32.61-4.92.67h0s0,0,0,0c-1.67,0-3.36-.2-5.03-.58-1.7-.39-3.7-1.44-5.95-3.11-2.26-1.68-4.06-3.87-5.35-6.51ZM929.45,443.29c0,9.91.25,16.51.75,19.63.49,3.05,1.59,5.48,3.28,7.23,1.7,1.82,3.72,2.7,6.2,2.7s4.4-.88,6.1-2.69c1.76-1.82,2.86-4.4,3.29-7.69.44-3.38.69-9.83.75-19.17,0-9.08-.25-15.14-.75-18.01-.49-2.8-1.5-5.04-3.01-6.67-1.79-1.91-3.94-2.88-6.38-2.88s-4.68.97-6.47,2.88c-1.51,1.57-2.52,3.78-3,6.58-.5,2.87-.75,8.96-.75,18.11ZM936.51,338.17c-2.74-5.22-4.12-12.85-4.12-22.66,0-11.03,1.84-19.56,5.47-25.35v-.02c3.63-5.23,8.63-7.88,14.89-7.88,3.1,0,6.23.85,9.32,2.52,3.11,1.68,5.67,4.69,7.59,8.94,2.35,5.28,3.55,12.61,3.55,21.79,0,9.82-1.39,17.44-4.12,22.66-1.29,2.71-3.09,4.9-5.36,6.52-2.25,1.61-4.25,2.62-5.95,3.01-1.66.38-3.32.61-4.92.67h0s0,0,0,0c-1.67,0-3.36-.2-5.03-.58-1.7-.39-3.7-1.44-5.95-3.11-2.26-1.68-4.06-3.87-5.35-6.51ZM943.37,333.9c.49,3.05,1.59,5.48,3.28,7.23,1.7,1.82,3.72,2.7,6.2,2.7s4.4-.88,6.1-2.69c1.76-1.82,2.86-4.4,3.29-7.69.44-3.38.69-9.83.75-19.17,0-9.08-.25-15.14-.75-18.01-.49-2.8-1.5-5.04-3.01-6.67-1.79-1.91-3.94-2.88-6.38-2.88s-4.68.97-6.47,2.88c-1.51,1.57-2.52,3.78-3,6.58-.5,2.86-.75,8.96-.75,18.11,0,9.91.25,16.51.75,19.63ZM816.23,324.45l.1.05h55.27l.1-.06c1.11-.59,1.67-1.37,1.67-2.31s-.56-1.72-1.67-2.31l-.1-.06h-55.27l-.1.05c-1.31.66-1.59,1.62-1.59,2.32v1.23h.34c.24.39.63.77,1.25,1.09ZM801.47,389.01h181.22v-5.68h-181.22v5.68ZM538.59,255.95h114.32v-4.2h-114.32v4.2ZM628.38,291.18c-.18.71-.47,1.44-.87,2.15-.42.75-.78,1.44-1.06,2.05-.27.58-.75,1.31-1.43,2.17-.7.89-1.24,1.59-1.62,2.11-.37.5-1.02,1.29-1.94,2.35-.93,1.07-1.61,1.84-2.02,2.3-.42.46-1.21,1.33-2.37,2.58-1.16,1.25-1.96,2.13-2.38,2.59-.97,1.11-2.15,2.43-3.49,3.91-1.14,1.28-1.83,2.08-2.12,2.47-.32.43-.49.86-.49,1.26v2.52h26.64v-.48c.12-.31.36-1.41,1.05-6.47.67-4.91.86-6.14.9-6.31l.02-.05v-.62h-3.5v.53c-.94,4.79-1.35,5.76-1.49,5.95-.31.12-2.23.31-11.51.31l-4.45-.06,3.5-3.32c2.97-2.83,5.31-4.99,6.98-6.42,2.42-2.09,4.31-3.84,5.62-5.2,1.32-1.37,2.47-3,3.42-4.84.95-1.86,1.44-3.84,1.44-5.9-.05-4.23-1.54-7.73-4.45-10.39-2.9-2.66-6.55-4.01-10.86-4.01-3.76,0-6.95,1.26-9.47,3.74-2.53,2.48-3.81,5.46-3.81,8.85,0,1.29.41,2.41,1.21,3.31.81.91,1.91,1.38,3.27,1.38h.01c1.44-.05,2.58-.51,3.39-1.37.81-.86,1.21-1.92,1.21-3.18,0-1.6-.49-2.78-1.47-3.5-.9-.66-1.79-1.01-2.66-1.04.09-.18.25-.45.51-.87.44-.7,1.23-1.44,2.35-2.2,1.1-.75,2.4-1.13,3.86-1.13,2.85,0,4.97,1.01,6.5,3.07,1.53,2.07,2.31,4.57,2.31,7.41,0,.86-.07,1.61-.2,2.23-.14.65-.3,1.35-.49,2.09ZM557.38,303.53l.07.04h40.79l.08-.04c.82-.44,1.23-1.01,1.23-1.71s-.42-1.27-1.23-1.71l-.08-.04h-40.79l-.07.04c-.97.48-1.17,1.2-1.17,1.71v.91h.25c.17.29.46.57.92.8ZM553.27,220.96c-.21.09-.41.17-.61.24.32.17.89.38,1.7.64.84.27,1.79.38,2.82.33h.02s.42,0,.42,0c2.66,0,4.93-1.45,6.77-4.31h0c1.71-2.46,2.6-6.74,2.66-12.72-2.19,3-4.89,4.52-8.04,4.52-3.73,0-6.83-1.43-9.22-4.25-2.36-2.79-3.8-5.81-4.27-8.98-.1-.76-.14-1.72-.14-2.85v-.56c0-4.41,1.66-8.31,4.93-11.57,2.85-2.85,6.04-4.3,9.48-4.3h.42c.2,0,.4.02.6.07h.24c.57,0,1.18.05,1.8.14.64.1,1.51.38,2.67.86,1.15.48,2.3,1.26,3.39,2.31,1.09,1.05,2.13,2.46,3.07,4.21h0c2.02,4.14,3.04,9.51,3.04,15.97s-1.43,12.2-4.25,16.75c-1.65,2.64-3.67,4.73-5.98,6.19-2.33,1.47-4.84,2.24-7.45,2.29-2.91,0-5.34-.71-7.21-2.1-1.9-1.41-2.89-3.53-2.94-6.29-.03-1.46.33-2.56,1.04-3.28.68-.68,1.7-1.02,3.02-.99,1.11,0,2.06.36,2.82,1.07.77.72,1.16,1.72,1.16,2.98,0,.91-.23,1.7-.69,2.37-.46.67-.88,1.07-1.27,1.24ZM566.43,186.25h0c-.09-.45-.22-.9-.4-1.35-.18-.44-.5-1.04-.95-1.76-.43-.69-1.09-1.29-1.97-1.77-.87-.48-1.92-.7-3.1-.66h-.01c-1.67,0-3.11.6-4.3,1.79-.92.97-1.53,2.13-1.79,3.46-.27,1.37-.44,3.82-.48,7.28,0,3.83.12,6.44.34,7.77.22,1.28.67,2.33,1.32,3.12v.02c1.12,1.5,2.67,2.23,4.77,2.23s3.79-1.06,5.08-3.25c1.31-2.22,2-5.29,2.05-9.13,0-3.59-.19-6.2-.55-7.75ZM623.89,220.96c-.21.09-.41.17-.61.24.32.17.89.38,1.7.64.84.27,1.79.38,2.82.33h.02s.42,0,.42,0c2.66,0,4.93-1.45,6.77-4.31h0c1.71-2.46,2.6-6.74,2.66-12.72-2.19,3-4.89,4.52-8.04,4.52-3.73,0-6.83-1.43-9.22-4.25-2.36-2.79-3.8-5.81-4.27-8.98-.1-.76-.14-1.72-.14-2.85v-.56c0-4.41,1.66-8.31,4.93-11.57,2.85-2.85,6.04-4.3,9.48-4.3h.42c.2,0,.4.02.6.07h.24c.57,0,1.18.05,1.8.14.64.1,1.51.38,2.67.86,1.15.48,2.3,1.26,3.39,2.31,1.09,1.05,2.13,2.46,3.07,4.21h0c2.02,4.14,3.04,9.51,3.04,15.97s-1.43,12.2-4.25,16.75c-1.65,2.64-3.67,4.73-5.98,6.19-2.33,1.47-4.84,2.24-7.45,2.29-2.91,0-5.34-.71-7.21-2.1-1.9-1.41-2.89-3.53-2.94-6.29-.03-1.46.33-2.56,1.04-3.28.68-.68,1.7-1.02,3.02-.99,1.11,0,2.06.36,2.82,1.07.77.72,1.16,1.72,1.16,2.98,0,.91-.23,1.7-.69,2.37-.46.67-.88,1.07-1.27,1.24ZM624.37,201.01c.22,1.28.67,2.33,1.32,3.12v.02c1.12,1.5,2.67,2.23,4.77,2.23s3.79-1.06,5.08-3.25c1.31-2.22,2-5.29,2.05-9.13,0-3.59-.19-6.2-.55-7.75h0c-.09-.45-.22-.9-.4-1.35-.18-.44-.5-1.04-.95-1.76-.43-.69-1.09-1.29-1.97-1.77-.87-.48-1.92-.7-3.1-.66h-.01c-1.67,0-3.11.6-4.3,1.79-.92.97-1.53,2.13-1.79,3.46-.27,1.37-.44,3.82-.48,7.28,0,3.83.12,6.44.34,7.77ZM588.58,220.96c-.21.09-.41.17-.61.24.32.17.89.38,1.7.64.84.27,1.79.38,2.82.33h.02s.42,0,.42,0c2.66,0,4.93-1.45,6.77-4.31h0c1.71-2.46,2.6-6.74,2.66-12.72-2.19,3-4.89,4.52-8.04,4.52-3.73,0-6.83-1.43-9.22-4.25-2.36-2.79-3.8-5.81-4.27-8.98-.1-.76-.14-1.72-.14-2.85v-.56c0-4.41,1.66-8.31,4.93-11.57,2.85-2.85,6.04-4.3,9.48-4.3h.42c.2,0,.4.02.6.07h.24c.57,0,1.18.05,1.8.14.64.1,1.51.38,2.67.86,1.15.48,2.3,1.26,3.39,2.31,1.09,1.05,2.13,2.46,3.07,4.21h0c2.02,4.14,3.04,9.51,3.04,15.97s-1.43,12.2-4.25,16.75c-1.65,2.64-3.67,4.73-5.98,6.19-2.33,1.47-4.84,2.24-7.45,2.29-2.91,0-5.34-.71-7.21-2.1-1.9-1.41-2.89-3.53-2.94-6.29-.03-1.46.33-2.56,1.04-3.28.68-.68,1.7-1.02,3.02-.99,1.11,0,2.06.36,2.82,1.07.77.72,1.16,1.72,1.16,2.98,0,.91-.23,1.7-.69,2.37-.46.67-.88,1.07-1.27,1.24ZM601.73,186.25h0c-.09-.45-.22-.9-.4-1.35-.18-.44-.5-1.04-.95-1.76-.43-.69-1.09-1.29-1.97-1.77-.87-.48-1.92-.7-3.1-.66h-.01c-1.67,0-3.11.6-4.3,1.79-.92.97-1.53,2.13-1.79,3.46-.27,1.37-.44,3.82-.48,7.28,0,3.83.12,6.44.34,7.77.22,1.28.67,2.33,1.32,3.12v.02c1.12,1.5,2.67,2.23,4.77,2.23s3.79-1.06,5.08-3.25c1.31-2.22,2-5.29,2.05-9.13,0-3.59-.19-6.2-.55-7.75ZM375.3,458.65c0-.73-.26-1.38-.77-1.92-.51-.54-1.17-.82-1.97-.82-.35,0-.71.06-1.08.19-.39.13-.77.42-1.12.87-.35.45-.53,1.06-.53,1.81,0,2.05.75,3.91,2.22,5.53,1.48,1.63,3.46,2.45,5.9,2.45,2.75-.03,5.12-1.03,7.03-2.98,1.91-1.94,2.89-4.33,2.89-7.08s-.85-4.99-2.52-6.94c-1.68-1.95-3.77-2.94-6.21-2.94-.78,0-1.56.12-2.32.36-.76.24-1.3.49-1.65.74-.25.18-.58.42-.97.71v-6.88l.17.03c.75.18,1.59.27,2.52.27,3.67,0,6.77-1.47,9.21-4.36l.05-.06v-.65c0-.67-.19-1.01-.57-1.01-.18,0-.4.06-.67.2-1.87.81-3.86,1.21-5.9,1.21-1.15,0-2.25-.12-3.26-.35-1.01-.23-1.82-.47-2.39-.7-.92-.37-.95-.37-1.01-.37-.1,0-.19.04-.28.11-.2.08-.24.39-.28.73-.04.37-.06.94-.06,1.68v5.69c0,7.2.06,7.69.1,7.8.13.36.66.4,1.04.4h.02c.49-.04.64-.08.71-.1.15-.05.28-.19.43-.45,1.14-1.94,2.78-2.89,5.01-2.89h.26c.87,0,1.67.46,2.38,1.37.76,1.01,1.15,3.03,1.15,6,0,2.74-.27,4.6-.81,5.53h0c-.91,1.71-2.32,2.54-4.3,2.54s-3.71-1.02-4.99-3.04c.7-.02,1.3-.28,1.79-.77.51-.51.77-1.16.77-1.92ZM358.36,438.28c1.38-2.08,1.68-2.51,1.78-2.62h0c.09-.09.22-.15,1.08-.15h.89l.39.39v20.16h4.06v2.47h-4.06v4.15c0,.14.06.25.19.36.09.08.5.26,2.38.3h1.49v2.47h-.65c-.51-.09-2.42-.13-5.65-.13s-5.36.04-5.87.13h-.04s-.62,0-.62,0v-2.47h2.78c.19,0,.43-.03.71-.08.34-.07.48-.14.53-.18.09-.06.16-.15.23-.26.01-.12.03-.59.03-2.3v-1.98h-11.42v-2.31l.04-.06,6.66-10.19c2.24-3.4,3.95-5.98,5.08-7.69ZM353.64,456.05h4.63v-13.77l-9.03,13.73,4.4.04ZM396.22,402.44c.15-.09.33-.21.54-.36.23-.16.42-.37.55-.6.12-.22.23-.47.33-.75.1-.29.14-.61.14-.95,0-.85-.29-1.57-.86-2.14s-1.3-.86-2.18-.86h0c-.85.03-1.56.32-2.13.85-.57.54-.86,1.26-.86,2.14,0,2.01.89,3.68,2.65,4.98,1.74,1.29,3.83,1.94,6.22,1.94,2.84,0,5.22-.9,7.08-2.66,1.86-1.77,2.8-3.87,2.8-6.25,0-2.62-1.25-4.76-3.71-6.35-.54-.42-1.13-.74-1.73-.95-.49-.17-.86-.29-1.13-.36,1.61-.67,2.9-1.69,3.84-3.05,1.02-1.47,1.54-3.01,1.54-4.58-.03-1.46-.64-2.83-1.82-4.07-1.18-1.24-2.89-2.04-5.11-2.4h-.01c-.28-.03-.92-.05-1.96-.05-2.05,0-3.82.66-5.26,1.95-1.45,1.3-2.19,2.81-2.19,4.49h0c.03.85.29,1.55.76,2.09.48.55,1.16.82,2.02.82h0c.97-.03,1.7-.33,2.15-.87.44-.53.66-1.15.67-1.84.06-.43,0-.78-.17-1.03-.14-.19-.24-.39-.33-.61-.11-.29-.3-.5-.56-.61-.19-.08-.35-.17-.48-.28-.17-.14-.35-.23-.54-.26-.03,0-.06-.01-.09-.02l.21-.23c.3-.33.84-.65,1.6-.96.76-.31,1.61-.47,2.52-.47.69,0,1.35.2,1.96.58.96.6,1.44,1.71,1.44,3.3v.35c0,2.15-.4,3.76-1.19,4.81-.78,1.04-1.65,1.63-2.59,1.77-.87.14-1.71.22-2.52.22-.38,0-.57.34-.57,1.01,0,.56.06.74.13.83l.02.04.22.15,1.92.05c1.31.03,2.19.13,2.6.29,1.79.9,2.69,2.71,2.69,5.4v.88c0,1.95-.24,3.42-.72,4.35-.79,1.49-1.92,2.22-3.47,2.22-1.95,0-3.64-.57-5.04-1.69.04-.01.09-.03.14-.04.17-.03.34-.1.51-.2ZM315.26,455.63l.05.02h25.73l.05-.03c.52-.28.78-.64.78-1.08s-.26-.8-.78-1.08l-.05-.03h-25.73l-.05.02c-.61.31-.74.76-.74,1.08v.57h.16c.11.18.29.36.58.51ZM315.26,395.56l.05.02h25.73l.05-.03c.52-.28.78-.64.78-1.08s-.26-.8-.78-1.08l-.05-.03h-25.73l-.05.02c-.61.31-.74.76-.74,1.08v.57h.16c.11.18.29.36.58.51ZM382.31,387.77c-.11.45-.3.91-.55,1.36-.27.47-.49.91-.67,1.29-.17.36-.47.82-.9,1.37-.44.56-.78,1.01-1.02,1.33-.23.32-.64.82-1.22,1.48-.59.67-1.02,1.16-1.28,1.45-.26.29-.77.84-1.5,1.63-.73.79-1.24,1.34-1.5,1.64-.61.7-1.35,1.53-2.2,2.47-.72.81-1.15,1.32-1.33,1.56-.2.27-.31.54-.31.79v1.59h16.8v-.3c.08-.19.22-.89.66-4.08.42-3.1.54-3.88.57-3.98v-.03s0-.39,0-.39h-2.2v.33c-.59,3.02-.85,3.63-.94,3.75-.19.07-1.41.2-7.26.2l-2.81-.04,2.21-2.1c1.87-1.78,3.35-3.14,4.4-4.05,1.53-1.32,2.72-2.42,3.54-3.28.83-.86,1.56-1.89,2.15-3.05.6-1.17.91-2.42.91-3.72-.03-2.67-.97-4.87-2.81-6.55-1.83-1.68-4.13-2.53-6.85-2.53-2.37,0-4.38.79-5.98,2.36-1.59,1.56-2.4,3.44-2.4,5.58,0,.82.26,1.52.76,2.09.51.58,1.21.87,2.06.87h0c.91-.03,1.63-.32,2.14-.86.51-.54.77-1.21.77-2,0-1.01-.31-1.75-.93-2.21-.57-.42-1.13-.64-1.68-.66.06-.11.16-.28.32-.55.28-.44.77-.91,1.48-1.39.69-.47,1.51-.71,2.43-.71,1.79,0,3.14.63,4.1,1.94.97,1.31,1.46,2.88,1.46,4.68,0,.54-.04,1.01-.13,1.41-.09.41-.19.85-.31,1.32ZM308.39,425.62h106.64v-2.65h-106.64v2.65ZM359.02,376.23c-.27-.2-.57-.31-.88-.31-.36,0-.58.06-.69.2-.34.31-.74.63-1.2.94-.45.31-1.26.66-2.41,1.03-1.15.37-2.42.59-3.77.65h-1.05v2.47h1.07c.95-.06,1.82-.16,2.59-.31.77-.15,1.38-.3,1.8-.45l.27-.11v22.32c-.05.04-.12.1-.2.18-.1.1-.15.14-.17.16-.05,0-.15.03-.35.09-.19.06-.42.1-.67.13-.26.03-.62.04-1.08.04h-3.04v2.47h.78c.6-.09,2.92-.13,6.89-.13s6.38.04,6.98.13h.74s0-2.47,0-2.47h-1.37c-1.25,0-2.16-.03-2.71-.09-.7-.07-.93-.13-1-.16-.07-.03-.2-.1-.39-.29l-.04-13.14v-13.3l-.09-.07ZM406.1,438.96c-.58-.44-1.34-.7-2.28-.77-2,0-3.67.86-4.97,2.56-1.28,1.81-1.97,4.58-2.03,8.24,1.24-1.81,2.89-2.73,4.89-2.73h.18c1.38,0,2.62.29,3.68.86h0c.72.42,1.45,1.03,2.17,1.81.72.78,1.31,1.64,1.76,2.57h0c.63,1.47.94,3.09.94,4.81v.79c0,.69-.08,1.34-.23,1.94-.33,1.77-1.3,3.51-2.88,5.18-1.59,1.68-3.64,2.54-6.07,2.54-.84,0-1.66-.12-2.45-.36-.78-.24-1.64-.7-2.54-1.36-.9-.66-1.68-1.56-2.31-2.67-.62-1.1-1.17-2.56-1.61-4.33-.44-1.77-.65-3.88-.62-6.27,0-4.82,1.22-8.7,3.62-11.52,2.41-2.83,5.14-4.27,8.11-4.27,2.09,0,3.61.56,4.54,1.67.91,1.09,1.37,2.33,1.37,3.67,0,.79-.23,1.43-.68,1.91-.45.49-1.09.73-1.88.73-.73,0-1.35-.23-1.83-.68-.49-.45-.73-1.09-.73-1.88,0-1.27.61-2.09,1.83-2.45ZM397.86,450.89c-.34.8-.59,1.63-.74,2.46-.14.84-.23,1.75-.26,2.7,0,2.4.17,4.14.52,5.17.34,1.01.88,1.84,1.6,2.46.66.49,1.4.75,2.2.75,1.44,0,2.5-.52,3.26-1.58.36-.5.62-1.14.76-1.9.14-.78.22-2.32.22-4.59s-.07-3.9-.22-4.68c-.14-.76-.39-1.4-.76-1.9-.75-1.01-1.74-1.5-3-1.5-.83,0-1.55.24-2.16.7-.61.47-1.1,1.11-1.43,1.9ZM35.88,260.54v5.17h125.98v-5.17H35.88ZM46.82,205.24c-.07-.41.1-.94,2.84-3,1.83-1.37,3.74-2.82,5.68-4.3,1.92-1.47,2.98-2.28,3.25-2.48.19-.18.44-.27.71-.27h.09c.55,0,1.04.53,1.6,1.71.46.97,2.02,4.36,4.65,10.08,1.09,2.46,1.98,4.46,2.67,5.94l6.95,15.14c.8-1.6,3.04-6.17,8.54-17.55,5.89-12.17,11.85-24.6,17.74-36.94,8.08-16.94,9.03-18.76,9.22-19.06.41-.93,1.14-1.42,2.1-1.42.12,0,.23.01.34.03v-.46h43.48v5.17h-42.8l-19.07,39.54-20.24,41.86h0c-.31.56-.99.83-2.01.83-.65,0-1.08-.12-1.34-.38-.11-.11-.23-.23-8.53-18.38l-8.05-17.62-.94.65c-.86.69-1.75,1.38-2.67,2.07-1.49,1.12-1.64,1.12-1.81,1.12-.47,0-.96-.27-1.51-.81-.53-.53-.82-1-.9-1.44ZM130.81,213.92l-4.31,4.09,5.49.07c11.42,0,13.79-.24,14.17-.38.18-.23.68-1.42,1.84-7.32v-.65h4.31v.76l-.02.06c-.05.2-.28,1.72-1.1,7.77-.85,6.23-1.14,7.58-1.29,7.96v.59h-32.81v-3.1c0-.5.2-1.02.6-1.55.36-.47,1.21-1.47,2.61-3.04,1.66-1.83,3.11-3.45,4.3-4.82.52-.58,1.51-1.65,2.94-3.2,1.43-1.54,2.41-2.61,2.92-3.18.51-.57,1.35-1.52,2.49-2.84,1.13-1.31,1.94-2.28,2.39-2.9.46-.63,1.13-1.51,1.99-2.6.84-1.06,1.43-1.96,1.76-2.67.35-.75.79-1.6,1.31-2.53.5-.88.86-1.77,1.08-2.65.23-.91.43-1.77.6-2.57.17-.77.25-1.7.25-2.75,0-3.51-.96-6.58-2.84-9.13-1.88-2.55-4.5-3.79-8.01-3.79-1.8,0-3.4.47-4.75,1.39-1.38.94-2.35,1.85-2.89,2.71-.32.51-.51.85-.63,1.07,1.07.04,2.17.47,3.27,1.29,1.2.89,1.81,2.33,1.81,4.31,0,1.54-.5,2.86-1.49,3.91-.99,1.06-2.4,1.62-4.17,1.69h-.01c-1.67,0-3.02-.57-4.02-1.69-.99-1.11-1.49-2.48-1.49-4.07,0-4.18,1.58-7.84,4.69-10.9,3.11-3.05,7.04-4.6,11.67-4.6,5.31,0,9.81,1.66,13.38,4.94,3.58,3.28,5.42,7.59,5.48,12.8,0,2.53-.6,4.97-1.77,7.26-1.16,2.27-2.58,4.27-4.21,5.96-1.61,1.67-3.94,3.82-6.92,6.4-2.05,1.77-4.94,4.43-8.6,7.91ZM94.73,331.2l-4.31,4.09,5.49.07c11.42,0,13.79-.24,14.17-.38.18-.23.68-1.42,1.84-7.32v-.65h4.31v.76l-.02.06c-.05.2-.28,1.72-1.1,7.77-.85,6.23-1.14,7.58-1.29,7.96v.59h-32.81v-3.1c0-.5.2-1.02.6-1.55.36-.47,1.21-1.47,2.61-3.04,1.66-1.83,3.1-3.45,4.3-4.82.52-.58,1.51-1.65,2.94-3.2,1.43-1.54,2.41-2.61,2.92-3.18.51-.57,1.35-1.52,2.49-2.84,1.13-1.3,1.94-2.28,2.39-2.9.46-.63,1.13-1.51,1.99-2.6.84-1.06,1.43-1.96,1.76-2.67.35-.75.79-1.6,1.31-2.53.5-.88.86-1.77,1.08-2.65.23-.91.43-1.77.6-2.57.17-.77.25-1.7.25-2.75,0-3.51-.96-6.58-2.84-9.13-1.88-2.55-4.5-3.79-8.01-3.79-1.8,0-3.4.47-4.75,1.39-1.38.94-2.35,1.85-2.89,2.71-.32.51-.51.85-.63,1.07,1.07.04,2.17.47,3.27,1.29,1.2.89,1.81,2.33,1.81,4.31,0,1.54-.5,2.86-1.49,3.91-.99,1.06-2.4,1.62-4.17,1.69h-.01c-1.67,0-3.03-.57-4.02-1.69-.99-1.11-1.49-2.48-1.49-4.07,0-4.18,1.58-7.84,4.69-10.9,3.11-3.05,7.04-4.6,11.67-4.6,5.31,0,9.81,1.66,13.38,4.94,3.58,3.28,5.42,7.59,5.48,12.8,0,2.53-.6,4.97-1.77,7.26-1.16,2.27-2.58,4.27-4.21,5.96-1.61,1.67-3.94,3.82-6.92,6.4-2.05,1.77-4.94,4.43-8.6,7.91ZM1060.65,56.02c.08-.1.26-1.26.57-3.48.3-2.22.47-3.37.49-3.44v-.11h-1.51v.11c-.43,2.19-.73,3.32-.91,3.37-.25.13-2.36.19-6.32.19l-2.88-.04,2.23-2.12c1.61-1.54,2.88-2.7,3.78-3.48,1.31-1.13,2.32-2.07,3.03-2.8.71-.73,1.31-1.59,1.82-2.57s.76-2.02.76-3.1c-.03-2.24-.81-4.07-2.35-5.49-1.54-1.41-3.46-2.12-5.75-2.12-1.99,0-3.66.66-4.99,1.97-1.34,1.31-2.01,2.86-2.01,4.65,0,.66.2,1.21.61,1.66.4.45.95.68,1.63.68.73-.03,1.3-.25,1.7-.68.4-.43.61-.96.61-1.59,0-.81-.24-1.39-.72-1.74-.48-.35-.95-.53-1.4-.53-.13,0-.19-.01-.19-.04,0-.08.13-.32.38-.72.25-.4.69-.82,1.32-1.25.63-.43,1.36-.64,2.19-.64,1.59,0,2.81.58,3.67,1.74.86,1.16,1.29,2.53,1.29,4.12,0,.48-.04.9-.11,1.25-.08.35-.16.73-.26,1.13-.1.4-.26.81-.49,1.21-.23.4-.42.77-.57,1.1-.15.33-.42.73-.79,1.21-.38.48-.67.86-.87,1.13-.2.28-.55.71-1.06,1.29-.5.58-.87,1-1.1,1.25s-.66.72-1.29,1.4c-.63.68-1.06,1.15-1.29,1.4-.53.61-1.16,1.31-1.89,2.12-.61.68-.98,1.12-1.13,1.32-.15.2-.23.39-.23.57v1.17h14.04v-.11ZM1073.06,56.97c2.32-.03,4.21-.77,5.67-2.23,1.46-1.46,2.19-3.19,2.19-5.18,0-2.27-.95-4.15-2.84-5.64-.05-.03-.25-.16-.61-.42-.35-.25-.71-.5-1.06-.76l-.53-.34c.03-.05.16-.15.42-.3.25-.15.58-.38.98-.68s.79-.66,1.17-1.06c.38-.4.71-.93.98-1.59.28-.66.42-1.36.42-2.12,0-1.69-.69-3.06-2.08-4.12-1.39-1.06-2.98-1.59-4.77-1.59-1.77.03-3.33.63-4.69,1.82s-2.04,2.75-2.04,4.69.72,3.53,2.16,4.77c.15.18.49.43,1.02.76l.68.49c-3.25,1.82-4.88,4.09-4.88,6.81,0,1.89.73,3.48,2.19,4.77,1.46,1.29,3.33,1.93,5.6,1.93ZM1069.96,38.62c-.33-.25-.66-.62-.98-1.1s-.49-1.01-.49-1.59c.03-.98.49-1.8,1.4-2.46.91-.66,1.88-.98,2.91-.98.66,0,1.07.01,1.25.04.96.2,1.8.68,2.53,1.44s1.1,1.68,1.1,2.76c-.03.23-.05.5-.08.83s-.09.58-.19.76c-.1.18-.21.39-.34.64-.13.25-.25.45-.38.61-.13.15-.26.32-.42.49s-.29.33-.42.45-.28.25-.45.38c-.18.13-.3.21-.38.26-.08.05-.19.13-.34.23l-.23.15-2.19-1.44c-.1-.05-.24-.14-.42-.26-.93-.55-1.56-.96-1.89-1.21ZM1068.67,47.09c.63-.96,1.24-1.65,1.82-2.08s.95-.64,1.1-.64l.3.19c.25.18.58.39.98.64s.78.49,1.13.72c.15.1.49.32,1.02.64.53.33.9.57,1.1.72.2.15.49.38.87.68.38.3.66.58.83.83s.33.57.45.95c.13.38.19.78.19,1.21,0,1.21-.53,2.24-1.59,3.1s-2.32,1.29-3.78,1.29c-1.44-.03-2.7-.52-3.78-1.48-1.08-.96-1.63-2.18-1.63-3.67.03-1.11.35-2.14.98-3.1ZM1086.19,55.49c-.43-.43-.66-.97-.68-1.63,0-.61.21-1.13.64-1.59.43-.45.97-.68,1.63-.68.61,0,1.13.2,1.59.61.45.4.69.95.72,1.63,0,.63-.21,1.17-.64,1.63-.43.45-.97.68-1.63.68s-1.2-.21-1.63-.64ZM1097.01,45.92c1.26,1.49,2.88,2.23,4.84,2.23,1.82,0,3.33-.96,4.54-2.88v.26c0,3.48-.49,5.93-1.48,7.34-1.03,1.61-2.31,2.42-3.82,2.42h-.23c-.58.03-1.11-.04-1.59-.19s-.81-.28-.98-.38c-.18-.1-.26-.18-.26-.23l.15-.04c.15-.05.32-.11.49-.19s.38-.28.61-.61c.23-.33.34-.72.34-1.17,0-.63-.19-1.12-.57-1.48-.38-.35-.84-.53-1.4-.53-1.36-.03-2.03.68-2.01,2.12.03,1.44.53,2.52,1.51,3.25.98.73,2.24,1.1,3.78,1.1,1.39-.03,2.7-.43,3.93-1.21,1.24-.78,2.3-1.88,3.18-3.29,1.51-2.45,2.27-5.44,2.27-8.97s-.54-6.33-1.63-8.55c-.5-.93-1.05-1.68-1.63-2.23s-1.17-.96-1.78-1.21c-.61-.25-1.07-.4-1.4-.45-.33-.05-.64-.08-.95-.08h-.15c-.1-.03-.2-.04-.3-.04h-.23c-1.82,0-3.48.76-4.99,2.27-1.74,1.74-2.61,3.78-2.61,6.13v.3c0,.61.03,1.11.08,1.51.25,1.69,1.01,3.28,2.27,4.77ZM1098.9,35.48c.15-.76.49-1.41,1.02-1.97.68-.68,1.5-1.02,2.46-1.02.68-.03,1.27.1,1.78.38.5.28.88.62,1.13,1.02s.43.73.53.98c.1.25.18.5.23.76.2.86.3,2.27.3,4.24-.03,2.12-.4,3.8-1.13,5.03-.73,1.24-1.7,1.85-2.91,1.85s-2.09-.43-2.72-1.29c-.38-.45-.63-1.05-.76-1.78-.13-.73-.19-2.14-.19-4.24.03-1.89.11-3.22.26-3.97ZM1117.17,56.66c-1.08-3.2-1.63-6.53-1.63-9.99,0-1.74.13-3.39.38-4.96.25-1.56.54-2.91.87-4.05s.79-2.24,1.4-3.33c.61-1.08,1.08-1.93,1.44-2.53.35-.61.88-1.26,1.59-1.97.71-.71,1.12-1.13,1.25-1.29.13-.15.44-.42.95-.79h.64c.35,0,.53.11.53.34,0,.08-.21.34-.64.79-.43.45-.95,1.12-1.55,2.01-.61.88-1.22,1.97-1.85,3.25s-1.16,3.03-1.59,5.22c-.43,2.19-.64,4.63-.64,7.3s.21,5.09.64,7.26c.43,2.17.95,3.92,1.55,5.26.61,1.34,1.22,2.42,1.85,3.25.63.83,1.16,1.5,1.59,2.01.43.5.64.77.64.79,0,.23-.19.34-.57.34h-.61l-1.06-.91c-2.37-2.14-4.1-4.82-5.18-8.02ZM1128.29,51.22c0-.71.23-1.27.68-1.7.45-.43,1.02-.66,1.7-.68.71,0,1.29.23,1.74.68.45.45.68,1.02.68,1.7,0,.28-.04.53-.11.76s-.16.43-.26.61c-.1.18-.24.33-.42.45-.18.13-.33.23-.45.3-.13.08-.25.13-.38.15-.13.03-.23.06-.3.11l-.15.04c1.29,1.13,2.85,1.7,4.69,1.7,1.39,0,2.43-.67,3.14-2.01.43-.83.64-2.11.64-3.82v-.76c0-2.4-.81-4-2.42-4.8-.38-.15-1.15-.24-2.31-.26l-1.59-.04-.11-.08c-.05-.08-.08-.28-.08-.61,0-.45.1-.68.3-.68.71,0,1.44-.06,2.19-.19.86-.13,1.64-.66,2.35-1.59.71-.93,1.06-2.35,1.06-4.24v-.3c0-1.44-.44-2.43-1.32-2.99-.55-.35-1.15-.53-1.78-.53-.81,0-1.55.14-2.23.42-.68.28-1.16.57-1.44.87-.28.3-.42.45-.42.45h.11c.08.03.18.05.3.08.13.03.25.09.38.19.13.1.28.19.45.26.18.08.3.21.38.42.08.2.18.39.3.57.13.18.16.43.11.76,0,.55-.18,1.05-.53,1.48-.35.43-.92.66-1.7.68-.68,0-1.21-.21-1.59-.64-.38-.43-.58-.98-.61-1.66,0-1.39.61-2.62,1.82-3.71,1.21-1.08,2.67-1.63,4.39-1.63.88,0,1.44.01,1.66.04,1.87.3,3.29.97,4.27,2.01.98,1.03,1.49,2.16,1.51,3.37,0,1.31-.43,2.59-1.29,3.82-.86,1.24-2.04,2.13-3.56,2.69l-.11.08s.11.06.34.11c.23.05.59.16,1.1.34.5.18.98.44,1.44.79,2.07,1.34,3.1,3.1,3.1,5.3,0,1.99-.78,3.73-2.35,5.22-1.56,1.49-3.54,2.23-5.94,2.23-2.02,0-3.76-.54-5.22-1.63-1.46-1.08-2.19-2.46-2.19-4.12ZM1148.12,64.65c3.91-4.06,5.86-10.05,5.86-17.97s-1.95-13.91-5.86-17.97c-.25-.3-.39-.47-.42-.49,0-.2.06-.34.19-.42l.15-.04h.83l1.06.91c2.37,2.14,4.1,4.82,5.18,8.02s1.63,6.53,1.63,9.99c0,1.72-.13,3.37-.38,4.96-.25,1.59-.54,2.94-.87,4.05s-.79,2.22-1.4,3.33c-.61,1.11-1.08,1.95-1.44,2.53-.35.58-.87,1.22-1.55,1.93-.68.71-1.08,1.12-1.21,1.25s-.42.37-.87.72l-.15.15h-.87c-.08,0-.14-.04-.19-.11-.05-.08-.09-.19-.11-.34.03-.03.16-.19.42-.49ZM1082.06,98.39c-.35-.18-.53-.43-.53-.76s.18-.58.53-.76h21.98c.38.2.57.45.57.76s-.19.55-.57.76h-21.98ZM1121.9,81.48h-.68c-.48,0-.74.03-.79.08-.05.03-2.01,2.96-5.86,8.81l-5.71,8.74v1.74h9.8v1.89c0,1.31-.01,1.99-.04,2.04-.08.13-.16.23-.26.3-.1.08-.28.14-.53.19-.25.05-.47.08-.64.08h-2.19v1.74h.34c.45-.08,2.14-.11,5.07-.11s4.43.04,4.88.11h.34v-1.74h-1.1c-1.24-.03-1.95-.13-2.16-.3-.15-.13-.23-.28-.23-.45v-3.75h3.48v-1.74h-3.48v-17.4l-.23-.23ZM1118.87,99.11h-4.16l-4.12-.04,8.29-12.6v12.64ZM1082.35,153.64c1.41,1.64,2.12,3.58,2.12,5.83s-.81,4.3-2.42,5.94c-1.61,1.64-3.58,2.47-5.9,2.5-2.04,0-3.68-.68-4.92-2.04-1.24-1.36-1.85-2.9-1.85-4.62,0-.61.14-1.08.42-1.44.28-.35.57-.58.87-.68.3-.1.59-.15.87-.15.63,0,1.15.21,1.55.64.4.43.61.93.61,1.51s-.2,1.11-.61,1.51-.9.61-1.48.61h-.26c1.16,1.99,2.7,2.99,4.62,2.99,1.77,0,3.05-.76,3.86-2.27.48-.83.72-2.45.72-4.84,0-2.6-.34-4.35-1.02-5.26-.66-.83-1.39-1.25-2.19-1.25h-.23c-1.97,0-3.46.86-4.46,2.57-.1.18-.19.28-.26.3-.08.03-.26.05-.57.08-.43,0-.67-.08-.72-.23-.05-.1-.08-2.31-.08-6.62v-4.88c0-1.26.06-1.89.19-1.89.05-.05.1-.08.15-.08.03,0,.29.1.79.3s1.2.4,2.08.61c.88.2,1.83.3,2.84.3,1.79,0,3.51-.35,5.15-1.06.2-.1.37-.15.49-.15.2,0,.3.23.3.68v.49c-2.07,2.45-4.65,3.67-7.76,3.67-.78,0-1.49-.08-2.12-.23l-.38-.08v6.51c.48-.35.86-.63,1.13-.83.28-.2.73-.4,1.36-.61.63-.2,1.27-.3,1.93-.3,2.04,0,3.77.82,5.18,2.46ZM1133.65,152.92c-.61-.66-1.21-1.16-1.82-1.51-.88-.48-1.9-.72-3.06-.72h-.15c-1.66,0-3.01.76-4.05,2.27-.08.18-.18.34-.3.49l-.04-.15c0-3.43.59-5.98,1.78-7.64,1.16-1.51,2.64-2.27,4.43-2.27,1.01.08,1.79.39,2.35.95-1.19.23-1.78.9-1.78,2.01,0,.63.19,1.12.57,1.48.38.35.86.53,1.44.53.63,0,1.12-.19,1.48-.57.35-.38.53-.88.53-1.51,0-1.11-.38-2.12-1.13-3.03-.76-.91-2.01-1.36-3.75-1.36-2.5,0-4.77,1.2-6.81,3.59-2.04,2.4-3.06,5.65-3.06,9.76-.03,2.04.15,3.82.53,5.33.38,1.51.83,2.74,1.36,3.67.53.93,1.17,1.68,1.93,2.23.76.55,1.46.93,2.12,1.13.66.2,1.34.3,2.04.3,2.04,0,3.73-.71,5.07-2.12,1.34-1.41,2.14-2.86,2.42-4.35.13-.5.19-1.05.19-1.63v-.68c0-1.46-.26-2.81-.79-4.05-.38-.78-.87-1.5-1.48-2.16ZM1131.79,163.14c-.13.68-.35,1.25-.68,1.7-.68.96-1.66,1.44-2.95,1.44-.73,0-1.4-.23-2.01-.68-.66-.55-1.13-1.29-1.44-2.19s-.45-2.41-.45-4.5c.03-.83.1-1.61.23-2.35.13-.73.34-1.45.64-2.16.3-.71.73-1.27,1.29-1.7.55-.43,1.21-.64,1.97-.64,1.13,0,2.04.45,2.72,1.36.33.45.55,1.02.68,1.7.13.68.19,2.03.19,4.05s-.06,3.29-.19,3.97ZM1118.67,133.42h18.92v2.27h-18.92v-1.36l-8.81,18.27-8.89,18.39c-.1.18-.34.26-.72.26-.23,0-.38-.04-.45-.11-.05-.05-1.29-2.72-3.71-8.02l-3.63-7.94-.61.42c-.38.3-.77.61-1.17.91s-.63.45-.68.45c-.15,0-.33-.1-.53-.3-.2-.2-.32-.38-.34-.53-.03-.15.37-.53,1.17-1.13.81-.61,1.64-1.24,2.5-1.89.86-.66,1.34-1.02,1.44-1.1.05-.05.11-.08.19-.08h.04c.15,0,.33.21.53.64.2.43.88,1.9,2.04,4.43.48,1.08.87,1.95,1.17,2.61l3.22,7s1.34-2.69,3.93-8.06,5.2-10.78,7.79-16.23c2.6-5.45,3.95-8.23,4.05-8.36.15-.35.4-.53.76-.53.18,0,.33.08.45.23s.21.3.26.45v-.68ZM1063.7,122.07h77.67v2.27h-77.67v-2.27ZM1164.12,72.4v2.27h-123.18v-2.27h123.18ZM788.79,44.13c0,.45.15.81.45,1.08.3.27.68.41,1.15.41.25,0,.53-.05.86-.15.32-.1.66-.37,1-.82.35-.45.52-1.03.52-1.75-.02-.92-.37-1.65-1.04-2.2-.67-.55-1.46-.82-2.38-.82-1.46,0-2.72.78-3.76,2.34-.35-.67-.88-1.23-1.6-1.67-.72-.45-1.51-.67-2.38-.67-1.71.02-3.15.72-4.32,2.08-1.17,1.36-1.84,2.57-2.01,3.61,0,.12.07.26.22.41h.52c.32-.02.52-.05.6-.07.07-.02.14-.15.19-.37.35-1.24.96-2.26,1.82-3.05.87-.79,1.8-1.19,2.79-1.19.47,0,.89.15,1.27.45.37.3.56.79.56,1.49,0,.3-.06.78-.19,1.45-.05.25-.25,1.07-.6,2.46-.35,1.39-.69,2.73-1.04,4.02-.35,1.29-.63,2.13-.86,2.53-.64,1.12-1.41,1.67-2.31,1.67-.22.02-.46-.01-.71-.11-.25-.1-.45-.19-.6-.26-.15-.07-.22-.12-.22-.15l.11-.04s.21-.06.48-.19c.27-.12.56-.37.86-.74.3-.37.45-.81.45-1.3,0-1.04-.53-1.56-1.6-1.56-.64,0-1.2.25-1.67.74s-.71,1.14-.71,1.93c.02.72.3,1.4.82,2.05.52.64,1.39.97,2.6.97h.22c1.31,0,2.48-.77,3.5-2.31.89,1.56,2.21,2.34,3.94,2.34,1.51,0,2.84-.55,3.98-1.64,1.14-1.09,1.91-2.34,2.31-3.76.05-.25.07-.38.07-.41,0-.2-.19-.3-.56-.3h-.15c-.32.02-.52.05-.6.07s-.15.16-.22.41c-.32,1.19-.93,2.2-1.82,3.01-.89.82-1.8,1.23-2.72,1.23-.47,0-.91-.15-1.3-.45s-.6-.79-.6-1.49c0-.92.74-4.12,2.23-9.6.45-1.24,1.14-2.06,2.08-2.46.15-.05.38-.07.71-.07.72,0,1.22.16,1.49.48-1.24.42-1.86,1.2-1.86,2.34ZM801.14,41.66l-1.55,1.47,2,.03c2.75,0,4.22-.04,4.39-.13.12-.04.33-.82.63-2.34v-.08h1.05v.08c-.02.05-.13.85-.34,2.39-.21,1.54-.34,2.35-.39,2.42v.08h-9.76v-.82c0-.12.05-.25.16-.39.11-.14.37-.45.79-.92.51-.56.95-1.05,1.32-1.47.16-.18.46-.5.89-.97.44-.47.74-.8.89-.97.16-.18.41-.46.76-.87.35-.4.6-.7.74-.89.14-.19.34-.46.61-.79.26-.33.45-.61.55-.84.11-.23.24-.48.39-.76s.27-.56.34-.84c.07-.28.13-.54.18-.79.05-.25.08-.53.08-.87,0-1.1-.3-2.06-.89-2.87-.6-.81-1.45-1.21-2.55-1.21-.58,0-1.09.15-1.53.45-.44.3-.75.59-.92.87-.18.28-.26.45-.26.5,0,.02.04.03.13.03.32,0,.64.12.97.37.33.25.5.65.5,1.21,0,.44-.14.81-.42,1.1-.28.3-.68.46-1.18.47-.47,0-.85-.16-1.13-.47s-.42-.7-.42-1.16c0-1.25.46-2.32,1.39-3.24s2.09-1.37,3.47-1.37c1.6,0,2.93.49,4,1.47,1.07.98,1.61,2.25,1.63,3.81,0,.75-.18,1.47-.53,2.16-.35.68-.77,1.28-1.26,1.79-.49.51-1.19,1.16-2.1,1.95-.63.54-1.51,1.35-2.63,2.42ZM832.87,58.87v-11.09h-11.13c-.35-.17-.52-.42-.52-.74s.17-.57.52-.74h11.13v-5.58l.04-5.58c.25-.32.48-.48.71-.48.32,0,.57.19.74.56v11.09h11.09c.37.2.56.45.56.74s-.19.55-.56.74h-11.09v11.09c-.2.35-.42.52-.67.52h-.15c-.3,0-.52-.17-.67-.52ZM857.96,50.57c0,1.86.72,3.42,2.16,4.69,1.44,1.27,3.27,1.9,5.51,1.9,2.28-.02,4.14-.76,5.58-2.2,1.44-1.44,2.16-3.14,2.16-5.1,0-2.23-.93-4.08-2.79-5.54-.05-.02-.25-.16-.6-.41s-.69-.5-1.04-.74l-.52-.33s.16-.15.41-.3.57-.37.97-.67c.4-.3.78-.64,1.15-1.04s.69-.92.97-1.56.41-1.34.41-2.08c0-1.66-.68-3.01-2.05-4.06s-2.93-1.56-4.69-1.56c-1.74.02-3.27.62-4.61,1.79-1.34,1.17-2.01,2.7-2.01,4.61s.71,3.47,2.12,4.69c.15.17.48.42,1,.74l.67.48c-3.2,1.79-4.8,4.02-4.8,6.7ZM862.57,39.11c-.32-.25-.64-.61-.97-1.08-.32-.47-.48-.99-.48-1.56.02-.97.48-1.77,1.38-2.42s1.85-.97,2.87-.97c.64,0,1.05.01,1.23.04.94.2,1.77.67,2.49,1.41s1.08,1.65,1.08,2.72c-.02.22-.05.5-.07.82-.02.32-.09.57-.19.74s-.21.38-.33.63c-.12.25-.25.45-.37.6-.12.15-.26.31-.41.48-.15.17-.29.32-.41.45s-.27.25-.45.37c-.17.12-.3.21-.37.26-.07.05-.19.12-.33.22l-.22.15-2.16-1.41c-.1-.05-.24-.14-.41-.26-.92-.55-1.54-.94-1.86-1.19ZM861.31,47.44c.62-.94,1.22-1.62,1.79-2.05.57-.42.93-.63,1.08-.63l.3.19c.25.17.57.38.97.63s.77.48,1.12.71c.15.1.48.31,1,.63.52.32.88.56,1.08.71.2.15.48.37.86.67.37.3.64.57.82.82s.32.56.45.93c.12.37.19.77.19,1.19,0,1.19-.52,2.21-1.56,3.05-1.04.84-2.28,1.27-3.72,1.27-1.41-.02-2.65-.51-3.72-1.45s-1.6-2.15-1.6-3.61c.02-1.09.35-2.11.97-3.05ZM887.8,32.52c-1.19-.64-2.38-.97-3.57-.97-2.41,0-4.3,1-5.69,3.01-1.41,2.26-2.12,5.54-2.12,9.86,0,3.84.53,6.78,1.6,8.82.5,1.02,1.18,1.85,2.05,2.49.87.64,1.62,1.04,2.27,1.19s1.29.22,1.93.22c.62-.02,1.25-.11,1.9-.26.64-.15,1.4-.53,2.27-1.15.87-.62,1.55-1.45,2.05-2.49,1.07-2.03,1.6-4.97,1.6-8.82,0-3.6-.46-6.43-1.38-8.48-.74-1.64-1.71-2.78-2.9-3.42ZM888.14,51.5c-.17,1.34-.62,2.38-1.34,3.13-.69.74-1.54,1.12-2.53,1.12s-1.87-.37-2.57-1.12c-.69-.72-1.14-1.7-1.34-2.94-.2-1.24-.3-3.82-.3-7.74,0-3.62.1-6,.3-7.14.2-1.14.61-2.03,1.23-2.68.74-.79,1.64-1.19,2.68-1.19s1.9.4,2.64,1.19c.62.67,1.03,1.58,1.23,2.72.2,1.14.3,3.51.3,7.11-.02,3.7-.12,6.21-.3,7.55ZM744.62,45.45c-.2-.2-.31-.37-.33-.52s.36-.52,1.15-1.12,1.61-1.22,2.46-1.86c.84-.64,1.31-1,1.41-1.08.05-.05.11-.07.19-.07h.04c.15,0,.32.21.52.63.2.42.87,1.87,2.01,4.35.47,1.07.86,1.92,1.15,2.57l3.16,6.88s1.31-2.64,3.87-7.93c2.56-5.28,5.11-10.6,7.67-15.96,2.56-5.36,3.88-8.1,3.98-8.22.15-.35.4-.52.74-.52.17,0,.32.07.45.22.12.15.21.3.26.45v-.67h120.23v2.23h-120.23v-1.34l-8.67,17.97-8.74,18.08c-.1.17-.33.26-.71.26-.22,0-.37-.04-.45-.11-.05-.05-1.27-2.68-3.65-7.89l-3.57-7.81-.6.41c-.37.3-.76.6-1.15.89-.4.3-.62.45-.67.45-.15,0-.32-.1-.52-.3ZM904.96,47.03c0-.32.17-.57.52-.74h21.62c.37.2.56.45.56.74s-.19.55-.56.74h-21.62c-.35-.17-.52-.42-.52-.74ZM942.55,54.81l-.11.04s.07.07.22.15c.15.07.35.16.6.26.25.1.48.14.71.11.89,0,1.66-.56,2.31-1.67.22-.4.51-1.24.86-2.53.35-1.29.69-2.63,1.04-4.02.35-1.39.55-2.21.6-2.46.12-.67.19-1.15.19-1.45,0-.69-.19-1.19-.56-1.49-.37-.3-.79-.45-1.27-.45-.99,0-1.92.4-2.79,1.19-.87.79-1.48,1.81-1.82,3.05-.05.22-.11.35-.19.37s-.27.05-.6.07h-.52c-.15-.15-.22-.29-.22-.41.17-1.04.84-2.24,2.01-3.61,1.17-1.36,2.6-2.06,4.32-2.08.87,0,1.66.22,2.38.67.72.45,1.25,1,1.6,1.67,1.04-1.56,2.29-2.34,3.76-2.34.92,0,1.71.27,2.38.82.67.55,1.02,1.28,1.04,2.2,0,.72-.17,1.3-.52,1.75-.35.45-.68.72-1,.82-.32.1-.61.15-.86.15-.47,0-.86-.14-1.15-.41-.3-.27-.45-.63-.45-1.08,0-1.14.62-1.92,1.86-2.34-.27-.32-.77-.48-1.49-.48-.32,0-.56.02-.71.07-.94.4-1.64,1.22-2.08,2.46-1.49,5.48-2.23,8.68-2.23,9.6,0,.69.2,1.19.6,1.49.4.3.83.45,1.3.45.92,0,1.82-.41,2.72-1.23.89-.82,1.5-1.82,1.82-3.01.07-.25.15-.38.22-.41.07-.02.27-.05.6-.07h.15c.37,0,.56.1.56.3,0,.02-.02.16-.07.41-.4,1.41-1.17,2.67-2.31,3.76-1.14,1.09-2.47,1.64-3.98,1.64-1.74,0-3.05-.78-3.94-2.34-1.02,1.54-2.18,2.31-3.5,2.31h-.22c-1.22,0-2.08-.32-2.6-.97-.52-.64-.79-1.33-.82-2.05,0-.79.24-1.44.71-1.93s1.03-.74,1.67-.74c1.07,0,1.6.52,1.6,1.56,0,.5-.15.93-.45,1.3-.3.37-.58.62-.86.74-.27.12-.43.19-.48.19ZM793.02,109.48l-.11.04s.07.07.22.15c.15.07.35.16.6.26.25.1.48.14.71.11.89,0,1.66-.56,2.31-1.67.22-.4.51-1.24.86-2.53.35-1.29.69-2.63,1.04-4.02.35-1.39.55-2.21.6-2.46.12-.67.19-1.15.19-1.45,0-.69-.19-1.19-.56-1.49-.37-.3-.79-.45-1.27-.45-.99,0-1.92.4-2.79,1.19-.87.79-1.48,1.81-1.82,3.05-.05.22-.11.35-.19.37-.07.02-.27.05-.6.07h-.52c-.15-.15-.22-.29-.22-.41.17-1.04.84-2.24,2.01-3.61,1.17-1.36,2.6-2.06,4.32-2.08.87,0,1.66.22,2.38.67.72.45,1.25,1,1.6,1.67,1.04-1.56,2.29-2.34,3.76-2.34.92,0,1.71.27,2.38.82.67.55,1.02,1.28,1.04,2.2,0,.72-.17,1.3-.52,1.75-.35.45-.68.72-1,.82-.32.1-.61.15-.86.15-.47,0-.86-.14-1.15-.41-.3-.27-.45-.63-.45-1.08,0-1.14.62-1.92,1.86-2.34-.27-.32-.77-.48-1.49-.48-.32,0-.56.02-.71.07-.94.4-1.64,1.22-2.08,2.46-1.49,5.48-2.23,8.68-2.23,9.6,0,.69.2,1.19.6,1.49s.83.45,1.3.45c.92,0,1.82-.41,2.72-1.23.89-.82,1.5-1.82,1.82-3.01.07-.25.15-.38.22-.41s.27-.05.6-.07h.15c.37,0,.56.1.56.3,0,.02-.02.16-.07.41-.4,1.41-1.17,2.67-2.31,3.76-1.14,1.09-2.47,1.64-3.98,1.64-1.74,0-3.05-.78-3.94-2.34-1.02,1.54-2.18,2.31-3.5,2.31h-.22c-1.22,0-2.08-.32-2.6-.97-.52-.64-.79-1.33-.82-2.05,0-.79.24-1.44.71-1.93s1.03-.74,1.67-.74c1.07,0,1.6.52,1.6,1.56,0,.5-.15.93-.45,1.3-.3.37-.58.62-.86.74-.27.12-.43.19-.48.19ZM815.14,95.74l-.11.03c.89.79,1.98,1.18,3.26,1.18.96,0,1.69-.46,2.18-1.39.3-.58.45-1.46.45-2.66v-.53c0-1.67-.56-2.78-1.68-3.34-.26-.11-.8-.17-1.6-.18l-1.1-.03-.08-.05c-.04-.05-.05-.19-.05-.42,0-.32.07-.47.21-.47.49,0,1-.04,1.53-.13.6-.09,1.14-.46,1.63-1.1.49-.65.74-1.63.74-2.95v-.21c0-1-.31-1.69-.92-2.08-.39-.25-.8-.37-1.24-.37-.56,0-1.08.1-1.55.29-.47.19-.81.39-1,.61-.19.21-.29.32-.29.32h.08c.05.02.12.04.21.05.09.02.18.06.26.13s.19.13.32.18c.12.05.21.15.26.29.05.14.12.27.21.39.09.12.11.3.08.53,0,.39-.12.73-.37,1.03-.25.3-.64.46-1.18.47-.47,0-.84-.15-1.1-.45-.26-.3-.4-.68-.42-1.16,0-.96.42-1.82,1.26-2.58s1.86-1.13,3.05-1.13c.61,0,1,0,1.16.03,1.3.21,2.29.68,2.97,1.39.68.72,1.03,1.5,1.05,2.34,0,.91-.3,1.8-.89,2.66s-1.42,1.48-2.47,1.87l-.08.05s.08.04.24.08c.16.04.41.11.76.24.35.12.68.31,1,.55,1.44.93,2.16,2.16,2.16,3.68,0,1.39-.54,2.6-1.63,3.63-1.09,1.03-2.46,1.55-4.13,1.55-1.4,0-2.61-.38-3.63-1.13-1.02-.75-1.53-1.71-1.53-2.87,0-.49.16-.89.47-1.18s.71-.46,1.18-.47c.49,0,.89.16,1.21.47.32.32.47.71.47,1.18,0,.19-.03.37-.08.53-.05.16-.11.3-.18.42s-.17.23-.29.32c-.12.09-.23.16-.32.21s-.18.09-.26.11c-.09.02-.16.04-.21.08ZM806.46,156.14l-2.2,2.08,2.83.04c3.89,0,5.97-.06,6.21-.19.17-.05.47-1.15.89-3.31v-.11h1.49v.11c-.02.07-.19,1.2-.48,3.39-.3,2.18-.48,3.32-.56,3.42v.11h-13.81v-1.15c0-.17.07-.36.22-.56.15-.2.52-.63,1.12-1.3.72-.79,1.34-1.49,1.86-2.08.22-.25.64-.71,1.27-1.38.62-.67,1.04-1.13,1.27-1.38.22-.25.58-.66,1.08-1.23s.84-.99,1.04-1.27c.2-.27.48-.64.86-1.12.37-.47.63-.87.78-1.19s.33-.68.56-1.08.38-.79.48-1.19.19-.77.26-1.12c.07-.35.11-.76.11-1.23,0-1.56-.42-2.91-1.27-4.06-.84-1.14-2.05-1.71-3.61-1.71-.82,0-1.54.21-2.16.63-.62.42-1.05.83-1.3,1.23-.25.4-.37.63-.37.71,0,.02.06.04.19.04.45,0,.91.17,1.38.52.47.35.71.92.71,1.71,0,.62-.2,1.14-.6,1.56s-.96.64-1.67.67c-.67,0-1.2-.22-1.6-.67-.4-.45-.6-.99-.6-1.64,0-1.76.66-3.29,1.97-4.58s2.95-1.93,4.91-1.93c2.26,0,4.14.69,5.66,2.08,1.51,1.39,2.28,3.19,2.31,5.4,0,1.07-.25,2.08-.74,3.05-.5.97-1.09,1.81-1.79,2.53s-1.69,1.64-2.98,2.75c-.89.77-2.13,1.91-3.72,3.42ZM785.8,125.74h44.97v2.23h-44.97v-2.23ZM870.37,126.86c0,.3-.19.55-.56.74h-11.09v11.09c-.2.35-.42.52-.67.52h-.15c-.3,0-.52-.17-.67-.52v-11.09h-11.13c-.35-.17-.52-.42-.52-.74s.17-.57.52-.74h11.13v-5.58l.04-5.58c.25-.32.48-.48.71-.48.32,0,.57.19.74.56v11.09h11.09c.37.2.56.45.56.74ZM894.49,113.13c-.57-.55-1.15-.94-1.75-1.19-.6-.25-1.05-.4-1.38-.45-.32-.05-.63-.07-.93-.07h-.15c-.1-.02-.2-.04-.3-.04h-.22c-1.79,0-3.42.74-4.91,2.23-1.71,1.71-2.57,3.72-2.57,6.03v.3c0,.6.02,1.09.07,1.49.25,1.66.99,3.22,2.23,4.69,1.24,1.46,2.83,2.2,4.76,2.2,1.79,0,3.27-.94,4.47-2.83v.26c0,3.42-.48,5.83-1.45,7.22-1.02,1.59-2.27,2.38-3.76,2.38h-.22c-.57.02-1.09-.04-1.56-.19-.47-.15-.79-.27-.97-.37-.17-.1-.26-.17-.26-.22l.15-.04c.15-.05.31-.11.48-.19s.37-.27.6-.6c.22-.32.33-.71.33-1.15,0-.62-.19-1.1-.56-1.45-.37-.35-.83-.52-1.38-.52-1.34-.02-2,.67-1.97,2.08.02,1.41.52,2.48,1.49,3.2.97.72,2.21,1.08,3.72,1.08,1.36-.02,2.65-.42,3.87-1.19,1.22-.77,2.26-1.85,3.13-3.24,1.49-2.41,2.23-5.35,2.23-8.82s-.53-6.23-1.6-8.41c-.5-.92-1.03-1.65-1.6-2.2ZM892.67,125.11c-.72,1.22-1.67,1.82-2.87,1.82s-2.06-.42-2.68-1.27c-.37-.45-.62-1.03-.74-1.75-.12-.72-.19-2.11-.19-4.17.02-1.86.11-3.16.26-3.91.15-.74.48-1.39,1-1.93.67-.67,1.48-1,2.42-1,.67-.02,1.25.1,1.75.37.5.27.87.61,1.12,1,.25.4.42.72.52.97s.17.5.22.74c.2.84.3,2.23.3,4.17-.02,2.08-.4,3.73-1.12,4.95ZM917.71,120.53c.67.55,1.02,1.28,1.04,2.2,0,.72-.17,1.3-.52,1.75-.35.45-.68.72-1,.82-.32.1-.61.15-.86.15-.47,0-.86-.14-1.15-.41-.3-.27-.45-.63-.45-1.08,0-1.14.62-1.92,1.86-2.34-.27-.32-.77-.48-1.49-.48-.32,0-.56.02-.71.07-.94.4-1.64,1.22-2.08,2.46-1.49,5.48-2.23,8.68-2.23,9.6,0,.69.2,1.19.6,1.49.4.3.83.45,1.3.45.92,0,1.82-.41,2.72-1.23.89-.82,1.5-1.82,1.82-3.01.07-.25.15-.38.22-.41.07-.02.27-.05.6-.07h.15c.37,0,.56.1.56.3,0,.02-.02.16-.07.41-.4,1.41-1.17,2.67-2.31,3.76-1.14,1.09-2.47,1.64-3.98,1.64-1.74,0-3.05-.78-3.94-2.34-1.02,1.54-2.18,2.31-3.5,2.31h-.22c-1.22,0-2.08-.32-2.6-.97-.52-.64-.79-1.33-.82-2.05,0-.79.24-1.44.71-1.93s1.03-.74,1.67-.74c1.07,0,1.6.52,1.6,1.56,0,.5-.15.93-.45,1.3-.3.37-.58.62-.86.74-.27.12-.43.19-.48.19l-.11.04s.07.07.22.15c.15.07.35.16.6.26.25.1.48.14.71.11.89,0,1.66-.56,2.31-1.67.22-.4.51-1.24.86-2.53.35-1.29.69-2.63,1.04-4.02.35-1.39.55-2.21.6-2.46.12-.67.19-1.15.19-1.45,0-.69-.19-1.19-.56-1.49-.37-.3-.79-.45-1.27-.45-.99,0-1.92.4-2.79,1.19-.87.79-1.48,1.81-1.82,3.05-.05.22-.11.35-.19.37s-.27.05-.6.07h-.52c-.15-.15-.22-.29-.22-.41.17-1.04.84-2.24,2.01-3.61,1.17-1.36,2.6-2.06,4.32-2.08.87,0,1.66.22,2.38.67.72.45,1.25,1,1.6,1.67,1.04-1.56,2.29-2.34,3.76-2.34.92,0,1.71.27,2.38.82ZM964.06,71.07v2.23h-226.18v-2.23h226.18ZM222.55,289.11c0,5.43.75,9.58,2.26,12.45.7,1.44,1.66,2.61,2.89,3.52,1.23.91,2.29,1.47,3.2,1.68s1.82.32,2.73.32c.88-.04,1.77-.16,2.68-.37s1.98-.75,3.2-1.63c1.23-.88,2.19-2.05,2.89-3.52,1.51-2.87,2.26-7.02,2.26-12.45,0-5.08-.65-9.07-1.94-11.98-1.05-2.31-2.42-3.92-4.1-4.83s-3.36-1.37-5.04-1.37c-3.4,0-6.08,1.42-8.04,4.25-2,3.19-2.99,7.83-2.99,13.92ZM239.1,278.4c.28,1.61.42,4.95.42,10.03-.04,5.22-.18,8.77-.42,10.66s-.88,3.36-1.89,4.41c-.98,1.05-2.17,1.58-3.57,1.58s-2.64-.53-3.62-1.58c-.98-1.02-1.61-2.4-1.89-4.15-.28-1.75-.42-5.39-.42-10.92,0-5.11.14-8.47.42-10.08.28-1.61.86-2.87,1.73-3.78,1.05-1.12,2.31-1.68,3.78-1.68s2.68.56,3.73,1.68c.88.95,1.45,2.22,1.73,3.83ZM251.81,305.03c.6.6,1.35.89,2.26.89s1.66-.32,2.26-.95.89-1.38.89-2.26c-.04-.95-.37-1.7-1-2.26s-1.37-.84-2.21-.84c-.91,0-1.66.32-2.26.95s-.89,1.37-.89,2.21c.04.91.35,1.66.95,2.26ZM270.4,280.66c.49-.6.74-1.28.74-2.05.07-.46.02-.81-.16-1.05s-.32-.51-.42-.79-.28-.47-.53-.58-.46-.23-.63-.37-.35-.23-.53-.26-.32-.07-.42-.11h-.16s.19-.21.58-.63,1.05-.82,2-1.21,1.98-.58,3.1-.58c.88,0,1.7.25,2.47.74,1.23.77,1.84,2.15,1.84,4.15v.42c0,2.63-.49,4.59-1.47,5.88s-2.07,2.03-3.26,2.21c-1.05.18-2.07.26-3.05.26-.28,0-.42.32-.42.95,0,.46.04.74.11.84l.16.11,2.21.05c1.61.04,2.68.16,3.2.37,2.24,1.12,3.36,3.34,3.36,6.67v1.05c0,2.38-.3,4.15-.89,5.3-.98,1.86-2.43,2.78-4.36,2.78-2.56,0-4.73-.79-6.51-2.36l.21-.05c.11-.07.25-.12.42-.16.18-.04.35-.11.53-.21s.39-.25.63-.42.44-.39.58-.63.26-.53.37-.84.16-.67.16-1.05c0-.95-.32-1.73-.95-2.36s-1.44-.95-2.42-.95c-.95.04-1.73.35-2.36.95s-.95,1.38-.95,2.36c0,2.31,1.02,4.22,3.05,5.73,2.03,1.51,4.45,2.26,7.25,2.26,3.33,0,6.08-1.03,8.25-3.1,2.17-2.07,3.26-4.48,3.26-7.25,0-3.05-1.44-5.5-4.31-7.35-.63-.49-1.3-.86-2-1.1s-1.21-.4-1.52-.47-.47-.12-.47-.16l.16-.11c2.1-.77,3.75-2.01,4.94-3.73s1.79-3.48,1.79-5.3c-.04-1.68-.74-3.24-2.1-4.67s-3.34-2.36-5.94-2.78c-.32-.04-1.09-.05-2.31-.05-2.38,0-4.41.75-6.09,2.26s-2.52,3.22-2.52,5.15c.04.95.32,1.72.84,2.31s1.26.89,2.21.89c1.09-.04,1.87-.35,2.36-.95ZM296.66,280.66c.49-.6.74-1.28.74-2.05.07-.46.02-.81-.16-1.05s-.32-.51-.42-.79-.28-.47-.53-.58-.46-.23-.63-.37-.35-.23-.53-.26-.32-.07-.42-.11h-.16s.19-.21.58-.63,1.05-.82,2-1.21,1.98-.58,3.1-.58c.88,0,1.7.25,2.47.74,1.23.77,1.84,2.15,1.84,4.15v.42c0,2.63-.49,4.59-1.47,5.88s-2.07,2.03-3.26,2.21c-1.05.18-2.07.26-3.05.26-.28,0-.42.32-.42.95,0,.46.04.74.11.84l.16.11,2.21.05c1.61.04,2.68.16,3.2.37,2.24,1.12,3.36,3.34,3.36,6.67v1.05c0,2.38-.3,4.15-.89,5.3-.98,1.86-2.43,2.78-4.36,2.78-2.56,0-4.73-.79-6.51-2.36l.21-.05c.11-.07.25-.12.42-.16.18-.04.35-.11.53-.21s.39-.25.63-.42.44-.39.58-.63.26-.53.37-.84.16-.67.16-1.05c0-.95-.32-1.73-.95-2.36s-1.44-.95-2.42-.95c-.95.04-1.73.35-2.36.95s-.95,1.38-.95,2.36c0,2.31,1.02,4.22,3.05,5.73,2.03,1.51,4.45,2.26,7.25,2.26,3.33,0,6.08-1.03,8.25-3.1,2.17-2.07,3.26-4.48,3.26-7.25,0-3.05-1.44-5.5-4.31-7.35-.63-.49-1.3-.86-2-1.1s-1.21-.4-1.52-.47-.47-.12-.47-.16l.16-.11c2.1-.77,3.75-2.01,4.94-3.73s1.79-3.48,1.79-5.3c-.04-1.68-.74-3.24-2.1-4.67s-3.34-2.36-5.94-2.78c-.32-.04-1.09-.05-2.31-.05-2.38,0-4.41.75-6.09,2.26s-2.52,3.22-2.52,5.15c.04.95.32,1.72.84,2.31s1.26.89,2.21.89c1.09-.04,1.87-.35,2.36-.95ZM322.92,280.66c.49-.6.74-1.28.74-2.05.07-.46.02-.81-.16-1.05s-.32-.51-.42-.79-.28-.47-.53-.58-.46-.23-.63-.37-.35-.23-.53-.26-.32-.07-.42-.11h-.16s.19-.21.58-.63,1.05-.82,2-1.21,1.98-.58,3.1-.58c.88,0,1.7.25,2.47.74,1.23.77,1.84,2.15,1.84,4.15v.42c0,2.63-.49,4.59-1.47,5.88s-2.07,2.03-3.26,2.21c-1.05.18-2.07.26-3.05.26-.28,0-.42.32-.42.95,0,.46.04.74.11.84l.16.11,2.21.05c1.61.04,2.68.16,3.2.37,2.24,1.12,3.36,3.34,3.36,6.67v1.05c0,2.38-.3,4.15-.89,5.3-.98,1.86-2.43,2.78-4.36,2.78-2.56,0-4.73-.79-6.51-2.36l.21-.05c.11-.07.25-.12.42-.16.18-.04.35-.11.53-.21s.39-.25.63-.42.44-.39.58-.63.26-.53.37-.84.16-.67.16-1.05c0-.95-.32-1.73-.95-2.36s-1.44-.95-2.42-.95c-.95.04-1.73.35-2.36.95s-.95,1.38-.95,2.36c0,2.31,1.02,4.22,3.05,5.73,2.03,1.51,4.45,2.26,7.25,2.26,3.33,0,6.08-1.03,8.25-3.1,2.17-2.07,3.26-4.48,3.26-7.25,0-3.05-1.44-5.5-4.31-7.35-.63-.49-1.3-.86-2-1.1s-1.21-.4-1.52-.47-.47-.12-.47-.16l.16-.11c2.1-.77,3.75-2.01,4.94-3.73s1.79-3.48,1.79-5.3c-.04-1.68-.74-3.24-2.1-4.67s-3.34-2.36-5.94-2.78c-.32-.04-1.09-.05-2.31-.05-2.38,0-4.41.75-6.09,2.26s-2.52,3.22-2.52,5.15c.04.95.32,1.72.84,2.31s1.26.89,2.21.89c1.09-.04,1.87-.35,2.36-.95ZM349.19,280.66c.49-.6.74-1.28.74-2.05.07-.46.02-.81-.16-1.05s-.32-.51-.42-.79-.28-.47-.53-.58-.46-.23-.63-.37-.35-.23-.53-.26-.32-.07-.42-.11h-.16s.19-.21.58-.63,1.05-.82,2-1.21,1.98-.58,3.1-.58c.88,0,1.7.25,2.47.74,1.23.77,1.84,2.15,1.84,4.15v.42c0,2.63-.49,4.59-1.47,5.88s-2.07,2.03-3.26,2.21c-1.05.18-2.07.26-3.05.26-.28,0-.42.32-.42.95,0,.46.04.74.11.84l.16.11,2.21.05c1.61.04,2.68.16,3.2.37,2.24,1.12,3.36,3.34,3.36,6.67v1.05c0,2.38-.3,4.15-.89,5.3-.98,1.86-2.43,2.78-4.36,2.78-2.56,0-4.73-.79-6.51-2.36l.21-.05c.11-.07.25-.12.42-.16.18-.04.35-.11.53-.21s.39-.25.63-.42.44-.39.58-.63.26-.53.37-.84.16-.67.16-1.05c0-.95-.32-1.73-.95-2.36s-1.44-.95-2.42-.95c-.95.04-1.73.35-2.36.95s-.95,1.38-.95,2.36c0,2.31,1.02,4.22,3.05,5.73,2.03,1.51,4.45,2.26,7.25,2.26,3.33,0,6.08-1.03,8.25-3.1,2.17-2.07,3.26-4.48,3.26-7.25,0-3.05-1.44-5.5-4.31-7.35-.63-.49-1.3-.86-2-1.1s-1.21-.4-1.52-.47-.47-.12-.47-.16l.16-.11c2.1-.77,3.75-2.01,4.94-3.73s1.79-3.48,1.79-5.3c-.04-1.68-.74-3.24-2.1-4.67s-3.34-2.36-5.94-2.78c-.32-.04-1.09-.05-2.31-.05-2.38,0-4.41.75-6.09,2.26s-2.52,3.22-2.52,5.15c.04.95.32,1.72.84,2.31s1.26.89,2.21.89c1.09-.04,1.87-.35,2.36-.95ZM375.45,280.66c.49-.6.74-1.28.74-2.05.07-.46.02-.81-.16-1.05s-.32-.51-.42-.79-.28-.47-.53-.58-.46-.23-.63-.37-.35-.23-.53-.26-.32-.07-.42-.11h-.16s.19-.21.58-.63,1.05-.82,2-1.21,1.98-.58,3.1-.58c.88,0,1.7.25,2.47.74,1.23.77,1.84,2.15,1.84,4.15v.42c0,2.63-.49,4.59-1.47,5.88s-2.07,2.03-3.26,2.21c-1.05.18-2.07.26-3.05.26-.28,0-.42.32-.42.95,0,.46.04.74.11.84l.16.11,2.21.05c1.61.04,2.68.16,3.2.37,2.24,1.12,3.36,3.34,3.36,6.67v1.05c0,2.38-.3,4.15-.89,5.3-.98,1.86-2.43,2.78-4.36,2.78-2.56,0-4.73-.79-6.51-2.36l.21-.05c.11-.07.25-.12.42-.16.18-.04.35-.11.53-.21s.39-.25.63-.42.44-.39.58-.63.26-.53.37-.84.16-.67.16-1.05c0-.95-.32-1.73-.95-2.36s-1.44-.95-2.42-.95c-.95.04-1.73.35-2.36.95s-.95,1.38-.95,2.36c0,2.31,1.02,4.22,3.05,5.73,2.03,1.51,4.45,2.26,7.25,2.26,3.33,0,6.08-1.03,8.25-3.1,2.17-2.07,3.26-4.48,3.26-7.25,0-3.05-1.44-5.5-4.31-7.35-.63-.49-1.3-.86-2-1.1s-1.21-.4-1.52-.47-.47-.12-.47-.16l.16-.11c2.1-.77,3.75-2.01,4.94-3.73s1.79-3.48,1.79-5.3c-.04-1.68-.74-3.24-2.1-4.67s-3.34-2.36-5.94-2.78c-.32-.04-1.09-.05-2.31-.05-2.38,0-4.41.75-6.09,2.26s-2.52,3.22-2.52,5.15c.04.95.32,1.72.84,2.31s1.26.89,2.21.89c1.09-.04,1.87-.35,2.36-.95ZM401.71,280.66c.49-.6.74-1.28.74-2.05.07-.46.02-.81-.16-1.05s-.32-.51-.42-.79-.28-.47-.53-.58-.46-.23-.63-.37-.35-.23-.53-.26-.32-.07-.42-.11h-.16s.19-.21.58-.63,1.05-.82,2-1.21,1.98-.58,3.1-.58c.88,0,1.7.25,2.47.74,1.23.77,1.84,2.15,1.84,4.15v.42c0,2.63-.49,4.59-1.47,5.88s-2.07,2.03-3.26,2.21c-1.05.18-2.07.26-3.05.26-.28,0-.42.32-.42.95,0,.46.04.74.11.84l.16.11,2.21.05c1.61.04,2.68.16,3.2.37,2.24,1.12,3.36,3.34,3.36,6.67v1.05c0,2.38-.3,4.15-.89,5.3-.98,1.86-2.43,2.78-4.36,2.78-2.56,0-4.73-.79-6.51-2.36l.21-.05c.11-.07.25-.12.42-.16.18-.04.35-.11.53-.21s.39-.25.63-.42.44-.39.58-.63.26-.53.37-.84.16-.67.16-1.05c0-.95-.32-1.73-.95-2.36s-1.44-.95-2.42-.95c-.95.04-1.73.35-2.36.95s-.95,1.38-.95,2.36c0,2.31,1.02,4.22,3.05,5.73,2.03,1.51,4.45,2.26,7.25,2.26,3.33,0,6.08-1.03,8.25-3.1,2.17-2.07,3.26-4.48,3.26-7.25,0-3.05-1.44-5.5-4.31-7.35-.63-.49-1.3-.86-2-1.1s-1.21-.4-1.52-.47-.47-.12-.47-.16l.16-.11c2.1-.77,3.75-2.01,4.94-3.73s1.79-3.48,1.79-5.3c-.04-1.68-.74-3.24-2.1-4.67s-3.34-2.36-5.94-2.78c-.32-.04-1.09-.05-2.31-.05-2.38,0-4.41.75-6.09,2.26s-2.52,3.22-2.52,5.15c.04.95.32,1.72.84,2.31s1.26.89,2.21.89c1.09-.04,1.87-.35,2.36-.95ZM427.97,280.66c.49-.6.74-1.28.74-2.05.07-.46.02-.81-.16-1.05s-.32-.51-.42-.79-.28-.47-.53-.58-.46-.23-.63-.37-.35-.23-.53-.26-.32-.07-.42-.11h-.16s.19-.21.58-.63,1.05-.82,2-1.21,1.98-.58,3.1-.58c.88,0,1.7.25,2.47.74,1.23.77,1.84,2.15,1.84,4.15v.42c0,2.63-.49,4.59-1.47,5.88s-2.07,2.03-3.26,2.21c-1.05.18-2.07.26-3.05.26-.28,0-.42.32-.42.95,0,.46.04.74.11.84l.16.11,2.21.05c1.61.04,2.68.16,3.2.37,2.24,1.12,3.36,3.34,3.36,6.67v1.05c0,2.38-.3,4.15-.89,5.3-.98,1.86-2.43,2.78-4.36,2.78-2.56,0-4.73-.79-6.51-2.36l.21-.05c.11-.07.25-.12.42-.16.18-.04.35-.11.53-.21s.39-.25.63-.42.44-.39.58-.63.26-.53.37-.84.16-.67.16-1.05c0-.95-.32-1.73-.95-2.36s-1.44-.95-2.42-.95c-.95.04-1.73.35-2.36.95s-.95,1.38-.95,2.36c0,2.31,1.02,4.22,3.05,5.73,2.03,1.51,4.45,2.26,7.25,2.26,3.33,0,6.08-1.03,8.25-3.1,2.17-2.07,3.26-4.48,3.26-7.25,0-3.05-1.44-5.5-4.31-7.35-.63-.49-1.3-.86-2-1.1s-1.21-.4-1.52-.47-.47-.12-.47-.16l.16-.11c2.1-.77,3.75-2.01,4.94-3.73s1.79-3.48,1.79-5.3c-.04-1.68-.74-3.24-2.1-4.67s-3.34-2.36-5.94-2.78c-.32-.04-1.09-.05-2.31-.05-2.38,0-4.41.75-6.09,2.26s-2.52,3.22-2.52,5.15c.04.95.32,1.72.84,2.31s1.26.89,2.21.89c1.09-.04,1.87-.35,2.36-.95ZM459,305.03c.6.6,1.35.89,2.26.89s1.66-.32,2.26-.95.89-1.38.89-2.26c-.04-.95-.37-1.7-1-2.26s-1.37-.84-2.21-.84c-.91,0-1.66.32-2.26.95s-.89,1.37-.89,2.21c.04.91.35,1.66.95,2.26ZM482.48,305.03c.6.6,1.35.89,2.26.89s1.66-.32,2.26-.95.89-1.38.89-2.26c-.04-.95-.37-1.7-1-2.26s-1.37-.84-2.21-.84c-.91,0-1.66.32-2.26.95s-.89,1.37-.89,2.21c.04.91.35,1.66.95,2.26ZM505.95,305.03c.6.6,1.35.89,2.26.89s1.66-.32,2.26-.95.89-1.38.89-2.26c-.04-.95-.37-1.7-1-2.26s-1.37-.84-2.21-.84c-.91,0-1.66.32-2.26.95s-.89,1.37-.89,2.21c.04.91.35,1.66.95,2.26ZM496,418.16c0,11.45,1.59,20.2,4.76,26.26,1.48,3.03,3.51,5.5,6.09,7.42,2.59,1.92,4.84,3.1,6.76,3.55s3.84.66,5.76.66c1.85-.07,3.73-.33,5.65-.78s4.17-1.59,6.76-3.43c2.59-1.85,4.62-4.32,6.09-7.42,3.18-6.06,4.76-14.81,4.76-26.26,0-10.71-1.37-19.13-4.1-25.26-2.22-4.87-5.1-8.27-8.64-10.19s-7.09-2.88-10.64-2.88c-7.16,0-12.82,2.99-16.95,8.97-4.21,6.72-6.32,16.51-6.32,29.36ZM530.9,395.56c.59,3.4.89,10.45.89,21.16-.07,11.01-.37,18.5-.89,22.49s-1.85,7.09-3.99,9.31c-2.07,2.22-4.58,3.32-7.53,3.32s-5.58-1.11-7.64-3.32c-2.07-2.14-3.4-5.06-3.99-8.75-.59-3.69-.89-11.37-.89-23.04,0-10.78.3-17.87.89-21.27.59-3.4,1.81-6.06,3.66-7.98,2.22-2.36,4.87-3.55,7.98-3.55s5.65,1.18,7.87,3.55c1.85,1.99,3.07,4.69,3.66,8.09ZM557.71,451.73c1.26,1.26,2.84,1.88,4.76,1.88s3.51-.66,4.76-1.99,1.88-2.92,1.88-4.76c-.07-1.99-.78-3.58-2.11-4.76s-2.88-1.77-4.65-1.77c-1.92,0-3.51.66-4.76,1.99s-1.88,2.88-1.88,4.65c.07,1.92.74,3.51,1.99,4.76ZM582.2,418.16c0,11.45,1.59,20.2,4.76,26.26,1.48,3.03,3.51,5.5,6.09,7.42,2.59,1.92,4.84,3.1,6.76,3.55s3.84.66,5.76.66c1.85-.07,3.73-.33,5.65-.78s4.17-1.59,6.76-3.43c2.59-1.85,4.62-4.32,6.09-7.42,3.18-6.06,4.76-14.81,4.76-26.26,0-10.71-1.37-19.13-4.1-25.26-2.22-4.87-5.1-8.27-8.64-10.19s-7.09-2.88-10.64-2.88c-7.16,0-12.82,2.99-16.95,8.97-4.21,6.72-6.32,16.51-6.32,29.36ZM617.1,395.56c.59,3.4.89,10.45.89,21.16-.07,11.01-.37,18.5-.89,22.49s-1.85,7.09-3.99,9.31c-2.07,2.22-4.58,3.32-7.53,3.32s-5.58-1.11-7.64-3.32c-2.07-2.14-3.4-5.06-3.99-8.75-.59-3.69-.89-11.37-.89-23.04,0-10.78.3-17.87.89-21.27.59-3.4,1.81-6.06,3.66-7.98,2.22-2.36,4.87-3.55,7.98-3.55s5.65,1.18,7.87,3.55c1.85,1.99,3.07,4.69,3.66,8.09ZM637.59,418.16c0,11.45,1.59,20.2,4.76,26.26,1.48,3.03,3.51,5.5,6.09,7.42,2.59,1.92,4.84,3.1,6.76,3.55s3.84.66,5.76.66c1.85-.07,3.73-.33,5.65-.78s4.17-1.59,6.76-3.43c2.59-1.85,4.62-4.32,6.09-7.42,3.18-6.06,4.76-14.81,4.76-26.26,0-10.71-1.37-19.13-4.1-25.26-2.22-4.87-5.1-8.27-8.64-10.19-3.55-1.92-7.09-2.88-10.64-2.88-7.16,0-12.82,2.99-16.95,8.97-4.21,6.72-6.32,16.51-6.32,29.36ZM672.49,395.56c.59,3.4.89,10.45.89,21.16-.07,11.01-.37,18.5-.89,22.49-.52,3.99-1.85,7.09-3.99,9.31-2.07,2.22-4.58,3.32-7.53,3.32s-5.58-1.11-7.64-3.32c-2.07-2.14-3.4-5.06-3.99-8.75-.59-3.69-.89-11.37-.89-23.04,0-10.78.3-17.87.89-21.27.59-3.4,1.81-6.06,3.66-7.98,2.22-2.36,4.87-3.55,7.98-3.55s5.65,1.18,7.87,3.55c1.85,1.99,3.07,4.69,3.66,8.09ZM712.27,446.85c-.07-.07-.3.07-.66.44s-.59.55-.66.55-.37.07-.89.22-1.11.26-1.77.33-1.59.11-2.77.11h-7.09v5.1h1.33c1.55-.22,7.35-.33,17.39-.33s16.06.11,17.62.33h1.22v-5.1h-2.88c-3.18,0-5.47-.07-6.87-.22s-2.29-.3-2.66-.44-.81-.48-1.33-1l-.11-33.24v-33.13c-.59-.44-1.22-.66-1.88-.66-.74,0-1.18.11-1.33.33-.89.81-1.92,1.62-3.1,2.44s-3.25,1.7-6.2,2.66-6.17,1.51-9.64,1.66h-2.11v5.1h2.11c2.36-.15,4.51-.41,6.43-.78s3.4-.74,4.43-1.11l1.44-.55v57.28ZM466.05,79.32c0,8.61,1.19,15.2,3.58,19.75,1.11,2.28,2.64,4.14,4.58,5.58,1.94,1.44,3.64,2.33,5.08,2.67s2.89.5,4.33.5c1.39-.06,2.81-.25,4.25-.58s3.14-1.19,5.08-2.58c1.94-1.39,3.47-3.25,4.58-5.58,2.39-4.56,3.58-11.14,3.58-19.75,0-8.06-1.03-14.39-3.08-19-1.67-3.67-3.83-6.22-6.5-7.67s-5.33-2.17-8-2.17c-5.39,0-9.64,2.25-12.75,6.75-3.17,5.06-4.75,12.42-4.75,22.09ZM492.3,62.32c.44,2.56.67,7.86.67,15.92-.06,8.28-.28,13.92-.67,16.92s-1.39,5.33-3,7c-1.56,1.67-3.44,2.5-5.67,2.5s-4.19-.83-5.75-2.5c-1.56-1.61-2.56-3.81-3-6.58-.44-2.78-.67-8.56-.67-17.33,0-8.11.22-13.45.67-16,.44-2.56,1.36-4.56,2.75-6,1.67-1.78,3.67-2.67,6-2.67s4.25.89,5.92,2.67c1.39,1.5,2.31,3.53,2.75,6.08ZM512.47,104.57c.94.94,2.14,1.42,3.58,1.42s2.64-.5,3.58-1.5,1.42-2.19,1.42-3.58c-.06-1.5-.58-2.69-1.58-3.58s-2.17-1.33-3.5-1.33c-1.44,0-2.64.5-3.58,1.5s-1.42,2.17-1.42,3.5c.06,1.44.56,2.64,1.5,3.58ZM539.06,107.15c2.39,7.06,6.19,12.95,11.42,17.67l2.33,2h1.33c.83,0,1.25-.25,1.25-.75,0-.06-.47-.64-1.42-1.75s-2.11-2.58-3.5-4.42-2.75-4.22-4.08-7.17c-1.33-2.94-2.47-6.81-3.42-11.58-.94-4.78-1.42-10.11-1.42-16s.47-11.25,1.42-16.08,2.11-8.67,3.5-11.5,2.75-5.22,4.08-7.17,2.47-3.42,3.42-4.42,1.42-1.58,1.42-1.75c0-.5-.39-.75-1.17-.75h-1.42c-1.11.83-1.81,1.42-2.08,1.75s-1.19,1.28-2.75,2.83c-1.56,1.56-2.72,3-3.5,4.33s-1.83,3.19-3.17,5.58-2.36,4.83-3.08,7.33c-.72,2.5-1.36,5.47-1.92,8.92s-.83,7.08-.83,10.92c0,7.61,1.19,14.95,3.58,22ZM564.73,91.65c.83,3.33,1.83,6.03,3,8.08,1.17,2.06,2.58,3.69,4.25,4.92,1.67,1.22,3.22,2.06,4.67,2.5,1.44.44,2.94.67,4.5.67,4.5,0,8.22-1.56,11.17-4.67,2.94-3.11,4.72-6.31,5.33-9.58.28-1.11.42-2.31.42-3.58v-1.5c0-3.22-.58-6.19-1.75-8.92-.83-1.72-1.92-3.31-3.25-4.75s-2.67-2.56-4-3.33c-1.94-1.06-4.19-1.58-6.75-1.58h-.33c-3.67,0-6.64,1.67-8.92,5-.17.39-.39.75-.67,1.08l-.08-.33c0-7.56,1.31-13.17,3.92-16.83,2.56-3.33,5.81-5,9.75-5,2.22.17,3.94.86,5.17,2.08-2.61.5-3.92,1.97-3.92,4.42,0,1.39.42,2.47,1.25,3.25.83.78,1.89,1.17,3.17,1.17,1.39,0,2.47-.42,3.25-1.25s1.17-1.94,1.17-3.33c0-2.44-.83-4.67-2.5-6.67-1.67-2-4.42-3-8.25-3-5.5,0-10.5,2.64-15,7.92-4.5,5.28-6.75,12.45-6.75,21.5-.06,4.5.33,8.42,1.17,11.75ZM587.48,75.9c.72,1,1.22,2.25,1.5,3.75s.42,4.47.42,8.92-.14,7.25-.42,8.75-.78,2.75-1.5,3.75c-1.5,2.11-3.67,3.17-6.5,3.17-1.61,0-3.08-.5-4.42-1.5-1.44-1.22-2.5-2.83-3.17-4.83s-1-5.31-1-9.92c.06-1.83.22-3.56.5-5.17s.75-3.19,1.42-4.75,1.61-2.81,2.83-3.75,2.67-1.42,4.33-1.42c2.5,0,4.5,1,6,3ZM631.06,82.65c0,7.67-1.08,13.06-3.25,16.17-2.28,3.56-5.08,5.33-8.42,5.33h-.5c-1.28.06-2.44-.08-3.5-.42s-1.78-.61-2.17-.83-.58-.39-.58-.5l.33-.08c.33-.11.69-.25,1.08-.42s.83-.61,1.33-1.33c.5-.72.75-1.58.75-2.58,0-1.39-.42-2.47-1.25-3.25-.83-.78-1.86-1.17-3.08-1.17-3-.06-4.47,1.5-4.42,4.67.06,3.17,1.17,5.56,3.33,7.17,2.17,1.61,4.94,2.42,8.33,2.42,3.06-.06,5.94-.94,8.67-2.67,2.72-1.72,5.06-4.14,7-7.25,3.33-5.39,5-11.97,5-19.75s-1.19-13.95-3.58-18.83c-1.11-2.06-2.31-3.69-3.58-4.92s-2.58-2.11-3.92-2.67-2.36-.89-3.08-1-1.42-.17-2.08-.17h-.33c-.22-.06-.44-.08-.67-.08h-.5c-4,0-7.67,1.67-11,5-3.83,3.83-5.75,8.33-5.75,13.5v.67c0,1.33.06,2.44.17,3.33.56,3.72,2.22,7.22,5,10.5,2.78,3.28,6.33,4.92,10.67,4.92,4,0,7.33-2.11,10-6.33v.58ZM616.06,82.49c-.83-1-1.39-2.31-1.67-3.92s-.42-4.72-.42-9.33c.06-4.17.25-7.08.58-8.75s1.08-3.11,2.25-4.33c1.5-1.5,3.31-2.25,5.42-2.25,1.5-.06,2.81.22,3.92.83s1.94,1.36,2.5,2.25.94,1.61,1.17,2.17.39,1.11.5,1.67c.44,1.89.67,5,.67,9.33-.06,4.67-.89,8.36-2.5,11.08s-3.75,4.08-6.42,4.08-4.61-.94-6-2.83ZM647.98,44.48c.06.06.36.42.92,1.08,8.61,8.95,12.92,22.14,12.92,39.59s-4.31,30.64-12.92,39.59c-.56.67-.86,1.03-.92,1.08.06.33.14.58.25.75s.25.25.42.25h1.92c.06-.06.17-.17.33-.33,1-.78,1.64-1.31,1.92-1.58s1.17-1.19,2.67-2.75,2.64-2.97,3.42-4.25c.78-1.28,1.83-3.14,3.17-5.58,1.33-2.44,2.36-4.89,3.08-7.33.72-2.44,1.36-5.42,1.92-8.92s.83-7.14.83-10.92c0-7.61-1.19-14.95-3.58-22-2.39-7.06-6.19-12.95-11.42-17.67l-2.33-2h-1.83l-.33.08c-.28.17-.42.47-.42.92ZM48.69,94.56c-.05-.05-.22.05-.49.33s-.43.41-.49.41-.27.05-.65.16-.81.19-1.3.24-1.17.08-2.03.08h-5.21v3.74h.98c1.14-.16,5.4-.24,12.77-.24s11.8.08,12.94.24h.9v-3.74h-2.12c-2.33,0-4.01-.05-5.04-.16s-1.68-.22-1.95-.33-.6-.35-.98-.73l-.08-24.41v-24.33c-.43-.33-.9-.49-1.38-.49-.54,0-.87.08-.98.24-.65.6-1.41,1.19-2.28,1.79s-2.39,1.25-4.56,1.95-4.53,1.11-7.08,1.22h-1.55v3.74h1.55c1.74-.11,3.31-.3,4.72-.57s2.5-.54,3.25-.81l1.06-.41v42.07ZM102.46,72.91c.92.92,2.09,1.38,3.5,1.38s2.58-.49,3.5-1.46,1.38-2.14,1.38-3.5c-.05-1.46-.57-2.63-1.55-3.5s-2.12-1.3-3.42-1.3c-1.41,0-2.58.49-3.5,1.46s-1.38,2.12-1.38,3.42c.05,1.41.54,2.58,1.46,3.5ZM102.46,98.14c.92.92,2.09,1.38,3.5,1.38s2.58-.49,3.5-1.46,1.38-2.14,1.38-3.5c-.05-1.46-.57-2.63-1.55-3.5s-2.12-1.3-3.42-1.3c-1.41,0-2.58.49-3.5,1.46s-1.38,2.12-1.38,3.42c.05,1.41.54,2.58,1.46,3.5ZM153.87,60.38c.76-.92,1.14-1.98,1.14-3.17.11-.71.03-1.25-.24-1.63s-.49-.79-.65-1.22-.43-.73-.81-.9-.71-.35-.98-.57-.54-.35-.81-.41-.49-.11-.65-.16h-.24s.3-.33.9-.98,1.63-1.27,3.09-1.87,3.06-.9,4.8-.9c1.36,0,2.63.38,3.82,1.14,1.9,1.19,2.85,3.34,2.85,6.43v.65c0,4.07-.76,7.11-2.28,9.11s-3.2,3.15-5.04,3.42c-1.63.27-3.2.41-4.72.41-.43,0-.65.49-.65,1.46,0,.71.05,1.14.16,1.3l.24.16,3.42.08c2.5.05,4.15.24,4.96.57,3.47,1.74,5.21,5.18,5.21,10.33v1.63c0,3.69-.46,6.43-1.38,8.22-1.52,2.87-3.77,4.31-6.75,4.31-3.96,0-7.32-1.22-10.09-3.66l.33-.08c.16-.11.38-.19.65-.24.27-.05.54-.16.81-.33s.6-.38.98-.65.68-.6.9-.98.41-.81.57-1.3.24-1.03.24-1.63c0-1.46-.49-2.69-1.46-3.66s-2.22-1.46-3.74-1.46c-1.46.05-2.69.54-3.66,1.46s-1.46,2.14-1.46,3.66c0,3.58,1.57,6.54,4.72,8.87,3.15,2.33,6.89,3.5,11.23,3.5,5.15,0,9.41-1.6,12.77-4.8,3.36-3.2,5.04-6.94,5.04-11.23,0-4.72-2.22-8.52-6.67-11.39-.98-.76-2.01-1.33-3.09-1.71s-1.87-.62-2.36-.73-.73-.19-.73-.24l.24-.16c3.25-1.19,5.8-3.12,7.65-5.78s2.77-5.4,2.77-8.22c-.05-2.6-1.14-5.02-3.25-7.24s-5.18-3.66-9.19-4.31c-.49-.05-1.68-.08-3.58-.08-3.69,0-6.83,1.17-9.44,3.5s-3.91,4.99-3.91,7.97c.05,1.46.49,2.66,1.3,3.58s1.95,1.38,3.42,1.38c1.68-.05,2.9-.54,3.66-1.46ZM210.96,72.91c.92.92,2.09,1.38,3.5,1.38s2.58-.49,3.5-1.46,1.38-2.14,1.38-3.5c-.05-1.46-.57-2.63-1.55-3.5s-2.12-1.3-3.42-1.3c-1.41,0-2.58.49-3.5,1.46s-1.38,2.12-1.38,3.42c.05,1.41.54,2.58,1.46,3.5ZM210.96,98.14c.92.92,2.09,1.38,3.5,1.38s2.58-.49,3.5-1.46,1.38-2.14,1.38-3.5c-.05-1.46-.57-2.63-1.55-3.5s-2.12-1.3-3.42-1.3c-1.41,0-2.58.49-3.5,1.46s-1.38,2.12-1.38,3.42c.05,1.41.54,2.58,1.46,3.5ZM252.93,85.52c.81,3.25,1.79,5.89,2.93,7.89,1.14,2.01,2.52,3.61,4.15,4.8,1.63,1.19,3.15,2.01,4.56,2.44,1.41.43,2.87.65,4.39.65,4.39,0,8.03-1.52,10.9-4.56,2.87-3.04,4.61-6.16,5.21-9.36.27-1.08.41-2.25.41-3.5v-1.46c0-3.15-.57-6.05-1.71-8.71-.81-1.68-1.87-3.23-3.17-4.64s-2.6-2.5-3.91-3.25c-1.9-1.03-4.1-1.55-6.59-1.55h-.33c-3.58,0-6.48,1.63-8.71,4.88-.16.38-.38.73-.65,1.06l-.08-.33c0-7.38,1.27-12.86,3.82-16.44,2.5-3.25,5.67-4.88,9.52-4.88,2.17.16,3.85.84,5.04,2.03-2.55.49-3.82,1.93-3.82,4.31,0,1.36.41,2.41,1.22,3.17.81.76,1.84,1.14,3.09,1.14,1.36,0,2.41-.41,3.17-1.22s1.14-1.9,1.14-3.25c0-2.39-.81-4.56-2.44-6.51s-4.31-2.93-8.06-2.93c-5.37,0-10.25,2.58-14.65,7.73-4.39,5.15-6.59,12.15-6.59,20.99-.05,4.39.33,8.22,1.14,11.47ZM275.14,70.15c.71.98,1.19,2.2,1.46,3.66s.41,4.37.41,8.71-.14,7.08-.41,8.54-.76,2.69-1.46,3.66c-1.46,2.06-3.58,3.09-6.35,3.09-1.57,0-3.01-.49-4.31-1.46-1.41-1.19-2.44-2.77-3.09-4.72s-.98-5.18-.98-9.68c.05-1.79.22-3.47.49-5.04s.73-3.12,1.38-4.64,1.57-2.74,2.77-3.66,2.6-1.38,4.23-1.38c2.44,0,4.39.98,5.86,2.93ZM82.49,436c0,11-1.55,18.72-4.66,23.19-3.27,5.1-7.29,7.65-12.07,7.65h-.72c-1.83.08-3.51-.12-5.02-.6s-2.55-.88-3.11-1.2-.84-.56-.84-.72l.48-.12c.48-.16,1-.36,1.55-.6s1.2-.88,1.91-1.91c.72-1.04,1.08-2.27,1.08-3.71,0-1.99-.6-3.55-1.79-4.66-1.2-1.12-2.67-1.67-4.42-1.67-4.3-.08-6.41,2.15-6.33,6.69s1.67,7.97,4.78,10.28c3.11,2.31,7.09,3.47,11.95,3.47,4.38-.08,8.53-1.35,12.43-3.82,3.9-2.47,7.25-5.94,10.04-10.4,4.78-7.73,7.17-17.17,7.17-28.33s-1.71-20-5.14-27.01c-1.59-2.95-3.31-5.3-5.14-7.05s-3.71-3.03-5.62-3.82-3.39-1.27-4.42-1.43-2.03-.24-2.99-.24h-.48c-.32-.08-.64-.12-.96-.12h-.72c-5.74,0-11,2.39-15.78,7.17-5.5,5.5-8.25,11.95-8.25,19.36v.96c0,1.91.08,3.51.24,4.78.8,5.34,3.19,10.36,7.17,15.06,3.98,4.7,9.08,7.05,15.3,7.05,5.74,0,10.52-3.03,14.34-9.08v.84ZM60.98,435.76c-1.2-1.43-1.99-3.31-2.39-5.62s-.6-6.77-.6-13.39c.08-5.98.36-10.16.84-12.55s1.55-4.46,3.23-6.22c2.15-2.15,4.74-3.23,7.77-3.23,2.15-.08,4.02.32,5.62,1.2s2.79,1.95,3.59,3.23,1.35,2.31,1.67,3.11.56,1.59.72,2.39c.64,2.71.96,7.17.96,13.39-.08,6.69-1.27,11.99-3.59,15.9-2.31,3.9-5.38,5.86-9.2,5.86s-6.61-1.35-8.61-4.06ZM142.25,436c0,11-1.55,18.72-4.66,23.19-3.27,5.1-7.29,7.65-12.07,7.65h-.72c-1.83.08-3.51-.12-5.02-.6s-2.55-.88-3.11-1.2-.84-.56-.84-.72l.48-.12c.48-.16,1-.36,1.55-.6s1.2-.88,1.91-1.91c.72-1.04,1.08-2.27,1.08-3.71,0-1.99-.6-3.55-1.79-4.66-1.2-1.12-2.67-1.67-4.42-1.67-4.3-.08-6.41,2.15-6.33,6.69s1.67,7.97,4.78,10.28c3.11,2.31,7.09,3.47,11.95,3.47,4.38-.08,8.53-1.35,12.43-3.82,3.9-2.47,7.25-5.94,10.04-10.4,4.78-7.73,7.17-17.17,7.17-28.33s-1.71-20-5.14-27.01c-1.59-2.95-3.31-5.3-5.14-7.05s-3.71-3.03-5.62-3.82-3.39-1.27-4.42-1.43-2.03-.24-2.99-.24h-.48c-.32-.08-.64-.12-.96-.12h-.72c-5.74,0-11,2.39-15.78,7.17-5.5,5.5-8.25,11.95-8.25,19.36v.96c0,1.91.08,3.51.24,4.78.8,5.34,3.19,10.36,7.17,15.06,3.98,4.7,9.08,7.05,15.3,7.05,5.74,0,10.52-3.03,14.34-9.08v.84ZM120.74,435.76c-1.2-1.43-1.99-3.31-2.39-5.62s-.6-6.77-.6-13.39c.08-5.98.36-10.16.84-12.55s1.55-4.46,3.23-6.22c2.15-2.15,4.74-3.23,7.77-3.23,2.15-.08,4.02.32,5.62,1.2s2.79,1.95,3.59,3.23,1.35,2.31,1.67,3.11.56,1.59.72,2.39c.64,2.71.96,7.17.96,13.39-.08,6.69-1.27,11.99-3.59,15.9-2.31,3.9-5.38,5.86-9.2,5.86s-6.61-1.35-8.61-4.06ZM229.38,394.17s-2.23,3.35-6.69,10.04c-4.46,6.69-10.92,16.33-19.36,28.92-17.53,26.14-26.33,39.32-26.41,39.56-.4.72-.4,1.43,0,2.15.4.88,1.12,1.31,2.15,1.31.48,0,.88-.16,1.2-.48.64-.4,21.47-31.39,62.51-92.99.08-.8-.12-1.47-.6-2.03s-1.08-.84-1.79-.84c-.24,0-.44.04-.6.12-.48.08-1.2.76-2.15,2.03-5.58,7.17-12.99,10.76-22.23,10.76-8.37,0-16.02-3.07-22.95-9.2-2.47-2.47-5.26-3.71-8.37-3.71-4.46.08-8.49,2.35-12.07,6.81s-5.38,10.24-5.38,17.33c.08,7.25,1.87,13.07,5.38,17.45,3.51,4.38,7.53,6.57,12.07,6.57,4.14-.08,7.77-2.31,10.88-6.69s4.66-10.16,4.66-17.33c0-4.78-.52-8.49-1.55-11.12.08,0,.92.36,2.51,1.08s3.74,1.43,6.45,2.15,5.54,1.08,8.49,1.08c5.02,0,9.64-1,13.86-2.99ZM184.2,423.45c-1.59,0-3.11-.72-4.54-2.15-2.63-2.63-3.94-7.57-3.94-14.82v-2.51c0-3.74.08-6.41.24-8.01.4-2.47.92-4.58,1.55-6.33s1.43-2.95,2.39-3.59,1.71-1.08,2.27-1.31,1.12-.36,1.67-.36c3.35.08,6.02,1.99,8.01,5.74,1.99,3.74,2.99,8.37,2.99,13.86-.08,6.29-1.24,11.12-3.47,14.46-2.23,3.35-4.46,5.02-6.69,5.02h-.48ZM225.08,469.46c3.59,4.46,7.61,6.69,12.07,6.69,4.06-.08,7.69-2.31,10.88-6.69s4.74-10.2,4.66-17.45c-.08-7.25-1.63-13.07-4.66-17.45-3.03-4.38-6.61-6.57-10.76-6.57-4.7.08-8.8,2.35-12.31,6.81-3.51,4.46-5.26,10.2-5.26,17.21s1.79,12.99,5.38,17.45ZM237.27,471.62c-5.58,0-8.37-5.66-8.37-16.97v-2.63c0-4.3.04-6.93.12-7.89.4-2.47.92-4.58,1.55-6.33.64-1.75,1.43-2.95,2.39-3.59s1.71-1.08,2.27-1.31,1.12-.36,1.67-.36c3.35,0,6.02,1.87,8.01,5.62,1.99,3.74,2.99,8.37,2.99,13.86-.08,6.37-1.24,11.23-3.47,14.58s-4.46,5.02-6.69,5.02h-.48ZM711.11,222.53c1.02-1.08,1.53-2.42,1.53-4.02,0-2.04-.61-3.51-1.82-4.4s-2.39-1.34-3.54-1.34c-.32,0-.48-.03-.48-.1,0-.19.32-.8.96-1.82s1.75-2.07,3.35-3.16,3.44-1.63,5.55-1.63c4.02,0,7.11,1.47,9.28,4.4s3.25,6.41,3.25,10.43c0,1.21-.1,2.26-.29,3.16s-.41,1.85-.67,2.87-.67,2.04-1.24,3.06-1.05,1.94-1.43,2.77-1.05,1.85-2.01,3.06-1.69,2.17-2.2,2.87c-.51.7-1.4,1.79-2.68,3.25-1.28,1.47-2.2,2.52-2.77,3.16s-1.66,1.82-3.25,3.54-2.68,2.9-3.25,3.54c-1.34,1.53-2.93,3.32-4.78,5.36-1.53,1.72-2.49,2.84-2.87,3.35s-.57.99-.57,1.43v2.97h35.49v-.29c.19-.26.67-3.19,1.43-8.8.77-5.61,1.18-8.51,1.24-8.7v-.29h-3.83v.29c-1.08,5.55-1.85,8.39-2.3,8.51-.64.32-5.96.48-15.97.48l-7.27-.1,5.64-5.36c4.08-3.89,7.27-6.82,9.57-8.8,3.32-2.87,5.87-5.23,7.65-7.08s3.32-4.02,4.59-6.5c1.28-2.49,1.91-5.1,1.91-7.84-.06-5.68-2.04-10.3-5.93-13.87s-8.74-5.36-14.54-5.36c-5.04,0-9.25,1.66-12.63,4.97-3.38,3.32-5.07,7.24-5.07,11.77,0,1.66.51,3.06,1.53,4.21,1.02,1.15,2.39,1.72,4.11,1.72,1.85-.06,3.28-.64,4.3-1.72ZM758.36,246.44c-1.02-1.08-2.33-1.63-3.92-1.63-.7,0-1.43.13-2.2.38s-1.5.83-2.2,1.72c-.7.89-1.05,2.1-1.05,3.63,0,4.34,1.56,8.23,4.69,11.67,3.12,3.44,7.27,5.17,12.43,5.17,5.87-.06,10.84-2.17,14.92-6.31,4.08-4.14,6.12-9.15,6.12-15.02s-1.79-10.59-5.36-14.73-7.94-6.22-13.1-6.22c-1.66,0-3.28.26-4.88.77s-2.74,1.02-3.44,1.53-1.66,1.21-2.87,2.1v-16.45l.96.19c1.59.38,3.38.57,5.36.57,7.84,0,14.38-3.09,19.61-9.28v-1.24c0-1.15-.26-1.72-.77-1.72-.32,0-.73.13-1.24.38-4.14,1.79-8.48,2.68-13.01,2.68-2.55,0-4.94-.26-7.17-.77s-3.99-1.02-5.26-1.53c-1.28-.51-1.94-.77-2.01-.77-.13,0-.26.06-.38.19-.32,0-.48,1.59-.48,4.78v12.34c0,10.9.06,16.48.19,16.74.13.38.73.57,1.82.57.77-.06,1.24-.13,1.43-.19s.41-.32.67-.77c2.55-4.34,6.31-6.5,11.29-6.5h.57c2.04,0,3.89,1.05,5.55,3.16,1.72,2.3,2.58,6.73,2.58,13.3,0,6.06-.61,10.14-1.82,12.24-2.04,3.83-5.29,5.74-9.76,5.74-4.85,0-8.74-2.52-11.67-7.56h.67c1.47,0,2.71-.51,3.73-1.53s1.53-2.3,1.53-3.83-.51-2.74-1.53-3.83ZM847.6,205.02s-1.79,2.68-5.36,8.03c-3.57,5.36-8.74,13.07-15.5,23.15-14.03,20.92-21.08,31.47-21.14,31.66-.32.57-.32,1.15,0,1.72.32.7.89,1.05,1.72,1.05.38,0,.7-.13.96-.38.51-.32,17.19-25.12,50.03-74.42.06-.64-.1-1.18-.48-1.63s-.86-.67-1.43-.67c-.19,0-.35.03-.48.1-.38.06-.96.61-1.72,1.63-4.46,5.74-10.39,8.61-17.79,8.61-6.7,0-12.82-2.46-18.37-7.37-1.98-1.98-4.21-2.97-6.7-2.97-3.57.06-6.79,1.88-9.66,5.45s-4.3,8.19-4.3,13.87c.06,5.8,1.5,10.46,4.3,13.97,2.81,3.51,6.03,5.26,9.66,5.26,3.32-.06,6.22-1.85,8.7-5.36,2.49-3.51,3.73-8.13,3.73-13.87,0-3.83-.41-6.79-1.24-8.9.06,0,.73.29,2.01.86s3,1.15,5.17,1.72,4.43.86,6.79.86c4.02,0,7.72-.8,11.1-2.39ZM811.45,228.46c-1.28,0-2.49-.57-3.63-1.72-2.1-2.1-3.16-6.06-3.16-11.86v-2.01c0-3,.06-5.13.19-6.41.32-1.98.73-3.67,1.24-5.07s1.15-2.36,1.91-2.87,1.37-.86,1.82-1.05.89-.29,1.34-.29c2.68.06,4.81,1.59,6.41,4.59,1.59,3,2.39,6.7,2.39,11.1-.06,5.04-.99,8.9-2.77,11.57-1.79,2.68-3.57,4.02-5.36,4.02h-.38ZM844.16,265.28c2.87,3.57,6.09,5.36,9.66,5.36,3.25-.06,6.15-1.85,8.7-5.36s3.79-8.16,3.73-13.97c-.06-5.8-1.31-10.46-3.73-13.97-2.42-3.51-5.29-5.26-8.61-5.26-3.76.06-7.05,1.88-9.85,5.45-2.81,3.57-4.21,8.16-4.21,13.77s1.43,10.39,4.3,13.97ZM853.92,267.01c-4.46,0-6.7-4.53-6.7-13.58v-2.1c0-3.44.03-5.55.1-6.31.32-1.98.73-3.67,1.24-5.07.51-1.4,1.15-2.36,1.91-2.87s1.37-.86,1.82-1.05.89-.29,1.34-.29c2.68,0,4.81,1.5,6.41,4.5,1.59,3,2.39,6.7,2.39,11.1-.06,5.1-.99,8.99-2.77,11.67s-3.57,4.02-5.36,4.02h-.38ZM226.42,204c-.05-.05-.21.05-.48.32s-.42.4-.48.4-.27.05-.64.16-.8.19-1.27.24-1.14.08-1.99.08h-5.1v3.66h.96c1.11-.16,5.28-.24,12.5-.24s11.55.08,12.66.24h.88v-3.66h-2.07c-2.28,0-3.93-.05-4.94-.16s-1.65-.21-1.91-.32-.58-.35-.96-.72l-.08-23.89v-23.81c-.42-.32-.88-.48-1.35-.48-.53,0-.85.08-.96.24-.64.58-1.38,1.17-2.23,1.75s-2.34,1.22-4.46,1.91-4.43,1.09-6.93,1.19h-1.51v3.66h1.51c1.7-.11,3.24-.29,4.62-.56s2.44-.53,3.19-.8l1.04-.4v41.18ZM295.55,158.68s-1.49,2.23-4.46,6.69c-2.97,4.46-7.27,10.88-12.9,19.27-11.68,17.42-17.55,26.2-17.6,26.36-.27.48-.27.96,0,1.43.27.58.74.88,1.43.88.32,0,.58-.11.8-.32.42-.27,14.31-20.92,41.65-61.96.05-.53-.08-.98-.4-1.35s-.72-.56-1.19-.56c-.16,0-.29.03-.4.08-.32.05-.8.5-1.43,1.35-3.72,4.78-8.65,7.17-14.81,7.17-5.57,0-10.67-2.04-15.29-6.13-1.65-1.65-3.5-2.47-5.57-2.47-2.97.05-5.65,1.57-8.04,4.54s-3.58,6.82-3.58,11.55c.05,4.83,1.25,8.71,3.58,11.63,2.34,2.92,5.02,4.38,8.04,4.38,2.76-.05,5.18-1.54,7.25-4.46s3.11-6.77,3.11-11.55c0-3.19-.35-5.65-1.04-7.41.05,0,.61.24,1.67.72s2.5.96,4.3,1.43,3.69.72,5.65.72c3.34,0,6.42-.66,9.24-1.99ZM265.44,178.2c-1.06,0-2.07-.48-3.03-1.43-1.75-1.75-2.63-5.04-2.63-9.88v-1.67c0-2.5.05-4.27.16-5.34.27-1.65.61-3.05,1.04-4.22s.96-1.96,1.59-2.39,1.14-.72,1.51-.88.74-.24,1.11-.24c2.23.05,4.01,1.33,5.34,3.82,1.33,2.5,1.99,5.57,1.99,9.24-.05,4.19-.82,7.41-2.31,9.64-1.49,2.23-2.97,3.34-4.46,3.34h-.32ZM292.68,208.86c2.39,2.97,5.07,4.46,8.04,4.46,2.71-.05,5.12-1.54,7.25-4.46s3.16-6.8,3.11-11.63c-.05-4.83-1.09-8.71-3.11-11.63-2.02-2.92-4.41-4.38-7.17-4.38-3.13.05-5.87,1.57-8.2,4.54-2.34,2.97-3.5,6.8-3.5,11.47s1.19,8.65,3.58,11.63ZM300.8,210.29c-3.72,0-5.57-3.77-5.57-11.31v-1.75c0-2.87.03-4.62.08-5.26.27-1.65.61-3.05,1.04-4.22.42-1.17.96-1.96,1.59-2.39s1.14-.72,1.51-.88.74-.24,1.11-.24c2.23,0,4.01,1.25,5.34,3.74,1.33,2.5,1.99,5.57,1.99,9.24-.05,4.25-.82,7.49-2.31,9.72s-2.97,3.34-4.46,3.34h-.32ZM938.04,236.93s-.15.04-.34.23-.31.29-.34.29-.19.04-.46.11-.57.13-.92.17-.82.06-1.44.06h-3.67v2.64h.69c.8-.11,3.81-.17,9.01-.17s8.32.06,9.13.17h.63v-2.64h-1.49c-1.65,0-2.83-.04-3.56-.11s-1.19-.15-1.38-.23-.42-.25-.69-.52l-.06-17.22v-17.16c-.31-.23-.63-.34-.98-.34-.38,0-.61.06-.69.17-.46.42-1,.84-1.61,1.26s-1.68.88-3.21,1.38-3.2.78-4.99.86h-1.09v2.64h1.09c1.22-.08,2.33-.21,3.33-.4s1.76-.38,2.3-.57l.75-.29v29.68ZM956.75,222.06c0,5.93.82,10.47,2.47,13.6.77,1.57,1.82,2.85,3.16,3.85,1.34,1,2.51,1.61,3.5,1.84s1.99.34,2.99.34c.96-.04,1.93-.17,2.93-.4s2.16-.82,3.5-1.78c1.34-.96,2.39-2.24,3.16-3.85,1.65-3.14,2.47-7.67,2.47-13.6,0-5.55-.71-9.91-2.12-13.09-1.15-2.53-2.64-4.29-4.48-5.28s-3.67-1.49-5.51-1.49c-3.71,0-6.64,1.55-8.78,4.65-2.18,3.48-3.27,8.55-3.27,15.21ZM974.84,210.35c.31,1.76.46,5.42.46,10.96-.04,5.7-.19,9.59-.46,11.65s-.96,3.67-2.07,4.82c-1.07,1.15-2.37,1.72-3.9,1.72s-2.89-.57-3.96-1.72c-1.07-1.11-1.76-2.62-2.07-4.53-.31-1.91-.46-5.89-.46-11.94,0-5.59.15-9.26.46-11.02.31-1.76.94-3.14,1.89-4.13,1.15-1.22,2.53-1.84,4.13-1.84s2.93.61,4.08,1.84c.96,1.03,1.59,2.43,1.89,4.19ZM1004.68,221.66c.65.65,1.47.98,2.47.98s1.82-.34,2.47-1.03.98-1.51.98-2.47c-.04-1.03-.4-1.86-1.09-2.47s-1.49-.92-2.41-.92c-1,0-1.82.34-2.47,1.03s-.98,1.49-.98,2.41c.04,1,.38,1.82,1.03,2.47ZM1004.68,239.45c.65.65,1.47.98,2.47.98s1.82-.34,2.47-1.03.98-1.51.98-2.47c-.04-1.03-.4-1.86-1.09-2.47s-1.49-.92-2.41-.92c-1,0-1.82.34-2.47,1.03s-.98,1.49-.98,2.41c.04,1,.38,1.82,1.03,2.47ZM1043.3,236.93s-.15.04-.34.23-.31.29-.34.29-.19.04-.46.11-.57.13-.92.17-.82.06-1.44.06h-3.67v2.64h.69c.8-.11,3.81-.17,9.01-.17s8.32.06,9.13.17h.63v-2.64h-1.49c-1.65,0-2.83-.04-3.56-.11s-1.19-.15-1.38-.23-.42-.25-.69-.52l-.06-17.22v-17.16c-.31-.23-.63-.34-.98-.34-.38,0-.61.06-.69.17-.46.42-1,.84-1.61,1.26s-1.68.88-3.21,1.38-3.2.78-4.99.86h-1.09v2.64h1.09c1.22-.08,2.33-.21,3.33-.4s1.76-.38,2.3-.57l.75-.29v29.68ZM1062.01,222.06c0,5.93.82,10.47,2.47,13.6.77,1.57,1.82,2.85,3.16,3.85,1.34,1,2.51,1.61,3.5,1.84s1.99.34,2.99.34c.96-.04,1.93-.17,2.93-.4s2.16-.82,3.5-1.78c1.34-.96,2.39-2.24,3.16-3.85,1.65-3.14,2.47-7.67,2.47-13.6,0-5.55-.71-9.91-2.12-13.09-1.15-2.53-2.64-4.29-4.48-5.28s-3.67-1.49-5.51-1.49c-3.71,0-6.64,1.55-8.78,4.65-2.18,3.48-3.27,8.55-3.27,15.21ZM1080.09,210.35c.31,1.76.46,5.42.46,10.96-.04,5.7-.19,9.59-.46,11.65s-.96,3.67-2.07,4.82c-1.07,1.15-2.37,1.72-3.9,1.72s-2.89-.57-3.96-1.72c-1.07-1.11-1.76-2.62-2.07-4.53-.31-1.91-.46-5.89-.46-11.94,0-5.59.15-9.26.46-11.02.31-1.76.94-3.14,1.89-4.13,1.15-1.22,2.53-1.84,4.13-1.84s2.93.61,4.08,1.84c.96,1.03,1.59,2.43,1.89,4.19ZM1090.71,222.06c0,5.93.82,10.47,2.47,13.6.77,1.57,1.82,2.85,3.16,3.85,1.34,1,2.51,1.61,3.5,1.84s1.99.34,2.99.34c.96-.04,1.93-.17,2.93-.4s2.16-.82,3.5-1.78c1.34-.96,2.39-2.24,3.16-3.85,1.65-3.14,2.47-7.67,2.47-13.6,0-5.55-.71-9.91-2.12-13.09-1.15-2.53-2.64-4.29-4.48-5.28s-3.67-1.49-5.51-1.49c-3.71,0-6.64,1.55-8.78,4.65-2.18,3.48-3.27,8.55-3.27,15.21ZM1108.8,210.35c.31,1.76.46,5.42.46,10.96-.04,5.7-.19,9.59-.46,11.65s-.96,3.67-2.07,4.82c-1.07,1.15-2.37,1.72-3.9,1.72s-2.89-.57-3.96-1.72c-1.07-1.11-1.76-2.62-2.07-4.53-.31-1.91-.46-5.89-.46-11.94,0-5.59.15-9.26.46-11.02.31-1.76.94-3.14,1.89-4.13,1.15-1.22,2.53-1.84,4.13-1.84s2.93.61,4.08,1.84c.96,1.03,1.59,2.43,1.89,4.19ZM1026.63,403.94c-.06-.06-.23.06-.51.34s-.45.42-.51.42-.28.06-.68.17-.85.2-1.36.25-1.22.08-2.12.08h-5.44v3.91h1.02c1.19-.17,5.64-.25,13.34-.25s12.32.08,13.51.25h.93v-3.91h-2.21c-2.44,0-4.19-.06-5.27-.17s-1.76-.23-2.04-.34-.62-.37-1.02-.76l-.08-25.49v-25.41c-.45-.34-.93-.51-1.44-.51-.57,0-.91.08-1.02.25-.68.62-1.47,1.25-2.38,1.87s-2.49,1.3-4.76,2.04-4.73,1.16-7.39,1.27h-1.61v3.91h1.61c1.81-.11,3.46-.31,4.93-.59s2.61-.57,3.4-.85l1.1-.42v43.94ZM1082.78,381.34c.96.96,2.18,1.44,3.65,1.44s2.69-.51,3.65-1.53,1.44-2.24,1.44-3.65c-.06-1.53-.59-2.75-1.61-3.65s-2.21-1.36-3.57-1.36c-1.47,0-2.69.51-3.65,1.53s-1.44,2.21-1.44,3.57c.06,1.47.57,2.69,1.53,3.65ZM1082.78,407.68c.96.96,2.18,1.44,3.65,1.44s2.69-.51,3.65-1.53,1.44-2.24,1.44-3.65c-.06-1.53-.59-2.75-1.61-3.65s-2.21-1.36-3.57-1.36c-1.47,0-2.69.51-3.65,1.53s-1.44,2.21-1.44,3.57c.06,1.47.57,2.69,1.53,3.65ZM1134.94,371.14c.91-.96,1.36-2.15,1.36-3.57,0-1.81-.54-3.12-1.61-3.91s-2.12-1.19-3.14-1.19c-.28,0-.42-.03-.42-.08,0-.17.28-.71.85-1.61s1.56-1.84,2.97-2.8,3.06-1.44,4.93-1.44c3.57,0,6.32,1.3,8.24,3.91s2.89,5.69,2.89,9.26c0,1.08-.08,2.01-.25,2.8s-.37,1.64-.59,2.55-.59,1.81-1.1,2.72-.93,1.73-1.27,2.46-.93,1.64-1.78,2.72-1.5,1.93-1.95,2.55c-.45.62-1.25,1.59-2.38,2.89-1.13,1.3-1.95,2.24-2.46,2.8s-1.47,1.61-2.89,3.14-2.38,2.58-2.89,3.14c-1.19,1.36-2.61,2.95-4.25,4.76-1.36,1.53-2.21,2.52-2.55,2.97s-.51.88-.51,1.27v2.63h31.53v-.25c.17-.23.59-2.83,1.27-7.82.68-4.99,1.05-7.56,1.1-7.73v-.25h-3.4v.25c-.96,4.93-1.64,7.45-2.04,7.56-.57.28-5.3.42-14.19.42l-6.46-.08,5.01-4.76c3.63-3.46,6.46-6.06,8.5-7.82,2.95-2.55,5.21-4.65,6.8-6.29s2.95-3.57,4.08-5.78c1.13-2.21,1.7-4.53,1.7-6.97-.06-5.04-1.81-9.15-5.27-12.32s-7.76-4.76-12.92-4.76c-4.48,0-8.22,1.47-11.22,4.42-3,2.95-4.5,6.43-4.5,10.45,0,1.47.45,2.72,1.36,3.74.91,1.02,2.12,1.53,3.65,1.53,1.64-.06,2.92-.57,3.82-1.53Z"/>
</svg>