<svg xmlns="http://www.w3.org/2000/svg" viewBox="0 0 500 500">
  <defs>
    <linearGradient id="gradient" x1="0" y1="500" x2="500" y2="0" gradientUnits="userSpaceOnUse">
      <stop offset="0" stop-color="#bcbcbc"/>
      <stop offset="1" stop-color="#e6e6e6"/>
    </linearGradient>
  </defs>
  <rect width="500" height="500" fill="url(#gradient)"/>
  <path d="M250,224c-20.62,0-38.28-7.34-52.97-22.03-14.69-14.69-22.03-32.34-22.03-52.97s7.34-38.28,22.03-52.97,32.34-22.03,52.97-22.03,38.28,7.34,52.97,22.03,22.03,32.34,22.03,52.97-7.34,38.28-22.03,52.97c-14.69,14.69-32.34,22.03-52.97,22.03ZM100,374v-52.5c0-10.62,2.73-20.39,8.2-29.3,5.47-8.91,12.73-15.7,21.8-20.39,19.38-9.69,39.06-16.95,59.06-21.8,20-4.84,40.31-7.27,60.94-7.27s40.94,2.42,60.94,7.27c20,4.84,39.69,12.11,59.06,21.8,9.06,4.69,16.33,11.48,21.8,20.39,5.47,8.91,8.2,18.67,8.2,29.3v52.5H100ZM137.5,336.5h225v-15c0-3.44-.86-6.56-2.58-9.37-1.72-2.81-3.98-5-6.8-6.56-16.87-8.44-33.91-14.77-51.09-18.98-17.19-4.22-34.53-6.33-52.03-6.33s-34.84,2.11-52.03,6.33c-17.19,4.22-34.22,10.55-51.09,18.98-2.81,1.56-5.08,3.75-6.8,6.56s-2.58,5.94-2.58,9.37v15ZM250,186.5c10.31,0,19.14-3.67,26.48-11.02,7.34-7.34,11.02-16.17,11.02-26.48s-3.67-19.14-11.02-26.48c-7.34-7.34-16.17-11.02-26.48-11.02s-19.14,3.67-26.48,11.02c-7.34,7.34-11.02,16.17-11.02,26.48s3.67,19.14,11.02,26.48c7.34,7.34,16.17,11.02,26.48,11.02Z" fill="#666"/>
</svg>