<svg xmlns="http://www.w3.org/2000/svg" version="1.1" viewBox="0 0 401.9 342.2" width="800">
  <defs>
    <style>
      .cls-1 {
        fill: none;
        stroke: #616161;
        stroke-linecap: round;
        stroke-linejoin: round;
        stroke-opacity: .8;
        stroke-width: 2.5px;
      }

      .cls-2 {
        fill: #616161;
      }

      .cls-3 {
        fill: #69f;
      }
    </style>
  </defs>
  <g>
    <path class="cls-2" d="M245.8,149.4c-.4-.5-1-.8-2-.9-1,0-1.9.5-2.7,1.5l-.5.8c-.8,1.4-1.2,3-1.3,4.6,0,1.3.5,2,1.3,2.4h.8c1.8.1,3.5-.7,4.6-2.2l.3-.2c.2,0,.3.1.3.3s-.3.5-.8,1c-1.2,1.1-2.8,1.7-4.4,1.7s-2.5-.5-3.2-1.7c-.4-.6-.5-1.3-.5-2.1,0-1.6.6-3,1.8-4.4,1-1.2,2.4-2,4-2.2h.3c1.2,0,2,.4,2.5,1.1.2.3.2.6.2.9,0,.7-.2,1.1-.8,1.4h-.4c-.5,0-.8-.1-.9-.5v-.2c0-.4.1-.7.4-1,.2-.1.6-.3,1-.3h0ZM253.9,158.8l-.5,2.8h-6l.2-.5,3.2-3.5c1-1.3,1.6-2.5,1.6-3.6s-.3-1.7-.8-2.1c-.4-.4-.8-.5-1.3-.5-.8,0-1.4.3-1.9,1l-.3.6h.2c.4,0,.7.2.8.6v.3c0,.4-.1.7-.6.8h-.2c-.4,0-.6-.2-.8-.5v-.4c0-.8.3-1.5,1-2.1.5-.5,1.3-.8,2-.8,1.2,0,2,.4,2.7,1.2.4.4.6,1,.7,1.6v.3c0,.8-.3,1.5-.9,2.2l-1.5,1.5-1,.9h0c0,.1-1.8,1.8-1.8,1.8h2.9c1,0,1.4,0,1.5-.2.1-.1.3-.6.4-1.4h.4,0Z"/>
    <path class="cls-1" d="M209.6,170.2h77.6"/>
    <path class="cls-2" d="M192.8,128.4c-.4-.5-1-.8-2-.9-1,0-1.9.5-2.7,1.5l-.5.8c-.8,1.4-1.2,3-1.3,4.6,0,1.3.5,2,1.3,2.4h.8c1.8.1,3.5-.7,4.6-2.2l.3-.2c.2,0,.3.1.3.3s-.3.5-.8,1c-1.2,1.1-2.8,1.7-4.4,1.7s-2.5-.5-3.2-1.7c-.4-.6-.5-1.3-.5-2.1,0-1.6.6-3,1.8-4.4,1-1.2,2.4-2,4-2.2h.3c1.2,0,2,.4,2.5,1.1.2.3.2.6.2.9,0,.7-.2,1.1-.8,1.4h-.4c-.5,0-.8-.1-.9-.5v-.2c0-.4.1-.7.4-1,.2-.1.6-.3,1-.3h0ZM198.4,130.3v9c0,.4,0,.6.2.7h1.3c0,.1.5.1.5.1v.5c-1.7-.1-3.5-.1-5.2,0v-.5h.5c.8,0,1.3,0,1.4-.3v-.4c.1,0,.1-8.4.1-8.4-.6.3-1.3.4-2.1.4v-.5c1.3,0,2.3-.3,3-1h.3v.4h0Z"/>
    <path class="cls-1" d="M209.6,170.2v-77.6"/>
    <path class="cls-2" d="M172.8,180.4c-.4-.5-1-.8-2-.9-1,0-1.9.5-2.7,1.5l-.5.8c-.8,1.4-1.2,3-1.3,4.6,0,1.3.5,2,1.3,2.4h.8c1.8.1,3.5-.7,4.6-2.2l.3-.2c.2,0,.3.1.3.3s-.3.5-.8,1c-1.2,1.1-2.8,1.7-4.4,1.7s-2.5-.5-3.2-1.7c-.4-.6-.5-1.3-.5-2.1,0-1.6.6-3,1.8-4.4,1-1.2,2.4-2,4-2.2h.3c1.2,0,2,.4,2.5,1.1.2.3.2.6.2.9,0,.7-.2,1.1-.8,1.4h-.4c-.5,0-.8-.1-.9-.5v-.2c0-.4.1-.7.4-1,.2-.1.6-.3,1-.3h0ZM174.1,190v-.5l5-7.6c0-.1.1-.2.3-.2l.2.2v7.6h1.6v.5h-1.6v1.4l.2.6h1c0,.1.4.1.4.1v.5h-4.4v-.5h.4c.6,0,1,0,1.1-.2v-.5c.1,0,.1-1.4.1-1.4h-4.3M178.5,189.5v-6l-4,6h4Z"/>
    <path class="cls-1" d="M209.6,170.2h-77.7"/>
    <path class="cls-2" d="M224.8,202.4c-.4-.5-1-.8-2-.9-1,0-1.9.5-2.7,1.5l-.5.8c-.8,1.4-1.2,3-1.3,4.6,0,1.3.5,2,1.3,2.4h.8c1.8.1,3.5-.7,4.6-2.2l.3-.2c.2,0,.3.1.3.3s-.3.5-.8,1c-1.2,1.1-2.8,1.7-4.4,1.7s-2.5-.5-3.2-1.7c-.4-.6-.5-1.3-.5-2.1,0-1.6.6-3,1.8-4.4,1-1.2,2.4-2,4-2.2h.3c1.2,0,2,.4,2.5,1.1.2.3.2.6.2.9,0,.7-.2,1.1-.8,1.4h-.4c-.5,0-.8-.1-.9-.5v-.2c0-.4.1-.7.4-1,.2-.1.6-.3,1-.3h0ZM230.3,209c1.1.2,1.9.7,2.4,1.5l.3,1.4c0,.9-.3,1.7-1.1,2.3-.7.5-1.4.8-2.3.8s-2-.3-2.6-1c-.4-.4-.7-1-.7-1.5s.3-.8.7-1h.3c.4,0,.6.2.8.6v.3c0,.5-.1.8-.5.9h-.5c.4.7,1,1,2,1.2h.5c.6,0,1.1-.3,1.5-1,.2-.4.3-1,.3-1.6,0-1.4-.5-2.3-1.3-2.6h-1.3c-.3,0-.4-.1-.4-.3h.2c0-.1.6-.2.6-.2.6,0,1-.2,1.3-.6l.2-.2c.3-.5.4-1.2.4-1.9,0-1-.4-1.6-1.1-1.7h-.4c-.8,0-1.4.1-1.9.5,0,.2-.2.3-.3.4.7,0,1,.3,1,.8s-.1.6-.5.8h-.3c-.4,0-.7-.2-.8-.5v-.3c0-.7.3-1.3,1-1.7.6-.3,1.2-.5,1.8-.5,1,0,1.8.3,2.4.9s.6.8.6,1.3c0,1-.4,1.7-1.1,2.3l-1.1.6h0Z"/>
    <path class="cls-1" d="M209.6,170.2v77.8"/>
    <path class="cls-2" d="M174.3,79c0,.6-.3,1-.8,1.2-.2,0-.3,0-.5,0-.4,0-.7-.2-.8-.6v-.2c0-.5.2-.8.6-1l.6-.3c.4,0,.7.3.8.7v.2M172.5,87.7l-1,2.4-.6,2.3c0,.5.2.8.6.8,1,0,1.7-.9,2.2-2.6v-.3c.1-.2.3-.3.3-.3h.2c.1,0,.2,0,.2.2s-.1.7-.5,1.4c-.6,1.4-1.5,2.1-2.5,2.1s-1.4-.3-1.7-1l-.2-.9.6-1.8c.6-1.8,1.2-3.7,1.8-5.5,0-.5-.2-.7-.6-.7-.8,0-1.5.7-2,2l-.3.8-.4.4c-.1,0-.2,0-.2-.2,0-.3.1-.8.5-1.4.6-1.4,1.5-2.1,2.5-2.1s1.4.3,1.7,1l.2.8-.3,1.3-.5,1.3h0ZM180.3,86.6v9c0,.4.1.6.3.6s.6.2,1.3.2h.5v.5c-1.7,0-3.5,0-5.2,0v-.5h.5c.8,0,1.3,0,1.4-.3v-8.8c-.6.3-1.3.4-2,.4v-.5c1.3,0,2.2-.3,3-1h.3v.4h-.1,0Z"/>
    <path class="cls-1" d="M209.6,92.6l-38.9-38.9"/>
    <path class="cls-2" d="M245.3,80c0,.6-.3,1-.8,1.2-.2,0-.3,0-.5,0-.4,0-.7-.2-.8-.6v-.2c0-.5.2-.8.6-1l.6-.3c.5,0,.7.3.8.7v.2M243.5,88.7l-1,2.4-.6,2.3c0,.5.2.8.6.8,1,0,1.7-.9,2.2-2.6v-.3c.1-.2.3-.3.3-.3h.2c.1,0,.2,0,.2.2s-.1.7-.5,1.4c-.6,1.4-1.5,2.1-2.5,2.1s-1.4-.3-1.7-1l-.2-.9.6-1.8c.6-1.8,1.2-3.7,1.8-5.5,0-.5-.2-.7-.6-.7-.8,0-1.5.7-2,2l-.3.8-.4.4c-.1,0-.2,0-.2-.2,0-.3.1-.8.5-1.4.6-1.4,1.5-2.1,2.5-2.1s1.4.3,1.7,1l.2.8-.3,1.3-.5,1.3h0ZM251.3,92.2c1,.2,1.9.8,2.3,1.6.3.4.4.9.4,1.4,0,.9-.4,1.6-1.1,2.3-1.5,1.1-3.5,1.1-4.9-.2-.5-.5-.7-1-.7-1.6s.2-.8.7-.9h.2c.4,0,.7.2.9.5v.4c0,.4-.2.7-.6.8h-.4c.4.8,1,1.1,2,1.3h.4c.7,0,1.2-.3,1.5-1,.2-.4.3-1,.3-1.6,0-1.5-.4-2.3-1.2-2.6-.2,0-.5,0-.7,0h-.7c-.2,0-.3,0-.4-.2,0,0,.1-.2.3-.2h.6c.6,0,1-.3,1.3-.7v-.2c.4-.5.6-1.1.6-1.8,0-1-.4-1.6-1.2-1.8h-.4c-.7,0-1.3.2-1.8.6l-.3.4c.7,0,1,.2,1,.8s-.2.6-.5.7h-.3c-.4,0-.7,0-.8-.5v-.2c0-.8.3-1.3,1-1.8.5-.3,1.1-.4,1.8-.4,1,0,1.8.2,2.4.8.4.5.6.9.6,1.4,0,.9-.4,1.6-1.2,2.2-.3.3-.7.5-1,.6h0Z"/>
    <path class="cls-1" d="M209.6,92.6l38.7-38.9"/>
    <path class="cls-2" d="M148.5,30.6c0,.9-.3,2-.7,3.6-1,3-2.1,4.7-3.7,5.1h-.8c-1.4,0-2.3-.3-2.8-1.3-.2-.4-.3-.9-.3-1.4,0-.8.4-2.2,1-4l.3-.7c.2-.5.4-1,.4-1.6s-.2-.8-.6-.8c-.8,0-1.5.7-2,2l-.3.9-.4.4c-.1,0-.2,0-.2-.3s.1-.7.5-1.4c.6-1.4,1.5-2.1,2.5-2.1s1.4.3,1.7,1l.2.9-.3,1.1c-.6,1.5-1.1,3-1.3,4.6v.3c0,1.2.5,1.9,1.4,2h.3c1.2,0,2.3-1,3.2-3.1.5-1.3.8-2.3.9-3.1,0-.7-.3-1.5-.8-2-.3-.2-.4-.4-.4-.6,0-.4.2-.7.6-1h.5c.5,0,.8.2,1,.7v.8h.1,0ZM156.1,39.8l-.5,2.8h-6l.2-.5,3.1-3.5c1.2-1.3,1.7-2.5,1.7-3.6s-.2-1.6-.8-2.2c-.4-.3-.8-.4-1.3-.4-.8,0-1.4.3-1.9,1l-.3.6h.2c.4,0,.7.2.8.6v.3c0,.4-.1.7-.6.8h-.2c-.4,0-.6-.2-.8-.5v-.4c0-.8.3-1.5,1-2.1.5-.5,1.3-.8,2-.8,1.1,0,2,.4,2.7,1.2.4.4.6,1,.7,1.6v.3c0,.8-.4,1.6-1,2.2-.4.6-.9,1.1-1.4,1.5l-1,.9h-.1l-1.7,1.8h2.9c1,0,1.4,0,1.5-.2.1,0,.3-.6.4-1.4h.4,0Z"/>
    <path class="cls-1" d="M170.7,53.7V15"/>
    <path class="cls-2" d="M272.5,31.6c0,.9-.3,2-.7,3.6-1,3-2.1,4.7-3.7,5.1h-.8c-1.4,0-2.3-.3-2.8-1.3-.2-.4-.3-.9-.3-1.4,0-.8.4-2.2,1-4l.3-.7c.2-.5.4-1,.4-1.6s-.2-.8-.5-.8c-.9,0-1.6.7-2.1,2l-.3.9-.3.4c-.2,0-.3,0-.3-.3s.1-.7.5-1.4c.6-1.4,1.5-2.1,2.5-2.1s1.4.3,1.7,1l.2.9-.3,1.1c-.6,1.5-1.1,3-1.3,4.6v.3c0,1.2.5,1.9,1.5,2h.2c1.2,0,2.3-1,3.2-3.1.5-1.3.8-2.3.9-3.1,0-.7-.3-1.5-.8-2-.3-.2-.4-.4-.4-.6,0-.4.2-.7.6-1h.6c.4,0,.7.2.9.7v.8h0ZM277.5,38c1.1.2,1.9.7,2.4,1.5l.3,1.4c0,.9-.4,1.7-1.1,2.3-.7.5-1.4.8-2.3.8s-2-.3-2.6-1c-.4-.4-.7-1-.7-1.5s.3-.8.7-1h.3c.4,0,.6.2.8.5v.4c0,.5-.1.7-.5.9h-.5c.4.7,1,1,2,1.2h.5c.6,0,1.1-.3,1.5-1,.2-.4.3-1,.3-1.6,0-1.4-.5-2.3-1.3-2.6h-1.4c-.2,0-.3,0-.4-.3l.3-.2h.6c.6,0,1-.2,1.3-.6l.2-.3c.3-.5.4-1,.4-1.8s-.4-1.6-1.1-1.7h-.4c-.8,0-1.4,0-1.9.5,0,.2-.2.3-.3.4.7,0,1,.3,1,.8s-.2.6-.5.8h-.3c-.4,0-.7-.2-.8-.5v-.4c0-.7.3-1.3,1-1.7.6-.3,1.2-.5,1.8-.5,1,0,1.8.3,2.4.9.4.4.6.8.6,1.3,0,1-.4,1.7-1.1,2.3l-1.2.6h0Z"/>
    <path class="cls-1" d="M248.4,53.7V15"/>
    <path class="cls-2" d="M292.3,123c0,.6-.3,1-.8,1.2-.2,0-.3.1-.5.1-.4,0-.7-.2-.8-.6v-.2c0-.5.2-.8.6-1,.2-.2.4-.2.6-.2.5,0,.7.2.8.6v.2M290.5,131.7l-1,2.4-.6,2.3c0,.6.2.8.6.8,1,0,1.7-.9,2.2-2.6v-.3c.1,0,.3-.4.3-.4h.2c.1,0,.2.1.2.3s-.1.7-.5,1.4c-.6,1.4-1.5,2.1-2.5,2.1s-1.4-.3-1.7-1l-.2-.9.6-1.8c.6-1.8,1.2-3.7,1.8-5.5,0-.5-.2-.7-.6-.7-.8,0-1.5.7-2,2l-.3.8-.4.4c-.1,0-.2,0-.2-.2,0-.3.1-.7.5-1.4.6-1.4,1.5-2.1,2.5-2.1s1.4.3,1.7,1l.2.9-.3,1.2-.5,1.3h0ZM298.3,130.6v9c0,.4.1.6.3.6.1.2.6.2,1.3.2h.5v.5c-1.7-.1-3.5-.1-5.2,0v-.5h.5c.8,0,1.3-.1,1.4-.3v-8.8c-.6.3-1.3.4-2,.4v-.5c1.3,0,2.2-.3,3-1h.3v.4h0Z"/>
    <path class="cls-1" d="M287.3,170.2l38.8-38.8"/>
    <path class="cls-2" d="M291.3,192c0,.6-.3,1-.8,1.2-.2,0-.3.1-.5.1-.4,0-.7-.2-.8-.6v-.2c0-.5.2-.8.6-1,.2-.2.4-.2.6-.2.5,0,.7.2.8.6v.2M289.5,200.7l-1,2.4-.6,2.3c0,.6.2.8.6.8,1,0,1.7-.9,2.2-2.6v-.3c.1,0,.3-.4.3-.4h.2c.1,0,.2.1.2.3s-.1.7-.5,1.4c-.6,1.4-1.5,2.1-2.5,2.1s-1.4-.3-1.7-1l-.2-.9.6-1.8c.6-1.8,1.2-3.7,1.8-5.5,0-.5-.2-.7-.6-.7-.8,0-1.5.7-2,2l-.3.8-.4.4c-.1,0-.2,0-.2-.2,0-.3.1-.7.5-1.4.6-1.4,1.5-2.1,2.5-2.1s1.4.3,1.7,1l.2.9-.3,1.2-.5,1.3h0ZM299.9,207.1l-.5,2.8h-6v-.5c.1,0,.2-.1.2-.1l3.1-3.5c1.1-1.2,1.7-2.4,1.7-3.5s-.3-1.7-.9-2.2c-.3-.3-.8-.4-1.3-.4s-1.3.3-1.8,1l-.3.6h.2c.4,0,.7.2.8.6v.2c0,.5-.2.7-.6.9h-.2c-.4,0-.7-.2-.8-.5v-.4c0-.9.3-1.6.9-2.2.6-.5,1.3-.7,2-.7,1.2,0,2.1.4,2.8,1.2.4.4.6,1,.6,1.6v.3c0,.8-.2,1.5-.8,2.2l-1.5,1.5-1,.8v.2c-.1,0-1.8,1.6-1.8,1.6h4.4l.3-1.5h.5,0Z"/>
    <path class="cls-1" d="M287.3,170.2l38.8,38.9"/>
    <path class="cls-2" d="M311.5,85.6c0,.9-.3,2-.7,3.6-1,3-2.1,4.7-3.7,5.1h-.8c-1.4,0-2.3-.3-2.8-1.3-.2-.4-.3-.9-.3-1.4,0-.8.4-2.2,1-4l.3-.7c.3-.7.4-1.3.4-1.7s-.2-.7-.5-.7c-.9,0-1.6.7-2.1,2l-.3.9-.3.4c-.2,0-.3,0-.3-.3s.1-.7.5-1.4c.6-1.4,1.5-2.1,2.5-2.1s1.4.3,1.7,1l.2.9-.3,1.1c-.6,1.5-1.1,3-1.3,4.6v.3c0,1.2.5,1.9,1.5,2h.2c1.2,0,2.3-1,3.2-3.1.5-1.3.8-2.3.9-3.1,0-.7-.3-1.5-.8-2-.3-.2-.4-.4-.4-.6,0-.4.2-.7.6-1h.6c.4,0,.7.2.9.7v.8h0ZM316.6,87.3v9c0,.4,0,.6.2.7h1.8v.5c-1.7,0-3.5,0-5.2,0v-.5h.5c.8,0,1.3,0,1.4-.3v-.5c0,0,0-8.3,0-8.3-.6.3-1.3.4-2.1.4v-.5c1.3,0,2.3-.3,3-1h.3v.4h0Z"/>
    <path class="cls-1" d="M326.1,131.4v-58.4"/>
    <path class="cls-2" d="M367.5,142.6c0,.9-.3,2-.7,3.6-1,3-2.1,4.7-3.7,5.1h-.8c-1.4.1-2.3-.3-2.8-1.3-.2-.4-.3-.9-.3-1.4,0-.8.4-2.2,1-4l.3-.7c.2-.5.4-1,.4-1.6s-.2-.8-.5-.8c-.9,0-1.6.7-2.1,2l-.3.9-.3.4c-.2,0-.3-.1-.3-.3s0-.7.5-1.4c.6-1.4,1.5-2.1,2.5-2.1s1.4.3,1.7,1l.2.9-.3,1.1c-.6,1.5-1.1,3-1.3,4.6v.3c0,1.2.5,1.9,1.5,2h.2c1.2,0,2.3-1,3.2-3.1.5-1.2.8-2.3.9-3.1,0-.7-.3-1.5-.8-2-.3-.2-.4-.4-.4-.6,0-.4.2-.7.6-1h.6c.4-.1.7.2.9.7v.8h0ZM375.1,151.8l-.5,2.8h-6l.2-.5,3.1-3.5c1.2-1.3,1.7-2.5,1.7-3.6s-.3-1.7-.8-2.1c-.4-.4-.8-.5-1.3-.5-.8,0-1.4.3-1.9,1l-.3.6h.2c.4,0,.7.2.8.6v.3c0,.4-.2.7-.6.8h-.2c-.4,0-.7-.2-.8-.5v-.4c0-.8.3-1.5,1-2.1.5-.5,1.3-.8,2-.8,1.1,0,2,.4,2.7,1.2.4.4.6,1,.7,1.6v.3c0,.8-.4,1.6-1,2.2-.4.6-.9,1.1-1.4,1.5l-1,.9h0c0,.1-1.7,1.8-1.7,1.8h2.9c1,0,1.4,0,1.5-.2l.4-1.4h.4,0Z"/>
    <path class="cls-1" d="M326.1,131.4h58.2"/>
    <path class="cls-2" d="M366.5,186.6c0,.9-.3,2-.7,3.6-1,3-2.1,4.7-3.7,5.1h-.8c-1.4.1-2.3-.3-2.8-1.3-.2-.4-.3-.9-.3-1.4,0-.8.4-2.2,1-4l.3-.7c.2-.5.4-1,.4-1.6s-.2-.8-.5-.8c-.9,0-1.6.7-2.1,2l-.3.9-.3.4c-.2,0-.3-.1-.3-.3s0-.7.5-1.4c.6-1.4,1.5-2.1,2.5-2.1s1.4.3,1.7,1l.2.9-.3,1.1c-.6,1.5-1.1,3-1.3,4.6v.3c0,1.2.5,1.9,1.5,2h.2c1.2,0,2.3-1,3.2-3.1.5-1.2.8-2.3.9-3.1,0-.7-.3-1.5-.8-2-.3-.2-.4-.4-.4-.6,0-.4.2-.7.6-1h.6c.4-.1.7.2.9.7v.8h0ZM374.1,195.8l-.5,2.8h-6l.2-.5,3.1-3.5c1.2-1.3,1.7-2.5,1.7-3.6s-.3-1.7-.8-2.1c-.4-.4-.8-.5-1.3-.5-.8,0-1.4.3-1.9,1l-.3.6h.2c.4,0,.7.2.8.6v.3c0,.4-.2.7-.6.8h-.2c-.4,0-.7-.2-.8-.5v-.4c0-.8.3-1.5,1-2.1.5-.5,1.3-.8,2-.8,1.1,0,2,.4,2.7,1.2.4.4.6,1,.7,1.6v.3c0,.8-.4,1.6-1,2.2-.4.6-.9,1.1-1.4,1.5l-1,.9h0c0,.1-1.7,1.8-1.7,1.8h2.9c1,0,1.4,0,1.5-.2l.4-1.4h.4,0Z"/>
    <path class="cls-1" d="M326.1,209h58.2"/>
    <path class="cls-2" d="M306.5,242.6c0,.9-.3,2-.7,3.6-1,3-2.1,4.7-3.7,5.1h-.8c-1.4.1-2.3-.3-2.8-1.3-.2-.4-.3-.9-.3-1.4,0-.8.4-2.2,1-4l.3-.7c.2-.5.4-1,.4-1.6s-.2-.8-.5-.8c-.9,0-1.6.7-2.1,2l-.3.9-.3.4c-.2,0-.3-.1-.3-.3s.1-.7.5-1.4c.6-1.4,1.5-2.1,2.5-2.1s1.4.3,1.7,1l.2.9-.3,1.1c-.6,1.5-1.1,3-1.3,4.6v.3c0,1.2.5,1.9,1.5,2h.2c1.2,0,2.3-1,3.2-3.1.5-1.2.8-2.3.9-3.1,0-.7-.3-1.5-.8-2-.3-.2-.4-.4-.4-.6,0-.4.2-.7.6-1h.6c.4-.1.7.2.9.7v.8h0ZM311.5,249c1.1.2,1.9.7,2.4,1.6.6,1.2.3,2.7-.8,3.6-.7.5-1.4.8-2.3.8s-2-.3-2.6-1c-.4-.4-.7-1-.7-1.5s.3-.8.7-1h.3c.4,0,.6.2.8.6v.3c0,.5-.1.8-.5.9h-.5c.4.7,1,1,2,1.2h.5c.6,0,1.1-.3,1.5-1,.2-.4.3-1,.3-1.6,0-1.4-.5-2.3-1.3-2.6h-1.4c-.2,0-.3-.1-.4-.3h.3c0-.1.6-.2.6-.2.6,0,1-.2,1.3-.6l.2-.2c.3-.5.4-1.2.4-1.9,0-1-.4-1.6-1.1-1.7h-.4c-.8,0-1.4.1-1.9.6l-.3.3c.7,0,1,.3,1,.8s-.2.7-.5.8h-.3c-.4,0-.7-.2-.8-.5v-.3c0-.7.3-1.3,1-1.7.6-.3,1.2-.5,1.8-.5,1,0,1.8.3,2.4.9.6.6.6.8.6,1.3,0,1-.4,1.7-1.1,2.3l-1.2.6h0Z"/>
    <path class="cls-1" d="M326.1,209v58.3"/>
    <path class="cls-1" d="M131.9,170.2H54.3"/>
    <path class="cls-2" d="M50.5,134.6c0,.9-.3,2-.7,3.6-1,3-2.1,4.7-3.7,5.1h-.8c-1.4.1-2.3-.3-2.8-1.3s-.3-.9-.3-1.4c0-.8.4-2.2,1-4l.3-.7c.2-.5.4-1,.4-1.6s-.2-.8-.5-.8c-.9,0-1.6.7-2.1,2l-.3.9-.3.4c-.2,0-.3-.1-.3-.3s0-.7.5-1.4c.6-1.4,1.5-2.1,2.5-2.1s1.4.3,1.7,1l.2.9-.3,1.1c-.6,1.5-1.1,3-1.3,4.6v.3c0,1.2.5,1.9,1.5,2h.2c1.2,0,2.3-1,3.2-3.1.5-1.2.8-2.3.9-3.1,0-.7-.3-1.5-.8-2-.3-.2-.4-.4-.4-.6,0-.4.2-.7.6-1h.6c.4-.1.7.2.9.7v.8h.1ZM55.6,136.3v9c0,.4,0,.6.2.7h1.3c0,.1.5.1.5.1v.5c-1.7-.1-3.5-.1-5.2,0v-.5h.5c.8,0,1.3,0,1.4-.3v-8.8c-.6.3-1.3.4-2.1.4v-.5c1.3,0,2.3-.3,3-1h.3v.4h.1Z"/>
    <path class="cls-1" d="M54.3,170.2l-39-38.8"/>
    <path class="cls-2" d="M50.5,197.6c0,.9-.3,2-.7,3.6-1,3-2.1,4.7-3.7,5.1h-.8c-1.4.1-2.3-.3-2.8-1.3s-.3-.9-.3-1.4c0-.8.4-2.2,1-4l.3-.7c.2-.5.4-1,.4-1.6s-.2-.8-.5-.8c-.9,0-1.6.7-2.1,2l-.3.9-.3.4c-.2,0-.3-.1-.3-.3s0-.7.5-1.4c.6-1.4,1.5-2.1,2.5-2.1s1.4.3,1.7,1l.2.9-.3,1.1c-.6,1.5-1.1,3-1.3,4.6v.3c0,1.2.5,1.9,1.5,2h.2c1.2,0,2.3-1,3.2-3.1.5-1.2.8-2.3.9-3.1,0-.7-.3-1.5-.8-2-.3-.2-.4-.4-.4-.6,0-.4.2-.7.6-1h.6c.4-.1.7.2.9.7v.8h.1ZM55.5,204c1.1.2,1.9.7,2.4,1.5l.3,1.4c0,.9-.4,1.7-1.1,2.3-.7.5-1.4.8-2.3.8s-2-.3-2.6-1c-.4-.4-.7-1-.7-1.5s.3-.8.7-1h.3c.4,0,.6.2.8.6v.3c0,.5,0,.8-.5.9h-.5c.4.7,1,1,2,1.2h.5c.6,0,1.1-.3,1.5-1,.2-.4.3-1,.3-1.6,0-1.4-.5-2.3-1.3-2.6h-1.4c-.2,0-.3-.1-.3-.3h.2c0-.1.6-.2.6-.2.6,0,1-.2,1.3-.6l.2-.2c.3-.5.4-1.2.4-1.9,0-1-.4-1.6-1.1-1.7h-.4c-.8,0-1.4.1-1.9.5,0,.2-.2.3-.3.4.7,0,1,.3,1,.8s0,.6-.5.8h-.3c-.4,0-.7-.2-.8-.5v-.3c0-.7.3-1.3,1-1.7.6-.3,1.2-.5,1.8-.5,1,0,1.8.3,2.4.9s.6.8.6,1.3c0,1-.4,1.7-1.1,2.3l-1.2.6h0Z"/>
    <path class="cls-1" d="M54.3,170.2l-39,38.9"/>
    <path class="cls-2" d="M177.3,244c0,.6-.3,1-.8,1.2-.2,0-.3.1-.5.1-.4,0-.7-.2-.8-.6v-.2c0-.5.2-.8.6-1l.6-.3c.4,0,.7.3.8.7v.2M175.5,252.7l-1,2.4-.6,2.3c0,.5.2.8.6.8,1,0,1.7-.9,2.2-2.6v-.3c.1,0,.3-.4.3-.4h.2c.1,0,.2.1.2.3s-.1.7-.5,1.4c-.6,1.4-1.5,2.1-2.5,2.1s-1.4-.3-1.7-1l-.2-.9.6-1.8c.6-1.8,1.2-3.7,1.8-5.5,0-.5-.2-.7-.6-.7-.8,0-1.5.7-2,2l-.3.8-.4.4c-.1,0-.2,0-.2-.2,0-.3.1-.7.5-1.4.6-1.4,1.5-2.1,2.5-2.1s1.4.3,1.7,1l.2.9-.3,1.2-.5,1.3h0ZM183.3,251.6v9c0,.3.1.6.3.6.1.2.6.2,1.3.2h.5v.5c-1.7-.1-3.5-.1-5.2,0v-.5h.5c.8,0,1.3-.1,1.4-.3v-8.8c-.6.3-1.3.4-2,.4v-.5c1.3,0,2.2-.3,3-1h.3v.4h-.1,0Z"/>
    <path class="cls-1" d="M209.6,247.9l-38.9,38.8"/>
    <path class="cls-2" d="M243.3,246c0,.6-.3,1-.8,1.2-.2,0-.3.1-.5.1-.4,0-.7-.2-.8-.6v-.2c0-.5.2-.8.6-1l.6-.3c.5,0,.7.3.8.7v.2M241.5,254.7l-1,2.4-.6,2.3c0,.5.2.8.6.8,1,0,1.7-.9,2.2-2.6v-.3c.1,0,.3-.4.3-.4h.2c.1,0,.2.1.2.3s-.1.7-.5,1.4c-.6,1.4-1.5,2.1-2.5,2.1s-1.4-.3-1.7-1l-.2-.9.6-1.8c.6-1.8,1.2-3.7,1.8-5.5,0-.5-.2-.7-.6-.7-.8,0-1.5.7-2,2l-.3.8-.4.4c-.1,0-.2,0-.2-.2,0-.3.1-.7.5-1.4.6-1.4,1.5-2.1,2.5-2.1s1.4.3,1.7,1l.2.9-.3,1.2-.5,1.3h0ZM251.9,261.1l-.5,2.8h-6v-.5c.1,0,.2-.1.2-.1l3.1-3.4c1.1-1.3,1.7-2.5,1.7-3.6s-.3-1.7-.9-2.2c-.3-.3-.8-.4-1.3-.4s-1.3.3-1.8,1l-.3.6h.2c.4,0,.7.2.8.6v.2c0,.5-.2.7-.6.9h-.2c-.4,0-.7-.2-.8-.5v-.4c0-.8.3-1.5.9-2.1s1.3-.8,2-.8c1.2,0,2.1.4,2.8,1.2.4.4.6,1,.6,1.6v.3c0,.8-.2,1.5-.8,2.2l-1.5,1.5-1,.8v.2c-.1,0-1.8,1.6-1.8,1.6h4.4l.3-1.5h.5,0Z"/>
    <path class="cls-1" d="M209.6,247.9l38.8,38.8"/>
    <path class="cls-2" d="M150.5,300.6c0,.9-.3,2-.7,3.6-1,3-2.1,4.7-3.7,5.1h-.8c-1.4.1-2.3-.3-2.8-1.3s-.3-.9-.3-1.4c0-.8.4-2.2,1-4l.3-.7c.2-.5.4-1,.4-1.6s-.2-.8-.6-.8c-.8,0-1.5.7-2,2l-.3.9-.4.4c-.1,0-.2-.1-.2-.3s.1-.7.5-1.4c.6-1.4,1.5-2.1,2.5-2.1s1.4.3,1.7,1l.2.9-.3,1.1c-.6,1.5-1.1,3-1.3,4.6v.3c0,1.2.5,1.9,1.4,2h.3c1.2,0,2.3-1,3.2-3.1.5-1.2.8-2.3.9-3.1,0-.7-.3-1.5-.8-2-.3-.2-.4-.4-.4-.6,0-.4.2-.7.6-1h.5c.5-.1.8.2,1,.7v.8h.1,0ZM155.6,302.3v9c0,.4,0,.6.2.7h1.3c0,.1.5.1.5.1v.5c-1.7-.1-3.5-.1-5.2,0v-.5h.5c.8,0,1.3,0,1.4-.3v-.5c.1,0,.1-8.3.1-8.3-.5.3-1.2.4-2.1.4v-.5c1.3,0,2.3-.3,3-1h.3v.4h0Z"/>
    <path class="cls-1" d="M170.7,286.7v38.9"/>
    <path class="cls-2" d="M269.5,299.6c0,.9-.3,2-.7,3.6-1,3-2.1,4.7-3.7,5.1h-.8c-1.4.1-2.3-.3-2.8-1.3-.2-.4-.3-.9-.3-1.4,0-.8.4-2.2,1-4l.3-.7c.2-.5.4-1,.4-1.6s-.2-.8-.5-.8c-.9,0-1.6.7-2.1,2l-.3.9-.3.4c-.2,0-.3-.1-.3-.3s.1-.7.5-1.4c.6-1.4,1.5-2.1,2.5-2.1s1.4.3,1.7,1l.2.9-.3,1.1c-.6,1.5-1.1,3-1.3,4.6v.3c0,1.2.5,1.9,1.5,2h.2c1.2,0,2.3-1,3.2-3.1.5-1.2.8-2.3.9-3.1,0-.7-.3-1.5-.8-2-.3-.2-.4-.4-.4-.6,0-.4.2-.7.6-1h.6c.4-.1.7.2.9.7v.8h0ZM274.5,306c1.1.2,1.9.7,2.4,1.6.6,1.2.3,2.7-.8,3.6-.7.5-1.4.8-2.3.8s-2-.3-2.6-1c-.4-.4-.7-1-.7-1.5s.3-.8.7-1h.3c.4,0,.6.2.8.6v.3c0,.5-.1.8-.5.9h-.5c.4.7,1,1,2,1.2h.5c.6,0,1.1-.3,1.5-1,.2-.4.3-1,.3-1.6,0-1.4-.5-2.3-1.3-2.6h-1.4c-.2,0-.3-.1-.4-.3h.3c0-.1.6-.2.6-.2.6,0,1-.2,1.3-.6l.2-.2c.3-.5.4-1.2.4-1.9,0-1-.4-1.6-1.1-1.7h-.4c-.8,0-1.4.1-1.9.6l-.3.3c.7,0,1,.3,1,.8s-.2.7-.5.8h-.3c-.4,0-.7-.2-.8-.5v-.3c0-.7.3-1.3,1-1.7.6-.3,1.2-.5,1.8-.5,1,0,1.8.3,2.4.9s.6.8.6,1.3c0,1-.4,1.7-1.1,2.3l-1.2.6h0Z"/>
    <path class="cls-1" d="M248.4,286.7v38.9"/>
    <path d="M216.6,170.2c0,3.9-3.1,7-7,7s-7-3.1-7-7,3.1-7,7-7,7,3.1,7,7Z"/>
    <path class="cls-2" d="M294.3,170.2c0,3.9-3.1,7-7,7s-7-3.1-7-7,3.1-7,7-7,7,3.1,7,7ZM216.6,92.6c0,3.9-3.1,7-7,7s-7-3.1-7-7,3.1-7,7-7,7,3.1,7,7ZM138.9,170.2c0,3.9-3.1,7-7,7s-7-3.1-7-7,3.1-7,7-7,7,3.1,7,7ZM216.6,247.9c0,3.9-3.1,7-7,7s-7-3.1-7-7,3.1-7,7-7,7,3.1,7,7ZM177.7,53.7c0,3.9-3.1,7-7,7s-7-3.1-7-7,3.1-7,7-7,7,3.1,7,7ZM255.4,53.7c0,3.9-3.1,7-7,7s-7-3.1-7-7,3.1-7,7-7,7,3.1,7,7Z"/>
    <path class="cls-3" d="M177.7,14.9c0,3.9-3.1,7-7,7s-7-3.1-7-7,3.1-7,7-7,7,3.1,7,7ZM255.4,14.9c0,3.9-3.1,7-7,7s-7-3.1-7-7,3.1-7,7-7,7,3.1,7,7Z"/>
    <path class="cls-2" d="M333.1,131.4c0,3.9-3.1,7-7,7s-7-3.1-7-7,3.1-7,7-7,7,3.1,7,7ZM333.1,209c0,3.9-3.1,7-7,7s-7-3.1-7-7,3.1-7,7-7,7,3.1,7,7Z"/>
    <path class="cls-3" d="M333.1,73.1c0,3.9-3.1,7-7,7s-7-3.1-7-7,3.1-7,7-7,7,3.1,7,7h0ZM391.3,131.4c0,3.9-3.1,7-7,7s-7-3.1-7-7,3.1-7,7-7,7,3.1,7,7ZM391.3,209c0,3.9-3.1,7-7,7s-7-3.1-7-7,3.1-7,7-7,7,3.1,7,7ZM333.1,267.3c0,3.9-3.1,7-7,7s-7-3.1-7-7,3.1-7,7-7,7,3.1,7,7Z"/>
    <path class="cls-2" d="M61.3,170.2c0,3.9-3.1,7-7,7s-7-3.1-7-7,3.1-7,7-7,7,3.1,7,7Z"/>
    <path class="cls-3" d="M22.4,131.4c0,3.9-3.1,7-7,7s-7-3.1-7-7,3.1-7,7-7,7,3.1,7,7ZM22.4,209c0,3.9-3.1,7-7,7s-7-3.1-7-7,3.1-7,7-7,7,3.1,7,7Z"/>
    <path class="cls-2" d="M177.7,286.7c0,3.9-3.1,7-7,7s-7-3.1-7-7,3.1-7,7-7,7,3.1,7,7ZM255.4,286.7c0,3.9-3.1,7-7,7s-7-3.1-7-7,3.1-7,7-7,7,3.1,7,7Z"/>
    <path class="cls-3" d="M177.7,325.6c0,3.9-3.1,7-7,7s-7-3.1-7-7,3.1-7,7-7,7,3.1,7,7ZM255.4,325.6c0,3.9-3.1,7-7,7s-7-3.1-7-7,3.1-7,7-7,7,3.1,7,7Z"/>
    <path class="cls-2" d="M92.1,179.2c0,.6-.3,1-.8,1.2-.2,0-.3.1-.5,0-.4,0-.7-.2-.8-.6v-.2c0-.5.2-.8.6-1l.6-.3c.5,0,.7.3.8.7v.2M90.4,187.9l-1,2.4-.6,2.3c0,.5.2.8.6.8,1,0,1.7-.9,2.2-2.6v-.3c.1-.2.3-.3.3-.3h.2c.1,0,.2,0,.2.2s-.1.7-.5,1.4c-.6,1.4-1.5,2.1-2.5,2.1s-1.4-.3-1.7-1l-.2-.9.6-1.8c.6-1.8,1.2-3.7,1.8-5.5,0-.5-.2-.7-.6-.7-.8,0-1.5.7-2,2l-.3.8-.4.4c-.1,0-.2,0-.2-.2,0-.3.1-.8.5-1.4.6-1.4,1.5-2.1,2.5-2.1s1.4.3,1.7,1l.2.8-.3,1.3-.5,1.3h0ZM98.1,191.4c1,.2,1.9.8,2.3,1.6.3.4.4.9.4,1.4,0,.9-.4,1.6-1.1,2.3-1.5,1.1-3.5,1.1-4.9-.2-.5-.5-.7-1-.7-1.6s.2-.8.7-.9h.2c.4,0,.7.2.9.5v.4c0,.4-.2.7-.6.8h-.4c.4.8,1,1.1,2,1.3h.4c.7,0,1.2-.3,1.5-1,.2-.4.3-1,.3-1.6,0-1.5-.4-2.3-1.2-2.6-.2,0-.5-.1-.7,0h-.7c-.2,0-.3,0-.4-.2,0,0,.1-.2.3-.2h.6c.6,0,1-.3,1.3-.7v-.2c.4-.5.6-1.1.6-1.8,0-1-.4-1.6-1.2-1.8h-.4c-.7,0-1.3.2-1.8.6l-.3.4c.7,0,1,.2,1,.8s-.2.6-.5.7h-.3c-.4,0-.7,0-.8-.5v-.2c0-.8.3-1.3,1-1.8.5-.3,1.1-.4,1.8-.4,1,0,1.8.2,2.4.8.4.5.6.9.6,1.4,0,.9-.4,1.6-1.2,2.2-.3.3-.7.5-1,.6h0Z"/>
  </g>
</svg>
