<svg version="1.2" xmlns="http://www.w3.org/2000/svg" viewBox="0 0 1024 1024" width="1024" height="1024">
	<title>36e26b35-f02a-4a5f-bb62-366a7ee2f11a</title>
	<style>
		.s0 { fill: #8c8c8c }
	</style>
	<g id="Layer 1">
		<path class="s0" d="m429.2 93c2.8-2.6 5.9-4.9 9.3-6.7 3.6-1.9 7.8-3.6 11.9-4.1 15.1-1.8 33.5 8 39 22.1 3.4 8.7 1.3 26.8 13.2 27.3 6.8 0.3 13.3-1.4 20.1-2.2 14.6-1.6 29.3-3.3 43.9-4.7 35.5-3.5 71.3-5.8 106.7-10 16.2-2 32.5-2.6 48.6-4.7 6.5-0.8 12.4-4.3 19-3 16.2 3.3 15.6 24.2 2.4 30.5 5.5 9.7 13 18.4 19.7 27.3 14 18.7 28.4 37 42.3 55.7 45.5 61.8 91.8 123.3 138.9 183.9 16.9 21.7 33.4 43.6 50.5 65.2 8.7 11 19.1 19.6 16.1 34.4-5.9 28.5-29.8 53.9-56.4 64.7-11.5 4.6-23.6 6.3-35.6 9.1l-58.1 13.8c-51.2 12.1-102.4 26.2-154.2 35.9-25.1 4.8-51.4-1.5-72.3-15.6-7.2-4.8-17-12-20.5-20.2-4.6-10.5 4.5-23 7.3-33.2 7.4-27.2 13-55.4 18.9-83 16.4-77.1 33.5-154.2 50.5-231.2 5-22.6 9.7-45.1 14.5-67.6 2.5-11.4 6.6-22.8 7.6-34.4-11.9 5.1-25.5 4.8-38 8-38.7 9.7-77.5 18.9-116.2 28.6-12.7 3.1-25.3 6.6-38 9.8-4.5 1.1-12.5 2-15.3 6.2-3.4 5 0.5 11.9-0.9 17.3-1.4 5.6-7.3 9.6-7.5 15.5-0.2 9.3 5.9 20.5 8 29.6 5 21.2 8.8 42.7 12.8 64 19.6 104.5 40.6 208.7 60.3 313.1 2.9 15.1 6 30.2 9.7 45.1 1.3 5.2 0.8 11.8 3.3 16.5 4.1 7.8 14.9 7.7 19.3 15.5 6.1 11 1.5 28.1 14.7 34.4v-14.2c29.8 0 59.3 0.1 88.9 2.2 16.2 1.2 33.1 2.7 48.7 7.7 20.4 6.5 40.7 25.6 36.5 49.4-2.1 11.6-19 17.9-28.2 22.8-28.5 15-57.7 28.7-86.6 42.7-41.8 20.2-83.3 41.2-125.7 60-21.4 9.5-45.3 22.4-68.8 24.9-36.3 3.9-72.6-10.7-106.7-20.7-17.3-5-34.1-11.4-51-17.4-8.4-3-19.5-5.2-25.8-11.8-9.3-9.5-4.2-28.7 1.3-38.9 14.6-27.2 52.6-37.2 79-48.8 23.6-10.3 48.3-18.7 72.4-27.7 9.9-3.8 24.7-6 31.6-14.9 4.7-6.1 0.2-16.4 2.7-23.6 1.6-4.5 4.1-9.3 7.4-12.8 2.8-3.1 6.8-5.4 7.6-9.7 1.3-7.3-1.5-16.4-1.8-23.7-1.2-24.7-4.5-49.1-7-73.6-8.9-88.3-20.5-176.4-31.4-264.4-2.9-23.7-5.3-47.5-8.1-71.2-2-16.8-5.2-33.4 0.2-49.8-6.3-2-12.2-6.2-15.8-11.9-3.2-5-3.1-12.4-10.3-13.7-7-1.3-15.8 2.8-22.6 3.9-15 2.5-30.1 4-45 6.7q-51.7 9.4-103.2 19.1c-17 3.2-33.8 7.9-51 10.1 18.7 24.5 34.7 51.7 52.2 77.1 50.4 73.1 100.4 146.7 153.1 218.2 16.9 22.9 33.6 46.2 49.1 70 7.5 11.4 17.9 19.9 12.8 34.4-10.6 30.2-33.3 57.6-62 72-22.9 11.4-48.9 16.1-73.6 22.2q-101.9 25.5-203.9 50.9c-35.3 8.8-68.9 5.9-99.7-14.4-10.4-6.9-20.3-11.8-25.5-24-5.1-11.8 4.3-22.9 7.9-34.4 9.3-30.1 20.1-59.8 29-90.1 36.6-124.9 81.2-247.2 116.7-372.4-6.8 0.9-13.8 2.5-20.1-1.2-12.4-7-15.8-26.9-3.6-35.8 7.5-5.4 17.4-5.6 26.1-7.5 17.5-3.8 35-8 52.2-12.9 48.1-13.7 96.3-27 144.7-39.7 11.4-3 23-5.9 34.3-9.3 7.4-2.2 14.9-5.5 22.6-6.2-2.3-17.9-10.5-35.7 4.9-50.5zm301 61.1c-7.1 37-17.7 73.3-24.9 110.3 5.6-2.7 10.2-6.9 15.5-10.1 11.5-7 25.5-12.6 39.1-13.5 13.1-0.9 25.3 4 37.9 5.8-2.5-10.4-10-17.9-16.6-26.1-10.4-13.1-21.5-26.3-30.7-40.3-5.6-8.5-10.9-21.3-20.3-26.1zm-538.4 102c-9 22.8-14.3 46.7-21.7 70-5.4 16.9-13.6 34.6-16.2 52.2 23.3-12.8 45.8-25.8 73.5-22.2 13.6 1.7 25.3 6.9 38 11.5-2.4-12.3-14.6-24.3-21.7-34.4-12-17.1-23.4-34.7-34.9-52.2-5.3-8.1-9.8-18.3-17-24.9zm563.4 5.3c-10.2 1.8-20 4.7-28.5 10.7-7.9 5.5-14.3 12.4-19.1 20.8-6.6 11.5-10.7 24.6-10.4 37.9 1.1 44.1 43 75.4 85.2 68.3 9.2-1.6 17.2-5 24.9-10.2 23-15.2 34.4-45.5 27.6-72.3-8.5-33.6-44.4-61.4-79.7-55.2zm103.1 65.9c-2.5 20.1-3.9 38.7-16.5 55.7-6.9 9.3-16.8 15.8-23.8 24.9 35.7 8.3 65.6 39.8 63.9 78.3-0.5 11.3-4.5 21.9-9.3 32 13.9-1.1 27.8-6 41.5-9.2 24.5-5.7 49.2-10.4 73.5-16.9-10.1-15.2-22.5-29.4-33.6-43.9-15.3-19.8-29.8-40.4-44.8-60.4-10.3-13.8-20.8-27.2-31.8-40.4-5.9-7-11.5-14.8-19.1-20.1zm-175.5 36.7c-0.7 17.2-6.8 34.3-10.1 51-7.2 35.8-15.7 71.2-23.9 106.8-3.7 16.4-8.9 33.1-11.1 49.8 25-5.2 50-11 74.8-17.1 14.9-3.7 31-8.9 46.2-10.2-5.7-10-15.9-16.7-21.4-27.3-11.7-22.7-8.8-51.8 4.2-73.5 5-8.5 12.8-14.5 18.4-22.5-23.8-3.2-45.7-15.1-61.3-33.2-5.8-6.8-8.9-18.7-15.8-23.8zm-477.9 16c-10.7 1.9-21.9 6.6-30.9 12.6q-12.6 8.5-20.8 21.2c-8.1 12.7-13.5 28.7-13.4 43.9 0 49 48.4 83.9 94.7 75.2 11.1-2.1 21.9-7 30.9-13.8 24.5-18.6 36.8-48.7 30.2-79.2-8.5-39.1-51.5-67-90.7-59.9zm589.4 46.3c-14 2.4-27.4 9-35.8 20.8-21.2 29.5-9.5 77 26.3 88.6 7.9 2.5 19.2-1.2 27.3-2.6 11.3-2 28.3-5.2 36.5-13.8 36.6-38.2-5.3-101.7-54.3-93zm-474.4 14.8c2 16.1 2.1 32-3.4 47.5-18.2 51.2-78.6 82.3-130.6 64.8-22.9-7.7-42.8-23.9-55.2-44.7-4.7-7.9-7.5-16.5-11.2-24.9-5.7 11.9-8.2 26.5-12.3 39.1-9.3 29.3-18.9 58.5-28.1 87.8-8.2 26.5-16.8 53-25.2 79.5-4.3 13.4-10.6 27.5-12.7 41.5 28.9-6 57.4-17.4 86.6-21.4-5.3-6.9-12.7-12-18.2-18.9-12.9-16.5-20.7-39.5-17-60.5 0.9-5 3.5-9.5 5.1-14.3 5.3-14.9 13.2-28.3 25.4-38.7 28.2-24.2 70.7-24.5 99.6-1 9.1 7.4 15.8 16.4 21.3 26.7 3.8-6.3 4.9-14.6 8.1-21.4 8.4-17.9 22.3-34.2 40.5-42.8 28.2-13.2 64.9-8.2 87.8 13.3 13 12.3 21.6 30.9 24.4 48.5 2.8 18.1-4.2 32-9 48.6 20.3-1.6 40.6-10.1 60.5-14.2-3.9-10.3-12.3-19.5-18.6-28.5l-35.5-49.8c-17.7-24.7-35.3-49.6-52.6-74.7-9.3-13.4-17.9-30.1-29.7-41.5zm3.6 110.8c-8.8 1.1-16.8 2-24.9 5.8-17 8-29.3 26.3-31.7 44.7-3.2 24.3 6.5 48.9 28.1 61.7 6.3 3.7 15 7.3 22.5 6.6 25.6-2.3 53.7-12.8 63.4-38.6 12-32.1-7.3-68.5-39.6-77.6-5.9-1.7-11.7-3.3-17.8-2.6zm-164.9 28.5c-30.7 5.6-49.8 37-45.9 67.1 3.8 29.2 30.9 58.2 62.5 53 11.1-1.9 21.9-6.1 30.9-12.9 9.7-7.3 17.5-16.9 22-28.3 2.4-6.2 2.9-12.3 2.9-18.9 0-38.4-34.1-66.9-72.4-60zm270.4 250c29.5 41.1 74.8 39.5 114.5 24.9 37-13.7 72.4-28.6 107.7-48.2 18.3-10.2 34.9-24.2 53-34.5-9.3-4.6-18.7 2.4-27.4 6.3-21.1 9.5-41.9 20.2-63.2 28.8-41.7 16.8-85.3 38.5-129.9 37.2-19.3-0.6-36-13.4-54.7-14.5zm346.6-536.4c4.2-3 11.3-3.3 16.3-3.5-1.1 12.8-7.9 25.7-11.8 38 11.5 6.1 18.8 19.6 29.6 27.2v2.4c-5.5 1.4-14.5 5.1-20.2 3.8-6.9-1.5-14-9.7-18.9-14.5-2.5 6.5-5.2 16.2-11 20.5-4.4 3.3-12.2 3.4-17.5 4.4 1.1-8.8 5.7-17.8 9-26.1 1.4-3.4 4.2-8 3.3-11.8-1-4.1-5.4-7.2-8.2-10-6.3-6.3-13.6-12.5-17.1-20.8 5.5-0.8 12.1-3.9 17.7-2.9 7.7 1.3 14.1 10.4 20.2 14.7 1.4-6.1 3.3-17.6 8.6-21.4zm-544.2 122.6c5.2-3.3 13.8-3.2 19.7-3.9-3.5 15.3-13 28.5-16.6 43.8 5.4 2.7 8.9 7.7 13.1 11.9 6.2 6.3 13.4 12 19 19-7 0.9-17 5.9-23.8 3.9-7.3-2.2-14.1-13.3-20.1-18.2-2.6 6.7-4.9 16.9-10.1 22-5.1 4.9-17.5 5.5-24.3 6.5 3.9-9.5 8.3-18.9 12.3-28.5 1.5-3.5 4.3-7.8 3.6-11.8-0.8-4.7-5.6-8.6-8.8-11.9-6.6-6.7-13.6-13.7-19-21.3 5.4-2.1 16.9-6.4 22.6-5 7.9 2 14.6 13.6 20.1 19.2 1.8-7.3 5.6-21.4 12.3-25.7zm579.5 88.8c8.2-2.4 9.7-11 2.3-15.6-9.4-5.9-20.3 10.2-26.8-1.4-3.6-6.4-5.3-16.4-6.7-23.6-0.6-2.8-1.3-6.3 0.4-9 2.1-3.2 7.2-4.1 10.6-5.2 12-3.7 22.6-4.5 34.4 0-0.8 3.7-2.2 8.4-5.5 10.6-2.7 2-6.8 1.1-9.9 1.5-4.4 0.5-8.8 2.1-13 3.3 1.2 2.8 1.9 5.3 2.3 8.3 6.2-0.8 11.7-1.5 17.8 0.1 15.9 4 25.6 24.8 12.8 37.6-10.9 11-28.9 9.7-41.2 2.6 1.5-4.5 4.2-8 7.1-11.8 5 1.4 10.1 4.1 15.4 2.6zm-509.8 87.1c-2.4-5.3 6.7-12.4 10.5-14.5 15-7.9 38.5-1.2 36.7 18.5-0.5 5-3.3 8.8-5.9 13 4 1.9 7 4.3 9 8.3 9.4 18.7-10.3 31.7-26.7 32-5.4 0.1-16.7-0.8-18.6-7.2-1.3-4.3 4.4-9.7 6.7-12.9h2.4c2.2 2.8 4.5 5.5 8.3 6.1 11.5 2 15.7-14.1 3.5-17.5-3-0.8-6.4-0.5-9.5-0.5v-14.2c2.8 0 5.7 0.2 8.3-0.9 6.8-2.8 7-12.8-1.1-13.8-3-0.3-5.9 1.4-8.1 3.3-2.2 1.9-3.6 4.2-5 6.6-3.2-1.3-8.9-2.9-10.5-6.3zm-110 19.4c5.8 8.2 0 14.2 1 22.5 0.4 3.9 4 6.5 6 9.5 3.7 5.6 4.5 14.1 1.5 20.2-6.2 12.3-33.2 23-44 10.3-3.8-4.4 0.4-10.8 5.4-12.3 6.6-1.9 19.6 8.4 21.9-5.2 1.9-11.3-13.1-7.2-16.5-13.4-6.1-11.2 11.6-9.2 10.7-18.6-0.2-1.1-0.6-2.5-1.4-3.3-7.3-8.5-11.3 3.4-18.3 3.7-4.2 0.1-9.4-3.2-13-5.1 5.8-17.2 35.5-24.1 46.7-8.3z"/>
	</g>
</svg>