<?xml version="1.0" encoding="UTF-8"?>
<svg id="a" data-name="Слой 1" xmlns="http://www.w3.org/2000/svg" viewBox="0 0 14 14">
  <defs>
    <style>
      .b {
        fill: #4c4c4c;
      }
    </style>
  </defs>
  <path class="b" d="M7.89,8.96c.24.24.37.55.37.92,0,.33-.11.63-.32.88-.22.26-.54.39-.95.39s-.71-.13-.93-.39c-.21-.25-.33-.54-.34-.87h0c0-.42.13-.73.39-.96.25-.21.53-.33.84-.34h0c.39,0,.7.12.94.37ZM6.98,4.84c.41,0,.73-.13.95-.39.21-.25.32-.55.32-.88,0-.37-.12-.68-.37-.92s-.56-.37-.94-.37h0c-.31.01-.59.13-.84.34-.26.22-.39.54-.39.95h0c.01.34.13.63.34.88.22.26.54.39.93.39ZM11.75,6.21l-9.41-.03-.11.03c-.3.15-.34.39-.34.52v.19h.03c.04.11.13.24.31.33l9.46.03.06-.03c.29-.16.35-.36.35-.51s-.06-.36-.35-.51Z"/>
</svg>