<?xml version="1.0" encoding="UTF-8"?>
<svg id="a" data-name="Слой 1" xmlns="http://www.w3.org/2000/svg" viewBox="0 0 300 300">
  <defs>
    <style>
      .b {
        fill: gray;
      }
    </style>
  </defs>
  <path class="b" d="M158.2,32.4c-4.47-4.51-11.75-4.54-16.26-.07-.02.02-.04.04-.07.07l-103.47,103.47c-4.51,4.47-4.54,11.75-.07,16.26.02.02.04.04.07.07,2.17,2.15,5.11,3.35,8.16,3.33h11.5v80.48c0,12.7,10.29,22.99,22.99,22.99h137.96c12.7,0,22.99-10.29,22.99-22.99v-80.48h11.5c6.35,0,11.5-5.15,11.5-11.5.02-3.06-1.18-5.99-3.33-8.16l-103.47-103.47ZM81.05,236.01v-110.25l68.98-68.98,68.98,68.98v110.25H81.05Z"/>
  <path d="M134.7,127.52l7.17-4.21c.65,1.34,1.59,2.44,2.8,3.28,1.22.84,2.71,1.26,4.49,1.26s3.34-.48,4.58-1.44c1.24-.96,1.85-2.36,1.85-4.19s-.83-3.34-2.47-4.34c-1.65-1-3.92-1.51-6.8-1.53h-3.47v-7.29h3.17c2.77,0,4.84-.46,6.23-1.39,1.38-.93,2.07-2.4,2.07-4.42,0-1.52-.49-2.69-1.47-3.51-.98-.82-2.18-1.23-3.6-1.23-1.34,0-2.59.34-3.75,1.02-1.16.68-2.12,1.75-2.89,3.22l-6.97-3.35c1.21-2.31,3.08-4.24,5.62-5.8,2.54-1.55,5.55-2.33,9.03-2.33,4.35,0,7.7.98,10.05,2.95,2.35,1.97,3.53,4.68,3.53,8.14,0,2.31-.62,4.34-1.87,6.08-1.25,1.74-3.12,3.01-5.63,3.82v.15c2.71.47,4.85,1.62,6.42,3.42,1.57,1.81,2.36,3.98,2.36,6.51,0,3.97-1.42,7.11-4.25,9.43-2.84,2.31-6.56,3.47-11.16,3.47-3.7,0-6.78-.66-9.25-1.99-2.47-1.32-4.4-3.23-5.78-5.72Z"/>
  <path d="M134.96,220.57l7.26-4.03c.81,1.58,1.78,2.77,2.91,3.57s2.52,1.2,4.18,1.2c1.8,0,3.29-.57,4.48-1.7,1.19-1.14,1.78-2.63,1.78-4.49,0-2.23-.78-3.88-2.33-4.95-1.55-1.07-3.82-1.6-6.8-1.6-1.09,0-2.35.04-3.79.13-1.44.09-2.88.21-4.3.37l1.6-23.72h22.5v7.65h-15.36l-.59,8.39c.77-.06,1.48-.1,2.12-.13.64-.03,1.42-.04,2.33-.04,4.37,0,7.79,1.16,10.26,3.47,2.47,2.31,3.71,5.42,3.71,9.34,0,4.29-1.44,7.79-4.33,10.51-2.89,2.72-6.64,4.08-11.26,4.08-3.28,0-6.12-.67-8.51-2.02-2.39-1.34-4.34-3.35-5.84-6.02Z"/>
  <rect x="102.4" y="155.23" width="95.05" height="10.12"/>
  <rect class="b" x="212.81" y="38.14" width="15.33" height="76.67"/>
</svg>