<?xml version="1.0" encoding="UTF-8"?>
<svg id="a" data-name="Слой 1" xmlns="http://www.w3.org/2000/svg" viewBox="0 0 1411.69 347.79">
  <defs>
    <style>
      .b {
        opacity: .2;
      }

      .c {
        fill: #f7931e;
      }

      .d {
        opacity: .5;
      }
    </style>
  </defs>
  <g>
    <g class="b">
      <path class="c" d="M309.75,239.99c9.83-19.96,15.36-42.43,15.36-66.18s-5.53-46.22-15.36-66.18l-114.64,66.18,114.64,66.18Z"/>
      <path class="c" d="M185.12,191.13v132.34c47.78-3.15,89.44-28.65,114.62-66.16l-114.62-66.18Z"/>
    </g>
    <g>
      <path class="c" d="M185.12,156.49l114.62-66.18c-25.18-37.51-66.85-63.02-114.62-66.16v132.34Z"/>
      <path class="c" d="M165.12,156.49V24.15c-47.78,3.15-89.44,28.65-114.62,66.16l114.62,66.18Z"/>
      <path class="c" d="M40.48,107.62c-9.83,19.96-15.36,42.43-15.36,66.18s5.53,46.22,15.36,66.18l114.64-66.18L40.48,107.62Z"/>
      <path class="c" d="M165.12,191.13l-114.62,66.18c25.18,37.51,66.85,63.02,114.62,66.16v-132.34Z"/>
    </g>
  </g>
  <g>
    <g class="b">
      <path class="c" d="M1246.57,179.75l124.64-71.96c9.83,19.96,15.36,42.43,15.36,66.18,0,79.48-61.82,144.51-140,149.66v-143.89Z"/>
    </g>
    <g>
      <path class="c" d="M1236.57,162.43l-124.62-71.95c26.92-40.11,72.69-66.5,124.62-66.5s97.7,26.4,124.62,66.5l-124.62,71.95Z"/>
      <path class="c" d="M1226.57,179.75v143.89c-78.18-5.15-140-70.18-140-149.66,0-23.76,5.53-46.22,15.36-66.18l124.64,71.96Z"/>
    </g>
  </g>
  <path d="M484.41,168.18h-47.87v-10.07h47.87v10.07ZM484.41,189.51h-47.87v-9.98h47.87v9.98Z"/>
  <g>
    <rect x="355.12" y="169.53" width="51.42" height="7"/>
    <path d="M392.83,110v28.7h4.29v7.49h-4.29v9.33h-9.52v-9.33h-18.76v-7.84c1.65-1.97,3.37-4.12,5.16-6.46,1.79-2.34,3.51-4.75,5.16-7.22,1.67-2.48,3.22-4.97,4.65-7.48s2.64-4.91,3.64-7.19h9.68ZM373.27,138.7h10.03v-15.65c-.7,1.38-1.47,2.77-2.3,4.18-.84,1.41-1.68,2.79-2.52,4.14-.87,1.33-1.75,2.62-2.64,3.86-.89,1.24-1.75,2.4-2.57,3.48Z"/>
    <path d="M396.51,221.68c0,4.51-1.46,8.29-4.37,11.35-2.91,3.06-6.69,4.59-11.35,4.59-4.95,0-8.8-1.74-11.54-5.22-2.74-3.48-4.11-8.79-4.11-15.92,0-4.49.52-8.51,1.57-12.08s2.58-6.48,4.59-8.75c1.57-1.76,3.38-3.05,5.43-3.87,2.05-.83,4.3-1.24,6.73-1.24,2.81,0,5.33.71,7.54,2.14,2.21,1.43,3.9,3.31,5.06,5.64l-6.98,4.13c-.57-1.25-1.34-2.25-2.32-3s-2.18-1.13-3.62-1.13c-1.06,0-2.05.21-2.97.62-.92.41-1.76,1.04-2.52,1.89-1.06,1.14-1.85,2.65-2.37,4.52-.52,1.87-.8,3.97-.84,6.3h.29c1.12-1.35,2.48-2.38,4.08-3.06,1.6-.69,3.41-1.03,5.44-1.03,3.75,0,6.73,1.3,8.94,3.91s3.32,6.01,3.32,10.22ZM387.21,222.31c0-2.18-.52-3.93-1.57-5.24s-2.52-1.97-4.43-1.97-3.45.73-4.57,2.17c-1.12,1.45-1.68,3.14-1.68,5.06,0,2.22.56,4.02,1.68,5.38,1.12,1.37,2.57,2.05,4.35,2.05,1.95,0,3.47-.69,4.57-2.08,1.1-1.39,1.65-3.18,1.65-5.38Z"/>
  </g>
  <g>
    <path d="M1016.31,155.64v-3.39c0-2.3.39-4.37,1.16-6.2.77-1.83,1.75-3.48,2.92-4.94,1.17-1.44,2.45-2.72,3.84-3.84s2.71-2.13,3.97-3.03c1.32-.94,2.47-1.84,3.47-2.7.99-.86,1.82-1.72,2.49-2.57.69-.84,1.23-1.72,1.62-2.64.39-.92.58-2,.58-3.23,0-1.61-.52-2.88-1.55-3.8-1.04-.92-2.42-1.38-4.16-1.38-1.59,0-2.99.52-4.19,1.57s-2.23,2.48-3.09,4.3l-7.97-3.26c1.51-3.28,3.63-5.88,6.39-7.78,2.75-1.9,6.11-2.86,10.09-2.86,4.42,0,7.92,1.16,10.53,3.47,2.6,2.31,3.91,5.41,3.91,9.3,0,2.07-.32,3.91-.96,5.52-.64,1.61-1.49,3.08-2.56,4.39-1.05,1.32-2.24,2.55-3.59,3.69-1.35,1.14-2.77,2.22-4.25,3.25-.94.71-1.87,1.4-2.78,2.06s-1.7,1.32-2.37,1.99c-.71.69-1.24,1.36-1.58,2.01-.35.65-.52,1.27-.52,1.85h18.55v8.22h-29.94Z"/>
    <path d="M1014.55,229.47l7.68-4.51c.7,1.44,1.7,2.61,3,3.51,1.3.9,2.91,1.35,4.81,1.35s3.58-.51,4.91-1.54c1.32-1.03,1.98-2.52,1.98-4.49s-.88-3.58-2.65-4.65c-1.77-1.07-4.2-1.61-7.29-1.63h-3.71v-7.81h3.4c2.96,0,5.19-.5,6.67-1.49,1.48-1,2.22-2.57,2.22-4.73,0-1.63-.52-2.88-1.57-3.76-1.05-.88-2.33-1.32-3.86-1.32-1.44,0-2.78.36-4.02,1.09s-2.27,1.88-3.1,3.45l-7.46-3.59c1.29-2.48,3.3-4.54,6.02-6.21,2.72-1.66,5.94-2.49,9.67-2.49,4.66,0,8.24,1.05,10.76,3.16,2.52,2.11,3.78,5.01,3.78,8.71,0,2.48-.67,4.65-2,6.51-1.33,1.86-3.34,3.23-6.03,4.1v.16c2.9.51,5.19,1.73,6.87,3.67,1.68,1.94,2.52,4.26,2.52,6.97,0,4.25-1.52,7.62-4.56,10.1-3.04,2.48-7.02,3.71-11.95,3.71-3.96,0-7.26-.71-9.91-2.13s-4.71-3.46-6.19-6.13Z"/>
    <rect x="1005.15" y="169.64" width="51.42" height="7"/>
  </g>
  <path d="M975.15,168.18h-47.87v-10.07h47.87v10.07ZM975.15,189.51h-47.87v-9.98h47.87v9.98Z"/>
  <g>
    <g class="d">
      <path d="M717.43,107.43c-1.52,0-2.79-.46-3.81-1.39-1.02-.93-1.52-2.08-1.52-3.44s.52-2.56,1.57-3.46c1.04-.9,2.35-1.35,3.91-1.35s2.88.45,3.88,1.36c1.01.91,1.51,2.06,1.51,3.44s-.51,2.59-1.54,3.49-2.36,1.35-4,1.35ZM717.43,128.87c-1.52,0-2.79-.47-3.81-1.41-1.02-.94-1.52-2.09-1.52-3.46s.52-2.56,1.57-3.46c1.04-.9,2.35-1.35,3.91-1.35s2.88.45,3.88,1.36c1.01.91,1.51,2.06,1.51,3.44s-.51,2.59-1.54,3.5-2.36,1.36-4,1.36Z"/>
      <path d="M743.09,128.14v-3.16c0-2.15.36-4.08,1.08-5.79.72-1.71,1.63-3.25,2.72-4.61,1.09-1.35,2.29-2.54,3.59-3.59,1.3-1.04,2.53-1.99,3.71-2.83,1.23-.88,2.31-1.72,3.24-2.52.93-.8,1.7-1.6,2.33-2.4.64-.78,1.15-1.6,1.51-2.46.36-.86.54-1.87.54-3.02,0-1.5-.48-2.69-1.45-3.54s-2.26-1.29-3.88-1.29c-1.48,0-2.79.49-3.91,1.46-1.12.98-2.08,2.31-2.89,4.01l-7.44-3.05c1.41-3.07,3.39-5.49,5.96-7.27,2.57-1.78,5.71-2.67,9.42-2.67,4.12,0,7.4,1.08,9.83,3.24s3.65,5.05,3.65,8.69c0,1.93-.3,3.65-.89,5.16-.6,1.5-1.39,2.87-2.39,4.1-.98,1.23-2.09,2.38-3.35,3.44s-2.58,2.08-3.97,3.03c-.88.66-1.74,1.3-2.59,1.92s-1.59,1.24-2.21,1.86c-.66.64-1.16,1.27-1.48,1.88s-.48,1.18-.48,1.73h17.31v7.68h-27.95Z"/>
    </g>
    <path d="M690.01,73.88v44h6.57v11.49h-6.57v14.31h-14.6v-14.31h-28.77v-12.02c2.53-3.02,5.17-6.32,7.91-9.91,2.74-3.58,5.38-7.28,7.91-11.07,2.56-3.8,4.94-7.62,7.13-11.46,2.19-3.84,4.05-7.52,5.57-11.02h14.85ZM660.03,117.89h15.38v-24c-1.07,2.11-2.25,4.24-3.53,6.4-1.28,2.16-2.57,4.28-3.87,6.35-1.33,2.04-2.68,4.02-4.04,5.91-1.36,1.9-2.68,3.67-3.94,5.33Z"/>
    <rect x="633.04" y="160.45" width="140.55" height="10.86"/>
    <path d="M694.94,236.7c0,6.91-2.23,12.71-6.69,17.4-4.46,4.69-10.26,7.03-17.4,7.03-7.59,0-13.49-2.67-17.69-8.01-4.2-5.34-6.3-13.47-6.3-24.41,0-6.88.8-13.05,2.41-18.52,1.61-5.47,3.95-9.94,7.03-13.41,2.4-2.69,5.18-4.67,8.32-5.94,3.15-1.27,6.59-1.9,10.32-1.9,4.32,0,8.17,1.09,11.56,3.29,3.39,2.19,5.98,5.07,7.76,8.64l-10.71,6.33c-.88-1.91-2.06-3.45-3.55-4.6-1.49-1.15-3.34-1.73-5.55-1.73-1.62,0-3.14.32-4.55.95s-2.7,1.6-3.87,2.9c-1.62,1.75-2.83,4.06-3.63,6.94-.8,2.87-1.23,6.09-1.29,9.66h.44c1.72-2.08,3.8-3.64,6.25-4.7,2.45-1.05,5.23-1.58,8.35-1.58,5.74,0,10.31,2,13.7,5.99,3.39,3.99,5.09,9.22,5.09,15.67ZM680.68,237.68c0-3.34-.8-6.02-2.41-8.03-1.61-2.01-3.87-3.02-6.79-3.02s-5.29,1.11-7.01,3.33c-1.72,2.22-2.58,4.81-2.58,7.76,0,3.41.86,6.16,2.58,8.25,1.72,2.09,3.94,3.14,6.67,3.14,2.98,0,5.32-1.06,7.01-3.19,1.69-2.12,2.53-4.88,2.53-8.25Z"/>
    <g class="d">
      <path d="M717.43,223.28c-1.52,0-2.79-.46-3.81-1.39-1.02-.93-1.52-2.08-1.52-3.44s.52-2.56,1.57-3.46c1.04-.9,2.35-1.35,3.91-1.35s2.88.45,3.88,1.36c1.01.91,1.51,2.06,1.51,3.44s-.51,2.59-1.54,3.49-2.36,1.35-4,1.35ZM717.43,244.73c-1.52,0-2.79-.47-3.81-1.41-1.02-.94-1.52-2.09-1.52-3.46s.52-2.56,1.57-3.46c1.04-.9,2.35-1.35,3.91-1.35s2.88.45,3.88,1.36c1.01.91,1.51,2.06,1.51,3.44s-.51,2.59-1.54,3.5-2.36,1.36-4,1.36Z"/>
      <path d="M743.09,244v-3.16c0-2.15.36-4.08,1.08-5.79.72-1.71,1.63-3.25,2.72-4.61,1.09-1.35,2.29-2.54,3.59-3.59,1.3-1.04,2.53-1.99,3.71-2.83,1.23-.88,2.31-1.72,3.24-2.52.93-.8,1.7-1.6,2.33-2.4.64-.78,1.15-1.6,1.51-2.46.36-.86.54-1.87.54-3.02,0-1.5-.48-2.69-1.45-3.54s-2.26-1.29-3.88-1.29c-1.48,0-2.79.49-3.91,1.46-1.12.98-2.08,2.31-2.89,4.01l-7.44-3.05c1.41-3.07,3.39-5.49,5.96-7.27,2.57-1.78,5.71-2.67,9.42-2.67,4.12,0,7.4,1.08,9.83,3.24s3.65,5.05,3.65,8.69c0,1.93-.3,3.65-.89,5.16-.6,1.5-1.39,2.87-2.39,4.1-.98,1.23-2.09,2.38-3.35,3.44s-2.58,2.08-3.97,3.03c-.88.66-1.74,1.3-2.59,1.92s-1.59,1.24-2.21,1.86c-.66.64-1.16,1.27-1.48,1.88s-.48,1.18-.48,1.73h17.31v7.68h-27.95Z"/>
    </g>
    <g>
      <path class="c" d="M564.12,98.59l35.61-20.56c-7.82-11.65-20.77-19.58-35.61-20.56v41.12Z"/>
      <path class="c" d="M557.91,98.59v-41.12c-14.84.98-27.79,8.9-35.61,20.56l35.61,20.56Z"/>
      <path class="c" d="M519.18,83.41c-3.06,6.2-4.77,13.18-4.77,20.56s1.72,14.36,4.77,20.56l35.62-20.56-35.62-20.56Z"/>
      <path class="c" d="M557.91,109.35l-35.61,20.56c7.82,11.65,20.77,19.58,35.61,20.56v-41.12Z"/>
    </g>
    <g>
      <path class="c" d="M850.73,100.44l-38.68-22.33c8.36-12.45,22.56-20.64,38.68-20.64s30.32,8.19,38.68,20.64l-38.68,22.33Z"/>
      <path class="c" d="M847.62,105.81v44.66c-24.26-1.6-43.45-21.78-43.45-46.45,0-7.37,1.72-14.34,4.77-20.54l38.68,22.33Z"/>
    </g>
    <g>
      <g class="b">
        <path class="c" d="M603.69,255.63c3.06-6.2,4.77-13.18,4.77-20.56s-1.72-14.36-4.77-20.56l-35.62,20.56,35.62,20.56Z"/>
        <path class="c" d="M564.97,240.45v41.12c14.84-.98,27.79-8.9,35.61-20.56l-35.61-20.56Z"/>
      </g>
      <g>
        <path class="c" d="M564.97,229.68l35.61-20.56c-7.82-11.65-20.77-19.58-35.61-20.56v41.12Z"/>
        <path class="c" d="M558.75,229.68v-41.12c-14.84.98-27.79,8.9-35.61,20.56l35.61,20.56Z"/>
        <path class="c" d="M520.03,214.5c-3.06,6.2-4.77,13.18-4.77,20.56s1.72,14.36,4.77,20.56l35.62-20.56-35.62-20.56Z"/>
        <path class="c" d="M558.75,240.45l-35.61,20.56c7.82,11.65,20.77,19.58,35.61,20.56v-41.12Z"/>
      </g>
    </g>
    <g>
      <g class="b">
        <path class="c" d="M853.83,236.91l38.68-22.33c3.05,6.2,4.77,13.17,4.77,20.54,0,24.67-19.19,44.85-43.45,46.45v-44.66Z"/>
      </g>
      <g>
        <path class="c" d="M850.73,231.53l-38.68-22.33c8.36-12.45,22.56-20.64,38.68-20.64s30.32,8.19,38.68,20.64l-38.68,22.33Z"/>
        <path class="c" d="M847.62,236.91v44.66c-24.26-1.6-43.45-21.78-43.45-46.45,0-7.37,1.72-14.34,4.77-20.54l38.68,22.33Z"/>
      </g>
    </g>
  </g>
</svg>