<?xml version="1.0" encoding="UTF-8"?>
<svg id="a" data-name="Слой 1" xmlns="http://www.w3.org/2000/svg" viewBox="0 0 1510.12 392.96">
  <defs>
    <style>
      .b {
        fill: #29abe2;
      }

      .c {
        opacity: .2;
      }

      .d {
        opacity: .5;
      }
    </style>
  </defs>
  <g>
    <path class="b" d="M608.94,80.13c-25.09.7-45.22,21.27-45.22,46.53s20.13,45.83,45.22,46.53v-93.06Z"/>
    <g class="d">
      <path d="M785.92,147.78l-9.9-9.96-9.96,9.96-4.25-4.28,9.96-9.84-9.96-9.96,4.13-4.25,10.08,9.96,10.02-9.96,4.07,4.42-9.9,9.79,9.96,9.9-4.25,4.22Z"/>
      <path d="M799.07,144l7.09-4.16c.64,1.33,1.57,2.41,2.77,3.24s2.68,1.25,4.44,1.25,3.31-.47,4.53-1.42,1.83-2.33,1.83-4.15-.82-3.31-2.45-4.29-3.87-1.49-6.72-1.51h-3.43v-7.21h3.13c2.73,0,4.79-.46,6.15-1.38s2.05-2.37,2.05-4.37c0-1.5-.48-2.66-1.45-3.47s-2.15-1.22-3.56-1.22c-1.33,0-2.56.34-3.71,1.01s-2.09,1.73-2.86,3.18l-6.88-3.31c1.19-2.29,3.04-4.19,5.55-5.73s5.48-2.3,8.92-2.3c4.3,0,7.61.97,9.93,2.92s3.49,4.62,3.49,8.04c0,2.29-.62,4.29-1.85,6.01s-3.09,2.98-5.57,3.78v.15c2.68.47,4.79,1.6,6.34,3.38s2.33,3.93,2.33,6.43c0,3.93-1.4,7.03-4.2,9.32s-6.48,3.43-11.03,3.43c-3.65,0-6.7-.65-9.14-1.96s-4.35-3.19-5.71-5.65Z"/>
    </g>
    <path d="M730.94,166.37h-15.33v-53.25c-1.79,1.2-3.76,2.22-5.91,3.07-2.16.84-4.52,1.67-7.08,2.48l-4.19-12.27c4.45-1.3,8.65-2.92,12.61-4.87,3.96-1.95,7.5-4.12,10.61-6.52h9.3v71.36Z"/>
    <rect x="682.35" y="183.14" width="140.55" height="10.86"/>
    <path d="M697.62,282.61v-5.26c0-3.57.6-6.77,1.8-9.61,1.2-2.84,2.71-5.39,4.53-7.67,1.82-2.24,3.8-4.23,5.96-5.96,2.16-1.74,4.21-3.3,6.16-4.7,2.04-1.46,3.84-2.85,5.38-4.19,1.54-1.33,2.83-2.66,3.87-3.99,1.07-1.3,1.91-2.66,2.51-4.09.6-1.43.9-3.1.9-5.01,0-2.5-.8-4.46-2.41-5.89-1.61-1.43-3.76-2.14-6.45-2.14-2.47,0-4.63.81-6.5,2.43-1.87,1.62-3.46,3.85-4.79,6.67l-12.36-5.06c2.34-5.09,5.64-9.12,9.91-12.07,4.27-2.95,9.48-4.43,15.65-4.43,6.85,0,12.29,1.79,16.33,5.38,4.04,3.59,6.06,8.4,6.06,14.43,0,3.21-.5,6.07-1.48,8.57-.99,2.5-2.31,4.77-3.97,6.81-1.62,2.04-3.48,3.95-5.57,5.72-2.09,1.77-4.29,3.45-6.6,5.04-1.46,1.1-2.9,2.17-4.31,3.19-1.41,1.02-2.64,2.05-3.67,3.09-1.1,1.07-1.92,2.11-2.46,3.12-.54,1.01-.8,1.96-.8,2.87h28.77v12.75h-46.44Z"/>
    <g class="d">
      <path d="M785.92,263.64l-9.9-9.96-9.96,9.96-4.25-4.28,9.96-9.84-9.96-9.96,4.13-4.25,10.08,9.96,10.02-9.96,4.07,4.42-9.9,9.79,9.96,9.9-4.25,4.22Z"/>
      <path d="M799.07,259.86l7.09-4.16c.64,1.33,1.57,2.41,2.77,3.24s2.68,1.25,4.44,1.25,3.31-.47,4.53-1.42,1.83-2.33,1.83-4.15-.82-3.31-2.45-4.29-3.87-1.49-6.72-1.51h-3.43v-7.21h3.13c2.73,0,4.79-.46,6.15-1.38s2.05-2.37,2.05-4.37c0-1.5-.48-2.66-1.45-3.47s-2.15-1.22-3.56-1.22c-1.33,0-2.56.34-3.71,1.01s-2.09,1.73-2.86,3.18l-6.88-3.31c1.19-2.29,3.04-4.19,5.55-5.73s5.48-2.3,8.92-2.3c4.3,0,7.61.97,9.93,2.92s3.49,4.62,3.49,8.04c0,2.29-.62,4.29-1.85,6.01s-3.09,2.98-5.57,3.78v.15c2.68.47,4.79,1.6,6.34,3.38s2.33,3.93,2.33,6.43c0,3.93-1.4,7.03-4.2,9.32s-6.48,3.43-11.03,3.43c-3.65,0-6.7-.65-9.14-1.96s-4.35-3.19-5.71-5.65Z"/>
    </g>
    <g>
      <path class="b" d="M897.1,121.27v-41.14c-14.85.98-27.81,8.91-35.64,20.57l35.64,20.58Z"/>
      <path class="b" d="M897.1,132.04l-35.64,20.58c7.83,11.66,20.78,19.59,35.64,20.57v-41.14Z"/>
      <path class="b" d="M858.35,106.08c-3.06,6.21-4.78,13.19-4.78,20.58s1.72,14.37,4.78,20.58l35.64-20.58-35.64-20.58Z"/>
    </g>
    <g>
      <g class="c">
        <path class="b" d="M942.84,278.33c3.06-6.21,4.78-13.19,4.78-20.58s-1.72-14.37-4.78-20.58l-35.64,20.58,35.64,20.58Z"/>
        <path class="b" d="M904.09,252.37l35.64-20.58c-7.83-11.66-20.78-19.59-35.64-20.57v41.14Z"/>
        <path class="b" d="M904.09,263.14v41.14c14.85-.98,27.81-8.91,35.64-20.57l-35.64-20.58Z"/>
      </g>
      <g>
        <path class="b" d="M897.1,252.37v-41.14c-14.85.98-27.81,8.91-35.64,20.57l35.64,20.58Z"/>
        <path class="b" d="M897.1,263.14l-35.64,20.58c7.83,11.66,20.78,19.59,35.64,20.57v-41.14Z"/>
        <path class="b" d="M858.35,237.18c-3.06,6.21-4.78,13.19-4.78,20.58s1.72,14.37,4.78,20.58l35.64-20.58-35.64-20.58Z"/>
      </g>
    </g>
    <g>
      <g class="c">
        <path class="b" d="M615.23,211.22v93.06c24.31-1.6,43.53-21.82,43.53-46.53s-19.22-44.93-43.53-46.53Z"/>
      </g>
      <path class="b" d="M608.09,211.22c-24.31,1.6-43.53,21.82-43.53,46.53s19.22,44.93,43.53,46.53v-93.06Z"/>
    </g>
  </g>
  <g>
    <g>
      <path d="M437.3,179.11h-9.89v-34.33c-1.15.77-2.42,1.43-3.81,1.98-1.39.54-2.91,1.08-4.57,1.6l-2.7-7.91c2.87-.84,5.58-1.88,8.13-3.14s4.83-2.66,6.84-4.21h5.99v46.01Z"/>
      <rect x="405.11" y="193.11" width="51.42" height="7"/>
      <path d="M416.27,259.86v-3.39c0-2.3.39-4.37,1.16-6.2.77-1.83,1.75-3.48,2.92-4.94,1.17-1.44,2.45-2.72,3.84-3.84s2.71-2.13,3.97-3.03c1.32-.94,2.47-1.84,3.47-2.7.99-.86,1.82-1.72,2.49-2.57.69-.84,1.23-1.72,1.62-2.64.39-.92.58-2,.58-3.23,0-1.61-.52-2.88-1.55-3.8-1.04-.92-2.42-1.38-4.16-1.38-1.59,0-2.99.52-4.19,1.57s-2.23,2.48-3.09,4.3l-7.97-3.26c1.51-3.28,3.63-5.88,6.39-7.78,2.75-1.9,6.11-2.86,10.09-2.86,4.42,0,7.92,1.16,10.53,3.47,2.6,2.31,3.91,5.41,3.91,9.3,0,2.07-.32,3.91-.96,5.52-.64,1.61-1.49,3.08-2.56,4.39-1.05,1.32-2.24,2.55-3.59,3.69-1.35,1.14-2.77,2.22-4.25,3.25-.94.71-1.87,1.4-2.78,2.06s-1.7,1.32-2.37,1.99c-.71.69-1.24,1.36-1.58,2.01-.35.65-.52,1.27-.52,1.85h18.55v8.22h-29.94Z"/>
    </g>
    <path d="M533.72,190.85h-47.87v-10.07h47.87v10.07ZM533.72,212.18h-47.87v-9.98h47.87v9.98Z"/>
  </g>
  <g>
    <g>
      <path d="M1063.18,170.82l7.59-4.46c.69,1.42,1.68,2.58,2.97,3.47,1.29.89,2.87,1.33,4.75,1.33s3.54-.51,4.85-1.52c1.31-1.01,1.96-2.49,1.96-4.44s-.87-3.54-2.62-4.6c-1.75-1.06-4.15-1.59-7.2-1.62h-3.67v-7.72h3.36c2.93,0,5.13-.49,6.59-1.48,1.46-.98,2.2-2.54,2.2-4.68,0-1.61-.52-2.85-1.55-3.72-1.04-.87-2.31-1.3-3.81-1.3-1.42,0-2.75.36-3.97,1.08s-2.24,1.86-3.06,3.4l-7.38-3.55c1.28-2.45,3.26-4.49,5.95-6.14,2.69-1.64,5.87-2.46,9.56-2.46,4.6,0,8.15,1.04,10.64,3.12,2.49,2.08,3.73,4.95,3.73,8.61,0,2.45-.66,4.59-1.98,6.43-1.32,1.84-3.31,3.19-5.96,4.05v.16c2.87.5,5.13,1.71,6.79,3.62s2.5,4.21,2.5,6.89c0,4.21-1.5,7.53-4.5,9.98s-6.94,3.67-11.82,3.67c-3.91,0-7.18-.7-9.79-2.1s-4.66-3.42-6.12-6.06Z"/>
      <rect x="1053.59" y="192.98" width="51.42" height="7"/>
      <path d="M1094.8,244.77c0,4.46-1.44,8.2-4.31,11.22-2.88,3.02-6.62,4.53-11.22,4.53-4.9,0-8.7-1.72-11.41-5.16-2.71-3.44-4.06-8.69-4.06-15.74,0-4.44.52-8.42,1.55-11.94,1.04-3.53,2.55-6.41,4.53-8.65,1.55-1.74,3.34-3.01,5.37-3.83,2.03-.82,4.25-1.22,6.65-1.22,2.78,0,5.27.71,7.45,2.12,2.19,1.41,3.85,3.27,5,5.57l-6.9,4.08c-.56-1.23-1.33-2.22-2.29-2.97-.96-.74-2.15-1.11-3.58-1.11-1.05,0-2.02.2-2.93.61-.91.41-1.74,1.03-2.5,1.87-1.05,1.13-1.83,2.62-2.34,4.47s-.79,3.93-.83,6.23h.28c1.11-1.34,2.45-2.35,4.03-3.03,1.58-.68,3.37-1.02,5.38-1.02,3.7,0,6.65,1.29,8.83,3.86,2.19,2.57,3.28,5.94,3.28,10.11ZM1085.61,245.4c0-2.16-.52-3.88-1.55-5.18-1.04-1.3-2.5-1.95-4.38-1.95s-3.41.72-4.52,2.15c-1.11,1.43-1.66,3.1-1.66,5.01,0,2.2.55,3.97,1.66,5.32,1.11,1.35,2.54,2.02,4.3,2.02,1.92,0,3.43-.69,4.52-2.06s1.63-3.14,1.63-5.32Z"/>
    </g>
    <path d="M1025.48,190.85h-47.87v-10.07h47.87v10.07ZM1025.48,212.18h-47.87v-9.98h47.87v9.98Z"/>
  </g>
  <g>
    <g class="c">
      <path class="b" d="M213.36,21.48v350c90.32-6.02,161.75-82.06,161.75-175S303.69,27.5,213.36,21.48Z"/>
    </g>
    <path class="b" d="M186.86,21.48C96.53,27.5,25.11,103.54,25.11,196.48s71.42,168.98,161.75,175V21.48Z"/>
  </g>
  <g>
    <g class="c">
      <path class="b" d="M1467.23,273.87c11.38-23.34,17.78-49.61,17.78-77.39s-6.4-54.05-17.78-77.39l-132.64,77.39,132.64,77.39Z"/>
      <path class="b" d="M1323.02,176.23l132.63-77.38c-29.14-43.86-77.35-73.69-132.63-77.36v154.75Z"/>
      <path class="b" d="M1323.02,216.73v154.75c55.28-3.68,103.49-33.5,132.63-77.36l-132.63-77.38Z"/>
    </g>
    <g>
      <path class="b" d="M1297,176.23V21.48c-55.28,3.68-103.49,33.5-132.63,77.36l132.63,77.38Z"/>
      <path class="b" d="M1297,216.73l-132.63,77.38c29.14,43.86,77.35,73.69,132.63,77.36v-154.75Z"/>
      <path class="b" d="M1152.79,119.09c-11.38,23.34-17.78,49.61-17.78,77.39s6.4,54.05,17.78,77.39l132.64-77.39-132.64-77.39Z"/>
    </g>
  </g>
</svg>