<?xml version="1.0" encoding="UTF-8"?>
<svg id="g" xmlns="http://www.w3.org/2000/svg" xmlns:xlink="http://www.w3.org/1999/xlink" viewBox="0 0 860 400">
  <defs>
    <style>
      .t {
        fill: #371a04;
      }

      .u {
        fill: #4e2607;
      }

      .v {
        fill: #c3940d;
      }

      .w {
        clip-path: url(#i);
      }

      .x {
        fill: #e78e27;
      }

      .y {
        fill: #ee8440;
      }

      .z {
        fill: #34190b;
      }

      .aa {
        fill: #431f07;
      }

      .ab {
        fill: #e18a27;
      }

      .ac {
        fill: #f1ab34;
      }

      .ad {
        fill: #6c240d;
      }

      .ae {
        fill: #3f1f06;
      }

      .af {
        clip-path: url(#k);
      }

      .ag {
        clip-path: url(#q);
      }

      .ah {
        fill: #ba880b;
      }

      .ai {
        fill: #411b06;
      }

      .aj {
        fill: #de9031;
      }

      .ak {
        fill: #d03e21;
      }

      .al {
        fill: #ef803d;
      }

      .am {
        fill: #3d1d05;
      }

      .an {
        clip-path: url(#m);
      }

      .ao {
        fill: #eab641;
      }

      .ap {
        fill: #2f1806;
      }

      .aq {
        fill: #d48b30;
      }

      .ar {
        fill: #eca03f;
      }

      .as {
        fill: #efaf37;
      }

      .at {
        clip-path: url(#j);
      }

      .au {
        fill: #d0a512;
      }

      .av {
        fill: #43220a;
      }

      .aw {
        fill: #30160a;
      }

      .ax {
        fill: #3f240a;
      }

      .ay {
        fill: #f1edac;
      }

      .az {
        fill: #280500;
      }

      .ba {
        fill: #ef8640;
      }

      .bb {
        fill: #cf3e21;
      }

      .bc {
        fill: #d1852d;
      }

      .bd {
        fill: none;
      }

      .be {
        fill: #c4711f;
      }

      .bf {
        fill: #522907;
      }

      .bg {
        fill: #4b1e08;
      }

      .bh {
        fill: #eaa354;
      }

      .bi {
        fill: #2a0400;
      }

      .bj {
        fill: #cf3d20;
      }

      .bk {
        fill: #f08b43;
      }

      .bl {
        fill: #422006;
      }

      .bm {
        clip-path: url(#p);
      }

      .bn {
        fill: #2c0900;
      }

      .bo {
        clip-path: url(#h);
      }

      .bp {
        fill: #ae5c1c;
      }

      .bq {
        fill: #e18b27;
      }

      .br {
        fill: #352613;
      }

      .bs {
        fill: #3e210a;
      }

      .bt {
        fill: #c16f1e;
      }

      .bu {
        clip-path: url(#o);
      }

      .bv {
        fill: #562b08;
      }

      .bw {
        fill: #311405;
      }

      .bx {
        fill: #421f08;
      }

      .by {
        fill: #422009;
      }

      .bz {
        clip-path: url(#n);
      }

      .ca {
        fill: #482306;
      }

      .cb {
        fill: #efa646;
      }

      .cc {
        clip-path: url(#r);
      }

      .cd {
        fill: #2e1202;
      }

      .ce {
        fill: #3e1e06;
      }

      .cf {
        fill: #c06f1e;
      }

      .cg {
        fill: #371e0f;
      }

      .ch {
        fill: #efa545;
      }

      .ci {
        fill: #301805;
      }

      .cj {
        clip-path: url(#s);
      }

      .ck {
        fill: #4d2607;
      }

      .cl {
        fill: #c26f1e;
      }

      .cm {
        fill: #412006;
      }

      .cn {
        fill: #d13e21;
      }

      .co {
        fill: #462516;
      }

      .cp {
        fill: #f3af36;
      }

      .cq {
        fill: #eeb53e;
      }

      .cr {
        fill: #c3711f;
      }

      .cs {
        fill: #b88509;
      }

      .ct {
        clip-path: url(#l);
      }

      .cu {
        fill: #e9972f;
      }

      .cv {
        fill: #401f06;
      }

      .cw {
        fill: #fece5e;
      }

      .cx {
        fill: #f1bb43;
      }

      .cy {
        fill: #edb139;
      }

      .cz {
        fill: #3e1e08;
      }

      .da {
        fill: #4c2606;
      }

      .db {
        fill: #f0a755;
      }

      .dc {
        fill: #ae611c;
      }

      .dd {
        fill: #352008;
      }

      .de {
        fill: #f9f6bf;
      }

      .df {
        fill: #f1b038;
      }

      .dg {
        fill: #3d1c07;
      }

      .dh {
        fill: #f2ad35;
      }

      .di {
        fill: #3d2613;
      }

      .dj {
        fill: #f2b83c;
      }

      .dk {
        fill: #b05e1d;
      }

      .dl {
        fill: #e99a30;
      }

      .dm {
        fill: #f3ad35;
      }

      .dn {
        fill: #200200;
      }

      .do {
        fill: #c8990d;
      }

      .dp {
        fill: #260600;
      }

      .dq {
        fill: #271602;
      }

      .dr {
        fill: #3d1d08;
      }

      .ds {
        fill: #271703;
      }

      .dt {
        fill: #552b08;
      }
    </style>
    <symbol id="a" viewBox="0 0 153.79 175.29">
      <g id="b">
        <path class="bf" d="M152.11,1.01c-1.28-1.22-3.99-1.33-5.46-.33C104.46,24.03,63.67,50.13,20.5,71.42c-4.25,2.09-19.13,8.37-20.22,12.07-1.25,4.23,2,8.63,4.15,12.23,18.57,31.09,54.54,55.05,87.97,67.45,10.09,3.74,47.79,15.37,56.33,11.26,5.5-2.64,4.15-23.44,4.11-29.11-.28-39.11.36-78.8.32-118.15,0-5.32,1.98-23.27-1.06-26.17h0Z"/>
        <path class="cw" d="M147.64,138.97c.92-5.08,1.46-11.42-.5-15.99-.09-37.7.06-75.66.47-113.86l-5.63,1.07c-32.71,19.42-65.68,38.34-98.91,56.74l-4.69,1.41c-1.24.77-2.79,1.32-3.94,2.12l-.61,2.31c6.04,13.69,12.67,20.51,26.12,27,9.24,10.53,15.66,17.78,28.93,23.54,16.62,7.21,36.18,12.97,54.14,13.49.94.38,1.81,1.13,2.62,2.23.63-.09,1.65.12,2-.06h0Z"/>
        <path class="ab" d="M148.14,154.96c5.81-8.7-27.43-11.71-29.36-11.19-.49,1.73-1.52,1.6-2.96,1.2-.19-1.73-3.34-3.39-5.12-3.84l-.37-1.59c-13.08-3.37-25.64-7.79-37.68-13.28-14.23-11.82-28.16-23.9-41.78-36.25-5.01-11.47-7.02-13.21-19.08-8.83-1.59.86-8.19,2.49-7.43,5.28,1.74,6.39,13.54,20.15,18.39,25.4,1.81.95,3.53,2.57,5.15,4.84,2.8,3.29,5.31,5,8.25,7.75,3.09,2.51,4.28.81,2.74-2.57l-6.57-6.03c31.86,23.68,67.41,42.18,106.78,48.8l1.37.57c-.43,4.18,2.68,4.57,6.15,4.81l.86-.61c.79-4.82.47-9.63.67-14.44v-.02Z"/>
        <path class="cb" d="M140.46,165.21c-.27-.38.64-2.34-.74-3.01-1.88-.92-6.67-.73-9.25-1.33-23.41-5.52-46.59-14.19-67.33-26.45-9.14-5.4-17.6-13.16-26.36-18.41-1.28-.77-10.02-6.01-7.8-1,.81,1.84,5.77,5.55,7.58,7.42,1.4,1.44,2.88,2.12-.44,2.01,10.61,9.93,19.07,15.24,31.7,22.02l.81-.96c21.15,10.08,46.18,22,71.29,22.28l.52-2.57h.02Z"/>
        <path class="cp" d="M38.39,68.34c4.09,2.21,8.3-2.72,12.17-4.57,20.32-9.71,39.85-21.13,59.38-32.5,12.21-7.11,23.9-15.3,36.68-21.32.18,39.04-1.73,78.11-1.34,117.09l.78-6.52,1.08,2.46c1.44-2.81,1.9-9.13.63-12.03,1.49-4.68,1.67-9.69.53-15.02.04-4.82-1.32-10.79.53-15.02.66-2.96.57-6.08-.28-9l.69-10.03c.82-3.66.26-7.34-.34-10.99-.13-4.41-1.17-10.2.56-14.02.79-3.32.3-6.67-.31-10-.19-6.4-1.28-13.94.38-20.02.56-.3.54-.97-.06-2-1.2-.36-3.21.66-4.36,1.24-34.79,22.01-71.78,40.55-106.72,62.25h0Z"/>
        <path class="cl" d="M110.69,141.12c.75-.31.72-.65-.03-1,3.05.74,4.03.04,2.94-2.09-16.73-4.47-35.6-9.36-48.24-22.5-3.2-3.33-4.84-6.86-8.8-10.25-5.35-4.59-14.62-8.12-18.95-12.87-4.38-4.8-6.66-13.58-12.01-18.23-1.05-.47-12,6.02-13.82,7,3.6,2.01,8.4-1.92,12.03.11.94.53,3.8,7.9,5.78,10.36,9.26,11.46,31.1,24.35,41.75,36.11,10.82,7.92,28.51,8.76,39.35,13.36Z"/>
        <path class="dh" d="M144.65,139.06c.33-.03.67.02,1-.03.06-3.76.38-2.66-2.57-2.89-17.28-1.37-50.41-11.15-64.93-20.78-7.19-4.77-10.95-12.16-16.91-17.12-4.43-3.69-13.32-6.81-16.81-11.02-3.74-4.5-5.76-12.49-9.97-16.75-.94.65-4.33,1.99-3.78,3.49.29.79,8.01,13.14,8.9,14.3,4.91,6.35,15.43,9.76,21.42,15.41,7.36,6.95,7.86,11.8,18.38,17.61,12.41,6.85,19.27,7.78,32.11,11.26,6.27,1.7,12.47,5.4,19.13,5.97,1.43-.78,6.86-1.1,4-.12l.03,1c3.16.86,6.78.54,10-.31v-.02Z"/>
        <path class="dl" d="M146.61,170.02c-6.62-1.3-2.24-2.11-3.54-3.92-.59-.83-2.51-.74-2.62-.89-1.68,1.34-3.21,1.04-5.15.91-25.3-1.64-43.28-12.49-65.48-21.26-1.93-.76-4.24-1.12-1.99,1.6,24.05,12.91,51.09,23.14,78.77,23.56h0Z"/>
        <path class="cf" d="M124.72,141.69c-3.03-.24-6.07-.75-9.12-1.53,1.11,1.51,1.85,3.09,2.21,4.75-.97-.8-1.7-1.38-2,.06,8.04,3.02,23.95,1.44,30.4,6.39,1.54,1.18,2.44.86,1.93,3.61,0-.18.94-1.14.96-2.45.17-13.79-4.86-8.29-14.81-9.14-3.07-.26-6.55-1-9.57-1.69Z"/>
        <path class="ax" d="M149.77,110.89c-.4-2.64-1.32-2.5-2,.06-.06,4.01-.57,8.46-.63,12.03-.09,5.3.51,10.68.5,15.99,2.77-1.41,1.21-18.21,1.29-21.59.05-2.27.81-4.33.84-6.49h0Z"/>
        <path class="bs" d="M148.9,50.89c.1,3.66.25,7.34.34,10.99l-.69,10.03c.07,2.99.14,6.01.28,9s.14,6.01.29,8.99l.99-.03-.51-16.49c0-.42.94-2.22.95-3.96.03-5.73.12-13.2-1.65-18.53Z"/>
        <path class="ab" d="M117.81,144.9c2.77-1.3-1.78-3.46-1.12-3.96,1.31-1,6.21,3.54,8.03.74-4.1-.93-7.23-2.62-11.12-3.66l-2.94,2.09c1.83,2.19,4.58,3.62,7.15,4.78h0Z"/>
        <path class="bn" d="M149.77,110.89c.06-4.58.35-11.02-1.47-14.96-.04,5.06-.45,9.98-.53,15.02l2-.06Z"/>
        <path class="bn" d="M149.15,26.87c.1,3.32.18,6.67.31,10,.11,2.82.06,5.69.27,8.51.09,1.21-.64,3.74,1.1,3.45-.81-7.06.82-15.28-1.67-21.95h-.01Z"/>
        <path class="az" d="M149.47,4.85l.06,2c.15,4.65.28,9.33.45,13.99,1.75.18.87-2.3.88-3.51.02-2.3.29-11.97-1.39-12.47h0Z"/>
        <path class="cw" d="M134.62,138.38c2.98.04,6.01-.27,8.99-.29-.82-1.82-5.78-.85-7.54-.77s-4.46-.5-5.45,1.19c1.3.11,2.68-.14,4-.12h0Z"/>
        <path class="dp" d="M144.65,139.06c-3.3.29-6.69.05-10,.31-1.11.09-3.28-.59-2.96,1.08,4.03-.65,9.43.95,12.96-1.39Z"/>
        <path class="cb" d="M22.74,111.85c1.61,1.74,2.81,3.83,5.15,4.84-1.05-1.24-2.09-4.79-4.69-5.84,0,0-.46,1-.46,1Z"/>
        <path class="cv" d="M124.52,79.84c-.14-6.3-10.36-11.11-16.51-11.81-6.16-.7-17.1,1.36-18.94,7.29-9.9,8.46-11.3,23.25-3.17,33.42s22.87,12.05,33.3,4.24c10.43-7.8,12.78-22.47,5.32-33.14Z"/>
        <path class="ck" d="M72.94,61.52c-2.81-2.49-9.05-1.06-11.17,2.1-1.04,1.56-1.28,4.75-1.46,4.93-.96.89-7.41-1.1-10.29,2.46-7.49,9.27,14.1,24.01,23.91,12.77,6.03-6.91.7-7.18-.11-11.18-.58-2.87,2.91-7.73-.88-11.08Z"/>
        <path class="ce" d="M137.66,43.24c.86-4.99-14.21-13.65-18.51-9.91l-3.79.6c-2.94,1.55-5.21,1.7-7.29,5.28-8.36,14.36,21.1,29.37,31.02,19.44,3.81-3.82,1.61-11.62-1.43-15.41Z"/>
        <path class="as" d="M124.52,79.84c5.26.09-2-6.9-3.49-8.07-10.18-8.01-22.42-7.01-32.53.49-.81.6-3.66,3.16.56,3.06,5.17-4.42,11.97-6.45,18.72-5.59,6.75.86,12.82,4.53,16.72,10.11h.02Z"/>
        <path class="by" d="M95.59,49.8c-5.05-4.83-15.5,10.81-9.31,13.6,4.27,1.92,13.99-9.11,9.31-13.6Z"/>
        <path class="av" d="M135.89,126.12c5.02.31,8.57-9.09,3.34-10.74-8.42-2.65-11.24,10.26-3.34,10.74Z"/>
        <path class="cx" d="M137.66,43.24c.64-1.25,2.44-2.33,1.46-4.06-1.42-2.51-14.95-9.21-18.18-8.45-.66.16-.43,1.62-1.39,1.99-1.29.49-2.24.18-4.19,1.21,2.76.87,6.42-1.26,8.39-1.28.67,0,.65,1.6,1.35,1.96,4.08,2.05,9.63,4.97,12.56,8.63h0Z"/>
        <path class="di" d="M142.52,71.1c-.91-.94-3.46,2.34-4.67,2.88-1.92.86-4.5.76-6.18,1.95,2.92,4.61,13.69-1.9,10.84-4.83h0Z"/>
        <path class="z" d="M141.9,19.1l-9.85,4.8c3.21,5.1,11.41-3.42,9.85-4.8Z"/>
        <path class="ap" d="M117.81,144.9c-1.38-2.79-4.57-3.54-7.15-4.78l.03,1c.59.25,2.17,3.22,5.12,3.84.36.08,1.77.04,2-.06Z"/>
        <path class="bf" d="M149.24,61.88c-1.76,2.36-.77,6.89-.69,10.03,1.76-2.36.77-6.89.69-10.03Z"/>
        <path class="cn" d="M85.36,98.89c4.58,10.11,13.58,14.63,24.46,14.24,5.89.02,14.43-9.51,15.3-15.22,3.72-24.46-28.73-33.63-38.66-14-3.04,6-2.79,8.78-1.1,14.98Z"/>
        <path class="y" d="M109.82,113.14c-1.15,0-8.54-1.68-10.06-2.2-2.34-.79-4.62-2.97-7.07-3.83l-7.32-8.22c3.24,11.88,12.73,15.72,24.46,14.24h-.01Z"/>
        <path class="bp" d="M71.69,77.31c-.69-2.37-4.91-.77-7.06-1.17-2.54-.47-16.25-7.31-9.9,2.7,4.76,3.85,15.16,6.34,16.96-1.53Z"/>
        <path class="dc" d="M64.47,70.52c9.22,2.99,6.16-11.73,1.41-4.98-.49.69-1.75,4.56-1.41,4.98Z"/>
        <path class="bc" d="M71.69,77.31c-2.51,4.35-5.2,4.96-10.15,4.08l-6.81-2.56c3.94,6.21,19.05,5.66,16.96-1.53h0Z"/>
        <path class="bb" d="M136.06,56.29c7.45-2-8.1-23.35-20.65-18.92-3.37,1.19-5.12,4.22-4.71,7.71,4.81,9.38,15.25,13.87,25.36,11.22h0Z"/>
        <path class="db" d="M136.06,56.29c-1.93-1.27-4.14.39-6.45.24-7.96-.51-13.72-6.03-18.91-11.46,1.13,9.67,17.09,15.61,25.36,11.22Z"/>
        <path class="cs" d="M92.92,52.64c-1.39-1.53-5.99,5.9-4.77,7.14,1.38,1.41,6.44-4.8,4.77-7.14Z"/>
        <path class="dq" d="M128.94,52.5l-11.23-7.64c-1.48,1.63,8.48,9.5,11.23,7.64Z"/>
      </g>
    </symbol>
    <symbol id="c" viewBox="0 0 176.09 189.6">
      <g id="d">
        <path class="dt" d="M25.84,187.07c4.24,2.49,4.57.82,1-5l.54-2.79c-11.76-20.73-17.69-44.76-20.41-68.3l-2.13-1.91c.67-6.97.67-14.03,0-21,2.35-4.19,3.63-9.1,3.83-14.74,2.34-7.31,3.4-14.4,3.17-21.26l2.5-1.52c3.38-14.62,8.97-28.15,16.74-40.59l-.24-2.89c2.14-2.01,4.14-2.01,6,0-.7,3.17,5.12,7.18,8,6,2.72.35,5.27,2.88,6.05,5.48-.38,3.1.22,4.96,2.95,2.52-.34,2.64,1.63,4.7,4,3-.56,2.64.14,2.84,2,1l6.59,5.84c35.33,23.96,69.8,48.01,103.41,72.16-32.73,18.53-68.3,38.87-101.97,58.42-3.01,1.75-5.54,4.18-8.03,6.58-2.03,1.83-4.24,3.05-6.62,3.67-1.41,5.94,2.47,4.04,5.62,1.33,10.11-4.78,19.91-10.37,29.67-15.83,24.92-13.92,59.77-31.65,82.24-47.76,4.87-3.49,8.11-7.01,2-11.82-35.65-25.43-73.12-48.61-108.23-74.77C59.71,19.3,38.36.59,35.26.09c-6.26-1.02-9.89,6.69-12.6,11.31C5.66,40.41-3.05,84.19.97,117.44c1.87,15.53,13.58,59.52,24.87,69.63Z"/>
        <path class="da" d="M58.84,173.07c-2.84,1.34-4.8,3.38-3.93-.43l4.93-4.57c-1.1-1.34-3.06-1.19-5.86.46-12.07-21.02-17.33-47.62-17.85-71.56,1.44-10.79,2.18-21.65,2.21-32.57,5.66-13.8,11.32-27.57,16.97-41.33l-1.47-1.99c-3.56-1.76-.81-.66-2.52-3.95-.3-.57-5.21-6.64-6.48-4.05l-.05,2.54c2.73.1,3.96,1.83,5.05,4.46-3.89,1.24-6.68,8.71-7.8,12.85l-1.39,9.93c-5.23,7.3-8.5,15.04-9.81,23.22l-1.84,3.03c-1.78,21.73-2.71,44.69,5.44,65.14.17,13.85,4.58,28.12,14.09,37.87l.31,2.96c-2.05-.62-4.72.41-8,3.12-5.07,3.91-9.74,5.2-14,3.88l-1.01.52c.89,2.4,4.13,4.85,0,4.48,1.3,1.16,1.42,2.23,3.87,2.5,4.76.53,25.17-12.06,29.13-16.5h.01Z"/>
        <path class="cw" d="M167.84,102.07c-33.92-24.75-68.32-48.88-103.21-72.4l-4.79-4.6c-.75-.52-1.54-.7-2-1-3.9-.22-7.17,8.57-8.41,12.33l-2.97,12.91c-7.79,10.84-8.98,20.01-7.62,33.05-4.11,15.55-2.98,31.36,3.39,47.43.98,11.38,3.76,43.68,21.57,33.6,30.29-16.55,60.12-33.92,89.93-51.32,5.01-2.92,9.84-6.03,14.1-9.99h0Z"/>
        <path class="ab" d="M48.84,175.07c.51-.45,1.59-.61,1.93-1.49-4.38-6.44-10.52-16.89-12.65-24.29-1.48-5.13-.7-9.71-1.54-14.46-1-5.69-3.68-10.87-4.9-16.1-4.1-17.6.41-34.35-.85-52.65.36-6.57,2.54-11.02,6.09-16.48,0-3.66,1.12-6.52,3.38-8.56-2.39-3.98,3.28-18.27,6.18-21.09,1.09,1.01,2.01,1.08,3.35.12.84-3.76-2.31-4.57-5-7s-5.27-4.03-8-6c-1.97-2.18-3.97-2.18-6,0-9.14,10.68-15.3,31.6-19,45-.12,11-1.45,22.13-3.98,33.37-2.71,29.11,3.75,53.18,13.68,79.81,4.94,13.24,10.55,20.82,24.15,9.98l3.15-.15h0Z"/>
        <path class="ac" d="M59.84,168.07c36.07-19.05,70.44-41.43,106.23-61,.57-1.18,3.62-3.38,3.77-4-.38-1.17-1.06-1.95-2-1-34.81,19.95-69.65,40.3-104.96,59.54-5.69,2.63-8.07,3.75-11.6-2.49-6.33-11.17-5.12-14.77-6.58-26.43-1.61-12.91-8.12-23.85-6.91-37.17.41-4.57,2.6-8.48,3.03-12.97.61-6.31-1.4-12.63.28-18.73,1.28-4.65,5.35-9.06,7.21-13.78,2.05-5.18,1.81-9.21,3.18-13.82,1.02-3.4,4.61-8.78,6.34-12.16-1.3-.86-1.12-1.58-4-3-1.15,4.44-4.68,8.39-5.76,12.74-3.43,13.73-3.59,11.81-9.42,23.58-4.74,9.57-2.17,18-2.83,28.17-.76,11.83-3.51,17.35-.5,30.52,2.39,10.44,3.9,16.43,5.62,27.38,1.44,9.2,8.57,18.9,11.91,27.61.7.53,5.84-2.39,6.99-3h0Z"/>
        <path class="be" d="M48.84,175.07l-1.49-2.98c-3.46,2.19-12.52,8.71-16.06,6.06-2.23-1.67-8.19-14.12-9.62-17.41-9.84-22.63-13.51-50.55-11.81-75.16.65-9.4,4.8-21.03,4.05-30.11-.16-2.01-.14-2.45-2.06-3.4-3.38,12.24-6.27,22.95-7,36,.67,6.97.67,14.03,0,21,1.09,19.74,10.68,56.78,21.99,73,1.48,2.12,2.09,3.62,5.24,2.82,2.26-.57,14.6-7.92,16.76-9.82Z"/>
        <path class="de" d="M59.84,25.07l4.08,5.42c34.5,24.04,69.65,47.22,103.92,71.58.59.42,1.37.63,2,1,.35-1.42-.93-2.73-2.06-3.44-36.35-24.31-71.89-49.84-107.94-74.56Z"/>
        <path class="x" d="M4.84,88.07c-.36,6.43-.36,14.57,0,21,1.67-6.09,1.67-14.91,0-21Z"/>
        <path class="ao" d="M36.84,7.07c-.79-.57-1.47-3.36-3.39-2.95-1.38.56-1.8,2-2.61,2.95l.49.98c1.59-2.19,3.22-1.96,5.51-.98Z"/>
        <path class="cr" d="M49.84,20.07l-4.01-3.52c-1.83,4.42-4.9,9.21-6.51,13.56-.41,1.1-2.56,8.92-2.56,9.41,0,1.06,2.61-.12,2.07,1.53-4.53.4-2.59,6.5-4.26,10.25-3.77,8.49-4.6,2.18-3.74,14.76,1.8-3.03,2.02-6.63,3.6-9.9,1.88-3.9,6.48-8.22,7.91-12.09s.98-8.36,1.93-12.07c1.19-4.6,4.6-7.68,5.56-11.94h0Z"/>
        <rect class="dn" x="33.84" y="65.08" width="1.01" height="9.99"/>
        <path class="ae" d="M92.72,103.9c11.17-7.91,14.07-23.23,6.57-34.68s-22.71-14.9-34.42-7.81-15.7,22.16-9.05,34.12c-1.03,6.82,10.08,12.32,16.32,13.56,6.36,1.27,18,1.06,20.57-5.19h.01Z"/>
        <path class="u" d="M136.07,91.84c-1.75-3.02.41-7.12-5.86-10.63-15.8-8.86-26.64,19.67-13.92,26.91,7.06,4.02,9.85-2.56,12.19-2.98,1.73-.31,3.83,4.74,9.04,3.2s6.94-7.31,4.37-11.82c-1.1-1.93-5.5-4.13-5.81-4.68h0Z"/>
        <path class="bl" d="M80.84,142.07c22.24-12.06-16.9-38.05-28.44-22.94-4.64,6.08-2.32,12.82,2.44,17.94,2.5,8.37,19.14,10.35,25.79,6.38.26-.15.27-.71.21-1.38Z"/>
        <path class="df" d="M55.82,95.52c-2.74-.63-3.69-1.2-2.57,1.64,5.69,14.46,32.91,18.49,42.62,7.45,3.38-3.85-.67-1.58-3.16-.71-5.89,4.17-13.28,5.64-20.31,4.04-7.04-1.6-13.07-6.11-16.58-12.42Z"/>
        <path class="dr" d="M102.54,129.88c6.47,2.01,17.7-5.31,12.76-10.76-6.54-7.23-22.74,7.66-12.76,10.76Z"/>
        <path class="cz" d="M58.48,54.94c6.17,2.09,15.73-7.54,10.31-12.33-6.37-5.62-16.72,10.16-10.31,12.33Z"/>
        <path class="dj" d="M80.84,142.07c-8.4,4.55-19.69,1.78-26-5-3.42,3.13,7.02,8.41,8.71,8.79,3.12.71,13.18.6,16.04-.54,1.68-.67,2.83-1.53,1.25-3.25Z"/>
        <path class="br" d="M64.84,153.06c-1.93-4.29-5.65-.68-7,2l7-2Z"/>
        <path class="ar" d="M27.35,138.07c1.71.39,2.03-1.38,2.49-2.54,1.74-4.32-2.46-17.2-2.99-22.97-.22-2.42.97-16.49-1.51-16.47-3.42.03-3.72,17.68-3.54,20.52.21,3.22,2.97,20.86,5.55,21.46Z"/>
        <path class="dd" d="M37.83,157.07c.54-.65-2.31-6.73-3.99-6.99-.55,1.08,2.26,9.08,3.99,6.99Z"/>
        <path class="cn" d="M99.52,81.1c-3.85-13.46-14.28-19.4-27.85-18.57-10.96,3.3-17.47,14.55-14.87,25.7,2.6,11.15,13.41,18.36,24.71,16.48s19.18-12.22,18.01-23.61Z"/>
        <path class="al" d="M71.68,62.53c2.63,2.52,6.32,1.19,9.43,1.77,9.07,1.71,14.49,9.38,18.42,16.8-.66-6.44-4.16-12.25-9.55-15.85s-12.1-4.59-18.3-2.72Z"/>
        <path class="dk" d="M116.84,91.07c-1.75,5.93-1.8,9.8,3.5,13.98,1.95-2.21,5.05-3.89,5.52-6.97l1.44.02c4.74,7.76,17.89,4.66,8.54-2.03l-8-2c-.67-.31-.8-2.66-4-1v-3h7c.19-2.69.28-3.62-2-5-5.68-1.32-9.63.78-12,6Z"/>
        <path class="aq" d="M128.84,85.07c-5.75-3.45-10.35.4-12,6l3.99-4.51,8.01-1.49Z"/>
        <path class="aj" d="M135.84,96.07c-2.3-1.64-5.19-2.31-8-2,2.01.91,6.36,3.98,8,2Z"/>
        <path class="bj" d="M82.84,130.07c-6.49-7.54-17.21-14.21-27-9-9.26,9.49,10.58,24.61,22.7,18.2,4.24-2.25,5.84-4.98,4.3-9.2Z"/>
        <path class="bh" d="M82.84,130.07c-2.95-8.13-20.04-16.13-27-9l6.49-1.09c3.89-.13,7.53,1.37,10.81,3.28l9.69,6.81h.01Z"/>
        <path class="v" d="M112.83,121.08c-2.14-.82-10.56,1.76-9.99,4.48.91,4.36,12.06-2.68,9.99-4.48Z"/>
        <path class="do" d="M66.83,45.08c-2.94-1.51-8.1,5.9-6.99,6.99,2.53,1.05,8.37-5.7,6.99-6.99Z"/>
        <path class="t" d="M86.83,91.07c-.49.57-6.59,3.74-4.98,4.99,3.18.47,5.38-1.8,4.98-4.99Z"/>
        <path class="ds" d="M76.84,134.06c-1.88-4.71-5.21-8.93-9.99-10.99l9.99,10.99Z"/>
        <polygon class="bg" points="62.06 130.42 64.22 129.99 62.98 123.66 60.81 124.09 62.06 130.42"/>
      </g>
    </symbol>
    <symbol id="e" viewBox="0 0 148.46 176.01">
      <g id="f">
        <path class="bv" d="M138.73,175.92c4.72.77,5.79-3.31,6.25-7.34,3.06-27.2-.61-63.54-.04-92.04.34-16.97,1.54-34.32,2.96-51.04C148.71,15.94,150.46-.03,137.48,0,94.63.1,37.21,26.46,8.47,58.07c-3.51,3.86-10.39,10.74-7.96,16,1.03,2.23,21.84,18.48,25.58,21.41,28.16,22.06,59.15,43.97,88.58,64.42,4.23,2.94,20.64,15.46,24.07,16.02h-.01Z"/>
        <path class="cw" d="M139.97,171.09c1.29-1.72,1.57-4.58,0-6-.14-41.22-.1-83.59.57-124.79l-1.57-1.21c-3.39-1.07-7.34-.84-11.83.68-26.29,1.25-46.13,7.22-67.01,23.3-3.11,2.39-27.87,23-27.97,26.4-.04,1.25.09,2.24,1.16,2.99,32.92,25.87,69.17,52.22,103.53,74.99l1.12,2.63c.32.18.7,1.68,1.5,1.94.55.03.45-.91.5-.94h0Z"/>
        <path class="bq" d="M24.97,87.09c.31-1.76-.24-2.73-1.4-3.76,20.21-24.9,50.48-44.71,82.45-48.61,2.38-2.51,4.97-4.41,7.79-5.69,9.26,1.63,27.61,2.71,28.17-9.94,1.7-3.57-.06-9.27-2-4l-4.07-1.61c-39.79.22-74.85,13.99-106.22,38.14,2.47-1.69,3.57-3.54,3.29-5.54,1.06-2.24-.11-1.84-2-1-3.47,2.76-6.52,4.21-10,8-4.55,3.94-8.85,8.5-13,13-1.06.88-4.14,3.7-3.57,5,.65,1.48,18.74,17.24,20.04,17,.42-.22.35-.86.53-1h-.01Z"/>
        <path class="dm" d="M137.97,170.09c1.9-1.09,1.17-3.1,0-4.49-1.86-2.19-11.9-7.26-15.3-9.69-25.92-18.54-52.23-37.14-77.6-56.4-1.59-1.21-10.89-8.34-11.01-9.04-.59-3.36,12.22-12.32,14.94-14.86,13.37-12.51,22.47-19.84,39.75-27.25,14.14-6.07,36.06-4.26,50.23-9.27,1.88,2.03,2.71,1.69,3-1,.85-.27.66-1.37,0-2-.02-.11-.9-1.85-1-2-2.36-1.2-3.81-.86-6.31-.16-13.67,1.56-28.53,3.58-41.72,7.57-8.51,2.58-16.98,5.33-22.97,11.59-12.68,6.63-17.05,13.13-26.99,22.51-4.99,4.71-12.11,7.65-14.97,14.88,11.13,9.34,22.95,17.82,34.64,26.42,22.42,16.5,51.7,40.22,75.32,53.18h0Z"/>
        <path class="bt" d="M69.97,49.09l2.66.65c20.93-9.42,43-15.13,66.21-17.14l1.13-1.51c.72-1.24,2.62-1.66,3-4-.24-2.82-.57-5.48-1-8-1.47,6.59-10.34,8.35-16.49,9.01-4.07.43-11.02-1.37-12.9-1.07-.66.1-.59,1.75-.77,1.84-.62.3-1.66-.95-2.64-.62-.29.1-2.4,4.1-3.88,4.63-2.76.99-8.04.8-11.36,1.68-25.09,6.6-53.05,24.32-69.48,44.52-3.6,4.43-4.53,4.42.51,8.01,2.41-1.88,4.07-5.77,6.46-8.04,11.89-11.34,23.93-22.44,38.54-29.96h0Z"/>
        <path class="cu" d="M139.97,15.09l1.99-1.01c.05,1.66-.04,3.34,0,5.01.07,2.52-.82,6.32,1,8,.45-2.8.29-20.96-1.14-21.86-40.62.33-79.43,14.92-110.86,39.86l2,1,2.88.25C65.22,24.34,100.92,12.67,137.88,10.23c-.33,2.59.37,4.21,2.08,4.86h0Z"/>
        <path class="ca" d="M140.97,34.09c-.36-.53-1.3-1-1.99-1.02-.32-1.44.59-.85,1.84-1.13.05-.46-.88-.8-.85-.85-7.31,1.12-14.97.78-22.22,2.28-3.77.78-7.31,2.95-10.51,3.49-18.56,3.14-20.41,3.56-37.26,12.24l3.01,1.5-4.01,1.51,1,.99c21.82-11.4,40.01-14.58,64.39-17.11,2.18-.23,4.57-1.09,6.61-1.89h0Z"/>
        <path class="co" d="M142.97,83.09c-.34-8.08-.67-16.08-1-24-1.45-1.39-2.11-.52-1.97,2.61l-.03,103.39v6c3.95-2.54,1.03-4.53,1.19-7.5,1.49-26.51,1.44-53.92,1.81-80.5Z"/>
        <path class="bi" d="M142.97,83.09c.22-15.82-.16-31.68,0-47.52l-1,.52c.12.56-.05,1.35,0,2-1.74,2.1-2.13,18.26-1.33,19.71.28.52.78.92,1.33,1.29,0,7.76-.85,16.57,1,24Z"/>
        <path class="cy" d="M20.97,53.09h-1c-4.57,3.32-8.67,7.42-12,12v1c5.65-4.67,8.45-8.05,13-13Z"/>
        <path class="bw" d="M19.97,53.09c-4.46,2.02-9.94,7.49-12,12l12-12Z"/>
        <rect class="cd" x="143.97" y="11.09" width="1" height="16"/>
        <path class="cm" d="M118.86,96.98c9.22-9.45,9.22-24.53.02-33.99s-24.27-9.88-33.98-.93-10.52,24-1.84,33.94c1,6.13,11.43,10.05,17.63,10.21s16.78-3.05,18.16-9.23h.01Z"/>
        <path class="am" d="M129.97,133.09c8.02-7.91,9.11-26.31-4.54-27.04-19.28-1.02-30.32,29.32-13.46,32.04,3.96,4.08,16.14.53,18-5Z"/>
        <path class="ay" d="M141.97,59.09c0-6.72.54-14.46,0-21-1.11,0-2.01.65-3,1l1,126c0-33.46.57-67.03.98-100.51.02-1.69-.64-4.45,1.02-5.49Z"/>
        <path class="as" d="M118.86,96.98c-4.75,4.87-11.31,7.53-18.11,7.35s-13.21-3.2-17.68-8.33c-5.16-.12,1.49,5.4,2.97,6.52,9.59,7.28,19.59,7.34,29.63.76,2.08-1.36,5.6-3.19,3.2-6.3h0Z"/>
        <path class="dg" d="M56.7,94.86c12.13,2.5,13.35-9.5,4.33-12.32-12.36-3.87-15.58,10.01-4.33,12.32Z"/>
        <path class="bx" d="M129.65,59.94c4.99.41,7.28-13.94-.18-13.94s-5.43,13.48.18,13.94Z"/>
        <path class="aa" d="M127.68,155.89c8.99,2.71,8.09-8.84.86-7.83-4.39.61-4.88,6.61-.86,7.83Z"/>
        <path class="cq" d="M129.97,133.09c-4.63,4.57-11.7,6.02-18,5l-1.49,2c6.2,2.38,13.63.97,18.54-3.48,1.24-1.12,2.37-1.85.95-3.52Z"/>
        <path class="cg" d="M73.98,109.09c-.51,2.84.69,1.64,2.19,2.25,4.76,1.91,7.07,2.87,10.79,6.75.17-6.35-7.38-9.8-12.98-8.99h0Z"/>
        <path class="aw" d="M70.97,70.08c-1.16-5.64-12.14.12-10,2,1.03.91,7.67-3.29,10-2Z"/>
        <path class="ch" d="M139.97,15.09c-.03-1.89.68-6.34-1.58-6.88-25.73,2.16-49.5,6.79-72.78,18.03-10.01,4.83-24.16,12.83-32.64,19.86-2.52,2.09-5.83,3.89-6.03,7.48-.09,1.57-.16,1.74,1.51,1.51,20.4-14.81,42.36-28.85,67.29-34.72,14.68-3.45,29.31-3.69,44.23-5.27h0Z"/>
        <path class="cn" d="M121.38,74.99c-5.09-10.39-13.83-15.47-25.39-14.84-10.98,2.96-17.5,14.23-14.6,25.23s14.16,17.57,25.16,14.71,17.63-14.08,14.82-25.1h.01Z"/>
        <path class="ba" d="M121.38,74.99c-1.37-5.35-4.82-9.94-9.59-12.73s-10.46-3.55-15.8-2.11c5.49,1.58,11.31,1.91,16.32,5.1l9.06,9.74h.01Z"/>
        <path class="ak" d="M130.97,114.09c-7.28-7.39-15.25.24-21,6-10.87,19.24,16.62,18.87,21.23,4.73,1.36-4.18,1.15-6.75-.23-10.73Z"/>
        <path class="bk" d="M130.97,114.09c-.45-1.3-.78-2.75-2.23-3.34-8.42-3.43-15.09,2.82-18.77,9.34l12.75-7.82c.88-.26,1.76-.32,2.67-.19,2.02.28,4.15,3.67,5.58,2.01Z"/>
        <path class="au" d="M62.7,87.34c-2.36-2.27-6.8-2.6-9.72-1.24-.3,7.01,14.75,6.08,9.72,1.24Z"/>
        <path class="ah" d="M129.96,49.09c-2.8-2.6-2.69,6.85-.48,6.98s1.34-6.18.48-6.98Z"/>
        <polygon class="ad" points="96.92 91.48 97.94 88.96 92.93 86.94 91.91 89.47 96.92 91.48"/>
        <path class="ci" d="M112.97,79.08c.4-2.63-.41-5-2.99-5.99.73,1.6-.07,6.78,2.99,5.99Z"/>
        <path class="ai" d="M123.98,117.09l-1,6c2.91-1.57,5.91-5.92,1-6Z"/>
      </g>
    </symbol>
    <clipPath id="h">
      <rect class="bd" x="60.68" y="10.56" width="153.81" height="175.29"/>
    </clipPath>
    <clipPath id="i">
      <rect class="bd" x="67.6" y="213.43" width="148.46" height="176.01"/>
    </clipPath>
    <clipPath id="j">
      <rect class="bd" x="27.25" y="113.84" width="176.09" height="189.59"/>
    </clipPath>
    <clipPath id="k">
      <rect class="bd" x="222.76" y="214.15" width="153.81" height="175.29"/>
    </clipPath>
    <clipPath id="l">
      <rect class="bd" x="221.2" y="10.56" width="148.46" height="176.01"/>
    </clipPath>
    <clipPath id="m">
      <rect class="bd" x="233.91" y="96.57" width="176.09" height="189.59"/>
    </clipPath>
    <clipPath id="n">
      <rect class="bd" x="483.43" y="10.56" width="153.81" height="175.29"/>
    </clipPath>
    <clipPath id="o">
      <rect class="bd" x="490.35" y="213.43" width="148.46" height="176.01"/>
    </clipPath>
    <clipPath id="p">
      <rect class="bd" x="450" y="113.84" width="176.09" height="189.59"/>
    </clipPath>
    <clipPath id="q">
      <rect class="bd" x="645.51" y="214.15" width="153.81" height="175.29"/>
    </clipPath>
    <clipPath id="r">
      <rect class="bd" x="643.95" y="10.56" width="148.46" height="176.01"/>
    </clipPath>
    <clipPath id="s">
      <rect class="bd" x="656.66" y="96.57" width="176.09" height="189.59"/>
    </clipPath>
  </defs>
  <g>
    <g class="bo">
      <use width="153.79" height="175.29" transform="translate(59.72 182.61) scale(1 -1)" xlink:href="#a"/>
    </g>
    <g class="w">
      <use width="148.46" height="176.01" transform="translate(65.69 388.77) scale(1 -1)" xlink:href="#e"/>
    </g>
    <g class="at">
      <use width="176.09" height="189.6" transform="translate(24.2 302.92) scale(1 -1)" xlink:href="#c"/>
    </g>
  </g>
  <g>
    <g class="af">
      <use width="153.79" height="175.29" transform="translate(377.53 217.39) rotate(-180) scale(1 -1)" xlink:href="#a"/>
    </g>
    <g class="ct">
      <use width="148.46" height="176.01" transform="translate(371.57 11.23) rotate(-180) scale(1 -1)" xlink:href="#e"/>
    </g>
    <g class="an">
      <use width="176.09" height="189.6" transform="translate(413.05 97.08) rotate(-180) scale(1 -1)" xlink:href="#c"/>
    </g>
  </g>
  <g>
    <g class="bz">
      <use width="153.79" height="175.29" transform="translate(482.47 182.61) scale(1 -1)" xlink:href="#a"/>
    </g>
    <g class="bu">
      <use width="148.46" height="176.01" transform="translate(488.44 388.77) scale(1 -1)" xlink:href="#e"/>
    </g>
    <g class="bm">
      <use width="176.09" height="189.6" transform="translate(446.95 302.92) scale(1 -1)" xlink:href="#c"/>
    </g>
  </g>
  <g>
    <g class="ag">
      <use width="153.79" height="175.29" transform="translate(800.28 217.39) rotate(-180) scale(1 -1)" xlink:href="#a"/>
    </g>
    <g class="cc">
      <use width="148.46" height="176.01" transform="translate(794.32 11.23) rotate(-180) scale(1 -1)" xlink:href="#e"/>
    </g>
    <g class="cj">
      <use width="176.09" height="189.6" transform="translate(835.8 97.08) rotate(-180) scale(1 -1)" xlink:href="#c"/>
    </g>
  </g>
</svg>