<?xml version="1.0" encoding="UTF-8"?>
<svg id="a" data-name="Слой 1" xmlns="http://www.w3.org/2000/svg" viewBox="0 0 959.4 292.9">
  <defs>
    <style>
      .b {
        fill: #29abe2;
      }

      .c {
        opacity: .25;
      }

      .d {
        fill: #22b573;
      }

      .e {
        fill: #00a99d;
      }
    </style>
  </defs>
  <g>
    <path class="d" d="M144.81,21.56c-66.72,2.63-120,57.53-120,124.89s53.28,122.27,120,124.89V21.56Z"/>
    <g class="c">
      <path class="d" d="M154.81,21.56v249.78c66.72-2.63,120-57.53,120-124.89S221.52,24.18,154.81,21.56Z"/>
    </g>
  </g>
  <g>
    <path class="e" d="M474.81,141.45V21.56c-65.06,2.56-117.33,54.83-119.89,119.89h119.89Z"/>
    <g class="c">
      <path class="e" d="M484.81,141.45h119.89c-2.56-65.06-54.83-117.33-119.89-119.89v119.89Z"/>
    </g>
    <g class="c">
      <path class="e" d="M484.81,151.45v119.89c65.06-2.56,117.33-54.83,119.89-119.89h-119.89Z"/>
    </g>
    <path class="e" d="M474.81,151.45h-119.89c2.56,65.06,54.83,117.33,119.89,119.89v-119.89Z"/>
  </g>
  <g>
    <path class="b" d="M804.7,134.38V21.56c-30.75,1.21-58.64,13.52-79.78,33.04l79.78,79.78Z"/>
    <g class="c">
      <path class="b" d="M814.7,21.56v112.82l79.78-79.78c-21.14-19.52-49.03-31.83-79.78-33.04Z"/>
    </g>
    <path class="b" d="M797.63,141.45l-79.78-79.78c-19.52,21.14-31.83,49.03-33.04,79.78h112.82Z"/>
    <path class="b" d="M797.63,151.45h-112.82c1.21,30.75,13.52,58.64,33.04,79.78l79.78-79.78Z"/>
    <g class="c">
      <path class="b" d="M821.77,151.45l79.78,79.78c19.52-21.14,31.83-49.03,33.04-79.78h-112.82Z"/>
    </g>
    <g class="c">
      <path class="b" d="M821.77,141.45h112.82c-1.21-30.75-13.52-58.64-33.04-79.78l-79.78,79.78Z"/>
    </g>
    <g class="c">
      <path class="b" d="M814.7,158.52v112.82c30.75-1.21,58.64-13.52,79.78-33.04l-79.78-79.78Z"/>
    </g>
    <path class="b" d="M804.7,158.52l-79.78,79.78c21.14,19.52,49.03,31.83,79.78,33.04v-112.82Z"/>
  </g>
</svg>