<?xml version="1.0" encoding="UTF-8"?>
<svg id="a" xmlns="http://www.w3.org/2000/svg" viewBox="0 0 1478.44 448.88">
  <defs>
    <style>
      .b {
        opacity: .2;
      }

      .c, .d {
        fill: #22b573;
      }

      .d {
        opacity: .2;
      }
    </style>
  </defs>
  <path d="M166.87,47.94c-79.87,0-143.76,63.9-143.76,143.76,0,49.52,23.96,92.65,63.9,119.8v87.86h175.71v-49.52c27.16-7.99,47.92-33.55,47.92-62.3v-17.57c11.18-1.6,20.77-9.58,27.16-20.77,6.39-12.78,4.79-28.75-3.19-41.53l-25.56-33.55c-7.99-71.88-68.69-126.19-142.17-126.19M118.95,292.34c-38.34-17.57-63.9-55.91-63.9-100.64,0-62.3,49.52-111.82,111.82-111.82s108.62,47.92,111.82,107.02l30.35,39.93c4.79,4.79,0,12.78-6.39,12.78h-23.96v47.92c0,17.57-14.38,31.95-31.95,31.95h-15.97v47.92h-111.82v-75.08"/>
  <g class="b">
    <path class="c" d="M166.14,280.64c48.45,0,87.72-39.28,87.72-87.72s-39.28-87.72-87.72-87.72"/>
  </g>
  <path class="c" d="M166.14,105.19c-48.45,0-87.72,39.28-87.72,87.72s39.28,87.72,87.72,87.72"/>
  <g>
    <path d="M532.94,417.21h-9.89v-34.33c-1.15.77-2.42,1.43-3.81,1.98-1.39.54-2.91,1.08-4.57,1.6l-2.7-7.91c2.87-.84,5.58-1.88,8.13-3.14s4.83-2.66,6.84-4.21h5.99v46.01h.01Z"/>
    <path d="M583,372.21l-21,50.12h-7.22l21-50.12h7.22Z"/>
    <path d="M602.49,417.21v-3.39c0-2.3.39-4.37,1.16-6.2.77-1.83,1.75-3.48,2.92-4.94,1.17-1.44,2.45-2.72,3.84-3.84s2.71-2.13,3.97-3.03c1.32-.94,2.47-1.84,3.47-2.7.99-.86,1.82-1.71,2.49-2.57.69-.84,1.23-1.71,1.62-2.64.39-.92.58-2,.58-3.23,0-1.61-.52-2.88-1.55-3.8-1.04-.92-2.42-1.38-4.16-1.38-1.59,0-2.99.52-4.19,1.57-1.2,1.05-2.23,2.48-3.09,4.3l-7.97-3.26c1.51-3.29,3.63-5.88,6.39-7.78,2.75-1.9,6.11-2.86,10.09-2.86,4.42,0,7.92,1.16,10.53,3.47s3.91,5.41,3.91,9.3c0,2.07-.32,3.91-.96,5.52s-1.49,3.08-2.56,4.39c-1.05,1.32-2.24,2.55-3.59,3.69s-2.77,2.22-4.25,3.25c-.94.71-1.87,1.4-2.78,2.06s-1.7,1.32-2.37,1.99c-.71.69-1.24,1.36-1.58,2.01-.35.65-.52,1.27-.52,1.85h18.55v8.22h-29.95Z"/>
  </g>
  <g>
    <path d="M869.33,417.09v-3.39c0-2.3.39-4.37,1.16-6.2.77-1.83,1.75-3.48,2.92-4.94,1.17-1.44,2.45-2.72,3.84-3.84s2.71-2.13,3.97-3.03c1.32-.94,2.47-1.84,3.47-2.7.99-.86,1.82-1.71,2.49-2.57.69-.84,1.23-1.71,1.62-2.64s.58-2,.58-3.23c0-1.61-.52-2.88-1.55-3.8-1.04-.92-2.42-1.38-4.16-1.38-1.59,0-2.99.52-4.19,1.57-1.2,1.05-2.23,2.48-3.09,4.3l-7.97-3.26c1.51-3.29,3.63-5.88,6.39-7.78,2.75-1.9,6.11-2.86,10.09-2.86,4.42,0,7.93,1.16,10.53,3.47,2.61,2.31,3.91,5.41,3.91,9.3,0,2.07-.32,3.91-.96,5.52s-1.49,3.08-2.56,4.39c-1.05,1.32-2.24,2.55-3.59,3.69s-2.77,2.22-4.25,3.25c-.94.71-1.87,1.4-2.78,2.06s-1.7,1.32-2.37,1.99c-.71.69-1.24,1.36-1.58,2.01-.35.65-.52,1.27-.52,1.85h18.55v8.22h-29.95Z"/>
    <path d="M946.15,372.08l-21,50.12h-7.22l20.99-50.12h7.23Z"/>
    <path d="M991.81,372.08v28.37h4.24v7.41h-4.24v9.23h-9.41v-9.23h-18.55v-7.75c1.63-1.95,3.33-4.07,5.1-6.39s3.47-4.69,5.1-7.14c1.65-2.45,3.19-4.91,4.6-7.39s2.61-4.85,3.59-7.11h9.57ZM972.48,400.45h9.92v-15.47c-.69,1.36-1.45,2.74-2.28,4.13s-1.66,2.76-2.5,4.09c-.86,1.32-1.73,2.59-2.6,3.81-.88,1.22-1.73,2.37-2.54,3.44Z"/>
  </g>
  <g>
    <path d="M1227.94,409.77l7.59-4.46c.69,1.42,1.68,2.58,2.97,3.47,1.29.89,2.87,1.33,4.75,1.33s3.54-.51,4.85-1.52c1.31-1.01,1.96-2.5,1.96-4.44s-.87-3.54-2.62-4.6-4.15-1.59-7.2-1.62h-3.67v-7.72h3.36c2.93,0,5.13-.49,6.59-1.47s2.2-2.54,2.2-4.68c0-1.61-.52-2.85-1.55-3.72-1.04-.87-2.31-1.3-3.81-1.3-1.42,0-2.75.36-3.97,1.08s-2.24,1.86-3.06,3.41l-7.38-3.55c1.28-2.45,3.26-4.49,5.95-6.14,2.69-1.64,5.87-2.46,9.56-2.46,4.6,0,8.15,1.04,10.64,3.12s3.73,4.95,3.73,8.62c0,2.45-.66,4.59-1.98,6.43s-3.31,3.19-5.96,4.05v.16c2.87.5,5.13,1.71,6.79,3.62,1.66,1.92,2.5,4.21,2.5,6.89,0,4.21-1.5,7.53-4.5,9.98s-6.94,3.67-11.82,3.67c-3.91,0-7.18-.7-9.79-2.1s-4.66-3.42-6.12-6.06h0Z"/>
    <path d="M1306.3,372.08l-21,50.12h-7.22l21-50.12h7.22Z"/>
    <path d="M1355.85,402.11c0,4.46-1.44,8.2-4.31,11.22-2.88,3.02-6.62,4.54-11.22,4.54-4.9,0-8.7-1.72-11.41-5.16-2.71-3.44-4.06-8.69-4.06-15.74,0-4.44.52-8.42,1.55-11.94,1.04-3.53,2.55-6.41,4.53-8.65,1.55-1.74,3.34-3.01,5.37-3.83,2.03-.82,4.25-1.22,6.65-1.22,2.78,0,5.27.71,7.45,2.12,2.19,1.41,3.85,3.27,5,5.57l-6.9,4.08c-.56-1.23-1.33-2.22-2.29-2.97-.96-.74-2.15-1.11-3.58-1.11-1.05,0-2.02.2-2.93.61s-1.74,1.03-2.5,1.87c-1.05,1.13-1.83,2.62-2.34,4.47s-.79,3.93-.83,6.23h.28c1.11-1.34,2.45-2.35,4.03-3.03,1.58-.68,3.37-1.02,5.38-1.02,3.7,0,6.65,1.29,8.83,3.86,2.19,2.57,3.28,5.94,3.28,10.11h.02ZM1346.66,402.74c0-2.15-.52-3.88-1.55-5.18-1.04-1.3-2.5-1.95-4.38-1.95s-3.41.72-4.52,2.15-1.66,3.1-1.66,5c0,2.2.55,3.97,1.66,5.32s2.54,2.02,4.3,2.02c1.92,0,3.43-.68,4.52-2.05s1.63-3.14,1.63-5.32h0Z"/>
  </g>
  <path class="d" d="M942.24,169.27h139.66c-4.93-74.87-64.79-134.73-139.66-139.66v139.66Z"/>
  <path class="c" d="M922.24,169.27V29.61c-74.87,4.93-134.73,64.79-139.66,139.66h139.66Z"/>
  <path class="c" d="M922.24,189.27h-139.66c4.93,74.87,64.79,134.73,139.66,139.66v-139.66Z"/>
  <path class="d" d="M942.24,189.27v139.66c74.87-4.93,134.73-64.79,139.66-139.66h-139.66Z"/>
  <path class="c" d="M562.24,29.61c-78.18,5.15-140,70.18-140,149.66s61.82,144.51,140,149.66V29.61Z"/>
  <path class="d" d="M582.24,29.61v299.32c78.18-5.15,140-70.18,140-149.66s-61.82-144.51-140-149.66Z"/>
  <path class="c" d="M1281.9,161.95V29.61c-47.78,3.15-89.44,28.65-114.62,66.16l114.62,66.18Z"/>
  <path class="d" d="M1301.9,161.95l114.62-66.18c-25.18-37.51-66.85-63.02-114.62-66.16v132.34Z"/>
  <path class="d" d="M1426.54,245.46c9.83-19.96,15.36-42.43,15.36-66.18s-5.53-46.22-15.36-66.18l-114.64,66.18,114.64,66.18Z"/>
  <path class="d" d="M1301.9,196.59v132.34c47.78-3.15,89.44-28.65,114.62-66.16l-114.62-66.18Z"/>
  <path class="c" d="M1281.9,196.59l-114.62,66.18c25.18,37.51,66.85,63.02,114.62,66.16v-132.34Z"/>
  <path class="c" d="M1157.26,113.09c-9.83,19.96-15.36,42.43-15.36,66.18s5.53,46.22,15.36,66.18l114.64-66.18-114.64-66.18Z"/>
</svg>