<?xml version="1.0" encoding="UTF-8"?>
<svg id="a" data-name="Слой 1" xmlns="http://www.w3.org/2000/svg" viewBox="0 0 2996.88 2145.2">
  <defs>
    <style>
      .b {
        fill: #d2df5c;
      }

      .b, .c, .d, .e, .f, .g, .h, .i, .j, .k, .l, .m, .n, .o {
        stroke-miterlimit: 10;
      }

      .b, .c, .d, .e, .f, .g, .h, .k, .l, .n {
        stroke: #000;
        stroke-width: 5px;
      }

      .c {
        fill: #dcce6b;
      }

      .d {
        fill: #fbbe54;
      }

      .e {
        fill: #ee7a7d;
      }

      .f {
        fill: #e94e78;
      }

      .g {
        fill: #70b8b7;
      }

      .h {
        fill: #72b7a3;
      }

      .i {
        stroke: #dcce6b;
      }

      .i, .j, .m, .o {
        fill: none;
        stroke-dasharray: 20;
        stroke-width: 20px;
      }

      .j {
        stroke: #ee7a7d;
      }

      .k {
        fill: #f3954d;
      }

      .l {
        fill: #f8e370;
      }

      .p {
        fill: gray;
      }

      .m {
        stroke: #e94e78;
      }

      .n {
        fill: #8cb372;
      }

      .o {
        stroke: #fbbe54;
      }
    </style>
  </defs>
  <g>
    <rect class="f" x="67.2" y="72.6" width="1500" height="200"/>
    <g>
      <path d="M828.45,148.45h-10.61v-36.86c-1.24.83-2.6,1.54-4.09,2.12-1.49.58-3.13,1.16-4.9,1.72l-2.9-8.49c3.08-.9,5.99-2.02,8.73-3.37s5.19-2.85,7.35-4.51h6.43v49.39Z"/>
      <path d="M828.45,234.48h-10.61v-36.86c-1.24.83-2.6,1.54-4.09,2.12-1.49.58-3.13,1.16-4.9,1.72l-2.9-8.49c3.08-.9,5.99-2.02,8.73-3.37s5.19-2.85,7.35-4.51h6.43v49.39Z"/>
      <rect x="774.07" y="163.45" width="86.25" height="6.9"/>
    </g>
  </g>
  <g>
    <g>
      <rect class="e" x="67.2" y="272.6" width="750" height="200"/>
      <g>
        <path d="M453.45,348.45h-10.61v-36.86c-1.24.83-2.6,1.54-4.09,2.12-1.49.58-3.13,1.16-4.9,1.72l-2.9-8.49c3.08-.9,5.99-2.02,8.73-3.37s5.19-2.85,7.35-4.51h6.44v49.39Z"/>
        <path d="M426.58,434.48v-3.64c0-2.47.42-4.69,1.25-6.65.83-1.97,1.88-3.73,3.13-5.31,1.26-1.55,2.63-2.93,4.13-4.13,1.49-1.2,2.91-2.29,4.26-3.25,1.42-1.01,2.66-1.98,3.72-2.9,1.07-.92,1.96-1.84,2.68-2.76.74-.9,1.32-1.84,1.74-2.83.42-.99.62-2.15.62-3.47,0-1.73-.56-3.09-1.67-4.08-1.11-.99-2.6-1.48-4.46-1.48-1.71,0-3.21.56-4.5,1.68-1.29,1.12-2.4,2.66-3.32,4.62l-8.56-3.5c1.62-3.53,3.9-6.31,6.86-8.36,2.95-2.04,6.56-3.07,10.83-3.07,4.74,0,8.51,1.24,11.3,3.72s4.19,5.81,4.19,9.99c0,2.22-.34,4.2-1.03,5.93-.69,1.73-1.6,3.3-2.75,4.72-1.12,1.42-2.41,2.73-3.86,3.96s-2.97,2.39-4.57,3.49c-1.01.76-2,1.5-2.98,2.21s-1.83,1.42-2.54,2.14c-.76.74-1.33,1.46-1.7,2.16s-.56,1.36-.56,1.99h19.91v8.83h-32.14Z"/>
        <rect x="399.07" y="363.45" width="86.25" height="6.9"/>
      </g>
    </g>
    <g>
      <rect class="e" x="817.2" y="272.6" width="750" height="200"/>
      <g>
        <path d="M1203.45,348.45h-10.61v-36.86c-1.24.83-2.6,1.54-4.09,2.12-1.49.58-3.13,1.16-4.9,1.72l-2.9-8.49c3.08-.9,5.99-2.02,8.73-3.37s5.19-2.85,7.35-4.51h6.43v49.39Z"/>
        <path d="M1176.58,434.48v-3.64c0-2.47.42-4.69,1.25-6.65.83-1.97,1.88-3.73,3.13-5.31,1.26-1.55,2.63-2.93,4.13-4.13,1.49-1.2,2.91-2.29,4.26-3.25,1.42-1.01,2.66-1.98,3.72-2.9,1.07-.92,1.96-1.84,2.68-2.76.74-.9,1.32-1.84,1.74-2.83.42-.99.62-2.15.62-3.47,0-1.73-.56-3.09-1.67-4.08-1.11-.99-2.6-1.48-4.46-1.48-1.71,0-3.21.56-4.5,1.68-1.29,1.12-2.4,2.66-3.32,4.62l-8.56-3.5c1.62-3.53,3.9-6.31,6.86-8.36,2.95-2.04,6.56-3.07,10.83-3.07,4.74,0,8.51,1.24,11.3,3.72,2.8,2.48,4.19,5.81,4.19,9.99,0,2.22-.34,4.2-1.03,5.93-.69,1.73-1.6,3.3-2.75,4.72-1.12,1.42-2.41,2.73-3.86,3.96-1.45,1.22-2.97,2.39-4.57,3.49-1.01.76-2,1.5-2.98,2.21-.98.71-1.83,1.42-2.54,2.14-.76.74-1.33,1.46-1.7,2.16-.37.7-.56,1.36-.56,1.99h19.91v8.83h-32.14Z"/>
        <rect x="1149.07" y="363.45" width="86.25" height="6.9"/>
      </g>
    </g>
  </g>
  <rect class="d" x="67.2" y="672.6" width="375" height="200"/>
  <g>
    <path d="M265.95,748.45h-10.61v-36.86c-1.24.83-2.6,1.54-4.09,2.12-1.49.58-3.13,1.16-4.9,1.72l-2.9-8.49c3.08-.9,5.99-2.02,8.73-3.37s5.19-2.85,7.35-4.51h6.44v49.39Z"/>
    <path d="M267.44,786.17v30.46h4.55v7.95h-4.55v9.91h-10.11v-9.91h-19.91v-8.32c1.75-2.09,3.58-4.37,5.48-6.86,1.9-2.48,3.72-5.04,5.48-7.66,1.77-2.63,3.42-5.27,4.94-7.93s2.8-5.21,3.86-7.63h10.28ZM246.68,816.62h10.65v-16.61c-.74,1.46-1.56,2.94-2.44,4.43-.89,1.49-1.78,2.96-2.68,4.4-.92,1.42-1.85,2.78-2.8,4.09s-1.85,2.54-2.73,3.69Z"/>
    <rect x="211.57" y="763.45" width="86.25" height="6.9"/>
  </g>
  <rect class="d" x="442.2" y="672.6" width="375" height="200"/>
  <g>
    <path d="M640.95,748.45h-10.61v-36.86c-1.24.83-2.6,1.54-4.09,2.12-1.49.58-3.13,1.16-4.9,1.72l-2.9-8.49c3.08-.9,5.99-2.02,8.73-3.37s5.19-2.85,7.35-4.51h6.44v49.39Z"/>
    <path d="M642.44,786.17v30.46h4.55v7.95h-4.55v9.91h-10.11v-9.91h-19.91v-8.32c1.75-2.09,3.58-4.37,5.48-6.86,1.9-2.48,3.72-5.04,5.48-7.66,1.77-2.63,3.42-5.27,4.94-7.93s2.8-5.21,3.86-7.63h10.28ZM621.68,816.62h10.65v-16.61c-.74,1.46-1.56,2.94-2.44,4.43-.89,1.49-1.78,2.96-2.68,4.4-.92,1.42-1.85,2.78-2.8,4.09s-1.85,2.54-2.73,3.69Z"/>
    <rect x="586.57" y="763.45" width="86.25" height="6.9"/>
  </g>
  <g>
    <rect class="d" x="817.2" y="672.6" width="375" height="200"/>
    <g>
      <path d="M1015.95,748.45h-10.61v-36.86c-1.24.83-2.6,1.54-4.09,2.12-1.49.58-3.13,1.16-4.9,1.72l-2.9-8.49c3.08-.9,5.99-2.02,8.73-3.37s5.19-2.85,7.35-4.51h6.43v49.39Z"/>
      <path d="M1017.44,786.17v30.46h4.55v7.95h-4.55v9.91h-10.11v-9.91h-19.91v-8.32c1.75-2.09,3.58-4.37,5.48-6.86,1.9-2.48,3.72-5.04,5.47-7.66,1.77-2.63,3.42-5.27,4.94-7.93,1.52-2.66,2.8-5.21,3.86-7.63h10.28ZM996.68,816.62h10.65v-16.61c-.74,1.46-1.56,2.94-2.44,4.43-.89,1.49-1.78,2.96-2.68,4.4-.92,1.42-1.85,2.78-2.8,4.09s-1.85,2.54-2.73,3.69Z"/>
      <rect x="961.57" y="763.45" width="86.25" height="6.9"/>
    </g>
  </g>
  <g>
    <rect class="d" x="1192.2" y="672.6" width="375" height="200"/>
    <g>
      <path d="M1390.95,748.45h-10.61v-36.86c-1.24.83-2.6,1.54-4.09,2.12-1.49.58-3.13,1.16-4.9,1.72l-2.9-8.49c3.08-.9,5.99-2.02,8.73-3.37s5.19-2.85,7.35-4.51h6.43v49.39Z"/>
      <path d="M1392.44,786.17v30.46h4.55v7.95h-4.55v9.91h-10.11v-9.91h-19.91v-8.32c1.75-2.09,3.58-4.37,5.48-6.86,1.9-2.48,3.72-5.04,5.47-7.66,1.77-2.63,3.42-5.27,4.94-7.93,1.52-2.66,2.8-5.21,3.86-7.63h10.28ZM1371.68,816.62h10.65v-16.61c-.74,1.46-1.56,2.94-2.44,4.43-.89,1.49-1.78,2.96-2.68,4.4-.92,1.42-1.85,2.78-2.8,4.09s-1.85,2.54-2.73,3.69Z"/>
      <rect x="1336.57" y="763.45" width="86.25" height="6.9"/>
    </g>
  </g>
  <g>
    <g>
      <rect class="k" x="67.2" y="472.6" width="500" height="200"/>
      <g>
        <path d="M328.45,548.45h-10.61v-36.86c-1.24.83-2.6,1.54-4.09,2.12-1.49.58-3.13,1.16-4.9,1.72l-2.9-8.49c3.08-.9,5.99-2.02,8.73-3.37s5.19-2.85,7.35-4.51h6.44v49.39Z"/>
        <path d="M299.9,626.63l8.15-4.78c.74,1.53,1.8,2.77,3.18,3.72,1.38.96,3.08,1.43,5.1,1.43s3.8-.54,5.21-1.63c1.4-1.09,2.11-2.68,2.11-4.77s-.94-3.8-2.81-4.94-4.45-1.71-7.73-1.74h-3.94v-8.29h3.61c3.14,0,5.5-.53,7.08-1.58,1.57-1.06,2.36-2.73,2.36-5.02,0-1.73-.56-3.06-1.67-3.99-1.11-.93-2.48-1.4-4.09-1.4-1.53,0-2.95.39-4.26,1.16s-2.41,1.99-3.29,3.66l-7.92-3.81c1.37-2.63,3.5-4.82,6.38-6.59,2.89-1.76,6.31-2.65,10.26-2.65,4.94,0,8.75,1.12,11.42,3.35,2.67,2.23,4.01,5.32,4.01,9.25,0,2.63-.71,4.93-2.12,6.91s-3.55,3.43-6.4,4.35v.17c3.08.54,5.51,1.84,7.29,3.89s2.68,4.52,2.68,7.4c0,4.52-1.61,8.09-4.83,10.71-3.22,2.63-7.45,3.94-12.69,3.94-4.2,0-7.7-.75-10.51-2.26s-5-3.67-6.57-6.5Z"/>
        <rect x="274.07" y="563.45" width="86.25" height="6.9"/>
      </g>
    </g>
    <g>
      <rect class="k" x="567.2" y="472.6" width="500" height="200"/>
      <g>
        <path d="M828.45,548.45h-10.61v-36.86c-1.24.83-2.6,1.54-4.09,2.12-1.49.58-3.13,1.16-4.9,1.72l-2.9-8.49c3.08-.9,5.99-2.02,8.73-3.37s5.19-2.85,7.35-4.51h6.43v49.39Z"/>
        <path d="M799.9,626.63l8.15-4.78c.74,1.53,1.8,2.77,3.18,3.72,1.38.96,3.08,1.43,5.1,1.43s3.8-.54,5.21-1.63c1.4-1.09,2.11-2.68,2.11-4.77s-.94-3.8-2.81-4.94c-1.88-1.13-4.45-1.71-7.73-1.74h-3.94v-8.29h3.61c3.14,0,5.5-.53,7.08-1.58,1.57-1.06,2.36-2.73,2.36-5.02,0-1.73-.56-3.06-1.67-3.99-1.11-.93-2.48-1.4-4.09-1.4-1.53,0-2.95.39-4.26,1.16s-2.41,1.99-3.29,3.66l-7.92-3.81c1.37-2.63,3.5-4.82,6.38-6.59,2.89-1.76,6.31-2.65,10.26-2.65,4.94,0,8.75,1.12,11.42,3.35s4.01,5.32,4.01,9.25c0,2.63-.71,4.93-2.12,6.91s-3.55,3.43-6.4,4.35v.17c3.08.54,5.51,1.84,7.29,3.89,1.79,2.06,2.68,4.52,2.68,7.4,0,4.52-1.61,8.09-4.83,10.71-3.22,2.63-7.45,3.94-12.69,3.94-4.2,0-7.7-.75-10.51-2.26s-5-3.67-6.57-6.5Z"/>
        <rect x="774.07" y="563.45" width="86.25" height="6.9"/>
      </g>
    </g>
    <g>
      <rect class="k" x="1067.2" y="472.6" width="500" height="200"/>
      <g>
        <path d="M1328.45,548.45h-10.61v-36.86c-1.24.83-2.6,1.54-4.09,2.12-1.49.58-3.13,1.16-4.9,1.72l-2.9-8.49c3.08-.9,5.99-2.02,8.73-3.37s5.19-2.85,7.35-4.51h6.43v49.39Z"/>
        <path d="M1299.9,626.63l8.15-4.78c.74,1.53,1.8,2.77,3.18,3.72,1.38.96,3.08,1.43,5.1,1.43s3.8-.54,5.21-1.63c1.4-1.09,2.11-2.68,2.11-4.77s-.94-3.8-2.81-4.94c-1.88-1.13-4.45-1.71-7.73-1.74h-3.94v-8.29h3.61c3.14,0,5.5-.53,7.08-1.58,1.57-1.06,2.36-2.73,2.36-5.02,0-1.73-.56-3.06-1.67-3.99-1.11-.93-2.48-1.4-4.09-1.4-1.53,0-2.95.39-4.26,1.16-1.31.77-2.41,1.99-3.29,3.66l-7.92-3.81c1.37-2.63,3.5-4.82,6.38-6.59,2.89-1.76,6.31-2.65,10.26-2.65,4.94,0,8.75,1.12,11.42,3.35s4.01,5.32,4.01,9.25c0,2.63-.71,4.93-2.12,6.91s-3.55,3.43-6.4,4.35v.17c3.08.54,5.51,1.84,7.29,3.89,1.79,2.06,2.68,4.52,2.68,7.4,0,4.52-1.61,8.09-4.83,10.71-3.22,2.63-7.45,3.94-12.69,3.94-4.2,0-7.7-.75-10.51-2.26s-5-3.67-6.57-6.5Z"/>
        <rect x="1274.07" y="563.45" width="86.25" height="6.9"/>
      </g>
    </g>
  </g>
  <g>
    <g>
      <rect class="l" x="67.2" y="872.6" width="300" height="200"/>
      <g>
        <path d="M228.45,948.45h-10.61v-36.86c-1.24.83-2.6,1.54-4.09,2.12-1.49.58-3.13,1.16-4.9,1.72l-2.9-8.49c3.08-.9,5.99-2.02,8.73-3.37s5.19-2.85,7.35-4.51h6.43v49.39Z"/>
        <path d="M200.19,1026.19l8.25-4.58c.92,1.8,2.02,3.15,3.3,4.06,1.28.91,2.86,1.36,4.75,1.36,2.04,0,3.74-.65,5.09-1.94,1.35-1.29,2.02-2.99,2.02-5.1,0-2.54-.88-4.41-2.64-5.63-1.76-1.21-4.34-1.82-7.73-1.82-1.24,0-2.67.05-4.31.15-1.64.1-3.27.24-4.89.42l1.82-26.95h25.57v8.69h-17.45l-.67,9.54c.88-.07,1.68-.12,2.41-.15.73-.03,1.61-.05,2.64-.05,4.96,0,8.85,1.31,11.66,3.94s4.21,6.17,4.21,10.61c0,4.87-1.64,8.86-4.92,11.94-3.28,3.09-7.55,4.63-12.8,4.63-3.73,0-6.95-.76-9.67-2.29s-4.93-3.81-6.64-6.84Z"/>
        <rect x="174.07" y="963.45" width="86.25" height="6.9"/>
      </g>
    </g>
    <g>
      <rect class="l" x="367.2" y="872.6" width="300" height="200"/>
      <g>
        <path d="M528.45,948.45h-10.61v-36.86c-1.24.83-2.6,1.54-4.09,2.12-1.49.58-3.13,1.16-4.9,1.72l-2.9-8.49c3.08-.9,5.99-2.02,8.73-3.37s5.19-2.85,7.35-4.51h6.43v49.39Z"/>
        <path d="M500.19,1026.19l8.25-4.58c.92,1.8,2.02,3.15,3.3,4.06,1.28.91,2.86,1.36,4.75,1.36,2.04,0,3.74-.65,5.09-1.94,1.35-1.29,2.02-2.99,2.02-5.1,0-2.54-.88-4.41-2.64-5.63-1.76-1.21-4.34-1.82-7.73-1.82-1.24,0-2.67.05-4.31.15-1.64.1-3.27.24-4.89.42l1.82-26.95h25.57v8.69h-17.45l-.67,9.54c.88-.07,1.68-.12,2.41-.15.73-.03,1.61-.05,2.64-.05,4.96,0,8.85,1.31,11.66,3.94s4.21,6.17,4.21,10.61c0,4.87-1.64,8.86-4.92,11.94-3.28,3.09-7.55,4.63-12.8,4.63-3.73,0-6.95-.76-9.67-2.29s-4.93-3.81-6.64-6.84Z"/>
        <rect x="474.07" y="963.45" width="86.25" height="6.9"/>
      </g>
    </g>
    <g>
      <rect class="l" x="667.2" y="872.6" width="300" height="200"/>
      <g>
        <path d="M828.45,948.45h-10.61v-36.86c-1.24.83-2.6,1.54-4.09,2.12-1.49.58-3.13,1.16-4.9,1.72l-2.9-8.49c3.08-.9,5.99-2.02,8.73-3.37s5.19-2.85,7.35-4.51h6.43v49.39Z"/>
        <path d="M800.19,1026.19l8.25-4.58c.92,1.8,2.02,3.15,3.3,4.06,1.28.91,2.86,1.36,4.75,1.36,2.04,0,3.74-.65,5.09-1.94,1.35-1.29,2.02-2.99,2.02-5.1,0-2.54-.88-4.41-2.64-5.63-1.76-1.21-4.34-1.82-7.73-1.82-1.24,0-2.67.05-4.31.15-1.64.1-3.27.24-4.89.42l1.82-26.95h25.57v8.69h-17.45l-.67,9.54c.88-.07,1.68-.12,2.41-.15.73-.03,1.61-.05,2.64-.05,4.96,0,8.85,1.31,11.66,3.94s4.21,6.17,4.21,10.61c0,4.87-1.64,8.86-4.92,11.94-3.28,3.09-7.55,4.63-12.8,4.63-3.73,0-6.95-.76-9.67-2.29s-4.93-3.81-6.64-6.84Z"/>
        <rect x="774.07" y="963.45" width="86.25" height="6.9"/>
      </g>
    </g>
    <g>
      <rect class="l" x="967.2" y="872.6" width="300" height="200"/>
      <g>
        <path d="M1128.45,948.45h-10.61v-36.86c-1.24.83-2.6,1.54-4.09,2.12-1.49.58-3.13,1.16-4.9,1.72l-2.9-8.49c3.08-.9,5.99-2.02,8.73-3.37s5.19-2.85,7.35-4.51h6.43v49.39Z"/>
        <path d="M1100.19,1026.19l8.25-4.58c.92,1.8,2.02,3.15,3.3,4.06,1.28.91,2.86,1.36,4.75,1.36,2.04,0,3.74-.65,5.09-1.94,1.35-1.29,2.02-2.99,2.02-5.1,0-2.54-.88-4.41-2.64-5.63-1.76-1.21-4.34-1.82-7.73-1.82-1.24,0-2.67.05-4.31.15-1.64.1-3.27.24-4.89.42l1.82-26.95h25.57v8.69h-17.45l-.67,9.54c.88-.07,1.68-.12,2.41-.15.73-.03,1.61-.05,2.64-.05,4.96,0,8.85,1.31,11.66,3.94s4.21,6.17,4.21,10.61c0,4.87-1.64,8.86-4.92,11.94-3.28,3.09-7.55,4.63-12.8,4.63-3.73,0-6.95-.76-9.67-2.29s-4.93-3.81-6.64-6.84Z"/>
        <rect x="1074.07" y="963.45" width="86.25" height="6.9"/>
      </g>
    </g>
    <g>
      <rect class="l" x="1267.2" y="872.6" width="300" height="200"/>
      <g>
        <path d="M1428.45,948.45h-10.61v-36.86c-1.24.83-2.6,1.54-4.09,2.12-1.49.58-3.13,1.16-4.9,1.72l-2.9-8.49c3.08-.9,5.99-2.02,8.73-3.37s5.19-2.85,7.35-4.51h6.43v49.39Z"/>
        <path d="M1400.19,1026.19l8.25-4.58c.92,1.8,2.02,3.15,3.3,4.06,1.28.91,2.86,1.36,4.75,1.36,2.04,0,3.74-.65,5.09-1.94,1.35-1.29,2.02-2.99,2.02-5.1,0-2.54-.88-4.41-2.64-5.63-1.76-1.21-4.34-1.82-7.73-1.82-1.24,0-2.67.05-4.31.15-1.64.1-3.27.24-4.89.42l1.82-26.95h25.57v8.69h-17.45l-.67,9.54c.88-.07,1.68-.12,2.41-.15.73-.03,1.61-.05,2.64-.05,4.96,0,8.85,1.31,11.66,3.94s4.21,6.17,4.21,10.61c0,4.87-1.64,8.86-4.92,11.94-3.28,3.09-7.55,4.63-12.8,4.63-3.73,0-6.95-.76-9.67-2.29s-4.93-3.81-6.64-6.84Z"/>
        <rect x="1374.07" y="963.45" width="86.25" height="6.9"/>
      </g>
    </g>
  </g>
  <g>
    <rect class="c" x="67.2" y="1072.6" width="250" height="200"/>
    <g>
      <path d="M203.45,1148.45h-10.61v-36.86c-1.24.83-2.6,1.54-4.09,2.12-1.49.58-3.13,1.16-4.9,1.72l-2.9-8.49c3.08-.9,5.99-2.02,8.73-3.37s5.19-2.85,7.35-4.51h6.44v49.39Z"/>
      <path d="M208.84,1218.41c0,4.79-1.54,8.8-4.63,12.04-3.09,3.25-7.1,4.87-12.04,4.87-5.26,0-9.34-1.85-12.25-5.54-2.91-3.69-4.36-9.33-4.36-16.9,0-4.76.56-9.03,1.67-12.82s2.73-6.88,4.87-9.28c1.66-1.86,3.58-3.23,5.76-4.11,2.18-.88,4.56-1.31,7.14-1.31,2.99,0,5.65.76,8,2.27,2.35,1.52,4.14,3.51,5.37,5.98l-7.41,4.38c-.61-1.33-1.43-2.39-2.46-3.18-1.03-.8-2.31-1.2-3.84-1.2-1.12,0-2.17.22-3.15.66-.98.44-1.87,1.11-2.68,2-1.12,1.21-1.96,2.81-2.51,4.8-.55,1.99-.85,4.22-.89,6.69h.3c1.19-1.44,2.63-2.52,4.33-3.25,1.7-.73,3.62-1.09,5.78-1.09,3.98,0,7.14,1.38,9.48,4.14,2.35,2.76,3.52,6.38,3.52,10.85ZM198.97,1219.08c0-2.31-.56-4.17-1.67-5.56-1.11-1.39-2.68-2.09-4.7-2.09s-3.66.77-4.85,2.31c-1.19,1.54-1.79,3.33-1.79,5.37,0,2.36.59,4.26,1.79,5.71,1.19,1.45,2.73,2.17,4.62,2.17,2.07,0,3.68-.74,4.85-2.21,1.17-1.47,1.75-3.37,1.75-5.71Z"/>
      <rect x="149.07" y="1163.45" width="86.25" height="6.9"/>
    </g>
  </g>
  <g>
    <rect class="c" x="317.2" y="1072.6" width="250" height="200"/>
    <g>
      <path d="M453.45,1148.45h-10.61v-36.86c-1.24.83-2.6,1.54-4.09,2.12-1.49.58-3.13,1.16-4.9,1.72l-2.9-8.49c3.08-.9,5.99-2.02,8.73-3.37s5.19-2.85,7.35-4.51h6.44v49.39Z"/>
      <path d="M458.84,1218.41c0,4.79-1.54,8.8-4.63,12.04-3.09,3.25-7.1,4.87-12.04,4.87-5.26,0-9.34-1.85-12.25-5.54-2.91-3.69-4.36-9.33-4.36-16.9,0-4.76.56-9.03,1.67-12.82s2.73-6.88,4.87-9.28c1.66-1.86,3.58-3.23,5.76-4.11,2.18-.88,4.56-1.31,7.14-1.31,2.99,0,5.65.76,8,2.27,2.35,1.52,4.14,3.51,5.37,5.98l-7.41,4.38c-.61-1.33-1.43-2.39-2.46-3.18-1.03-.8-2.31-1.2-3.84-1.2-1.12,0-2.17.22-3.15.66-.98.44-1.87,1.11-2.68,2-1.12,1.21-1.96,2.81-2.51,4.8-.55,1.99-.85,4.22-.89,6.69h.3c1.19-1.44,2.63-2.52,4.33-3.25,1.7-.73,3.62-1.09,5.78-1.09,3.98,0,7.14,1.38,9.48,4.14,2.35,2.76,3.52,6.38,3.52,10.85ZM448.97,1219.08c0-2.31-.56-4.17-1.67-5.56-1.11-1.39-2.68-2.09-4.7-2.09s-3.66.77-4.85,2.31c-1.19,1.54-1.79,3.33-1.79,5.37,0,2.36.59,4.26,1.79,5.71,1.19,1.45,2.73,2.17,4.62,2.17,2.07,0,3.68-.74,4.85-2.21,1.17-1.47,1.75-3.37,1.75-5.71Z"/>
      <rect x="399.07" y="1163.45" width="86.25" height="6.9"/>
    </g>
  </g>
  <g>
    <rect class="c" x="567.2" y="1072.6" width="250" height="200"/>
    <g>
      <path d="M703.45,1148.45h-10.61v-36.86c-1.24.83-2.6,1.54-4.09,2.12-1.49.58-3.13,1.16-4.9,1.72l-2.9-8.49c3.08-.9,5.99-2.02,8.73-3.37s5.19-2.85,7.35-4.51h6.44v49.39Z"/>
      <path d="M708.84,1218.41c0,4.79-1.54,8.8-4.63,12.04-3.09,3.25-7.1,4.87-12.04,4.87-5.26,0-9.34-1.85-12.25-5.54-2.91-3.69-4.36-9.33-4.36-16.9,0-4.76.56-9.03,1.67-12.82s2.73-6.88,4.87-9.28c1.66-1.86,3.58-3.23,5.76-4.11,2.18-.88,4.56-1.31,7.14-1.31,2.99,0,5.65.76,8,2.27,2.35,1.52,4.14,3.51,5.37,5.98l-7.41,4.38c-.61-1.33-1.43-2.39-2.46-3.18-1.03-.8-2.31-1.2-3.84-1.2-1.12,0-2.17.22-3.15.66-.98.44-1.87,1.11-2.68,2-1.12,1.21-1.96,2.81-2.51,4.8-.55,1.99-.85,4.22-.89,6.69h.3c1.19-1.44,2.63-2.52,4.33-3.25,1.7-.73,3.62-1.09,5.78-1.09,3.98,0,7.14,1.38,9.48,4.14,2.35,2.76,3.52,6.38,3.52,10.85ZM698.97,1219.08c0-2.31-.56-4.17-1.67-5.56-1.11-1.39-2.68-2.09-4.7-2.09s-3.66.77-4.85,2.31c-1.19,1.54-1.79,3.33-1.79,5.37,0,2.36.59,4.26,1.79,5.71,1.19,1.45,2.73,2.17,4.62,2.17,2.07,0,3.68-.74,4.85-2.21,1.17-1.47,1.75-3.37,1.75-5.71Z"/>
      <rect x="649.07" y="1163.45" width="86.25" height="6.9"/>
    </g>
  </g>
  <g>
    <rect class="c" x="817.2" y="1072.6" width="250" height="200"/>
    <g>
      <path d="M953.45,1148.45h-10.61v-36.86c-1.24.83-2.6,1.54-4.09,2.12-1.49.58-3.13,1.16-4.9,1.72l-2.9-8.49c3.08-.9,5.99-2.02,8.73-3.37s5.19-2.85,7.35-4.51h6.43v49.39Z"/>
      <path d="M958.84,1218.41c0,4.79-1.54,8.8-4.63,12.04-3.09,3.25-7.1,4.87-12.04,4.87-5.26,0-9.34-1.85-12.25-5.54-2.91-3.69-4.36-9.33-4.36-16.9,0-4.76.56-9.03,1.67-12.82,1.11-3.79,2.73-6.88,4.87-9.28,1.66-1.86,3.58-3.23,5.76-4.11,2.18-.88,4.56-1.31,7.14-1.31,2.99,0,5.65.76,8,2.27,2.35,1.52,4.14,3.51,5.37,5.98l-7.41,4.38c-.61-1.33-1.43-2.39-2.46-3.18-1.03-.8-2.31-1.2-3.84-1.2-1.12,0-2.17.22-3.15.66-.98.44-1.87,1.11-2.68,2-1.12,1.21-1.96,2.81-2.51,4.8-.55,1.99-.85,4.22-.89,6.69h.3c1.19-1.44,2.63-2.52,4.33-3.25,1.7-.73,3.62-1.09,5.78-1.09,3.98,0,7.14,1.38,9.48,4.14,2.35,2.76,3.52,6.38,3.52,10.85ZM948.97,1219.08c0-2.31-.56-4.17-1.67-5.56s-2.68-2.09-4.7-2.09-3.66.77-4.85,2.31c-1.19,1.54-1.79,3.33-1.79,5.37,0,2.36.59,4.26,1.79,5.71,1.19,1.45,2.73,2.17,4.62,2.17,2.07,0,3.68-.74,4.85-2.21,1.17-1.47,1.75-3.37,1.75-5.71Z"/>
      <rect x="899.07" y="1163.45" width="86.25" height="6.9"/>
    </g>
  </g>
  <g>
    <rect class="c" x="1067.2" y="1072.6" width="250" height="200"/>
    <g>
      <path d="M1203.45,1148.45h-10.61v-36.86c-1.24.83-2.6,1.54-4.09,2.12-1.49.58-3.13,1.16-4.9,1.72l-2.9-8.49c3.08-.9,5.99-2.02,8.73-3.37s5.19-2.85,7.35-4.51h6.43v49.39Z"/>
      <path d="M1208.84,1218.41c0,4.79-1.54,8.8-4.63,12.04-3.09,3.25-7.1,4.87-12.04,4.87-5.26,0-9.34-1.85-12.25-5.54-2.91-3.69-4.36-9.33-4.36-16.9,0-4.76.56-9.03,1.67-12.82,1.11-3.79,2.73-6.88,4.87-9.28,1.66-1.86,3.58-3.23,5.76-4.11,2.18-.88,4.56-1.31,7.14-1.31,2.99,0,5.65.76,8,2.27,2.35,1.52,4.14,3.51,5.37,5.98l-7.41,4.38c-.61-1.33-1.43-2.39-2.46-3.18-1.03-.8-2.31-1.2-3.84-1.2-1.12,0-2.17.22-3.15.66-.98.44-1.87,1.11-2.68,2-1.12,1.21-1.96,2.81-2.51,4.8-.55,1.99-.85,4.22-.89,6.69h.3c1.19-1.44,2.63-2.52,4.33-3.25,1.7-.73,3.62-1.09,5.78-1.09,3.98,0,7.14,1.38,9.48,4.14,2.35,2.76,3.52,6.38,3.52,10.85ZM1198.97,1219.08c0-2.31-.56-4.17-1.67-5.56s-2.68-2.09-4.7-2.09-3.66.77-4.85,2.31c-1.19,1.54-1.79,3.33-1.79,5.37,0,2.36.59,4.26,1.79,5.71,1.19,1.45,2.73,2.17,4.62,2.17,2.07,0,3.68-.74,4.85-2.21,1.17-1.47,1.75-3.37,1.75-5.71Z"/>
      <rect x="1149.07" y="1163.45" width="86.25" height="6.9"/>
    </g>
  </g>
  <g>
    <rect class="c" x="1317.2" y="1072.6" width="250" height="200"/>
    <g>
      <path d="M1453.45,1148.45h-10.61v-36.86c-1.24.83-2.6,1.54-4.09,2.12-1.49.58-3.13,1.16-4.9,1.72l-2.9-8.49c3.08-.9,5.99-2.02,8.73-3.37s5.19-2.85,7.35-4.51h6.43v49.39Z"/>
      <path d="M1458.84,1218.41c0,4.79-1.54,8.8-4.63,12.04-3.09,3.25-7.1,4.87-12.04,4.87-5.26,0-9.34-1.85-12.25-5.54-2.91-3.69-4.36-9.33-4.36-16.9,0-4.76.56-9.03,1.67-12.82,1.11-3.79,2.73-6.88,4.87-9.28,1.66-1.86,3.58-3.23,5.76-4.11,2.18-.88,4.56-1.31,7.14-1.31,2.99,0,5.65.76,8,2.27,2.35,1.52,4.14,3.51,5.37,5.98l-7.41,4.38c-.61-1.33-1.43-2.39-2.46-3.18-1.03-.8-2.31-1.2-3.84-1.2-1.12,0-2.17.22-3.15.66-.98.44-1.87,1.11-2.68,2-1.12,1.21-1.96,2.81-2.51,4.8-.55,1.99-.85,4.22-.89,6.69h.3c1.19-1.44,2.63-2.52,4.33-3.25,1.7-.73,3.62-1.09,5.78-1.09,3.98,0,7.14,1.38,9.48,4.14,2.35,2.76,3.52,6.38,3.52,10.85ZM1448.97,1219.08c0-2.31-.56-4.17-1.67-5.56s-2.68-2.09-4.7-2.09-3.66.77-4.85,2.31c-1.19,1.54-1.79,3.33-1.79,5.37,0,2.36.59,4.26,1.79,5.71,1.19,1.45,2.73,2.17,4.62,2.17,2.07,0,3.68-.74,4.85-2.21,1.17-1.47,1.75-3.37,1.75-5.71Z"/>
      <rect x="1399.07" y="1163.45" width="86.25" height="6.9"/>
    </g>
  </g>
  <g>
    <g>
      <rect class="b" x="66.93" y="1272.6" width="214.29" height="200"/>
      <g>
        <path d="M185.33,1348.45h-10.61v-36.86c-1.24.83-2.6,1.54-4.09,2.12-1.49.58-3.13,1.16-4.9,1.72l-2.9-8.49c3.08-.9,5.99-2.02,8.73-3.37s5.19-2.85,7.35-4.51h6.44v49.39Z"/>
        <path d="M190.94,1392.3c-4.33,7.75-7.78,14.74-10.34,20.96s-4.43,13.3-5.59,21.23h-11.15c1.24-7.52,3.27-14.53,6.1-21.02s6.09-12.69,9.77-18.6h-22.51v-8.69h33.73v6.13Z"/>
        <rect x="130.95" y="1363.45" width="86.25" height="6.9"/>
      </g>
    </g>
    <g>
      <rect class="b" x="281.22" y="1272.6" width="214.29" height="200"/>
      <g>
        <path d="M399.61,1348.45h-10.61v-36.86c-1.24.83-2.6,1.54-4.09,2.12-1.49.58-3.13,1.16-4.9,1.72l-2.9-8.49c3.08-.9,5.99-2.02,8.73-3.37s5.19-2.85,7.35-4.51h6.44v49.39Z"/>
        <path d="M405.22,1392.3c-4.33,7.75-7.78,14.74-10.34,20.96s-4.42,13.3-5.59,21.23h-11.15c1.24-7.52,3.27-14.53,6.1-21.02s6.09-12.69,9.77-18.6h-22.51v-8.69h33.73v6.13Z"/>
        <rect x="345.23" y="1363.45" width="86.25" height="6.9"/>
      </g>
    </g>
    <g>
      <rect class="b" x="495.5" y="1272.6" width="214.29" height="200"/>
      <g>
        <path d="M613.9,1348.45h-10.61v-36.86c-1.24.83-2.6,1.54-4.09,2.12-1.49.58-3.13,1.16-4.9,1.72l-2.9-8.49c3.08-.9,5.99-2.02,8.73-3.37s5.19-2.85,7.35-4.51h6.44v49.39Z"/>
        <path d="M619.51,1392.3c-4.33,7.75-7.78,14.74-10.34,20.96s-4.43,13.3-5.59,21.23h-11.15c1.24-7.52,3.27-14.53,6.1-21.02s6.09-12.69,9.77-18.6h-22.51v-8.69h33.73v6.13Z"/>
        <rect x="559.52" y="1363.45" width="86.25" height="6.9"/>
      </g>
    </g>
    <g>
      <rect class="b" x="710.06" y="1272.6" width="214.29" height="200"/>
      <g>
        <path d="M828.45,1348.45h-10.61v-36.86c-1.24.83-2.6,1.54-4.09,2.12-1.49.58-3.13,1.16-4.9,1.72l-2.9-8.49c3.08-.9,5.99-2.02,8.73-3.37s5.19-2.85,7.35-4.51h6.43v49.39Z"/>
        <path d="M834.06,1392.3c-4.33,7.75-7.78,14.74-10.34,20.96s-4.43,13.3-5.59,21.23h-11.15c1.24-7.52,3.27-14.53,6.1-21.02s6.09-12.69,9.77-18.6h-22.51v-8.69h33.73v6.13Z"/>
        <rect x="774.07" y="1363.45" width="86.25" height="6.9"/>
      </g>
    </g>
    <g>
      <rect class="b" x="924.34" y="1272.6" width="214.29" height="200"/>
      <g>
        <path d="M1042.74,1348.45h-10.61v-36.86c-1.24.83-2.6,1.54-4.09,2.12s-3.13,1.16-4.9,1.72l-2.9-8.49c3.08-.9,5.99-2.02,8.73-3.37s5.19-2.85,7.34-4.51h6.44v49.39Z"/>
        <path d="M1048.35,1392.3c-4.33,7.75-7.78,14.74-10.34,20.96s-4.42,13.3-5.59,21.23h-11.15c1.24-7.52,3.27-14.53,6.1-21.02s6.09-12.69,9.77-18.6h-22.51v-8.69h33.73v6.13Z"/>
        <rect x="988.36" y="1363.45" width="86.25" height="6.9"/>
      </g>
    </g>
    <g>
      <rect class="b" x="1138.63" y="1272.6" width="214.29" height="200"/>
      <g>
        <path d="M1257.02,1348.45h-10.61v-36.86c-1.24.83-2.6,1.54-4.09,2.12-1.49.58-3.13,1.16-4.9,1.72l-2.9-8.49c3.08-.9,5.99-2.02,8.73-3.37s5.19-2.85,7.35-4.51h6.43v49.39Z"/>
        <path d="M1262.63,1392.3c-4.33,7.75-7.78,14.74-10.34,20.96s-4.43,13.3-5.59,21.23h-11.15c1.24-7.52,3.27-14.53,6.1-21.02s6.09-12.69,9.77-18.6h-22.51v-8.69h33.73v6.13Z"/>
        <rect x="1202.65" y="1363.45" width="86.25" height="6.9"/>
      </g>
    </g>
    <g>
      <rect class="b" x="1353.18" y="1272.6" width="214.29" height="200"/>
      <g>
        <path d="M1471.58,1348.45h-10.61v-36.86c-1.24.83-2.6,1.54-4.09,2.12-1.49.58-3.13,1.16-4.9,1.72l-2.9-8.49c3.08-.9,5.99-2.02,8.73-3.37s5.19-2.85,7.35-4.51h6.43v49.39Z"/>
        <path d="M1477.19,1392.3c-4.33,7.75-7.78,14.74-10.34,20.96s-4.42,13.3-5.59,21.23h-11.15c1.24-7.52,3.27-14.53,6.1-21.02s6.09-12.69,9.77-18.6h-22.51v-8.69h33.73v6.13Z"/>
        <rect x="1417.2" y="1363.45" width="86.25" height="6.9"/>
      </g>
    </g>
  </g>
  <g>
    <g>
      <rect class="n" x="67.07" y="1472.6" width="187.5" height="200"/>
      <g>
        <path d="M172.07,1548.45h-10.61v-36.86c-1.24.83-2.6,1.54-4.09,2.12-1.49.58-3.13,1.16-4.9,1.72l-2.9-8.49c3.08-.9,5.99-2.02,8.73-3.37s5.19-2.85,7.35-4.51h6.44v49.39Z"/>
        <path d="M143.85,1621.48c0-2.72.71-5.16,2.14-7.33,1.43-2.17,3.58-3.82,6.45-4.97-2.18-1.28-3.87-2.85-5.07-4.72-1.2-1.86-1.8-3.95-1.8-6.27,0-3.68,1.44-6.74,4.33-9.18,2.89-2.44,6.58-3.66,11.07-3.66s8.21,1.2,11.1,3.61c2.89,2.4,4.33,5.44,4.33,9.1,0,2.29-.65,4.36-1.94,6.2-1.29,1.84-3.07,3.4-5.34,4.68,2.88,1.15,5.04,2.82,6.49,5.02,1.45,2.2,2.17,4.67,2.17,7.41,0,4.13-1.56,7.48-4.67,10.04-3.11,2.56-7.19,3.84-12.25,3.84s-9.1-1.28-12.26-3.84-4.75-5.87-4.75-9.94ZM153.69,1620.57c0,2.2.66,3.93,1.99,5.19,1.32,1.26,3.07,1.89,5.22,1.89,2.04,0,3.75-.64,5.1-1.92,1.36-1.28,2.04-3,2.04-5.16,0-1.95-.66-3.63-1.99-5.04-1.33-1.4-3.04-2.11-5.15-2.11s-3.79.68-5.15,2.04c-1.37,1.36-2.06,3.06-2.06,5.1ZM155.14,1599.07c0,1.86.58,3.37,1.75,4.51,1.17,1.15,2.54,1.72,4.11,1.72s2.98-.56,4.14-1.68c1.17-1.12,1.75-2.64,1.75-4.55s-.58-3.37-1.74-4.45-2.54-1.62-4.16-1.62-3.08.55-4.19,1.65c-1.11,1.1-1.67,2.57-1.67,4.41Z"/>
        <rect x="117.69" y="1563.45" width="86.25" height="6.9"/>
      </g>
    </g>
    <g>
      <rect class="n" x="442.07" y="1472.6" width="187.5" height="200"/>
      <g>
        <path d="M547.07,1548.45h-10.61v-36.86c-1.24.83-2.6,1.54-4.09,2.12-1.49.58-3.13,1.16-4.9,1.72l-2.9-8.49c3.08-.9,5.99-2.02,8.73-3.37s5.19-2.85,7.35-4.51h6.44v49.39Z"/>
        <path d="M518.85,1621.48c0-2.72.71-5.16,2.14-7.33,1.43-2.17,3.58-3.82,6.45-4.97-2.18-1.28-3.87-2.85-5.07-4.72-1.2-1.86-1.8-3.95-1.8-6.27,0-3.68,1.44-6.74,4.33-9.18,2.89-2.44,6.58-3.66,11.07-3.66s8.21,1.2,11.1,3.61c2.89,2.4,4.33,5.44,4.33,9.1,0,2.29-.65,4.36-1.94,6.2-1.29,1.84-3.07,3.4-5.34,4.68,2.88,1.15,5.04,2.82,6.49,5.02,1.45,2.2,2.17,4.67,2.17,7.41,0,4.13-1.56,7.48-4.67,10.04-3.11,2.56-7.19,3.84-12.25,3.84s-9.1-1.28-12.26-3.84-4.75-5.87-4.75-9.94ZM528.69,1620.57c0,2.2.66,3.93,1.99,5.19,1.32,1.26,3.07,1.89,5.22,1.89,2.04,0,3.75-.64,5.1-1.92,1.36-1.28,2.04-3,2.04-5.16,0-1.95-.66-3.63-1.99-5.04-1.33-1.4-3.04-2.11-5.15-2.11s-3.79.68-5.15,2.04c-1.37,1.36-2.06,3.06-2.06,5.1ZM530.14,1599.07c0,1.86.58,3.37,1.75,4.51,1.17,1.15,2.54,1.72,4.11,1.72s2.98-.56,4.14-1.68c1.17-1.12,1.75-2.64,1.75-4.55s-.58-3.37-1.74-4.45-2.54-1.62-4.16-1.62-3.08.55-4.19,1.65c-1.11,1.1-1.67,2.57-1.67,4.41Z"/>
        <rect x="492.69" y="1563.45" width="86.25" height="6.9"/>
      </g>
    </g>
    <g>
      <rect class="n" x="629.57" y="1472.6" width="187.5" height="200"/>
      <g>
        <path d="M734.57,1548.45h-10.61v-36.86c-1.24.83-2.6,1.54-4.09,2.12-1.49.58-3.13,1.16-4.9,1.72l-2.9-8.49c3.08-.9,5.99-2.02,8.73-3.37s5.19-2.85,7.35-4.51h6.44v49.39Z"/>
        <path d="M706.35,1621.48c0-2.72.71-5.16,2.14-7.33,1.43-2.17,3.58-3.82,6.45-4.97-2.18-1.28-3.87-2.85-5.07-4.72-1.2-1.86-1.8-3.95-1.8-6.27,0-3.68,1.44-6.74,4.33-9.18,2.89-2.44,6.58-3.66,11.07-3.66s8.21,1.2,11.1,3.61c2.89,2.4,4.33,5.44,4.33,9.1,0,2.29-.65,4.36-1.94,6.2-1.29,1.84-3.07,3.4-5.34,4.68,2.88,1.15,5.04,2.82,6.49,5.02,1.45,2.2,2.17,4.67,2.17,7.41,0,4.13-1.56,7.48-4.67,10.04-3.11,2.56-7.19,3.84-12.25,3.84s-9.1-1.28-12.26-3.84-4.75-5.87-4.75-9.94ZM716.19,1620.57c0,2.2.66,3.93,1.99,5.19,1.32,1.26,3.07,1.89,5.22,1.89,2.04,0,3.75-.64,5.1-1.92,1.36-1.28,2.04-3,2.04-5.16,0-1.95-.66-3.63-1.99-5.04-1.33-1.4-3.04-2.11-5.15-2.11s-3.79.68-5.15,2.04c-1.37,1.36-2.06,3.06-2.06,5.1ZM717.64,1599.07c0,1.86.58,3.37,1.75,4.51,1.17,1.15,2.54,1.72,4.11,1.72s2.98-.56,4.14-1.68c1.17-1.12,1.75-2.64,1.75-4.55s-.58-3.37-1.74-4.45-2.54-1.62-4.16-1.62-3.08.55-4.19,1.65c-1.11,1.1-1.67,2.57-1.67,4.41Z"/>
        <rect x="680.19" y="1563.45" width="86.25" height="6.9"/>
      </g>
    </g>
    <g>
      <rect class="n" x="817.33" y="1472.6" width="187.5" height="200"/>
      <g>
        <path d="M922.34,1548.45h-10.61v-36.86c-1.24.83-2.6,1.54-4.09,2.12s-3.13,1.16-4.9,1.72l-2.9-8.49c3.08-.9,5.99-2.02,8.73-3.37s5.19-2.85,7.34-4.51h6.44v49.39Z"/>
        <path d="M894.12,1621.48c0-2.72.71-5.16,2.14-7.33,1.43-2.17,3.58-3.82,6.45-4.97-2.18-1.28-3.87-2.85-5.07-4.72-1.2-1.86-1.8-3.95-1.8-6.27,0-3.68,1.44-6.74,4.33-9.18,2.89-2.44,6.58-3.66,11.07-3.66s8.21,1.2,11.1,3.61c2.89,2.4,4.33,5.44,4.33,9.1,0,2.29-.65,4.36-1.94,6.2-1.29,1.84-3.07,3.4-5.34,4.68,2.88,1.15,5.04,2.82,6.49,5.02,1.45,2.2,2.17,4.67,2.17,7.41,0,4.13-1.56,7.48-4.67,10.04-3.11,2.56-7.19,3.84-12.25,3.84s-9.1-1.28-12.26-3.84-4.75-5.87-4.75-9.94ZM903.96,1620.57c0,2.2.66,3.93,1.99,5.19,1.32,1.26,3.07,1.89,5.22,1.89,2.04,0,3.75-.64,5.1-1.92,1.36-1.28,2.04-3,2.04-5.16,0-1.95-.66-3.63-1.99-5.04-1.33-1.4-3.04-2.11-5.16-2.11s-3.79.68-5.15,2.04c-1.37,1.36-2.06,3.06-2.06,5.1ZM905.41,1599.07c0,1.86.58,3.37,1.75,4.51,1.17,1.15,2.54,1.72,4.11,1.72s2.98-.56,4.14-1.68,1.75-2.64,1.75-4.55-.58-3.37-1.74-4.45c-1.16-1.08-2.54-1.62-4.16-1.62s-3.08.55-4.2,1.65c-1.11,1.1-1.67,2.57-1.67,4.41Z"/>
        <rect x="867.96" y="1563.45" width="86.25" height="6.9"/>
      </g>
    </g>
    <g>
      <rect class="n" x="1004.83" y="1472.6" width="187.5" height="200"/>
      <g>
        <path d="M1109.84,1548.45h-10.61v-36.86c-1.24.83-2.6,1.54-4.09,2.12s-3.13,1.16-4.9,1.72l-2.9-8.49c3.08-.9,5.99-2.02,8.73-3.37s5.19-2.85,7.34-4.51h6.44v49.39Z"/>
        <path d="M1081.62,1621.48c0-2.72.71-5.16,2.14-7.33,1.43-2.17,3.58-3.82,6.45-4.97-2.18-1.28-3.87-2.85-5.07-4.72-1.2-1.86-1.8-3.95-1.8-6.27,0-3.68,1.44-6.74,4.33-9.18,2.89-2.44,6.58-3.66,11.07-3.66s8.21,1.2,11.1,3.61c2.89,2.4,4.33,5.44,4.33,9.1,0,2.29-.65,4.36-1.94,6.2-1.29,1.84-3.07,3.4-5.34,4.68,2.88,1.15,5.04,2.82,6.49,5.02,1.45,2.2,2.17,4.67,2.17,7.41,0,4.13-1.56,7.48-4.67,10.04-3.11,2.56-7.19,3.84-12.25,3.84s-9.1-1.28-12.26-3.84-4.75-5.87-4.75-9.94ZM1091.46,1620.57c0,2.2.66,3.93,1.99,5.19,1.32,1.26,3.07,1.89,5.22,1.89,2.04,0,3.75-.64,5.1-1.92,1.36-1.28,2.04-3,2.04-5.16,0-1.95-.66-3.63-1.99-5.04-1.33-1.4-3.04-2.11-5.16-2.11s-3.79.68-5.15,2.04c-1.37,1.36-2.06,3.06-2.06,5.1ZM1092.91,1599.07c0,1.86.58,3.37,1.75,4.51,1.17,1.15,2.54,1.72,4.11,1.72s2.98-.56,4.14-1.68,1.75-2.64,1.75-4.55-.58-3.37-1.74-4.45c-1.16-1.08-2.54-1.62-4.16-1.62s-3.08.55-4.2,1.65c-1.11,1.1-1.67,2.57-1.67,4.41Z"/>
        <rect x="1055.46" y="1563.45" width="86.25" height="6.9"/>
      </g>
    </g>
    <g>
      <rect class="n" x="1192.33" y="1472.6" width="187.5" height="200"/>
      <g>
        <path d="M1297.34,1548.45h-10.61v-36.86c-1.24.83-2.6,1.54-4.09,2.12s-3.13,1.16-4.9,1.72l-2.9-8.49c3.08-.9,5.99-2.02,8.73-3.37s5.19-2.85,7.34-4.51h6.44v49.39Z"/>
        <path d="M1269.12,1621.48c0-2.72.71-5.16,2.14-7.33,1.43-2.17,3.58-3.82,6.45-4.97-2.18-1.28-3.87-2.85-5.07-4.72-1.2-1.86-1.8-3.95-1.8-6.27,0-3.68,1.44-6.74,4.33-9.18,2.89-2.44,6.58-3.66,11.07-3.66s8.21,1.2,11.1,3.61c2.89,2.4,4.33,5.44,4.33,9.1,0,2.29-.65,4.36-1.94,6.2-1.29,1.84-3.07,3.4-5.34,4.68,2.88,1.15,5.04,2.82,6.49,5.02,1.45,2.2,2.17,4.67,2.17,7.41,0,4.13-1.56,7.48-4.67,10.04-3.11,2.56-7.19,3.84-12.25,3.84s-9.1-1.28-12.26-3.84-4.75-5.87-4.75-9.94ZM1278.96,1620.57c0,2.2.66,3.93,1.99,5.19,1.32,1.26,3.07,1.89,5.22,1.89,2.04,0,3.75-.64,5.1-1.92,1.36-1.28,2.04-3,2.04-5.16,0-1.95-.66-3.63-1.99-5.04-1.33-1.4-3.04-2.11-5.16-2.11s-3.79.68-5.15,2.04c-1.37,1.36-2.06,3.06-2.06,5.1ZM1280.41,1599.07c0,1.86.58,3.37,1.75,4.51,1.17,1.15,2.54,1.72,4.11,1.72s2.98-.56,4.14-1.68,1.75-2.64,1.75-4.55-.58-3.37-1.74-4.45c-1.16-1.08-2.54-1.62-4.16-1.62s-3.08.55-4.2,1.65c-1.11,1.1-1.67,2.57-1.67,4.41Z"/>
        <rect x="1242.96" y="1563.45" width="86.25" height="6.9"/>
      </g>
    </g>
    <g>
      <rect class="n" x="1379.83" y="1472.6" width="187.5" height="200"/>
      <g>
        <path d="M1484.84,1548.45h-10.61v-36.86c-1.24.83-2.6,1.54-4.09,2.12s-3.13,1.16-4.9,1.72l-2.9-8.49c3.08-.9,5.99-2.02,8.73-3.37s5.19-2.85,7.34-4.51h6.44v49.39Z"/>
        <path d="M1456.62,1621.48c0-2.72.71-5.16,2.14-7.33,1.43-2.17,3.58-3.82,6.45-4.97-2.18-1.28-3.87-2.85-5.07-4.72-1.2-1.86-1.8-3.95-1.8-6.27,0-3.68,1.44-6.74,4.33-9.18,2.89-2.44,6.58-3.66,11.07-3.66s8.21,1.2,11.1,3.61c2.89,2.4,4.33,5.44,4.33,9.1,0,2.29-.65,4.36-1.94,6.2-1.29,1.84-3.07,3.4-5.34,4.68,2.88,1.15,5.04,2.82,6.49,5.02,1.45,2.2,2.17,4.67,2.17,7.41,0,4.13-1.56,7.48-4.67,10.04-3.11,2.56-7.19,3.84-12.25,3.84s-9.1-1.28-12.26-3.84-4.75-5.87-4.75-9.94ZM1466.46,1620.57c0,2.2.66,3.93,1.99,5.19,1.32,1.26,3.07,1.89,5.22,1.89,2.04,0,3.75-.64,5.1-1.92,1.36-1.28,2.04-3,2.04-5.16,0-1.95-.66-3.63-1.99-5.04-1.33-1.4-3.04-2.11-5.16-2.11s-3.79.68-5.15,2.04c-1.37,1.36-2.06,3.06-2.06,5.1ZM1467.91,1599.07c0,1.86.58,3.37,1.75,4.51,1.17,1.15,2.54,1.72,4.11,1.72s2.98-.56,4.14-1.68,1.75-2.64,1.75-4.55-.58-3.37-1.74-4.45c-1.16-1.08-2.54-1.62-4.16-1.62s-3.08.55-4.2,1.65c-1.11,1.1-1.67,2.57-1.67,4.41Z"/>
        <rect x="1430.46" y="1563.45" width="86.25" height="6.9"/>
      </g>
    </g>
    <g>
      <rect class="n" x="254.57" y="1472.6" width="187.5" height="200"/>
      <g>
        <path d="M359.57,1548.45h-10.61v-36.86c-1.24.83-2.6,1.54-4.09,2.12-1.49.58-3.13,1.16-4.9,1.72l-2.9-8.49c3.08-.9,5.99-2.02,8.73-3.37s5.19-2.85,7.35-4.51h6.44v49.39Z"/>
        <path d="M331.35,1621.48c0-2.72.71-5.16,2.14-7.33,1.43-2.17,3.58-3.82,6.45-4.97-2.18-1.28-3.87-2.85-5.07-4.72-1.2-1.86-1.8-3.95-1.8-6.27,0-3.68,1.44-6.74,4.33-9.18,2.89-2.44,6.58-3.66,11.07-3.66s8.21,1.2,11.1,3.61c2.89,2.4,4.33,5.44,4.33,9.1,0,2.29-.65,4.36-1.94,6.2-1.29,1.84-3.07,3.4-5.34,4.68,2.88,1.15,5.04,2.82,6.49,5.02,1.45,2.2,2.17,4.67,2.17,7.41,0,4.13-1.56,7.48-4.67,10.04-3.11,2.56-7.19,3.84-12.25,3.84s-9.1-1.28-12.26-3.84-4.75-5.87-4.75-9.94ZM341.19,1620.57c0,2.2.66,3.93,1.99,5.19,1.32,1.26,3.07,1.89,5.22,1.89,2.04,0,3.75-.64,5.1-1.92,1.36-1.28,2.04-3,2.04-5.16,0-1.95-.66-3.63-1.99-5.04-1.33-1.4-3.04-2.11-5.15-2.11s-3.79.68-5.15,2.04c-1.37,1.36-2.06,3.06-2.06,5.1ZM342.64,1599.07c0,1.86.58,3.37,1.75,4.51,1.17,1.15,2.54,1.72,4.11,1.72s2.98-.56,4.14-1.68c1.17-1.12,1.75-2.64,1.75-4.55s-.58-3.37-1.74-4.45-2.54-1.62-4.16-1.62-3.08.55-4.19,1.65c-1.11,1.1-1.67,2.57-1.67,4.41Z"/>
        <rect x="305.19" y="1563.45" width="86.25" height="6.9"/>
      </g>
    </g>
  </g>
  <g>
    <g>
      <rect class="h" x="67.33" y="1672.6" width="166.67" height="200"/>
      <g>
        <path d="M161.92,1748.45h-10.61v-36.86c-1.24.83-2.6,1.54-4.09,2.12-1.49.58-3.13,1.16-4.9,1.72l-2.9-8.49c3.08-.9,5.99-2.02,8.73-3.37s5.19-2.85,7.35-4.51h6.44v49.39Z"/>
        <path d="M167.31,1808c0,8.71-1.7,15.45-5.09,20.2-3.39,4.75-8.09,7.13-14.08,7.13-3.53,0-6.45-.74-8.76-2.21s-4.1-3.41-5.36-5.81l7.01-4.82c.74,1.5,1.69,2.66,2.85,3.47,1.16.81,2.59,1.21,4.3,1.21,2.43,0,4.61-1.12,6.55-3.37s2.91-5.84,2.91-10.78l-.17-.07c-1.01,1.33-2.32,2.38-3.94,3.17-1.62.79-3.54,1.18-5.76,1.18-4.07,0-7.31-1.35-9.72-4.04-2.42-2.7-3.62-6.31-3.62-10.85,0-5.1,1.52-9.21,4.57-12.35,3.04-3.13,7.01-4.7,11.91-4.7,5.19,0,9.22,1.92,12.1,5.75,2.88,3.83,4.31,9.46,4.31,16.9ZM157.24,1802.34c0-2.43-.62-4.49-1.85-6.18-1.24-1.7-2.82-2.54-4.75-2.54s-3.47.76-4.67,2.27c-1.2,1.52-1.8,3.39-1.8,5.61,0,2.58.57,4.52,1.7,5.81,1.13,1.29,2.79,1.94,4.97,1.94,1.93,0,3.48-.67,4.65-2.02,1.17-1.35,1.75-2.98,1.75-4.88Z"/>
        <rect x="107.54" y="1763.45" width="86.25" height="6.9"/>
      </g>
    </g>
    <g>
      <rect class="h" x="234" y="1672.6" width="166.67" height="200"/>
      <g>
        <path d="M328.59,1748.45h-10.61v-36.86c-1.24.83-2.6,1.54-4.09,2.12-1.49.58-3.13,1.16-4.9,1.72l-2.9-8.49c3.08-.9,5.99-2.02,8.73-3.37s5.19-2.85,7.35-4.51h6.44v49.39Z"/>
        <path d="M333.98,1808c0,8.71-1.7,15.45-5.09,20.2-3.39,4.75-8.09,7.13-14.08,7.13-3.53,0-6.45-.74-8.76-2.21s-4.1-3.41-5.36-5.81l7.01-4.82c.74,1.5,1.69,2.66,2.85,3.47,1.16.81,2.59,1.21,4.3,1.21,2.43,0,4.61-1.12,6.55-3.37s2.91-5.84,2.91-10.78l-.17-.07c-1.01,1.33-2.32,2.38-3.94,3.17-1.62.79-3.54,1.18-5.76,1.18-4.07,0-7.31-1.35-9.72-4.04-2.42-2.7-3.62-6.31-3.62-10.85,0-5.1,1.52-9.21,4.57-12.35,3.04-3.13,7.01-4.7,11.91-4.7,5.19,0,9.22,1.92,12.1,5.75,2.88,3.83,4.31,9.46,4.31,16.9ZM323.9,1802.34c0-2.43-.62-4.49-1.85-6.18-1.24-1.7-2.82-2.54-4.75-2.54s-3.47.76-4.67,2.27c-1.2,1.52-1.8,3.39-1.8,5.61,0,2.58.57,4.52,1.7,5.81,1.13,1.29,2.79,1.94,4.97,1.94,1.93,0,3.48-.67,4.65-2.02,1.17-1.35,1.75-2.98,1.75-4.88Z"/>
        <rect x="274.21" y="1763.45" width="86.25" height="6.9"/>
      </g>
    </g>
    <g>
      <rect class="h" x="400.67" y="1672.6" width="166.67" height="200"/>
      <g>
        <path d="M495.25,1748.45h-10.61v-36.86c-1.24.83-2.6,1.54-4.09,2.12s-3.13,1.16-4.9,1.72l-2.9-8.49c3.08-.9,5.99-2.02,8.73-3.37s5.19-2.85,7.34-4.51h6.44v49.39Z"/>
        <path d="M500.65,1808c0,8.71-1.7,15.45-5.09,20.2-3.39,4.75-8.09,7.13-14.08,7.13-3.53,0-6.45-.74-8.76-2.21s-4.1-3.41-5.36-5.81l7.01-4.82c.74,1.5,1.69,2.66,2.85,3.47,1.16.81,2.59,1.21,4.3,1.21,2.43,0,4.61-1.12,6.55-3.37,1.94-2.25,2.91-5.84,2.91-10.78l-.17-.07c-1.01,1.33-2.33,2.38-3.94,3.17-1.62.79-3.54,1.18-5.76,1.18-4.07,0-7.31-1.35-9.72-4.04-2.42-2.7-3.62-6.31-3.62-10.85,0-5.1,1.52-9.21,4.57-12.35,3.04-3.13,7.01-4.7,11.91-4.7,5.19,0,9.22,1.92,12.1,5.75,2.88,3.83,4.31,9.46,4.31,16.9ZM490.57,1802.34c0-2.43-.62-4.49-1.85-6.18-1.24-1.7-2.82-2.54-4.75-2.54s-3.46.76-4.67,2.27c-1.2,1.52-1.8,3.39-1.8,5.61,0,2.58.57,4.52,1.7,5.81,1.13,1.29,2.79,1.94,4.97,1.94,1.93,0,3.48-.67,4.65-2.02s1.75-2.98,1.75-4.88Z"/>
        <rect x="440.88" y="1763.45" width="86.25" height="6.9"/>
      </g>
    </g>
    <g>
      <rect class="h" x="567.33" y="1672.6" width="166.67" height="200"/>
      <g>
        <path d="M661.92,1748.45h-10.61v-36.86c-1.24.83-2.6,1.54-4.09,2.12-1.49.58-3.13,1.16-4.9,1.72l-2.9-8.49c3.08-.9,5.99-2.02,8.73-3.37s5.19-2.85,7.35-4.51h6.44v49.39Z"/>
        <path d="M667.31,1808c0,8.71-1.7,15.45-5.09,20.2-3.39,4.75-8.09,7.13-14.08,7.13-3.53,0-6.45-.74-8.76-2.21s-4.1-3.41-5.36-5.81l7.01-4.82c.74,1.5,1.69,2.66,2.85,3.47,1.16.81,2.59,1.21,4.3,1.21,2.43,0,4.61-1.12,6.55-3.37s2.91-5.84,2.91-10.78l-.17-.07c-1.01,1.33-2.32,2.38-3.94,3.17-1.62.79-3.54,1.18-5.76,1.18-4.07,0-7.31-1.35-9.72-4.04-2.42-2.7-3.62-6.31-3.62-10.85,0-5.1,1.52-9.21,4.57-12.35,3.04-3.13,7.01-4.7,11.91-4.7,5.19,0,9.22,1.92,12.1,5.75,2.88,3.83,4.31,9.46,4.31,16.9ZM657.24,1802.34c0-2.43-.62-4.49-1.85-6.18-1.24-1.7-2.82-2.54-4.75-2.54s-3.47.76-4.67,2.27c-1.2,1.52-1.8,3.39-1.8,5.61,0,2.58.57,4.52,1.7,5.81,1.13,1.29,2.79,1.94,4.97,1.94,1.93,0,3.48-.67,4.65-2.02,1.17-1.35,1.75-2.98,1.75-4.88Z"/>
        <rect x="607.54" y="1763.45" width="86.25" height="6.9"/>
      </g>
    </g>
    <g>
      <rect class="h" x="734" y="1672.6" width="166.67" height="200"/>
      <g>
        <path d="M828.59,1748.45h-10.61v-36.86c-1.24.83-2.6,1.54-4.09,2.12-1.49.58-3.13,1.16-4.9,1.72l-2.9-8.49c3.08-.9,5.99-2.02,8.73-3.37s5.19-2.85,7.35-4.51h6.43v49.39Z"/>
        <path d="M833.98,1808c0,8.71-1.7,15.45-5.09,20.2-3.39,4.75-8.09,7.13-14.08,7.13-3.53,0-6.45-.74-8.76-2.21s-4.1-3.41-5.36-5.81l7.01-4.82c.74,1.5,1.69,2.66,2.85,3.47,1.16.81,2.59,1.21,4.3,1.21,2.43,0,4.61-1.12,6.55-3.37,1.94-2.25,2.92-5.84,2.92-10.78l-.17-.07c-1.01,1.33-2.32,2.38-3.94,3.17-1.62.79-3.54,1.18-5.76,1.18-4.07,0-7.31-1.35-9.72-4.04-2.42-2.7-3.62-6.31-3.62-10.85,0-5.1,1.52-9.21,4.57-12.35,3.04-3.13,7.01-4.7,11.91-4.7,5.19,0,9.22,1.92,12.1,5.75,2.88,3.83,4.31,9.46,4.31,16.9ZM823.9,1802.34c0-2.43-.62-4.49-1.85-6.18s-2.82-2.54-4.75-2.54-3.47.76-4.67,2.27c-1.2,1.52-1.8,3.39-1.8,5.61,0,2.58.57,4.52,1.7,5.81,1.13,1.29,2.79,1.94,4.97,1.94,1.93,0,3.48-.67,4.65-2.02,1.17-1.35,1.75-2.98,1.75-4.88Z"/>
        <rect x="774.21" y="1763.45" width="86.25" height="6.9"/>
      </g>
    </g>
    <g>
      <rect class="h" x="900.67" y="1672.6" width="166.67" height="200"/>
      <g>
        <path d="M995.25,1748.45h-10.61v-36.86c-1.24.83-2.6,1.54-4.09,2.12s-3.13,1.16-4.9,1.72l-2.9-8.49c3.08-.9,5.99-2.02,8.73-3.37s5.19-2.85,7.34-4.51h6.44v49.39Z"/>
        <path d="M1000.65,1808c0,8.71-1.7,15.45-5.09,20.2-3.39,4.75-8.09,7.13-14.08,7.13-3.53,0-6.45-.74-8.76-2.21s-4.1-3.41-5.36-5.81l7.01-4.82c.74,1.5,1.69,2.66,2.85,3.47,1.16.81,2.59,1.21,4.3,1.21,2.43,0,4.61-1.12,6.55-3.37,1.94-2.25,2.91-5.84,2.91-10.78l-.17-.07c-1.01,1.33-2.33,2.38-3.94,3.17-1.62.79-3.54,1.18-5.76,1.18-4.07,0-7.31-1.35-9.72-4.04-2.42-2.7-3.62-6.31-3.62-10.85,0-5.1,1.52-9.21,4.57-12.35,3.04-3.13,7.01-4.7,11.91-4.7,5.19,0,9.22,1.92,12.1,5.75,2.88,3.83,4.31,9.46,4.31,16.9ZM990.57,1802.34c0-2.43-.62-4.49-1.85-6.18-1.24-1.7-2.82-2.54-4.75-2.54s-3.46.76-4.67,2.27c-1.2,1.52-1.8,3.39-1.8,5.61,0,2.58.57,4.52,1.7,5.81,1.13,1.29,2.79,1.94,4.97,1.94,1.93,0,3.48-.67,4.65-2.02s1.75-2.98,1.75-4.88Z"/>
        <rect x="940.88" y="1763.45" width="86.25" height="6.9"/>
      </g>
    </g>
    <g>
      <rect class="h" x="1067.33" y="1672.6" width="166.67" height="200"/>
      <g>
        <path d="M1161.92,1748.45h-10.61v-36.86c-1.24.83-2.6,1.54-4.09,2.12-1.49.58-3.13,1.16-4.9,1.72l-2.9-8.49c3.08-.9,5.99-2.02,8.73-3.37s5.19-2.85,7.35-4.51h6.43v49.39Z"/>
        <path d="M1167.31,1808c0,8.71-1.7,15.45-5.09,20.2-3.39,4.75-8.09,7.13-14.08,7.13-3.53,0-6.45-.74-8.76-2.21s-4.1-3.41-5.36-5.81l7.01-4.82c.74,1.5,1.69,2.66,2.85,3.47s2.59,1.21,4.3,1.21c2.43,0,4.61-1.12,6.55-3.37,1.94-2.25,2.92-5.84,2.92-10.78l-.17-.07c-1.01,1.33-2.32,2.38-3.94,3.17-1.62.79-3.54,1.18-5.76,1.18-4.07,0-7.31-1.35-9.72-4.04-2.42-2.7-3.62-6.31-3.62-10.85,0-5.1,1.52-9.21,4.57-12.35,3.04-3.13,7.01-4.7,11.91-4.7,5.19,0,9.22,1.92,12.09,5.75,2.88,3.83,4.31,9.46,4.31,16.9ZM1157.24,1802.34c0-2.43-.62-4.49-1.85-6.18s-2.82-2.54-4.75-2.54-3.47.76-4.67,2.27c-1.2,1.52-1.8,3.39-1.8,5.61,0,2.58.57,4.52,1.7,5.81,1.13,1.29,2.79,1.94,4.97,1.94,1.93,0,3.48-.67,4.65-2.02,1.17-1.35,1.75-2.98,1.75-4.88Z"/>
        <rect x="1107.54" y="1763.45" width="86.25" height="6.9"/>
      </g>
    </g>
    <g>
      <rect class="h" x="1234" y="1672.6" width="166.67" height="200"/>
      <g>
        <path d="M1328.59,1748.45h-10.61v-36.86c-1.24.83-2.6,1.54-4.09,2.12-1.49.58-3.13,1.16-4.9,1.72l-2.9-8.49c3.08-.9,5.99-2.02,8.73-3.37s5.19-2.85,7.35-4.51h6.43v49.39Z"/>
        <path d="M1333.98,1808c0,8.71-1.7,15.45-5.09,20.2-3.39,4.75-8.09,7.13-14.08,7.13-3.53,0-6.45-.74-8.76-2.21s-4.1-3.41-5.36-5.81l7.01-4.82c.74,1.5,1.69,2.66,2.85,3.47s2.59,1.21,4.3,1.21c2.43,0,4.61-1.12,6.55-3.37,1.94-2.25,2.92-5.84,2.92-10.78l-.17-.07c-1.01,1.33-2.32,2.38-3.94,3.17-1.62.79-3.54,1.18-5.76,1.18-4.07,0-7.31-1.35-9.72-4.04-2.42-2.7-3.62-6.31-3.62-10.85,0-5.1,1.52-9.21,4.57-12.35,3.04-3.13,7.01-4.7,11.91-4.7,5.19,0,9.22,1.92,12.09,5.75,2.88,3.83,4.31,9.46,4.31,16.9ZM1323.9,1802.34c0-2.43-.62-4.49-1.85-6.18s-2.82-2.54-4.75-2.54-3.47.76-4.67,2.27c-1.2,1.52-1.8,3.39-1.8,5.61,0,2.58.57,4.52,1.7,5.81,1.13,1.29,2.79,1.94,4.97,1.94,1.93,0,3.48-.67,4.65-2.02,1.17-1.35,1.75-2.98,1.75-4.88Z"/>
        <rect x="1274.21" y="1763.45" width="86.25" height="6.9"/>
      </g>
    </g>
    <g>
      <rect class="h" x="1400.67" y="1672.6" width="166.67" height="200"/>
      <g>
        <path d="M1495.25,1748.45h-10.61v-36.86c-1.24.83-2.6,1.54-4.09,2.12s-3.13,1.16-4.9,1.72l-2.9-8.49c3.08-.9,5.99-2.02,8.73-3.37s5.19-2.85,7.34-4.51h6.44v49.39Z"/>
        <path d="M1500.65,1808c0,8.71-1.7,15.45-5.09,20.2-3.39,4.75-8.09,7.13-14.08,7.13-3.53,0-6.45-.74-8.76-2.21s-4.1-3.41-5.36-5.81l7.01-4.82c.74,1.5,1.69,2.66,2.85,3.47,1.16.81,2.59,1.21,4.3,1.21,2.43,0,4.61-1.12,6.55-3.37,1.94-2.25,2.91-5.84,2.91-10.78l-.17-.07c-1.01,1.33-2.33,2.38-3.94,3.17-1.62.79-3.54,1.18-5.76,1.18-4.07,0-7.31-1.35-9.72-4.04-2.42-2.7-3.62-6.31-3.62-10.85,0-5.1,1.52-9.21,4.57-12.35,3.04-3.13,7.01-4.7,11.91-4.7,5.19,0,9.22,1.92,12.1,5.75,2.88,3.83,4.31,9.46,4.31,16.9ZM1490.57,1802.34c0-2.43-.62-4.49-1.85-6.18-1.24-1.7-2.82-2.54-4.75-2.54s-3.46.76-4.67,2.27c-1.2,1.52-1.8,3.39-1.8,5.61,0,2.58.57,4.52,1.7,5.81,1.13,1.29,2.79,1.94,4.97,1.94,1.93,0,3.48-.67,4.65-2.02s1.75-2.98,1.75-4.88Z"/>
        <rect x="1440.88" y="1763.45" width="86.25" height="6.9"/>
      </g>
    </g>
  </g>
  <g>
    <g>
      <rect class="g" x="67.2" y="1872.6" width="150" height="200"/>
      <g>
        <path d="M153.45,1948.45h-10.61v-36.86c-1.24.83-2.6,1.54-4.09,2.12-1.49.58-3.13,1.16-4.9,1.72l-2.9-8.49c3.08-.9,5.99-2.02,8.73-3.37s5.19-2.85,7.35-4.51h6.43v49.39Z"/>
        <g>
          <path d="M131.74,2034.48h-10.61v-36.86c-1.24.83-2.6,1.54-4.09,2.12-1.49.58-3.13,1.16-4.9,1.72l-2.9-8.49c3.08-.9,5.99-2.02,8.73-3.37s5.19-2.85,7.35-4.51h6.44v49.39Z"/>
          <path d="M158.32,2035.32c-5.84,0-10.11-2.02-12.8-6.06s-4.04-10.1-4.04-18.16,1.47-14.76,4.4-19.15c2.93-4.39,7.08-6.59,12.45-6.59,6.15,0,10.5,2.05,13.04,6.15,2.54,4.1,3.81,10.26,3.81,18.48s-1.4,14.44-4.2,18.8-7.01,6.54-12.65,6.54ZM158.29,1993.48c-2.16,0-3.7,1.44-4.62,4.33-.92,2.89-1.38,7.23-1.38,13.02,0,5.44.48,9.52,1.43,12.25.95,2.73,2.49,4.09,4.6,4.09,2.34,0,3.92-1.4,4.75-4.21.83-2.81,1.25-7.02,1.25-12.63s-.43-9.83-1.3-12.63c-.87-2.81-2.44-4.21-4.73-4.21Z"/>
        </g>
        <rect x="99.07" y="1963.45" width="86.25" height="6.9"/>
      </g>
    </g>
    <g>
      <rect class="g" x="217.2" y="1872.6" width="150" height="200"/>
      <g>
        <path d="M303.45,1948.45h-10.61v-36.86c-1.24.83-2.6,1.54-4.09,2.12-1.49.58-3.13,1.16-4.9,1.72l-2.9-8.49c3.08-.9,5.99-2.02,8.73-3.37s5.19-2.85,7.35-4.51h6.43v49.39Z"/>
        <g>
          <path d="M281.74,2034.48h-10.61v-36.86c-1.24.83-2.6,1.54-4.09,2.12-1.49.58-3.13,1.16-4.9,1.72l-2.9-8.49c3.08-.9,5.99-2.02,8.73-3.37s5.19-2.85,7.35-4.51h6.44v49.39Z"/>
          <path d="M308.32,2035.32c-5.84,0-10.11-2.02-12.8-6.06s-4.04-10.1-4.04-18.16,1.47-14.76,4.4-19.15c2.93-4.39,7.08-6.59,12.45-6.59,6.15,0,10.5,2.05,13.04,6.15,2.54,4.1,3.81,10.26,3.81,18.48s-1.4,14.44-4.2,18.8-7.01,6.54-12.65,6.54ZM308.29,1993.48c-2.16,0-3.7,1.44-4.62,4.33-.92,2.89-1.38,7.23-1.38,13.02,0,5.44.48,9.52,1.43,12.25.95,2.73,2.49,4.09,4.6,4.09,2.34,0,3.92-1.4,4.75-4.21.83-2.81,1.25-7.02,1.25-12.63s-.43-9.83-1.3-12.63c-.87-2.81-2.44-4.21-4.73-4.21Z"/>
        </g>
        <rect x="249.07" y="1963.45" width="86.25" height="6.9"/>
      </g>
    </g>
    <g>
      <rect class="g" x="367.2" y="1872.6" width="150" height="200"/>
      <g>
        <path d="M453.45,1948.45h-10.61v-36.86c-1.24.83-2.6,1.54-4.09,2.12-1.49.58-3.13,1.16-4.9,1.72l-2.9-8.49c3.08-.9,5.99-2.02,8.73-3.37s5.19-2.85,7.35-4.51h6.43v49.39Z"/>
        <g>
          <path d="M431.74,2034.48h-10.61v-36.86c-1.24.83-2.6,1.54-4.09,2.12-1.49.58-3.13,1.16-4.9,1.72l-2.9-8.49c3.08-.9,5.99-2.02,8.73-3.37s5.19-2.85,7.35-4.51h6.44v49.39Z"/>
          <path d="M458.32,2035.32c-5.84,0-10.11-2.02-12.8-6.06s-4.04-10.1-4.04-18.16,1.47-14.76,4.4-19.15c2.93-4.39,7.08-6.59,12.45-6.59,6.15,0,10.5,2.05,13.04,6.15,2.54,4.1,3.81,10.26,3.81,18.48s-1.4,14.44-4.2,18.8-7.01,6.54-12.65,6.54ZM458.29,1993.48c-2.16,0-3.7,1.44-4.62,4.33-.92,2.89-1.38,7.23-1.38,13.02,0,5.44.48,9.52,1.43,12.25.95,2.73,2.49,4.09,4.6,4.09,2.34,0,3.92-1.4,4.75-4.21.83-2.81,1.25-7.02,1.25-12.63s-.43-9.83-1.3-12.63c-.87-2.81-2.44-4.21-4.73-4.21Z"/>
        </g>
        <rect x="399.07" y="1963.45" width="86.25" height="6.9"/>
      </g>
    </g>
    <g>
      <rect class="g" x="517.2" y="1872.6" width="150" height="200"/>
      <g>
        <path d="M603.45,1948.45h-10.61v-36.86c-1.24.83-2.6,1.54-4.09,2.12-1.49.58-3.13,1.16-4.9,1.72l-2.9-8.49c3.08-.9,5.99-2.02,8.73-3.37s5.19-2.85,7.35-4.51h6.43v49.39Z"/>
        <g>
          <path d="M581.74,2034.48h-10.61v-36.86c-1.24.83-2.6,1.54-4.09,2.12-1.49.58-3.13,1.16-4.9,1.72l-2.9-8.49c3.08-.9,5.99-2.02,8.73-3.37s5.19-2.85,7.35-4.51h6.44v49.39Z"/>
          <path d="M608.32,2035.32c-5.84,0-10.11-2.02-12.8-6.06s-4.04-10.1-4.04-18.16,1.47-14.76,4.4-19.15c2.93-4.39,7.08-6.59,12.45-6.59,6.15,0,10.5,2.05,13.04,6.15,2.54,4.1,3.81,10.26,3.81,18.48s-1.4,14.44-4.2,18.8-7.01,6.54-12.65,6.54ZM608.29,1993.48c-2.16,0-3.7,1.44-4.62,4.33-.92,2.89-1.38,7.23-1.38,13.02,0,5.44.48,9.52,1.43,12.25.95,2.73,2.49,4.09,4.6,4.09,2.34,0,3.92-1.4,4.75-4.21.83-2.81,1.25-7.02,1.25-12.63s-.43-9.83-1.3-12.63c-.87-2.81-2.44-4.21-4.73-4.21Z"/>
        </g>
        <rect x="549.07" y="1963.45" width="86.25" height="6.9"/>
      </g>
    </g>
    <g>
      <rect class="g" x="667.2" y="1872.6" width="150" height="200"/>
      <g>
        <path d="M753.45,1948.45h-10.61v-36.86c-1.24.83-2.6,1.54-4.09,2.12-1.49.58-3.13,1.16-4.9,1.72l-2.9-8.49c3.08-.9,5.99-2.02,8.73-3.37s5.19-2.85,7.35-4.51h6.44v49.39Z"/>
        <g>
          <path d="M731.74,2034.48h-10.61v-36.86c-1.24.83-2.6,1.54-4.09,2.12-1.49.58-3.13,1.16-4.9,1.72l-2.9-8.49c3.08-.9,5.99-2.02,8.73-3.37s5.19-2.85,7.35-4.51h6.44v49.39Z"/>
          <path d="M758.32,2035.32c-5.84,0-10.11-2.02-12.8-6.06s-4.04-10.1-4.04-18.16,1.47-14.76,4.4-19.15c2.93-4.39,7.08-6.59,12.45-6.59,6.15,0,10.5,2.05,13.04,6.15,2.54,4.1,3.81,10.26,3.81,18.48s-1.4,14.44-4.2,18.8-7.01,6.54-12.65,6.54ZM758.29,1993.48c-2.16,0-3.7,1.44-4.62,4.33-.92,2.89-1.38,7.23-1.38,13.02,0,5.44.48,9.52,1.43,12.25.95,2.73,2.49,4.09,4.6,4.09,2.34,0,3.92-1.4,4.75-4.21.83-2.81,1.25-7.02,1.25-12.63s-.43-9.83-1.3-12.63c-.87-2.81-2.44-4.21-4.73-4.21Z"/>
        </g>
        <rect x="699.07" y="1963.45" width="86.25" height="6.9"/>
      </g>
    </g>
    <g>
      <rect class="g" x="967.2" y="1872.6" width="150" height="200"/>
      <g>
        <path d="M1053.45,1948.45h-10.61v-36.86c-1.24.83-2.6,1.54-4.09,2.12-1.49.58-3.13,1.16-4.9,1.72l-2.9-8.49c3.08-.9,5.99-2.02,8.73-3.37s5.19-2.85,7.35-4.51h6.43v49.39Z"/>
        <g>
          <path d="M1031.74,2034.48h-10.61v-36.86c-1.24.83-2.6,1.54-4.09,2.12-1.49.58-3.13,1.16-4.9,1.72l-2.9-8.49c3.08-.9,5.99-2.02,8.73-3.37s5.19-2.85,7.35-4.51h6.43v49.39Z"/>
          <path d="M1058.32,2035.32c-5.84,0-10.11-2.02-12.8-6.06s-4.04-10.1-4.04-18.16,1.47-14.76,4.4-19.15c2.93-4.39,7.08-6.59,12.45-6.59,6.15,0,10.5,2.05,13.04,6.15,2.54,4.1,3.81,10.26,3.81,18.48s-1.4,14.44-4.2,18.8-7.01,6.54-12.65,6.54ZM1058.29,1993.48c-2.16,0-3.7,1.44-4.62,4.33-.92,2.89-1.38,7.23-1.38,13.02,0,5.44.48,9.52,1.43,12.25.95,2.73,2.49,4.09,4.6,4.09,2.34,0,3.92-1.4,4.75-4.21.83-2.81,1.25-7.02,1.25-12.63s-.43-9.83-1.3-12.63c-.87-2.81-2.44-4.21-4.73-4.21Z"/>
        </g>
        <rect x="999.07" y="1963.45" width="86.25" height="6.9"/>
      </g>
    </g>
    <g>
      <rect class="g" x="1267.2" y="1872.6" width="150" height="200"/>
      <g>
        <path d="M1353.45,1948.45h-10.61v-36.86c-1.24.83-2.6,1.54-4.09,2.12-1.49.58-3.13,1.16-4.9,1.72l-2.9-8.49c3.08-.9,5.99-2.02,8.73-3.37s5.19-2.85,7.35-4.51h6.43v49.39Z"/>
        <g>
          <path d="M1331.74,2034.48h-10.61v-36.86c-1.24.83-2.6,1.54-4.09,2.12s-3.13,1.16-4.9,1.72l-2.9-8.49c3.08-.9,5.99-2.02,8.73-3.37s5.19-2.85,7.34-4.51h6.44v49.39Z"/>
          <path d="M1358.32,2035.32c-5.84,0-10.11-2.02-12.8-6.06s-4.04-10.1-4.04-18.16,1.47-14.76,4.4-19.15c2.93-4.39,7.08-6.59,12.45-6.59,6.15,0,10.5,2.05,13.04,6.15,2.54,4.1,3.81,10.26,3.81,18.48s-1.4,14.44-4.2,18.8-7.01,6.54-12.65,6.54ZM1358.29,1993.48c-2.16,0-3.7,1.44-4.62,4.33-.92,2.89-1.38,7.23-1.38,13.02,0,5.44.48,9.52,1.43,12.25.95,2.73,2.49,4.09,4.6,4.09,2.34,0,3.92-1.4,4.75-4.21.83-2.81,1.25-7.02,1.25-12.63s-.43-9.83-1.3-12.63c-.87-2.81-2.44-4.21-4.73-4.21Z"/>
        </g>
        <rect x="1299.07" y="1963.45" width="86.25" height="6.9"/>
      </g>
    </g>
    <g>
      <rect class="g" x="1417.2" y="1872.6" width="150" height="200"/>
      <g>
        <path d="M1503.45,1948.45h-10.61v-36.86c-1.24.83-2.6,1.54-4.09,2.12-1.49.58-3.13,1.16-4.9,1.72l-2.9-8.49c3.08-.9,5.99-2.02,8.73-3.37s5.19-2.85,7.35-4.51h6.43v49.39Z"/>
        <g>
          <path d="M1481.74,2034.48h-10.61v-36.86c-1.24.83-2.6,1.54-4.09,2.12s-3.13,1.16-4.9,1.72l-2.9-8.49c3.08-.9,5.99-2.02,8.73-3.37s5.19-2.85,7.34-4.51h6.44v49.39Z"/>
          <path d="M1508.32,2035.32c-5.84,0-10.11-2.02-12.8-6.06s-4.04-10.1-4.04-18.16,1.47-14.76,4.4-19.15c2.93-4.39,7.08-6.59,12.45-6.59,6.15,0,10.5,2.05,13.04,6.15,2.54,4.1,3.81,10.26,3.81,18.48s-1.4,14.44-4.2,18.8-7.01,6.54-12.65,6.54ZM1508.29,1993.48c-2.16,0-3.7,1.44-4.62,4.33-.92,2.89-1.38,7.23-1.38,13.02,0,5.44.48,9.52,1.43,12.25.95,2.73,2.49,4.09,4.6,4.09,2.34,0,3.92-1.4,4.75-4.21.83-2.81,1.25-7.02,1.25-12.63s-.43-9.83-1.3-12.63c-.87-2.81-2.44-4.21-4.73-4.21Z"/>
        </g>
        <rect x="1449.07" y="1963.45" width="86.25" height="6.9"/>
      </g>
    </g>
    <g>
      <rect class="g" x="817.2" y="1872.6" width="150" height="200"/>
      <g>
        <path d="M903.45,1948.45h-10.61v-36.86c-1.24.83-2.6,1.54-4.09,2.12-1.49.58-3.13,1.16-4.9,1.72l-2.9-8.49c3.08-.9,5.99-2.02,8.73-3.37s5.19-2.85,7.35-4.51h6.43v49.39Z"/>
        <g>
          <path d="M881.74,2034.48h-10.61v-36.86c-1.24.83-2.6,1.54-4.09,2.12s-3.13,1.16-4.9,1.72l-2.9-8.49c3.08-.9,5.99-2.02,8.73-3.37s5.19-2.85,7.34-4.51h6.44v49.39Z"/>
          <path d="M908.32,2035.32c-5.84,0-10.11-2.02-12.8-6.06s-4.04-10.1-4.04-18.16,1.47-14.76,4.4-19.15c2.93-4.39,7.08-6.59,12.45-6.59,6.15,0,10.5,2.05,13.04,6.15,2.54,4.1,3.81,10.26,3.81,18.48s-1.4,14.44-4.2,18.8-7.01,6.54-12.65,6.54ZM908.29,1993.48c-2.16,0-3.7,1.44-4.62,4.33-.92,2.89-1.38,7.23-1.38,13.02,0,5.44.48,9.52,1.43,12.25.95,2.73,2.49,4.09,4.6,4.09,2.34,0,3.92-1.4,4.75-4.21.83-2.81,1.25-7.02,1.25-12.63s-.43-9.83-1.3-12.63c-.87-2.81-2.44-4.21-4.73-4.21Z"/>
        </g>
        <rect x="849.07" y="1963.45" width="86.25" height="6.9"/>
      </g>
    </g>
    <g>
      <rect class="g" x="1117.2" y="1872.6" width="150" height="200"/>
      <g>
        <path d="M1203.45,1948.45h-10.61v-36.86c-1.24.83-2.6,1.54-4.09,2.12-1.49.58-3.13,1.16-4.9,1.72l-2.9-8.49c3.08-.9,5.99-2.02,8.73-3.37s5.19-2.85,7.35-4.51h6.43v49.39Z"/>
        <g>
          <path d="M1181.74,2034.48h-10.61v-36.86c-1.24.83-2.6,1.54-4.09,2.12s-3.13,1.16-4.9,1.72l-2.9-8.49c3.08-.9,5.99-2.02,8.73-3.37s5.19-2.85,7.34-4.51h6.44v49.39Z"/>
          <path d="M1208.32,2035.32c-5.84,0-10.11-2.02-12.8-6.06s-4.04-10.1-4.04-18.16,1.47-14.76,4.4-19.15c2.93-4.39,7.08-6.59,12.45-6.59,6.15,0,10.5,2.05,13.04,6.15,2.54,4.1,3.81,10.26,3.81,18.48s-1.4,14.44-4.2,18.8-7.01,6.54-12.65,6.54ZM1208.29,1993.48c-2.16,0-3.7,1.44-4.62,4.33-.92,2.89-1.38,7.23-1.38,13.02,0,5.44.48,9.52,1.43,12.25.95,2.73,2.49,4.09,4.6,4.09,2.34,0,3.92-1.4,4.75-4.21.83-2.81,1.25-7.02,1.25-12.63s-.43-9.83-1.3-12.63c-.87-2.81-2.44-4.21-4.73-4.21Z"/>
        </g>
        <rect x="1149.07" y="1963.45" width="86.25" height="6.9"/>
      </g>
    </g>
  </g>
  <g>
    <g>
      <rect class="f" x="1900.97" y="125.09" width="1028.98" height="137.2"/>
      <g>
        <path d="M2423.18,177.12h-7.28v-25.28c-.85.57-1.78,1.06-2.81,1.46-1.03.4-2.15.79-3.36,1.18l-1.99-5.82c2.11-.62,4.11-1.39,5.99-2.31,1.88-.92,3.56-1.96,5.04-3.1h4.41v33.88Z"/>
        <path d="M2423.18,236.14h-7.28v-25.28c-.85.57-1.78,1.06-2.81,1.46-1.03.4-2.15.79-3.36,1.18l-1.99-5.82c2.11-.62,4.11-1.39,5.99-2.31,1.88-.92,3.56-1.96,5.04-3.1h4.41v33.88Z"/>
        <rect x="2385.88" y="187.41" width="59.17" height="4.73"/>
      </g>
    </g>
    <g>
      <g>
        <rect class="e" x="1900.97" y="262.28" width="514.49" height="137.2"/>
        <g>
          <path d="M2165.94,314.32h-7.28v-25.28c-.85.57-1.78,1.06-2.81,1.46-1.03.4-2.15.79-3.36,1.18l-1.99-5.82c2.11-.62,4.11-1.39,5.99-2.31,1.88-.92,3.56-1.96,5.04-3.1h4.41v33.88Z"/>
          <path d="M2147.5,373.33v-2.5c0-1.69.29-3.22.86-4.56.57-1.35,1.29-2.56,2.15-3.64.86-1.06,1.81-2.01,2.83-2.83s2-1.57,2.92-2.23c.97-.69,1.82-1.36,2.55-1.99.73-.63,1.34-1.26,1.84-1.9.51-.62.91-1.26,1.19-1.94.28-.68.43-1.47.43-2.38,0-1.19-.38-2.12-1.14-2.8-.76-.68-1.78-1.02-3.06-1.02-1.17,0-2.2.39-3.08,1.16-.89.77-1.65,1.83-2.28,3.17l-5.87-2.4c1.11-2.42,2.68-4.33,4.7-5.73,2.03-1.4,4.5-2.1,7.43-2.1,3.25,0,5.84.85,7.75,2.55,1.92,1.7,2.88,3.99,2.88,6.85,0,1.53-.24,2.88-.71,4.07s-1.1,2.27-1.88,3.24c-.77.97-1.65,1.88-2.65,2.72-.99.84-2.04,1.64-3.13,2.39-.69.52-1.38,1.03-2.05,1.51s-1.25.97-1.75,1.47c-.52.51-.91,1-1.17,1.48s-.38.93-.38,1.36h13.66v6.06h-22.05Z"/>
          <rect x="2128.63" y="324.61" width="59.17" height="4.73"/>
        </g>
      </g>
      <g>
        <rect class="e" x="2415.46" y="262.28" width="514.49" height="137.2"/>
        <g>
          <path d="M2680.42,314.32h-7.28v-25.28c-.85.57-1.78,1.06-2.81,1.46-1.03.4-2.15.79-3.36,1.18l-1.99-5.82c2.11-.62,4.11-1.39,5.99-2.31,1.88-.92,3.56-1.96,5.04-3.1h4.41v33.88Z"/>
          <path d="M2661.99,373.33v-2.5c0-1.69.29-3.22.86-4.56.57-1.35,1.29-2.56,2.15-3.64.86-1.06,1.81-2.01,2.83-2.83s2-1.57,2.92-2.23c.97-.69,1.82-1.36,2.55-1.99.73-.63,1.34-1.26,1.84-1.9.51-.62.91-1.26,1.19-1.94.28-.68.43-1.47.43-2.38,0-1.19-.38-2.12-1.14-2.8-.76-.68-1.78-1.02-3.06-1.02-1.17,0-2.2.39-3.08,1.16-.89.77-1.65,1.83-2.28,3.17l-5.87-2.4c1.11-2.42,2.68-4.33,4.7-5.73,2.03-1.4,4.5-2.1,7.43-2.1,3.25,0,5.84.85,7.75,2.55,1.92,1.7,2.88,3.99,2.88,6.85,0,1.53-.24,2.88-.71,4.07s-1.1,2.27-1.88,3.24c-.77.97-1.65,1.88-2.65,2.72-.99.84-2.04,1.64-3.13,2.39-.69.52-1.38,1.03-2.05,1.51s-1.25.97-1.75,1.47c-.52.51-.91,1-1.17,1.48s-.38.93-.38,1.36h13.66v6.06h-22.05Z"/>
          <rect x="2643.12" y="324.61" width="59.17" height="4.73"/>
        </g>
      </g>
    </g>
  </g>
  <line class="j" x1="1567.2" y1="472.6" x2="1900.97" y2="399.48"/>
  <line class="m" x1="1567.2" y1="72.6" x2="1900.97" y2="125.09"/>
  <g>
    <g>
      <path class="p" d="M2274.88,557.39h-17.71v-61.52c-2.06,1.39-4.34,2.57-6.83,3.54-2.49.98-5.22,1.93-8.18,2.87l-4.84-14.17c5.14-1.5,9.99-3.37,14.57-5.62,4.57-2.25,8.66-4.76,12.26-7.54h10.74v82.44Z"/>
      <path class="p" d="M2274.88,700.98h-17.71v-61.52c-2.06,1.39-4.34,2.57-6.83,3.54-2.49.98-5.22,1.93-8.18,2.87l-4.84-14.17c5.14-1.5,9.99-3.37,14.57-5.62,4.57-2.25,8.66-4.76,12.26-7.54h10.74v82.44Z"/>
      <rect class="p" x="2184.11" y="582.42" width="143.96" height="11.52"/>
    </g>
    <g>
      <path class="p" d="M2548.76,557.39v-6.07c0-4.12.69-7.83,2.08-11.11,1.39-3.28,3.13-6.23,5.23-8.86,2.1-2.59,4.4-4.88,6.89-6.89,2.49-2.01,4.86-3.81,7.11-5.43,2.36-1.69,4.43-3.3,6.21-4.84,1.78-1.54,3.27-3.07,4.47-4.61,1.24-1.5,2.2-3.07,2.9-4.72.69-1.65,1.04-3.58,1.04-5.79,0-2.89-.93-5.15-2.78-6.8-1.86-1.65-4.34-2.47-7.45-2.47-2.85,0-5.35.94-7.51,2.81-2.16,1.88-4,4.44-5.54,7.7l-14.28-5.85c2.7-5.89,6.51-10.53,11.44-13.95,4.93-3.41,10.96-5.12,18.08-5.12,7.91,0,14.2,2.07,18.87,6.21,4.67,4.14,7,9.7,7,16.67,0,3.71-.57,7.01-1.72,9.9-1.14,2.89-2.67,5.51-4.58,7.87-1.88,2.36-4.02,4.56-6.44,6.61-2.42,2.04-4.96,3.98-7.62,5.82-1.69,1.27-3.35,2.5-4.98,3.68-1.63,1.18-3.05,2.37-4.25,3.57-1.27,1.24-2.22,2.44-2.84,3.6-.62,1.16-.93,2.27-.93,3.32h33.23v14.73h-53.65Z"/>
      <path class="p" d="M2548.76,700.98v-6.07c0-4.12.69-7.83,2.08-11.11,1.39-3.28,3.13-6.23,5.23-8.86,2.1-2.59,4.4-4.88,6.89-6.89,2.49-2.01,4.86-3.81,7.11-5.43,2.36-1.69,4.43-3.3,6.21-4.84,1.78-1.54,3.27-3.07,4.47-4.61,1.24-1.5,2.2-3.07,2.9-4.72.69-1.65,1.04-3.58,1.04-5.79,0-2.89-.93-5.15-2.78-6.8-1.86-1.65-4.34-2.47-7.45-2.47-2.85,0-5.35.94-7.51,2.81-2.16,1.88-4,4.44-5.54,7.7l-14.28-5.85c2.7-5.89,6.51-10.53,11.44-13.95,4.93-3.41,10.96-5.12,18.08-5.12,7.91,0,14.2,2.07,18.87,6.21,4.67,4.14,7,9.7,7,16.67,0,3.71-.57,7.01-1.72,9.9-1.14,2.89-2.67,5.51-4.58,7.87-1.88,2.36-4.02,4.56-6.44,6.61-2.42,2.04-4.96,3.98-7.62,5.82-1.69,1.27-3.35,2.5-4.98,3.68-1.63,1.18-3.05,2.37-4.25,3.57-1.27,1.24-2.22,2.44-2.84,3.6-.62,1.16-.93,2.27-.93,3.32h33.23v14.73h-53.65Z"/>
      <rect class="p" x="2502.85" y="582.42" width="143.96" height="11.52"/>
    </g>
    <path class="p" d="M2442.85,580.92h-54.77v-11.53h54.77v11.53ZM2442.85,605.33h-54.77v-11.42h54.77v11.42Z"/>
  </g>
  <g>
    <g>
      <g>
        <rect class="d" x="2040.46" y="848.45" width="375" height="200"/>
        <g>
          <path d="M2239.21,924.3h-10.61v-36.86c-1.24.83-2.6,1.54-4.09,2.12-1.49.58-3.13,1.16-4.9,1.72l-2.9-8.49c3.08-.9,5.99-2.02,8.73-3.37s5.19-2.85,7.35-4.51h6.43v49.39Z"/>
          <path d="M2240.7,962.02v30.46h4.55v7.95h-4.55v9.91h-10.11v-9.91h-19.91v-8.32c1.75-2.09,3.58-4.37,5.47-6.86,1.9-2.48,3.72-5.04,5.48-7.67,1.77-2.63,3.42-5.27,4.94-7.93,1.52-2.66,2.8-5.21,3.86-7.63h10.28ZM2219.94,992.48h10.65v-16.61c-.74,1.46-1.56,2.94-2.44,4.43-.89,1.49-1.78,2.96-2.68,4.4-.92,1.42-1.85,2.78-2.8,4.09-.94,1.31-1.85,2.54-2.73,3.69Z"/>
          <rect x="2184.83" y="939.31" width="86.25" height="6.9"/>
        </g>
      </g>
      <g>
        <rect class="d" x="2415.46" y="848.45" width="375" height="200"/>
        <g>
          <path d="M2614.21,924.3h-10.61v-36.86c-1.24.83-2.6,1.54-4.09,2.12-1.49.58-3.13,1.16-4.9,1.72l-2.9-8.49c3.08-.9,5.99-2.02,8.73-3.37s5.19-2.85,7.35-4.51h6.43v49.39Z"/>
          <path d="M2615.7,962.02v30.46h4.55v7.95h-4.55v9.91h-10.11v-9.91h-19.91v-8.32c1.75-2.09,3.58-4.37,5.47-6.86,1.9-2.48,3.72-5.04,5.48-7.67,1.77-2.63,3.42-5.27,4.94-7.93,1.52-2.66,2.8-5.21,3.86-7.63h10.28ZM2594.94,992.48h10.65v-16.61c-.74,1.46-1.56,2.94-2.44,4.43-.89,1.49-1.78,2.96-2.68,4.4-.92,1.42-1.85,2.78-2.8,4.09-.94,1.31-1.85,2.54-2.73,3.69Z"/>
          <rect x="2559.83" y="939.31" width="86.25" height="6.9"/>
        </g>
      </g>
    </g>
    <g>
      <g>
        <rect class="c" x="2040.46" y="1048.45" width="250" height="200"/>
        <g>
          <path d="M2176.71,1124.31h-10.61v-36.86c-1.24.83-2.6,1.54-4.09,2.12-1.49.58-3.13,1.16-4.9,1.72l-2.9-8.49c3.08-.9,5.99-2.02,8.73-3.37s5.19-2.85,7.35-4.51h6.43v49.39Z"/>
          <path d="M2182.1,1194.26c0,4.79-1.54,8.8-4.63,12.04-3.09,3.25-7.1,4.87-12.04,4.87-5.26,0-9.34-1.85-12.25-5.54-2.91-3.69-4.36-9.33-4.36-16.9,0-4.76.56-9.03,1.67-12.82,1.11-3.79,2.73-6.88,4.87-9.28,1.66-1.86,3.58-3.23,5.76-4.11,2.18-.88,4.56-1.31,7.14-1.31,2.99,0,5.65.76,8,2.27,2.35,1.52,4.14,3.51,5.37,5.98l-7.41,4.38c-.61-1.33-1.43-2.39-2.46-3.18-1.03-.8-2.31-1.2-3.84-1.2-1.12,0-2.17.22-3.15.66-.98.44-1.87,1.11-2.68,2-1.12,1.21-1.96,2.81-2.51,4.8-.55,1.99-.85,4.22-.89,6.69h.3c1.19-1.44,2.63-2.52,4.33-3.25,1.7-.73,3.62-1.09,5.78-1.09,3.98,0,7.14,1.38,9.48,4.14,2.35,2.76,3.52,6.38,3.52,10.85ZM2172.23,1194.94c0-2.31-.56-4.17-1.67-5.56s-2.68-2.09-4.7-2.09-3.66.77-4.85,2.31c-1.19,1.54-1.79,3.33-1.79,5.37,0,2.36.59,4.26,1.79,5.71,1.19,1.45,2.73,2.17,4.62,2.17,2.07,0,3.68-.74,4.85-2.21,1.17-1.47,1.75-3.37,1.75-5.71Z"/>
          <rect x="2122.33" y="1139.31" width="86.25" height="6.9"/>
        </g>
      </g>
      <g>
        <rect class="c" x="2290.46" y="1048.45" width="250" height="200"/>
        <g>
          <path d="M2426.71,1124.31h-10.61v-36.86c-1.24.83-2.6,1.54-4.09,2.12-1.49.58-3.13,1.16-4.9,1.72l-2.9-8.49c3.08-.9,5.99-2.02,8.73-3.37s5.19-2.85,7.35-4.51h6.43v49.39Z"/>
          <path d="M2432.1,1194.26c0,4.79-1.54,8.8-4.63,12.04-3.09,3.25-7.1,4.87-12.04,4.87-5.26,0-9.34-1.85-12.25-5.54-2.91-3.69-4.36-9.33-4.36-16.9,0-4.76.56-9.03,1.67-12.82,1.11-3.79,2.73-6.88,4.87-9.28,1.66-1.86,3.58-3.23,5.76-4.11,2.18-.88,4.56-1.31,7.14-1.31,2.99,0,5.65.76,8,2.27,2.35,1.52,4.14,3.51,5.37,5.98l-7.41,4.38c-.61-1.33-1.43-2.39-2.46-3.18-1.03-.8-2.31-1.2-3.84-1.2-1.12,0-2.17.22-3.15.66-.98.44-1.87,1.11-2.68,2-1.12,1.21-1.96,2.81-2.51,4.8-.55,1.99-.85,4.22-.89,6.69h.3c1.19-1.44,2.63-2.52,4.33-3.25,1.7-.73,3.62-1.09,5.78-1.09,3.98,0,7.14,1.38,9.48,4.14,2.35,2.76,3.52,6.38,3.52,10.85ZM2422.23,1194.94c0-2.31-.56-4.17-1.67-5.56s-2.68-2.09-4.7-2.09-3.66.77-4.85,2.31c-1.19,1.54-1.79,3.33-1.79,5.37,0,2.36.59,4.26,1.79,5.71,1.19,1.45,2.73,2.17,4.62,2.17,2.07,0,3.68-.74,4.85-2.21,1.17-1.47,1.75-3.37,1.75-5.71Z"/>
          <rect x="2372.33" y="1139.31" width="86.25" height="6.9"/>
        </g>
      </g>
      <g>
        <rect class="c" x="2540.46" y="1048.45" width="250" height="200"/>
        <g>
          <path d="M2676.71,1124.31h-10.61v-36.86c-1.24.83-2.6,1.54-4.09,2.12-1.49.58-3.13,1.16-4.9,1.72l-2.9-8.49c3.08-.9,5.99-2.02,8.73-3.37s5.19-2.85,7.35-4.51h6.43v49.39Z"/>
          <path d="M2682.1,1194.26c0,4.79-1.54,8.8-4.63,12.04-3.09,3.25-7.1,4.87-12.04,4.87-5.26,0-9.34-1.85-12.25-5.54-2.91-3.69-4.36-9.33-4.36-16.9,0-4.76.56-9.03,1.67-12.82,1.11-3.79,2.73-6.88,4.87-9.28,1.66-1.86,3.58-3.23,5.76-4.11,2.18-.88,4.56-1.31,7.14-1.31,2.99,0,5.65.76,8,2.27,2.35,1.52,4.14,3.51,5.37,5.98l-7.41,4.38c-.61-1.33-1.43-2.39-2.46-3.18-1.03-.8-2.31-1.2-3.84-1.2-1.12,0-2.17.22-3.15.66-.98.44-1.87,1.11-2.68,2-1.12,1.21-1.96,2.81-2.51,4.8-.55,1.99-.85,4.22-.89,6.69h.3c1.19-1.44,2.63-2.52,4.33-3.25,1.7-.73,3.62-1.09,5.78-1.09,3.98,0,7.14,1.38,9.48,4.14,2.35,2.76,3.52,6.38,3.52,10.85ZM2672.23,1194.94c0-2.31-.56-4.17-1.67-5.56s-2.68-2.09-4.7-2.09-3.66.77-4.85,2.31c-1.19,1.54-1.79,3.33-1.79,5.37,0,2.36.59,4.26,1.79,5.71,1.19,1.45,2.73,2.17,4.62,2.17,2.07,0,3.68-.74,4.85-2.21,1.17-1.47,1.75-3.37,1.75-5.71Z"/>
          <rect x="2622.33" y="1139.31" width="86.25" height="6.9"/>
        </g>
      </g>
    </g>
  </g>
  <line class="o" x1="1567.2" y1="672.6" x2="2040.46" y2="848.45"/>
  <line class="i" x1="1567.47" y1="1272.6" x2="2040.46" y2="1248.45"/>
  <g>
    <g>
      <path class="p" d="M2230.03,1406.36v-6.07c0-4.12.69-7.83,2.08-11.11,1.39-3.28,3.13-6.23,5.23-8.86,2.1-2.59,4.4-4.88,6.89-6.89s4.86-3.81,7.11-5.43c2.36-1.69,4.43-3.3,6.21-4.84,1.78-1.54,3.27-3.07,4.47-4.61,1.24-1.5,2.2-3.07,2.9-4.72.69-1.65,1.04-3.58,1.04-5.79,0-2.89-.93-5.15-2.78-6.8s-4.34-2.47-7.45-2.47c-2.85,0-5.35.94-7.51,2.81-2.16,1.88-4,4.44-5.54,7.71l-14.28-5.85c2.7-5.88,6.51-10.53,11.44-13.95,4.93-3.41,10.96-5.12,18.08-5.12,7.91,0,14.2,2.07,18.87,6.21,4.67,4.14,7,9.7,7,16.67,0,3.71-.57,7.01-1.72,9.9-1.14,2.89-2.67,5.51-4.58,7.87-1.88,2.36-4.02,4.57-6.44,6.61-2.42,2.04-4.96,3.98-7.62,5.82-1.69,1.27-3.35,2.5-4.98,3.68s-3.05,2.37-4.25,3.57c-1.27,1.24-2.22,2.44-2.84,3.6-.62,1.16-.93,2.27-.93,3.32h33.23v14.73h-53.65Z"/>
      <path class="p" d="M2277.35,1469.3v50.84h7.59v13.27h-7.59v16.53h-16.87v-16.53h-33.23v-13.89c2.92-3.49,5.97-7.3,9.14-11.44,3.17-4.14,6.21-8.41,9.14-12.79,2.96-4.39,5.71-8.8,8.24-13.24,2.53-4.44,4.68-8.69,6.44-12.74h17.15ZM2242.71,1520.14h17.77v-27.72c-1.24,2.44-2.6,4.9-4.08,7.39-1.48,2.49-2.97,4.94-4.47,7.34-1.54,2.36-3.09,4.64-4.67,6.83-1.58,2.19-3.09,4.25-4.56,6.16Z"/>
      <rect class="p" x="2184.11" y="1431.39" width="143.96" height="11.52"/>
    </g>
    <g>
      <path class="p" d="M2545.95,1393.25l13.61-7.98c1.24,2.55,3.01,4.62,5.31,6.21,2.3,1.59,5.14,2.39,8.52,2.39s6.34-.91,8.69-2.73c2.34-1.82,3.51-4.47,3.51-7.96s-1.57-6.34-4.7-8.24c-3.13-1.89-7.43-2.86-12.91-2.9h-6.58v-13.83h6.02c5.25,0,9.18-.88,11.81-2.64,2.62-1.76,3.94-4.56,3.94-8.38,0-2.89-.93-5.11-2.78-6.66s-4.13-2.33-6.83-2.33c-2.55,0-4.92.65-7.11,1.94s-4.02,3.33-5.48,6.1l-13.21-6.35c2.29-4.39,5.84-8.05,10.66-10.99,4.82-2.94,10.53-4.42,17.12-4.42,8.25,0,14.6,1.87,19.06,5.6,4.46,3.73,6.69,8.88,6.69,15.44,0,4.39-1.18,8.23-3.54,11.53-2.36,3.3-5.92,5.72-10.68,7.25v.28c5.14.9,9.19,3.06,12.17,6.5,2.98,3.43,4.47,7.54,4.47,12.34,0,7.54-2.69,13.5-8.07,17.88-5.38,4.39-12.44,6.58-21.17,6.58-7.01,0-12.86-1.26-17.55-3.77s-8.34-6.13-10.97-10.85Z"/>
      <path class="p" d="M2602.61,1523.12c0,7.99-2.58,14.69-7.73,20.1-5.16,5.42-11.86,8.13-20.1,8.13-8.77,0-15.59-3.08-20.44-9.25-4.86-6.17-7.28-15.57-7.28-28.2,0-7.95.93-15.08,2.78-21.4,1.86-6.32,4.56-11.48,8.13-15.49,2.77-3.11,5.98-5.4,9.62-6.86,3.64-1.46,7.61-2.19,11.92-2.19,4.99,0,9.44,1.27,13.36,3.8,3.92,2.53,6.91,5.86,8.97,9.98l-12.37,7.31c-1.01-2.21-2.38-3.98-4.11-5.31s-3.86-2-6.41-2c-1.88,0-3.63.37-5.26,1.1-1.63.73-3.12,1.85-4.47,3.35-1.88,2.02-3.27,4.7-4.19,8.01-.92,3.32-1.42,7.04-1.49,11.16h.51c1.99-2.4,4.4-4.21,7.23-5.43,2.83-1.22,6.04-1.83,9.64-1.83,6.64,0,11.91,2.3,15.83,6.92,3.92,4.61,5.88,10.65,5.88,18.11ZM2586.13,1524.25c0-3.86-.93-6.95-2.78-9.28-1.86-2.32-4.47-3.49-7.84-3.49s-6.11,1.28-8.1,3.85c-1.99,2.57-2.98,5.56-2.98,8.97,0,3.94.99,7.11,2.98,9.53,1.99,2.42,4.55,3.63,7.7,3.63,3.45,0,6.15-1.23,8.1-3.68,1.95-2.46,2.92-5.63,2.92-9.53Z"/>
      <rect class="p" x="2502.85" y="1431.39" width="143.96" height="11.52"/>
    </g>
    <path class="p" d="M2442.85,1429.89h-54.77v-11.53h54.77v11.53ZM2442.85,1454.3h-54.77v-11.42h54.77v11.42Z"/>
  </g>
</svg>