<?xml version="1.0" encoding="UTF-8"?>
<svg id="a" data-name="Слой 1" xmlns="http://www.w3.org/2000/svg" viewBox="0 0 889.71 613.25">
  <defs>
    <style>
      .b {
        fill: #f08c00;
      }

      .c {
        fill: #2f9e44;
      }

      .d {
        fill: #9c36b5;
      }
    </style>
  </defs>
  <path class="c" d="M245.41,199.31c50.25,0,97.41,11.44,132.8,32.21,34.56,20.28,53.59,46.95,53.59,75.1s-19.03,54.83-53.59,75.1c-35.39,20.77-82.56,32.21-132.8,32.21s-97.41-11.44-132.8-32.21c-34.56-20.28-53.59-46.95-53.59-75.1s19.03-54.83,53.59-75.1c35.39-20.77,82.56-32.21,132.8-32.21M245.41,194.31c-105.7,0-191.39,50.28-191.39,112.31s85.69,112.31,191.39,112.31,191.39-50.28,191.39-112.31-85.69-112.31-191.39-112.31h0Z"/>
  <path class="c" d="M219.63,225.05s.33-.61.94-1.61h9.49c6.47,0,9.77.05,9.91.19.05.05.66.85,1.79,2.41,1.13,1.56,2.93,3.82,5.38,6.94,2.45,3.12,4.72,6.04,6.85,8.87l13.69,17.84v-19.78c0-2.22,0-3.68.09-4.34,0-3.97-.28-6.47-.85-7.41s-2.03-1.56-4.34-1.7c-1.27,0-2.08-.19-2.45-.52-.52-.61-.52-1.32,0-2.12l.52-.38h16.33c.61.38.94.9.94,1.46,0,.52-.09.9-.33,1.18-.57.24-1.09.33-1.56.33-2.69,0-4.2,1.04-4.53,3.07-.19.61-.24,9.68-.24,27.14v25.77c-.47.66-.94,1.04-1.46,1.04-.33,0-.66-.14-.94-.42-.19-.09-6.56-8.21-19.21-24.36l-18.41-23.7-.24,19.54v7.27c0,2.83,0,4.77-.09,5.71,0,3.63.09,6.18.33,7.6s.66,2.41,1.37,2.93,1.84.8,3.49.85c1.32,0,2.12.19,2.45.52.61.61.61,1.32,0,2.12l-.52.33h-17.04c-.66-.38-1.04-.9-1.04-1.46,0-1.04.9-1.56,2.74-1.56.09-.05.47-.09,1.13-.19.61-.05,1.13-.19,1.46-.33s.76-.47,1.18-.85.71-1.04.76-1.89c.09-.61.19-8.4.19-23.32v-21.95l-1.27-1.37c-1.37-1.37-2.83-2.17-4.44-2.45-1.37,0-2.03-.47-2.03-1.37l-.05-.05ZM253.19,246.01l-14.78-19.59h-10.24l1.37,1.7s6.47,8.31,19.21,24.5c12.75,16.24,19.21,24.41,19.31,24.5l.19-1.18v-10.57l-15.01-19.4-.05.05Z"/>
  <path class="c" d="M130.85,286.97l-1.17.45c-.84.3-2.04.6-3.6.9s-3.3.51-5.23.63h-1.71v-4.14h1.71c2.82-.12,5.44-.57,7.84-1.35s4.08-1.5,5.05-2.16,1.8-1.32,2.52-1.98c.12-.18.48-.27,1.08-.27.54,0,1.05.18,1.53.54v26.94l.09,27.03c.42.42.78.69,1.08.81s1.02.24,2.16.36,3,.18,5.59.18h2.34v4.14h-.99c-1.26-.18-6.04-.27-14.32-.27s-12.88.09-14.14.27h-1.08v-4.14h5.77c.96,0,1.71-.03,2.25-.09s1.02-.15,1.44-.27.66-.18.72-.18.24-.15.54-.45.48-.42.54-.36v-46.58Z"/>
  <path class="c" d="M232.71,342.67c-1.62,0-2.91-.54-3.87-1.62-.96-1.08-1.44-2.4-1.44-3.96,0-4.26,1.59-7.96,4.77-11.08,3.18-3.12,7.15-4.68,11.89-4.68,5.47,0,10.03,1.68,13.69,5.05s5.53,7.72,5.59,13.06c0,2.58-.6,5.05-1.8,7.39s-2.64,4.38-4.32,6.13-4.08,3.96-7.21,6.67c-2.16,1.86-5.17,4.62-9.01,8.29l-5.32,5.05,6.85.09c9.43,0,14.44-.15,15.05-.45.42-.12,1.14-2.79,2.16-8.02v-.27h3.6v.27c-.06.18-.45,2.91-1.17,8.2-.72,5.29-1.17,8.05-1.35,8.29v.27h-33.42v-2.79c0-.42.18-.87.54-1.35s1.26-1.53,2.7-3.15c1.74-1.92,3.24-3.6,4.5-5.05.54-.6,1.56-1.71,3.06-3.33s2.52-2.73,3.06-3.33,1.41-1.59,2.61-2.97c1.2-1.38,2.04-2.4,2.52-3.06.48-.66,1.17-1.56,2.07-2.7s1.53-2.1,1.89-2.88.81-1.65,1.35-2.61.93-1.92,1.17-2.88.45-1.86.63-2.7.27-1.83.27-2.97c0-3.78-1.02-7.06-3.06-9.82s-4.95-4.14-8.74-4.14c-1.98,0-3.72.51-5.23,1.53s-2.55,2.01-3.15,2.97-.9,1.53-.9,1.71c0,.06.15.09.45.09,1.08,0,2.19.42,3.33,1.26s1.71,2.22,1.71,4.14c0,1.5-.48,2.76-1.44,3.78s-2.31,1.56-4.05,1.62Z"/>
  <path class="c" d="M348.04,297.15c-1.57,0-2.79-.49-3.67-1.48s-1.34-2.27-1.4-3.84c0-3.2,1.4-6.06,4.19-8.56s6.17-3.76,10.13-3.76c2.04,0,3.32.03,3.84.09,4.31.7,7.6,2.24,9.87,4.63,2.27,2.39,3.44,4.98,3.49,7.77,0,3.03-.99,5.97-2.97,8.82s-4.72,4.92-8.21,6.2l-.26.17c0,.06.26.15.79.26s1.37.38,2.53.79,2.27,1.02,3.32,1.83c4.77,3.09,7.16,7.16,7.16,12.23,0,4.6-1.8,8.62-5.41,12.05-3.61,3.44-8.18,5.15-13.71,5.15-4.66,0-8.68-1.25-12.05-3.76-3.38-2.5-5.07-5.68-5.07-9.52,0-1.63.52-2.94,1.57-3.93s2.36-1.51,3.93-1.57c1.63,0,2.97.52,4.02,1.57s1.57,2.36,1.57,3.93c0,.64-.09,1.22-.26,1.75s-.38.99-.61,1.4-.55.76-.96,1.05-.76.52-1.05.7-.58.29-.87.35c-.29.06-.52.15-.7.26l-.35.09c2.97,2.62,6.58,3.93,10.83,3.93,3.2,0,5.62-1.54,7.25-4.63.99-1.92,1.48-4.86,1.48-8.82v-1.75c0-5.53-1.86-9.23-5.59-11.09-.87-.35-2.65-.55-5.33-.61l-3.67-.09-.26-.17c-.12-.17-.17-.64-.17-1.4,0-1.05.23-1.57.7-1.57,1.63,0,3.32-.15,5.07-.44,1.98-.29,3.78-1.51,5.41-3.67s2.45-5.41,2.45-9.78v-.7c0-3.32-1.02-5.62-3.06-6.9-1.28-.82-2.65-1.22-4.1-1.22-1.86,0-3.58.32-5.15.96s-2.68,1.31-3.32,2.01-.96,1.05-.96,1.05h.26c.17.06.41.12.7.17s.58.2.87.44.64.44,1.05.61.7.49.87.96.41.9.7,1.31.38.99.26,1.75c0,1.28-.41,2.42-1.22,3.41s-2.13,1.51-3.93,1.57Z"/>
  <path class="b" d="M330.76,510.47c-77.63,0-150.64-21.1-205.59-59.42-55.22-38.51-85.64-89.8-85.64-144.42s30.41-105.91,85.64-144.42c54.95-38.32,127.96-59.42,205.59-59.42s150.65,21.1,205.59,59.42c55.22,38.51,85.64,89.8,85.64,144.42s-30.41,105.91-85.64,144.42c-54.95,38.32-127.96,59.42-205.59,59.42ZM330.76,107.78c-157.83,0-286.23,89.2-286.23,198.85s128.4,198.85,286.23,198.85,286.23-89.2,286.23-198.85S488.59,107.78,330.76,107.78Z"/>
  <path class="b" d="M348.15,192.44c-.58-.58-.87-.97-.87-1.16,0-.63.92-2.52,2.71-5.72,1.79-3.15,6.45-10.76,13.96-22.83l16.72-27.24h-4.02c-6.01,0-10.52.58-13.52,1.74-2.47.92-4.46,2.08-5.96,3.49s-2.47,2.67-2.91,3.78-.78,2.18-1.07,3.15c-.29,1.02-.53,1.55-.78,1.65-.19.05-.39.1-.68.1-.48,0-1.02-.39-1.65-1.21l.78-7.46c.1-1.11.24-2.28.44-3.49s.29-2.23.34-3,.1-1.16.19-1.16c.19-.1.39-.29.63-.53.1-.05,7.46-.1,22.15-.1h22c.68.58,1.07,1.07,1.07,1.5,0,.24-5.62,9.55-16.82,27.87l-16.77,27.29s2.33.19,7.03.19c6.16,0,10.37-.39,12.7-1.16,3.39-1.16,6.2-3,8.53-5.53,2.28-2.52,3.88-5.48,4.75-8.87.29-1.6.87-2.37,1.74-2.37.39,0,.78.15,1.07.44s.48.63.53.97c0,.48-.39,3.68-1.21,9.64s-1.31,9.01-1.5,9.21l-.63.63s-8.29.19-24.57.19h-24.38ZM357.69,136.47l1.6-.97h-4.75v1.41s-.1.48-.19.87-.1.68-.19.87c0,.24.05.34.19.34s.29-.1.53-.34.63-.53,1.16-.97,1.07-.82,1.65-1.21ZM393.12,135.69s-1.41-.19-4.22-.19c-3.05,0-4.6.15-4.75.44-.1.24-5.48,9.01-16.14,26.32-10.66,17.3-16.19,26.27-16.58,26.85,0,.1,1.5.19,4.46.19h4.46l16.38-26.66,16.38-26.95ZM394.87,189.29c.53-3.15.78-4.99.78-5.43l-1.74,1.74c-1.11,1.07-2.13,1.89-3.05,2.52l-1.6.97,2.71.19s2.91,0,2.91,0Z"/>
  <path class="b" d="M470.24,191.36c3.26-4.71,7.7-7.06,13.34-7.06,2.79,0,5.58.76,8.37,2.27s5.06,4.19,6.8,8.02c2.15,4.83,3.23,11.45,3.23,19.88,0,9.01-1.25,15.9-3.75,20.67-1.16,2.44-2.76,4.39-4.8,5.84-2.03,1.45-3.81,2.35-5.32,2.7s-2.99.55-4.45.61c-1.51,0-3.02-.17-4.53-.52s-3.28-1.28-5.32-2.79c-2.03-1.51-3.63-3.46-4.8-5.84-2.5-4.77-3.75-11.66-3.75-20.67,0-10.12,1.66-17.82,4.97-23.11ZM489.86,190.31c-1.74-1.86-3.81-2.79-6.19-2.79s-4.53.93-6.28,2.79c-1.45,1.51-2.41,3.6-2.88,6.28-.47,2.67-.7,8.26-.7,16.74,0,9.19.23,15.23.7,18.14.47,2.91,1.51,5.2,3.14,6.89,1.63,1.74,3.63,2.62,6.02,2.62s4.3-.87,5.93-2.62c1.69-1.74,2.73-4.19,3.14-7.33s.64-9.04.7-17.7c0-8.43-.23-13.98-.7-16.66-.47-2.67-1.42-4.8-2.88-6.37Z"/>
  <path class="b" d="M473.81,328.53v-.98c0-.65.35-1.15,1.05-1.5h43.62c.75.4,1.13.9,1.13,1.5s-.38,1.1-1.13,1.5h-43.62c-.7-.35-1.05-.85-1.05-1.5v.98ZM541.9,302.93l-.98.38c-.7.25-1.7.5-3,.75s-2.75.43-4.35.53h-1.43v-3.45h1.43c2.35-.1,4.53-.48,6.53-1.13s3.4-1.25,4.2-1.8,1.5-1.1,2.1-1.65c.1-.15.4-.23.9-.23.45,0,.88.15,1.28.45v22.45l.08,22.52c.35.35.65.58.9.68s.85.2,1.8.3,2.5.15,4.65.15h1.95v3.45h-.83c-1.05-.15-5.03-.23-11.94-.23s-10.74.08-11.79.23h-.9v-3.45h4.8c.8,0,1.43-.03,1.88-.08s.85-.13,1.2-.23.55-.15.6-.15.2-.13.45-.38.4-.35.45-.3v-38.81Z"/>
  <path class="b" d="M372.11,430.07v-.98c0-.65.35-1.15,1.05-1.5h43.62c.75.4,1.13.9,1.13,1.5s-.38,1.1-1.13,1.5h-43.62c-.7-.35-1.05-.85-1.05-1.5v.98ZM432.4,415.66c-1.35,0-2.43-.45-3.23-1.35-.8-.9-1.2-2-1.2-3.3,0-3.55,1.33-6.63,3.98-9.23,2.65-2.6,5.96-3.9,9.91-3.9,4.55,0,8.36,1.4,11.41,4.2s4.6,6.43,4.65,10.89c0,2.15-.5,4.2-1.5,6.16s-2.2,3.65-3.6,5.11-3.4,3.3-6.01,5.56c-1.8,1.55-4.3,3.85-7.51,6.91l-4.43,4.2,5.71.08c7.86,0,12.04-.13,12.54-.38.35-.1.95-2.33,1.8-6.68v-.23h3v.23c-.05.15-.38,2.43-.98,6.83-.6,4.4-.98,6.71-1.13,6.91v.23h-27.85v-2.33c0-.35.15-.73.45-1.13s1.05-1.28,2.25-2.63c1.45-1.6,2.7-3,3.75-4.2.45-.5,1.3-1.43,2.55-2.78s2.1-2.28,2.55-2.78,1.18-1.33,2.18-2.48c1-1.15,1.7-2,2.1-2.55.4-.55.98-1.3,1.73-2.25s1.28-1.75,1.58-2.4.68-1.38,1.13-2.18.78-1.6.98-2.4.38-1.55.53-2.25.23-1.53.23-2.48c0-3.15-.85-5.88-2.55-8.18s-4.13-3.45-7.28-3.45c-1.65,0-3.1.43-4.35,1.28s-2.13,1.68-2.63,2.48-.75,1.28-.75,1.43c0,.05.13.08.38.08.9,0,1.83.35,2.78,1.05s1.43,1.85,1.43,3.45c0,1.25-.4,2.3-1.2,3.15s-1.93,1.3-3.38,1.35Z"/>
  <path class="d" d="M444.85,588.54c-112.24,0-217.8-29.21-297.23-82.26-38.72-25.86-69.13-55.99-90.39-89.56-22.07-34.85-33.27-71.9-33.27-110.1s11.19-75.25,33.27-110.1c21.26-33.57,51.67-63.7,90.39-89.56C227.05,53.92,332.61,24.7,444.85,24.7s217.8,29.21,297.23,82.26c38.72,25.86,69.13,55.99,90.39,89.56,22.07,34.85,33.27,71.9,33.27,110.1s-11.19,75.25-33.27,110.1c-21.26,33.57-51.67,63.7-90.39,89.56-79.43,53.05-184.99,82.26-297.23,82.26ZM444.85,29.7c-111.26,0-215.84,28.92-294.45,81.42-78.3,52.3-121.43,121.73-121.43,195.5s43.12,143.2,121.43,195.5c78.62,52.5,183.19,81.42,294.45,81.42s215.84-28.92,294.45-81.42c78.3-52.3,121.43-121.73,121.43-195.5s-43.12-143.2-121.43-195.5c-78.62-52.5-183.19-81.42-294.45-81.42Z"/>
  <path class="d" d="M503.11,99.49s.15.45.41.94.75,1.09,1.43,1.77,1.47,1.35,2.33,2.03,1.92,1.24,3.2,1.62,2.63.64,4.1.68c.83,0,1.73-.08,2.71-.26s1.58-.26,1.77-.26c.45,0,.79.19.94.53s.19.71.08,1.09c-.26.68-1.77,1.43-4.47,2.26s-5.34,1.24-7.82,1.24c-2.03,0-3.98-.26-5.79-.83s-3.35-1.24-4.62-2.03-2.44-1.77-3.53-2.86-1.92-2.03-2.44-2.78c-.53-.79-1.05-1.62-1.58-2.52l-.26-1.09-1.24-.26c-3.35-1.05-6.32-2.86-8.91-5.45-3.35-3.35-5.49-7.74-6.39-13.2-.15-.79-.19-2.29-.19-4.55s.08-3.8.19-4.62c.94-5.34,3.08-9.7,6.39-13.01,2.18-2.33,4.81-4.02,7.97-5.11,3.16-1.09,6.28-1.65,9.47-1.69,4.4,0,8.35.9,11.84,2.71,6.17,3.01,10,7.82,11.5,14.47.49,1.73.75,4.14.75,7.29s-.26,5.53-.75,7.22c-1.09,4.25-3.01,7.74-5.79,10.49-1.35,1.39-2.97,2.63-4.81,3.68s-3.72,1.77-5.56,2.18c0,0-.9.34-.9.34ZM509.09,75.54c0-12.29-2.97-19.47-8.91-21.58l-2.86-.49c-3.01,0-5.45.9-7.41,2.71-2.44,2.56-4.1,6.77-4.96,12.71-.15,1.39-.19,3.61-.19,6.62s.08,5.19.19,6.54c.83,6.02,2.48,10.3,4.96,12.86,1.05.9,2.33,1.69,3.8,2.33.68.19,1.73.26,3.2.26s2.48-.08,3.27-.26c1.47-.68,2.67-1.47,3.68-2.33,3.5-3.5,5.23-9.96,5.23-19.4v.04ZM482.29,75.58v-.9c0-1.77,0-3.23.08-4.44s.23-2.67.53-4.44.83-3.5,1.5-5.23,1.62-3.38,2.78-5.04l.19-.26s-.71.26-1.69.83-1.69.98-2.11,1.28c-.19.08-.41.26-.68.49s-.6.49-.94.83c-.34.34-.68.6-.94.83-3.91,3.91-5.86,9.17-5.86,15.86,0,9.59,3.68,16.2,11.02,19.85.71.45,1.09.6,1.09.41,0,0,0-.04-.08-.15-.68-.94-1.24-1.8-1.62-2.52s-.9-1.99-1.5-3.8c-.6-1.8-1.13-4.02-1.58-6.65-.15-1.35-.19-3.68-.19-6.95ZM518.6,75.58c0-3.12-.41-5.98-1.28-8.57s-1.95-4.59-3.35-6.05-2.56-2.59-3.53-3.38-1.95-1.35-2.86-1.62c-.64-.38-.98-.53-1.02-.53s-.04.08,0,.19c1.47,2.03,2.48,4.14,3.12,6.24,1.13,3.23,1.69,7.78,1.69,13.76v1.69c0,2.37-.08,4.32-.19,5.86s-.56,3.5-1.28,5.86c-.71,2.37-1.84,4.55-3.35,6.54-.08.19-.08.26.08.19s.45-.19.94-.49c1.32-.71,2.44-1.47,3.38-2.18s1.99-1.73,3.12-3.01,2.07-2.89,2.78-4.89,1.24-4.25,1.58-6.73c.08-1.28.15-2.22.15-2.86v-.04ZM497.06,99.94h-3.95s-.34-.15-.49-.15c-.08,0-.15.04-.15.15,0,.19.86,1.35,2.59,3.46,2.82,2.82,6.09,4.51,9.81,5.11.53.04,1.39.08,2.59.08s1.88,0,2.26-.08l.83-.15-.94-.15c-1.39-.53-2.89-1.39-4.47-2.59-1.58-1.17-2.86-2.63-3.8-4.36l-.75-1.24-3.46-.15-.08.08Z"/>
  <path class="d" d="M647.68,107.6l-.77.3c-.55.2-1.34.39-2.37.59s-2.17.34-3.43.41h-1.12v-2.72h1.12c1.85-.08,3.57-.37,5.15-.89s2.68-.99,3.31-1.42,1.18-.87,1.66-1.3c.08-.12.32-.18.71-.18.36,0,.69.12,1.01.36v17.69l.06,17.75c.28.28.51.45.71.53s.67.16,1.42.24,1.97.12,3.67.12h1.54v2.72h-.65c-.83-.12-3.96-.18-9.41-.18s-8.46.06-9.29.18h-.71v-2.72h3.79c.63,0,1.12-.02,1.48-.06s.67-.1.95-.18.43-.12.47-.12.16-.1.36-.3.32-.28.36-.24v-30.59ZM641.52,197.01c-1.07,0-1.91-.36-2.54-1.07-.63-.71-.95-1.58-.95-2.6,0-2.8,1.05-5.23,3.14-7.28,2.09-2.05,4.69-3.08,7.81-3.08,3.59,0,6.59,1.1,8.99,3.31s3.63,5.07,3.67,8.58c0,1.7-.39,3.31-1.18,4.85s-1.74,2.88-2.84,4.02-2.68,2.6-4.73,4.38c-1.42,1.22-3.39,3.04-5.92,5.44l-3.49,3.31,4.5.06c6.19,0,9.49-.1,9.88-.3.28-.08.75-1.83,1.42-5.27v-.18h2.37v.18c-.04.12-.3,1.91-.77,5.38-.47,3.47-.77,5.29-.89,5.44v.18h-21.95v-1.83c0-.28.12-.57.36-.89s.83-1.01,1.78-2.07c1.14-1.26,2.13-2.37,2.96-3.31.36-.39,1.03-1.12,2.01-2.19s1.66-1.79,2.01-2.19.93-1.05,1.72-1.95c.79-.91,1.34-1.58,1.66-2.01.32-.43.77-1.03,1.36-1.78s1.01-1.38,1.24-1.89.53-1.08.89-1.72.61-1.26.77-1.89.3-1.22.41-1.78.18-1.2.18-1.95c0-2.49-.67-4.64-2.01-6.45s-3.25-2.72-5.74-2.72c-1.3,0-2.45.34-3.43,1.01s-1.68,1.32-2.07,1.95-.59,1.01-.59,1.12c0,.04.1.06.3.06.71,0,1.44.28,2.19.83s1.12,1.46,1.12,2.72c0,.99-.32,1.81-.95,2.49s-1.52,1.03-2.66,1.07ZM629.16,168.79h41.42v-3.55h-41.42v3.55Z"/>
  <path class="d" d="M715.55,280.07v-.76c0-.5.27-.89.82-1.16h33.83c.58.31.87.7.87,1.16s-.29.85-.87,1.16h-33.83c-.54-.27-.82-.66-.82-1.16v.76ZM782.86,293.87c-.7-.12-3.2-.17-7.51-.17s-7.1.06-7.8.17h-.52v-2.68h3.38c.27,0,.6-.04.99-.12s.66-.17.82-.29.29-.27.41-.47c.04-.08.06-1.13.06-3.14v-2.91h-15.08v-2.68l8.79-13.45c5.94-9.01,8.95-13.53,9.02-13.57.08-.08.49-.12,1.22-.12h1.05l.35.35v26.78h5.36v2.68h-5.36v5.76c0,.27.12.5.35.7.31.27,1.42.43,3.32.47h1.69v2.68h-.52ZM773.02,281.58v-19.45l-12.75,19.39,6.35.06h6.4ZM736.51,346.5c.04-.08.37-2.19.99-6.35l.93-6.23c0-.08.39-.12,1.16-.12h1.16v.23c0,.39.29.72.87.99s1.59.45,3.03.52,4.72.12,9.84.12h7.05v2.27l-3.96,5.41c-.35.47-.93,1.24-1.75,2.33s-1.34,1.8-1.57,2.15-.64.97-1.22,1.86-.97,1.59-1.16,2.1-.47,1.22-.82,2.15-.6,1.82-.76,2.68-.31,1.9-.47,3.14-.27,2.56-.35,3.96-.14,2.99-.17,4.77v1.63c0,.54-.02,1.01-.06,1.4v.52c-.16.66-.52,1.22-1.11,1.69s-1.24.7-1.98.7c-.43,0-.83-.06-1.22-.17s-.8-.49-1.22-1.11-.64-1.4-.64-2.33c0-6.13,1.88-12.5,5.65-19.1.78-1.24,2.41-3.59,4.89-7.05l2.68-3.67h-5.41c-6.75,0-10.31.12-10.65.35-.23.12-.45.58-.64,1.4s-.39,1.65-.58,2.5l-.17,1.22v.17h-2.33v-.17ZM704.84,320.42h86.06v-3.49h-86.06v3.49Z"/>
  <path class="d" d="M618.85,415.71c0-6.43,1.6-11.52,4.79-15.27,3.2-3.75,6.75-5.62,10.65-5.62,2.72,0,4.67.71,5.86,2.13s1.78,3,1.78,4.73c0,.99-.28,1.78-.83,2.37s-1.32.89-2.31.89c-.91,0-1.66-.28-2.25-.83-.59-.55-.89-1.32-.89-2.31,0-1.74.93-2.78,2.78-3.14-.87-.87-2.09-1.36-3.67-1.48-2.8,0-5.11,1.18-6.92,3.55-1.85,2.6-2.78,6.59-2.78,11.95l.06.24c.2-.24.36-.49.47-.77,1.62-2.37,3.73-3.55,6.33-3.55h.24c1.81,0,3.41.37,4.79,1.12.95.55,1.89,1.34,2.84,2.37s1.72,2.15,2.31,3.37c.83,1.93,1.24,4.04,1.24,6.33v1.07c0,.91-.1,1.76-.3,2.54-.43,2.33-1.7,4.6-3.79,6.8-2.09,2.21-4.73,3.31-7.93,3.31-1.1,0-2.17-.16-3.2-.47-1.03-.32-2.13-.91-3.31-1.78-1.18-.87-2.19-2.03-3.02-3.49-.83-1.46-1.54-3.37-2.13-5.74s-.87-5.15-.83-8.34ZM631.58,410.74c-1.18,0-2.21.34-3.08,1.01s-1.54,1.56-2.01,2.66-.81,2.23-1.01,3.37-.32,2.37-.36,3.67c0,3.27.24,5.62.71,7.04s1.22,2.56,2.25,3.43c.95.71,1.99,1.07,3.14,1.07,2.01,0,3.55-.75,4.62-2.25.51-.71.87-1.6,1.07-2.66s.3-3.14.3-6.21-.1-5.27-.3-6.33-.55-1.95-1.07-2.66c-1.07-1.42-2.49-2.13-4.26-2.13ZM666.78,417.25c-1.89,3-4.26,4.5-7.1,4.5-3.08,0-5.6-1.16-7.57-3.49-1.97-2.33-3.16-4.81-3.55-7.46-.08-.63-.12-1.42-.12-2.37v-.47c0-3.67,1.36-6.86,4.08-9.59,2.37-2.37,4.97-3.55,7.81-3.55h.36c.16,0,.32.02.47.06h.24c.47,0,.97.04,1.48.12s1.24.32,2.19.71,1.87,1.03,2.78,1.89,1.76,2.03,2.54,3.49c1.7,3.47,2.54,7.93,2.54,13.37s-1.18,10.2-3.55,14.02c-1.38,2.21-3.04,3.93-4.97,5.15-1.93,1.22-3.98,1.85-6.15,1.89-2.41,0-4.38-.57-5.92-1.72-1.54-1.14-2.33-2.84-2.37-5.09s1.01-3.35,3.14-3.31c.87,0,1.6.28,2.19.83.59.55.89,1.32.89,2.31,0,.71-.18,1.32-.53,1.83-.36.51-.67.83-.95.95s-.53.22-.77.3l-.24.06c0,.08.14.2.41.36s.79.36,1.54.59,1.58.34,2.49.3h.36c2.37,0,4.36-1.26,5.98-3.79,1.54-2.21,2.31-6.04,2.31-11.48v-.41ZM660.39,419.56c1.89,0,3.41-.97,4.56-2.9s1.74-4.56,1.78-7.87c0-3.08-.16-5.29-.47-6.63-.08-.39-.2-.79-.36-1.18s-.43-.91-.83-1.54-.99-1.16-1.78-1.6-1.72-.63-2.78-.59c-1.5,0-2.78.53-3.85,1.6-.83.87-1.36,1.89-1.6,3.08s-.37,3.25-.41,6.21c0,3.27.1,5.48.3,6.63s.59,2.07,1.18,2.78c.99,1.34,2.41,2.01,4.26,2.01ZM628.97,480.62l-.77.3c-.55.2-1.34.39-2.37.59s-2.17.34-3.43.41h-1.12v-2.72h1.12c1.85-.08,3.57-.37,5.15-.89s2.68-.99,3.31-1.42,1.18-.87,1.66-1.3c.08-.12.32-.18.71-.18.36,0,.69.12,1.01.36v17.69l.06,17.75c.28.28.51.45.71.53s.67.16,1.42.24,1.97.12,3.67.12h1.54v2.72h-.65c-.83-.12-3.96-.18-9.41-.18s-8.46.06-9.29.18h-.71v-2.72h3.79c.63,0,1.12-.02,1.48-.06s.67-.1.95-.18.43-.12.47-.12.16-.1.36-.3.32-.28.36-.24v-30.59ZM658.56,480.62l-.77.3c-.55.2-1.34.39-2.37.59s-2.17.34-3.43.41h-1.12v-2.72h1.12c1.85-.08,3.57-.37,5.15-.89s2.68-.99,3.31-1.42,1.18-.87,1.66-1.3c.08-.12.32-.18.71-.18.36,0,.69.12,1.01.36v17.69l.06,17.75c.28.28.51.45.71.53s.67.16,1.42.24,1.97.12,3.67.12h1.54v2.72h-.65c-.83-.12-3.96-.18-9.41-.18s-8.46.06-9.29.18h-.71v-2.72h3.79c.63,0,1.12-.02,1.48-.06s.67-.1.95-.18.43-.12.47-.12.16-.1.36-.3.32-.28.36-.24v-30.59ZM610.45,461.21h71.01v-3.55h-71.01v3.55Z"/>
</svg>