<?xml version="1.0" encoding="UTF-8"?>
<svg id="g" data-name="Слой 1" xmlns="http://www.w3.org/2000/svg" xmlns:xlink="http://www.w3.org/1999/xlink" viewBox="0 0 400 400">
  <defs>
    <style>
      .h {
        fill: #371a04;
      }

      .i {
        fill: #4e2607;
      }

      .j {
        fill: #c3940d;
      }

      .k {
        fill: #e78e27;
      }

      .l {
        fill: #ee8440;
      }

      .m {
        fill: #34190b;
      }

      .n {
        fill: #431f07;
      }

      .o {
        fill: #e18a27;
      }

      .p {
        fill: #f1ab34;
      }

      .q {
        fill: #6c240d;
      }

      .r {
        fill: #3f1f06;
      }

      .s {
        fill: #ba880b;
      }

      .t {
        fill: #411b06;
      }

      .u {
        fill: #de9031;
      }

      .v {
        fill: #d03e21;
      }

      .w {
        fill: #ef803d;
      }

      .x {
        fill: #3d1d05;
      }

      .y {
        fill: #eab641;
      }

      .z {
        fill: #2f1806;
      }

      .aa {
        fill: #d48b30;
      }

      .ab {
        fill: #eca03f;
      }

      .ac {
        fill: #efaf37;
      }

      .ad {
        fill: #d0a512;
      }

      .ae {
        fill: #43220a;
      }

      .af {
        fill: #30160a;
      }

      .ag {
        fill: #3f240a;
      }

      .ah {
        fill: #f1edac;
      }

      .ai {
        fill: #280500;
      }

      .aj {
        fill: #ef8640;
      }

      .ak {
        fill: #cf3e21;
      }

      .al {
        fill: #d1852d;
      }

      .am {
        fill: #c4711f;
      }

      .an {
        fill: #522907;
      }

      .ao {
        fill: #4b1e08;
      }

      .ap {
        fill: #eaa354;
      }

      .aq {
        fill: #2a0400;
      }

      .ar {
        fill: #cf3d20;
      }

      .as {
        fill: #f08b43;
      }

      .at {
        fill: #422006;
      }

      .au {
        fill: #2c0900;
      }

      .av {
        fill: #ae5c1c;
      }

      .aw {
        fill: #e18b27;
      }

      .ax {
        fill: #352613;
      }

      .ay {
        fill: #3e210a;
      }

      .az {
        fill: #c16f1e;
      }

      .ba {
        fill: #562b08;
      }

      .bb {
        fill: #311405;
      }

      .bc {
        fill: #421f08;
      }

      .bd {
        fill: #422009;
      }

      .be {
        fill: #482306;
      }

      .bf {
        fill: #efa646;
      }

      .bg {
        fill: #2e1202;
      }

      .bh {
        fill: #3e1e06;
      }

      .bi {
        fill: #c06f1e;
      }

      .bj {
        fill: #371e0f;
      }

      .bk {
        fill: #efa545;
      }

      .bl {
        fill: #301805;
      }

      .bm {
        fill: #4d2607;
      }

      .bn {
        fill: #c26f1e;
      }

      .bo {
        fill: #412006;
      }

      .bp {
        opacity: .2;
      }

      .bq {
        fill: #d13e21;
      }

      .br {
        fill: #462516;
      }

      .bs {
        fill: #f3af36;
      }

      .bt {
        fill: #eeb53e;
      }

      .bu {
        fill: #c3711f;
      }

      .bv {
        fill: #b88509;
      }

      .bw {
        fill: #e9972f;
      }

      .bx {
        fill: #401f06;
      }

      .by {
        fill: #fece5e;
      }

      .bz {
        fill: #f1bb43;
      }

      .ca {
        fill: #edb139;
      }

      .cb {
        fill: #3e1e08;
      }

      .cc {
        fill: #4c2606;
      }

      .cd {
        fill: #f0a755;
      }

      .ce {
        fill: #ae611c;
      }

      .cf {
        fill: #352008;
      }

      .cg {
        fill: #f9f6bf;
      }

      .ch {
        fill: #f1b038;
      }

      .ci {
        fill: #3d1c07;
      }

      .cj {
        fill: #f2ad35;
      }

      .ck {
        fill: #3d2613;
      }

      .cl {
        fill: #f2b83c;
      }

      .cm {
        fill: #b05e1d;
      }

      .cn {
        fill: #e99a30;
      }

      .co {
        fill: #f3ad35;
      }

      .cp {
        fill: #200200;
      }

      .cq {
        fill: #c8990d;
      }

      .cr {
        fill: #260600;
      }

      .cs {
        fill: #271602;
      }

      .ct {
        fill: #3d1d08;
      }

      .cu {
        fill: #271703;
      }

      .cv {
        fill: #552b08;
      }
    </style>
    <symbol id="a" data-name="Новый символ" viewBox="0 0 153.81 175.29">
      <g id="b" data-name="Cut 1">
        <path class="an" d="M152.12,174.29c-1.28,1.22-3.99,1.33-5.46.33-42.19-23.35-82.98-49.45-126.15-70.74-4.25-2.09-19.13-8.37-20.22-12.07-1.25-4.23,2-8.63,4.15-12.23C23.01,48.49,58.98,24.53,92.41,12.13c10.09-3.74,47.79-15.37,56.33-11.26,5.5,2.64,4.15,23.44,4.11,29.11-.28,39.11.36,78.8.32,118.15,0,5.32,1.98,23.27-1.06,26.17Z"/>
        <path class="by" d="M147.65,36.33c.92,5.08,1.46,11.42-.5,15.99-.09,37.7.06,75.66.47,113.86l-5.63-1.07c-32.71-19.42-65.68-38.34-98.91-56.74l-4.69-1.41c-1.24-.77-2.79-1.32-3.94-2.12l-.61-2.31c6.04-13.69,12.67-20.51,26.12-27,9.24-10.53,15.66-17.78,28.93-23.54,16.62-7.21,36.18-12.97,54.14-13.49.94-.38,1.81-1.13,2.62-2.23.63.09,1.65-.12,2,.06Z"/>
        <path class="o" d="M148.15,20.34c5.81,8.7-27.43,11.71-29.36,11.19-.49-1.73-1.52-1.6-2.96-1.2-.19,1.73-3.34,3.39-5.12,3.84l-.37,1.59c-13.08,3.37-25.64,7.79-37.68,13.28-14.23,11.82-28.16,23.9-41.78,36.25-5.01,11.47-7.02,13.21-19.08,8.83-1.59-.86-8.19-2.49-7.43-5.28,1.74-6.39,13.54-20.15,18.39-25.4,1.81-.95,3.53-2.57,5.15-4.84,2.8-3.29,5.31-5,8.25-7.75,3.09-2.51,4.28-.81,2.74,2.57l-6.57,6.03c31.86-23.68,67.41-42.18,106.78-48.8l1.37-.57c-.43-4.18,2.68-4.57,6.15-4.81l.86.61c.79,4.82.47,9.63.67,14.44Z"/>
        <path class="bf" d="M140.47,10.09c-.27.38.64,2.34-.74,3.01-1.88.92-6.67.73-9.25,1.33-23.41,5.52-46.59,14.19-67.33,26.45-9.14,5.4-17.6,13.16-26.36,18.41-1.28.77-10.02,6.01-7.8,1,.81-1.84,5.77-5.55,7.58-7.42,1.4-1.44,2.88-2.12-.44-2.01,10.61-9.93,19.07-15.24,31.7-22.02l.81.96c21.15-10.08,46.18-22,71.29-22.28l.52,2.57Z"/>
        <path class="bs" d="M38.4,106.96c4.09-2.21,8.3,2.72,12.17,4.57,20.32,9.71,39.85,21.13,59.38,32.5,12.21,7.11,23.9,15.3,36.68,21.32.18-39.04-1.73-78.11-1.34-117.09l.78,6.52,1.08-2.46c1.44,2.81,1.9,9.13.63,12.03,1.49,4.68,1.67,9.69.53,15.02.04,4.82-1.32,10.79.53,15.02.66,2.96.57,6.08-.28,9l.69,10.03c.82,3.66.26,7.34-.34,10.99-.13,4.41-1.17,10.2.56,14.02.79,3.32.3,6.67-.31,10-.19,6.4-1.28,13.94.38,20.02.56.3.54.97-.06,2-1.2.36-3.21-.66-4.36-1.24-34.79-22.01-71.78-40.55-106.72-62.25Z"/>
        <path class="bn" d="M110.7,34.18c.75.31.72.65-.03,1,3.05-.74,4.03-.04,2.94,2.09-16.73,4.47-35.6,9.36-48.24,22.5-3.2,3.33-4.84,6.86-8.8,10.25-5.35,4.59-14.62,8.12-18.95,12.87-4.38,4.8-6.66,13.58-12.01,18.23-1.05.47-12-6.02-13.82-7,3.6-2.01,8.4,1.92,12.03-.11.94-.53,3.8-7.9,5.78-10.36,9.26-11.46,31.1-24.35,41.75-36.11,10.82-7.92,28.51-8.76,39.35-13.36Z"/>
        <path class="cj" d="M144.66,36.24c.33.03.67-.02,1,.03.06,3.76.38,2.66-2.57,2.89-17.28,1.37-50.41,11.15-64.93,20.78-7.19,4.77-10.95,12.16-16.91,17.12-4.43,3.69-13.32,6.81-16.81,11.02-3.74,4.5-5.76,12.49-9.97,16.75-.94-.65-4.33-1.99-3.78-3.49.29-.79,8.01-13.14,8.9-14.3,4.91-6.35,15.43-9.76,21.42-15.41,7.36-6.95,7.86-11.8,18.38-17.61,12.41-6.85,19.27-7.78,32.11-11.26,6.27-1.7,12.47-5.4,19.13-5.97,1.43.78,6.86,1.1,4,.12l.03-1c3.16-.86,6.78-.54,10,.31Z"/>
        <path class="cn" d="M146.62,5.28c-6.62,1.3-2.24,2.11-3.54,3.92-.59.83-2.51.74-2.62.89-1.68-1.34-3.21-1.04-5.15-.91-25.3,1.64-43.28,12.49-65.48,21.26-1.93.76-4.24,1.12-1.99-1.6,24.05-12.91,51.09-23.14,78.77-23.56Z"/>
        <path class="bi" d="M124.73,33.61c-3.03.24-6.07.75-9.12,1.53,1.11-1.51,1.85-3.09,2.21-4.75-.97.8-1.7,1.38-2-.06,8.04-3.02,23.95-1.44,30.4-6.39,1.54-1.18,2.44-.86,1.93-3.61,0,.18.94,1.14.96,2.45.17,13.79-4.86,8.29-14.81,9.14-3.07.26-6.55,1-9.57,1.69Z"/>
        <path class="ag" d="M149.78,64.41c-.4,2.64-1.32,2.5-2-.06-.06-4.01-.57-8.46-.63-12.03-.09-5.3.51-10.68.5-15.99,2.77,1.41,1.21,18.21,1.29,21.59.05,2.27.81,4.33.84,6.49Z"/>
        <path class="ay" d="M148.91,124.41c.1-3.66.25-7.34.34-10.99l-.69-10.03c.07-2.99.14-6.01.28-9s.14-6.01.29-8.99l.99.03-.51,16.49c-.01.42.94,2.22.95,3.96.03,5.73.12,13.2-1.65,18.53Z"/>
        <path class="o" d="M117.82,30.4c2.77,1.3-1.78,3.46-1.12,3.96,1.31,1,6.21-3.54,8.03-.74-4.1.93-7.23,2.62-11.12,3.66l-2.94-2.09c1.83-2.19,4.58-3.62,7.15-4.78Z"/>
        <path class="au" d="M149.78,64.41c.06,4.58.35,11.02-1.47,14.96-.04-5.06-.45-9.98-.53-15.02l2,.06Z"/>
        <path class="au" d="M149.16,148.43c.1-3.32.18-6.67.31-10,.11-2.82.06-5.69.27-8.51.09-1.21-.64-3.74,1.1-3.45-.81,7.06.82,15.28-1.67,21.95Z"/>
        <path class="ai" d="M149.48,170.45l.06-2c.15-4.65.28-9.33.45-13.99,1.75-.18.87,2.3.88,3.51.02,2.3.29,11.97-1.39,12.47Z"/>
        <path class="by" d="M134.63,36.92c2.98-.04,6.01.27,8.99.29-.82,1.82-5.78.85-7.54.77s-4.46.5-5.45-1.19c1.3-.11,2.68.14,4,.12Z"/>
        <path class="cr" d="M144.66,36.24c-3.3-.29-6.69-.05-10-.31-1.11-.09-3.28.59-2.96-1.08,4.03.65,9.43-.95,12.96,1.39Z"/>
        <path class="bf" d="M22.75,63.45c1.61-1.74,2.81-3.83,5.15-4.84-1.05,1.24-2.09,4.79-4.69,5.84l-.46-1Z"/>
        <path class="bx" d="M124.53,95.46c-.14,6.3-10.36,11.11-16.51,11.81-6.16.7-17.1-1.36-18.94-7.29-9.9-8.46-11.3-23.25-3.17-33.42s22.87-12.05,33.3-4.24c10.43,7.8,12.78,22.47,5.32,33.14Z"/>
        <path class="bm" d="M72.95,113.78c-2.81,2.49-9.05,1.06-11.17-2.1-1.04-1.56-1.28-4.75-1.46-4.93-.96-.89-7.41,1.1-10.29-2.46-7.49-9.27,14.1-24.01,23.91-12.77,6.03,6.91.7,7.18-.11,11.18-.58,2.87,2.91,7.73-.88,11.08Z"/>
        <path class="bh" d="M137.67,132.06c.86,4.99-14.21,13.65-18.51,9.91l-3.79-.6c-2.94-1.55-5.21-1.7-7.29-5.28-8.36-14.36,21.1-29.37,31.02-19.44,3.81,3.82,1.61,11.62-1.43,15.41Z"/>
        <path class="ac" d="M124.53,95.46c5.26-.09-2,6.9-3.49,8.07-10.18,8.01-22.42,7.01-32.53-.49-.81-.6-3.66-3.16.56-3.06,5.17,4.42,11.97,6.45,18.72,5.59,6.75-.86,12.82-4.53,16.72-10.11Z"/>
        <path class="bd" d="M95.6,125.5c-5.05,4.83-15.5-10.81-9.31-13.6,4.27-1.92,13.99,9.11,9.31,13.6Z"/>
        <path class="ae" d="M135.9,49.18c5.02-.31,8.57,9.09,3.34,10.74-8.42,2.65-11.24-10.26-3.34-10.74Z"/>
        <path class="bz" d="M137.67,132.06c.64,1.25,2.44,2.33,1.46,4.06-1.42,2.51-14.95,9.21-18.18,8.45-.66-.16-.43-1.62-1.39-1.99-1.29-.49-2.24-.18-4.19-1.21,2.76-.87,6.42,1.26,8.39,1.28.67,0,.65-1.6,1.35-1.96,4.08-2.05,9.63-4.97,12.56-8.63Z"/>
        <path class="ck" d="M142.53,104.2c-.91.94-3.46-2.34-4.67-2.88-1.92-.86-4.5-.76-6.18-1.95,2.92-4.61,13.69,1.9,10.84,4.83Z"/>
        <path class="m" d="M141.91,156.2l-9.85-4.8c3.21-5.1,11.41,3.42,9.85,4.8Z"/>
        <path class="z" d="M117.82,30.4c-1.38,2.79-4.57,3.54-7.15,4.78l.03-1c.59-.25,2.17-3.22,5.12-3.84.36-.08,1.77-.04,2,.06Z"/>
        <path class="an" d="M149.25,113.42c-1.76-2.36-.77-6.89-.69-10.03,1.76,2.36.77,6.89.69,10.03Z"/>
        <path class="bq" d="M85.37,76.41c4.58-10.11,13.58-14.63,24.46-14.24,5.89-.02,14.43,9.51,15.3,15.22,3.72,24.46-28.73,33.63-38.66,14-3.04-6-2.79-8.78-1.1-14.98Z"/>
        <path class="l" d="M109.83,62.16c-1.15,0-8.54,1.68-10.06,2.2-2.34.79-4.62,2.97-7.07,3.83l-7.32,8.22c3.24-11.88,12.73-15.72,24.46-14.24Z"/>
        <path class="av" d="M71.7,97.99c-.69,2.37-4.91.77-7.06,1.17-2.54.47-16.25,7.31-9.9-2.7,4.76-3.85,15.16-6.34,16.96,1.53Z"/>
        <path class="ce" d="M64.48,104.78c9.22-2.99,6.16,11.73,1.41,4.98-.49-.69-1.75-4.56-1.41-4.98Z"/>
        <path class="al" d="M71.7,97.99c-2.51-4.35-5.2-4.96-10.15-4.08l-6.81,2.56c3.94-6.21,19.05-5.66,16.96,1.53Z"/>
        <path class="ak" d="M136.07,119.01c7.45,2-8.1,23.35-20.65,18.92-3.37-1.19-5.12-4.22-4.71-7.71,4.81-9.38,15.25-13.87,25.36-11.22Z"/>
        <path class="cd" d="M136.07,119.01c-1.93,1.27-4.14-.39-6.45-.24-7.96.51-13.72,6.03-18.91,11.46,1.13-9.67,17.09-15.61,25.36-11.22Z"/>
        <path class="bv" d="M92.93,122.66c-1.39,1.53-5.99-5.9-4.77-7.14,1.38-1.41,6.44,4.8,4.77,7.14Z"/>
        <path class="cs" d="M128.95,122.8l-11.23,7.64c-1.48-1.63,8.48-9.5,11.23-7.64Z"/>
      </g>
    </symbol>
    <symbol id="c" data-name="Новый символ 1" viewBox="0 0 176.09 189.59">
      <g id="d" data-name="Cut 2">
        <path class="cv" d="M25.84,2.52c4.24-2.49,4.57-.82,1,5l.54,2.79C15.62,31.04,9.69,55.07,6.97,78.61l-2.13,1.91c.67,6.97.67,14.03,0,21,2.35,4.19,3.63,9.1,3.83,14.74,2.34,7.31,3.4,14.4,3.17,21.26l2.5,1.52c3.38,14.62,8.97,28.15,16.74,40.59l-.24,2.89c2.14,2.01,4.14,2.01,6,0-.7-3.17,5.12-7.18,8-6,2.72-.35,5.27-2.88,6.05-5.48-.38-3.1.22-4.96,2.95-2.52-.34-2.64,1.63-4.7,4-3-.56-2.64.14-2.84,2-1l6.59-5.84c35.33-23.96,69.8-48.01,103.41-72.16-32.73-18.53-68.3-38.87-101.97-58.42-3.01-1.75-5.54-4.18-8.03-6.58-2.03-1.83-4.24-3.05-6.62-3.67-1.41-5.94,2.47-4.04,5.62-1.33,10.11,4.78,19.91,10.37,29.67,15.83,24.92,13.92,59.77,31.65,82.24,47.76,4.87,3.49,8.11,7.01,2,11.82-35.65,25.43-73.12,48.61-108.23,74.77-4.81,3.59-26.16,22.3-29.26,22.8-6.26,1.02-9.89-6.69-12.6-11.31C5.66,149.18-3.05,105.4.97,72.15,2.84,56.62,14.55,12.63,25.84,2.52Z"/>
        <path class="cc" d="M58.84,16.52c-2.84-1.34-4.8-3.38-3.93.43l4.93,4.57c-1.1,1.34-3.06,1.19-5.86-.46-12.07,21.02-17.33,47.62-17.85,71.56,1.44,10.79,2.18,21.65,2.21,32.57,5.66,13.8,11.32,27.57,16.97,41.33l-1.47,1.99c-3.56,1.76-.81.66-2.52,3.95-.3.57-5.21,6.64-6.48,4.05l-.05-2.54c2.73-.1,3.96-1.83,5.05-4.46-3.89-1.24-6.68-8.71-7.8-12.85l-1.39-9.93c-5.23-7.3-8.5-15.04-9.81-23.22l-1.84-3.03c-1.78-21.73-2.71-44.69,5.44-65.14.17-13.85,4.58-28.12,14.09-37.87l.31-2.96c-2.05.62-4.72-.41-8-3.12-5.07-3.91-9.74-5.2-14-3.88l-1.01-.52c.89-2.4,4.13-4.85,0-4.48,1.3-1.16,1.42-2.23,3.87-2.5,4.76-.53,25.17,12.06,29.13,16.5Z"/>
        <path class="by" d="M167.84,87.52c-33.92,24.75-68.32,48.88-103.21,72.4l-4.79,4.6c-.75.52-1.54.7-2,1-3.9.22-7.17-8.57-8.41-12.33l-2.97-12.91c-7.79-10.84-8.98-20.01-7.62-33.05-4.11-15.55-2.98-31.36,3.39-47.43.98-11.38,3.76-43.68,21.57-33.6,30.29,16.55,60.12,33.92,89.93,51.32,5.01,2.92,9.84,6.03,14.1,9.99Z"/>
        <path class="o" d="M48.84,14.52c.51.45,1.59.61,1.93,1.49-4.38,6.44-10.52,16.89-12.65,24.29-1.48,5.13-.7,9.71-1.54,14.46-1,5.69-3.68,10.87-4.9,16.1-4.1,17.6.41,34.35-.85,52.65.36,6.57,2.54,11.02,6.09,16.48,0,3.66,1.12,6.52,3.38,8.56-2.39,3.98,3.28,18.27,6.18,21.09,1.09-1.01,2.01-1.08,3.35-.12.84,3.76-2.31,4.57-5,7s-5.27,4.03-8,6c-1.97,2.18-3.97,2.18-6,0-9.14-10.68-15.3-31.6-19-45-.12-11-1.45-22.13-3.98-33.37-2.71-29.11,3.75-53.18,13.68-79.81,4.94-13.24,10.55-20.82,24.15-9.98l3.15.15Z"/>
        <path class="p" d="M59.84,21.52c36.07,19.05,70.44,41.43,106.23,61,.57,1.18,3.62,3.38,3.77,4-.38,1.17-1.06,1.95-2,1-34.81-19.95-69.65-40.3-104.96-59.54-5.69-2.63-8.07-3.75-11.6,2.49-6.33,11.17-5.12,14.77-6.58,26.43-1.61,12.91-8.12,23.85-6.91,37.17.41,4.57,2.6,8.48,3.03,12.97.61,6.31-1.4,12.63.28,18.73,1.28,4.65,5.35,9.06,7.21,13.78,2.05,5.18,1.81,9.21,3.18,13.82,1.02,3.4,4.61,8.78,6.34,12.16-1.3.86-1.12,1.58-4,3-1.15-4.44-4.68-8.39-5.76-12.74-3.43-13.73-3.59-11.81-9.42-23.58-4.74-9.57-2.17-18-2.83-28.17-.76-11.83-3.51-17.35-.5-30.52,2.39-10.44,3.9-16.43,5.62-27.38,1.44-9.2,8.57-18.9,11.91-27.61.7-.53,5.84,2.39,6.99,3Z"/>
        <path class="am" d="M48.84,14.52l-1.49,2.98c-3.46-2.19-12.52-8.71-16.06-6.06-2.23,1.67-8.19,14.12-9.62,17.41-9.84,22.63-13.51,50.55-11.81,75.16.65,9.4,4.8,21.03,4.05,30.11-.16,2.01-.14,2.45-2.06,3.4-3.38-12.24-6.27-22.95-7-36,.67-6.97.67-14.03,0-21C5.94,60.78,15.53,23.74,26.84,7.52c1.48-2.12,2.09-3.62,5.24-2.82,2.26.57,14.6,7.92,16.76,9.82Z"/>
        <path class="cg" d="M59.84,164.52l4.08-5.42c34.5-24.04,69.65-47.22,103.92-71.58.59-.42,1.37-.63,2-1,.35,1.42-.93,2.73-2.06,3.44-36.35,24.31-71.89,49.84-107.94,74.56Z"/>
        <path class="k" d="M4.84,101.52c-.36-6.43-.36-14.57,0-21,1.67,6.09,1.67,14.91,0,21Z"/>
        <path class="y" d="M36.84,182.52c-.79.57-1.47,3.36-3.39,2.95-1.38-.56-1.8-2-2.61-2.95l.49-.98c1.59,2.19,3.22,1.96,5.51.98Z"/>
        <path class="bu" d="M49.84,169.52l-4.01,3.52c-1.83-4.42-4.9-9.21-6.51-13.56-.41-1.1-2.56-8.92-2.56-9.41,0-1.06,2.61.12,2.07-1.53-4.53-.4-2.59-6.5-4.26-10.25-3.77-8.49-4.6-2.18-3.74-14.76,1.8,3.03,2.02,6.63,3.6,9.9,1.88,3.9,6.48,8.22,7.91,12.09s.98,8.36,1.93,12.07c1.19,4.6,4.6,7.68,5.56,11.94Z"/>
        <rect class="cp" x="33.84" y="114.52" width="1.01" height="9.99"/>
        <path class="r" d="M92.72,85.69c11.17,7.91,14.07,23.23,6.57,34.68s-22.71,14.9-34.42,7.81-15.7-22.16-9.05-34.12c-1.03-6.82,10.08-12.32,16.32-13.56,6.36-1.27,18-1.06,20.57,5.19Z"/>
        <path class="i" d="M136.07,97.75c-1.75,3.02.41,7.12-5.86,10.63-15.8,8.86-26.64-19.67-13.92-26.91,7.06-4.02,9.85,2.56,12.19,2.98,1.73.31,3.83-4.74,9.04-3.2s6.94,7.31,4.37,11.82c-1.1,1.93-5.5,4.13-5.81,4.68Z"/>
        <path class="at" d="M80.84,47.52c22.24,12.06-16.9,38.05-28.44,22.94-4.64-6.08-2.32-12.82,2.44-17.94,2.5-8.37,19.14-10.35,25.79-6.38.26.15.27.71.21,1.38Z"/>
        <path class="ch" d="M55.82,94.07c-2.74.63-3.69,1.2-2.57-1.64,5.69-14.46,32.91-18.49,42.62-7.45,3.38,3.85-.67,1.58-3.16.71-5.89-4.17-13.28-5.64-20.31-4.04-7.04,1.6-13.07,6.11-16.58,12.42Z"/>
        <path class="ct" d="M102.54,59.71c6.47-2.01,17.7,5.31,12.76,10.76-6.54,7.23-22.74-7.66-12.76-10.76Z"/>
        <path class="cb" d="M58.48,134.65c6.17-2.09,15.73,7.54,10.31,12.33-6.37,5.62-16.72-10.16-10.31-12.33Z"/>
        <path class="cl" d="M80.84,47.52c-8.4-4.55-19.69-1.78-26,5-3.42-3.13,7.02-8.41,8.71-8.79,3.12-.71,13.18-.6,16.04.54,1.68.67,2.83,1.53,1.25,3.25Z"/>
        <path class="ax" d="M64.84,36.53c-1.93,4.29-5.65.68-7-2l7,2Z"/>
        <path class="ab" d="M27.35,51.52c1.71-.39,2.03,1.38,2.49,2.54,1.74,4.32-2.46,17.2-2.99,22.97-.22,2.42.97,16.49-1.51,16.47-3.42-.03-3.72-17.68-3.54-20.52.21-3.22,2.97-20.86,5.55-21.46Z"/>
        <path class="cf" d="M37.83,32.52c.54.65-2.31,6.73-3.99,6.99-.55-1.08,2.26-9.08,3.99-6.99Z"/>
        <path class="bq" d="M99.52,108.49c-3.85,13.46-14.28,19.4-27.85,18.57-10.96-3.3-17.47-14.55-14.87-25.7,2.6-11.15,13.41-18.36,24.71-16.48s19.18,12.22,18.01,23.61Z"/>
        <path class="w" d="M71.68,127.06c2.63-2.52,6.32-1.19,9.43-1.77,9.07-1.71,14.49-9.38,18.42-16.8-.66,6.44-4.16,12.25-9.55,15.85s-12.1,4.59-18.3,2.72Z"/>
        <path class="cm" d="M116.84,98.52c-1.75-5.93-1.8-9.8,3.5-13.98,1.95,2.21,5.05,3.89,5.52,6.97l1.44-.02c4.74-7.76,17.89-4.66,8.54,2.03l-8,2c-.67.31-.8,2.66-4,1v3s7,0,7,0c.19,2.69.28,3.62-2,5-5.68,1.32-9.63-.78-12-6Z"/>
        <path class="aa" d="M128.84,104.52c-5.75,3.45-10.35-.4-12-6l3.99,4.51,8.01,1.49Z"/>
        <path class="u" d="M135.84,93.52c-2.3,1.64-5.19,2.31-8,2,2.01-.91,6.36-3.98,8-2Z"/>
        <path class="ar" d="M82.84,59.52c-6.49,7.54-17.21,14.21-27,9-9.26-9.49,10.58-24.61,22.7-18.2,4.24,2.25,5.84,4.98,4.3,9.2Z"/>
        <path class="ap" d="M82.84,59.52c-2.95,8.13-20.04,16.13-27,9l6.49,1.09c3.89.13,7.53-1.37,10.81-3.28l9.69-6.81Z"/>
        <path class="j" d="M112.83,68.51c-2.14.82-10.56-1.76-9.99-4.48.91-4.36,12.06,2.68,9.99,4.48Z"/>
        <path class="cq" d="M66.83,144.51c-2.94,1.51-8.1-5.9-6.99-6.99,2.53-1.05,8.37,5.7,6.99,6.99Z"/>
        <path class="h" d="M86.83,98.52c-.49-.57-6.59-3.74-4.98-4.99,3.18-.47,5.38,1.8,4.98,4.99Z"/>
        <path class="cu" d="M76.84,55.53c-1.88,4.71-5.21,8.93-9.99,10.99l9.99-10.99Z"/>
        <polygon class="ao" points="62.06 59.17 64.22 59.6 62.98 65.93 60.81 65.5 62.06 59.17"/>
      </g>
    </symbol>
    <symbol id="e" data-name="Новый символ 2" viewBox="0 0 148.46 176.01">
      <g id="f" data-name="Cut 3">
        <path class="ba" d="M138.74.1c4.72-.77,5.79,3.31,6.25,7.34,3.06,27.2-.61,63.54-.04,92.04.34,16.97,1.54,34.32,2.96,51.04.81,9.56,2.56,25.53-10.42,25.5-42.85-.1-100.27-26.46-129.01-58.07-3.51-3.86-10.39-10.74-7.96-16,1.03-2.23,21.84-18.48,25.58-21.41,28.16-22.06,59.15-43.97,88.58-64.42,4.23-2.94,20.64-15.46,24.07-16.02Z"/>
        <path class="by" d="M139.98,4.93c1.29,1.72,1.57,4.58,0,6-.14,41.22-.1,83.59.57,124.79l-1.57,1.21c-3.39,1.07-7.34.84-11.83-.68-26.29-1.25-46.13-7.22-67.01-23.3-3.11-2.39-27.87-23-27.97-26.4-.04-1.25.09-2.24,1.16-2.99C66.25,57.69,102.5,31.34,136.86,8.57l1.12-2.63c.32-.18.7-1.68,1.5-1.94.55-.03.45.91.5.94Z"/>
        <path class="aw" d="M24.98,88.93c.31,1.76-.24,2.73-1.4,3.76,20.21,24.9,50.48,44.71,82.45,48.61,2.38,2.51,4.97,4.41,7.79,5.69,9.26-1.63,27.61-2.71,28.17,9.94,1.7,3.57-.06,9.27-2,4l-4.07,1.61c-39.79-.22-74.85-13.99-106.22-38.14,2.47,1.69,3.57,3.54,3.29,5.54,1.06,2.24-.11,1.84-2,1-3.47-2.76-6.52-4.21-10-8-4.55-3.94-8.85-8.5-13-13-1.06-.88-4.14-3.7-3.57-5,.65-1.48,18.74-17.24,20.04-17,.42.22.35.86.53,1Z"/>
        <path class="co" d="M137.98,5.93c1.9,1.09,1.17,3.1-.01,4.49-1.86,2.19-11.9,7.26-15.3,9.69-25.92,18.54-52.23,37.14-77.6,56.4-1.59,1.21-10.89,8.34-11.01,9.04-.59,3.36,12.22,12.32,14.94,14.86,13.37,12.51,22.47,19.84,39.75,27.25,14.14,6.07,36.06,4.26,50.23,9.27,1.88-2.03,2.71-1.69,3,1,.85.27.66,1.37,0,2-.02.11-.9,1.85-1,2-2.36,1.2-3.81.86-6.31.16-13.67-1.56-28.53-3.58-41.72-7.57-8.51-2.58-16.98-5.33-22.97-11.59-12.68-6.63-17.05-13.13-26.99-22.51-4.99-4.71-12.11-7.65-14.97-14.88,11.13-9.34,22.95-17.82,34.64-26.42,22.42-16.5,51.7-40.22,75.32-53.18Z"/>
        <path class="az" d="M69.98,126.93l2.66-.65c20.93,9.42,43,15.13,66.21,17.14l1.13,1.51c.72,1.24,2.62,1.66,3,4-.24,2.82-.57,5.48-1,8-1.47-6.59-10.34-8.35-16.49-9.01-4.07-.43-11.02,1.37-12.9,1.07-.66-.1-.59-1.75-.77-1.84-.62-.3-1.66.95-2.64.62-.29-.1-2.4-4.1-3.88-4.63-2.76-.99-8.04-.8-11.36-1.68-25.09-6.6-53.05-24.32-69.48-44.52-3.6-4.43-4.53-4.42.51-8.01,2.41,1.88,4.07,5.77,6.46,8.04,11.89,11.34,23.93,22.44,38.54,29.96Z"/>
        <path class="bw" d="M139.98,160.93l1.99,1.01c.05-1.66-.04-3.34,0-5.01.07-2.52-.82-6.32,1-8,.45,2.8.29,20.96-1.14,21.86-40.62-.33-79.43-14.92-110.86-39.86l2-1,2.88-.25c29.38,22,65.08,33.67,102.04,36.11-.33-2.59.37-4.21,2.08-4.86Z"/>
        <path class="be" d="M140.98,141.93c-.36.53-1.3,1-1.99,1.02-.32,1.44.59.85,1.84,1.13.05.46-.88.8-.85.85-7.31-1.12-14.97-.78-22.22-2.28-3.77-.78-7.31-2.95-10.51-3.49-18.56-3.14-20.41-3.56-37.26-12.24l3.01-1.5-4.01-1.51,1-.99c21.82,11.4,40.01,14.58,64.39,17.11,2.18.23,4.57,1.09,6.61,1.89Z"/>
        <path class="br" d="M142.98,92.93c-.34,8.08-.67,16.08-1,24-1.45,1.39-2.11.52-1.97-2.61l-.03-103.39v-6c3.95,2.54,1.03,4.53,1.19,7.5,1.49,26.51,1.44,53.92,1.81,80.5Z"/>
        <path class="aq" d="M142.98,92.93c.22,15.82-.16,31.68,0,47.52l-1-.52c.12-.56-.05-1.35,0-2-1.74-2.1-2.13-18.26-1.33-19.71.28-.52.78-.92,1.33-1.29.01-7.76-.85-16.57,1-24Z"/>
        <path class="ca" d="M20.98,122.93h-1c-4.57-3.32-8.67-7.42-12-12v-1c5.65,4.67,8.45,8.05,13,13Z"/>
        <path class="bb" d="M19.98,122.93c-4.46-2.02-9.94-7.49-12-12l12,12Z"/>
        <rect class="bg" x="143.98" y="148.93" width="1" height="16"/>
        <path class="bo" d="M118.87,79.04c9.22,9.45,9.22,24.53.02,33.99s-24.27,9.88-33.98.93-10.52-24-1.84-33.94c1-6.13,11.43-10.05,17.63-10.21s16.78,3.05,18.16,9.23Z"/>
        <path class="x" d="M129.98,42.93c8.02,7.91,9.11,26.31-4.54,27.04-19.28,1.02-30.32-29.32-13.46-32.04,3.96-4.08,16.14-.53,18,5Z"/>
        <path class="ah" d="M141.98,116.93c0,6.72.54,14.46,0,21-1.11-.01-2.01-.65-3-1l1-126c0,33.46.57,67.03.98,100.51.02,1.69-.64,4.45,1.02,5.49Z"/>
        <path class="ac" d="M118.87,79.04c-4.75-4.87-11.31-7.53-18.11-7.35s-13.21,3.2-17.68,8.33c-5.16.12,1.49-5.4,2.97-6.52,9.59-7.28,19.59-7.34,29.63-.76,2.08,1.36,5.6,3.19,3.2,6.3Z"/>
        <path class="ci" d="M56.71,81.16c12.13-2.5,13.35,9.5,4.33,12.32-12.36,3.87-15.58-10.01-4.33-12.32Z"/>
        <path class="bc" d="M129.66,116.08c4.99-.41,7.28,13.94-.18,13.94s-5.43-13.48.18-13.94Z"/>
        <path class="n" d="M127.69,20.13c8.99-2.71,8.09,8.84.86,7.83-4.39-.61-4.88-6.61-.86-7.83Z"/>
        <path class="bt" d="M129.98,42.93c-4.63-4.57-11.7-6.02-18-5l-1.49-2c6.2-2.38,13.63-.97,18.54,3.48,1.24,1.12,2.37,1.85.95,3.52Z"/>
        <path class="bj" d="M73.99,66.93c-.51-2.84.69-1.64,2.19-2.25,4.76-1.91,7.07-2.87,10.79-6.75.17,6.35-7.38,9.8-12.98,8.99Z"/>
        <path class="af" d="M70.98,105.94c-1.16,5.64-12.14-.12-10-2,1.03-.91,7.67,3.29,10,2Z"/>
        <path class="bk" d="M139.98,160.93c-.03,1.89.68,6.34-1.58,6.88-25.73-2.16-49.5-6.79-72.78-18.03-10.01-4.83-24.16-12.83-32.64-19.86-2.52-2.09-5.83-3.89-6.03-7.48-.09-1.57-.16-1.74,1.51-1.51,20.4,14.81,42.36,28.85,67.29,34.72,14.68,3.45,29.31,3.69,44.23,5.27Z"/>
        <path class="bq" d="M121.39,101.03c-5.09,10.39-13.83,15.47-25.39,14.84-10.98-2.96-17.5-14.23-14.6-25.23s14.16-17.57,25.16-14.71,17.63,14.08,14.82,25.1Z"/>
        <path class="aj" d="M121.39,101.03c-1.37,5.35-4.82,9.94-9.59,12.73s-10.46,3.55-15.8,2.11c5.49-1.58,11.31-1.91,16.32-5.1l9.06-9.74Z"/>
        <path class="v" d="M130.98,61.93c-7.28,7.39-15.25-.24-21-6-10.87-19.24,16.62-18.87,21.23-4.73,1.36,4.18,1.15,6.75-.23,10.73Z"/>
        <path class="as" d="M130.98,61.93c-.45,1.3-.78,2.75-2.23,3.34-8.42,3.43-15.09-2.82-18.77-9.34l12.75,7.82c.88.26,1.76.32,2.67.19,2.02-.28,4.15-3.67,5.58-2.01Z"/>
        <path class="ad" d="M62.71,88.68c-2.36,2.27-6.8,2.6-9.72,1.24-.3-7.01,14.75-6.08,9.72-1.24Z"/>
        <path class="s" d="M129.97,126.93c-2.8,2.6-2.69-6.85-.48-6.98s1.34,6.18.48,6.98Z"/>
        <polygon class="q" points="96.93 84.54 97.95 87.06 92.94 89.08 91.92 86.55 96.93 84.54"/>
        <path class="bl" d="M112.98,96.94c.4,2.63-.41,5-2.99,5.99.73-1.6-.07-6.78,2.99-5.99Z"/>
        <path class="t" d="M123.99,58.93l-1-6c2.91,1.57,5.91,5.92,1,6Z"/>
      </g>
    </symbol>
  </defs>
  <use width="153.81" height="175.29" transform="translate(42.05 10.56)" xlink:href="#a"/>
  <use width="148.46" height="176.01" transform="translate(48.97 213.43)" xlink:href="#e"/>
  <use width="176.09" height="189.59" transform="translate(8.63 113.84)" xlink:href="#c"/>
  <g class="bp">
    <use width="148.46" height="176.01" transform="translate(351.03 186.57) rotate(-180)" xlink:href="#e"/>
    <use width="153.81" height="175.29" transform="translate(357.95 389.44) rotate(-180)" xlink:href="#a"/>
    <use width="176.09" height="189.59" transform="translate(391.37 286.16) rotate(-180)" xlink:href="#c"/>
  </g>
</svg>