<?xml version="1.0" encoding="UTF-8"?>
<svg id="a" data-name="Слой 1" xmlns="http://www.w3.org/2000/svg" xmlns:xlink="http://www.w3.org/1999/xlink" viewBox="0 0 500 500">
  <defs>
    <style>
      .f {
        fill: url(#c);
      }

      .g, .h {
        opacity: .25;
      }

      .i {
        fill: none;
      }

      .j {
        fill: url(#e);
      }

      .k, .h {
        fill: #8c8c8c;
      }

      .l {
        fill: #7d7c7c;
      }
    </style>
    <pattern id="c" data-name="Новый образец узора 1" x="0" y="0" width="10" height="20" patternTransform="translate(-41 11095.85) rotate(156.41) scale(2.7)" patternUnits="userSpaceOnUse" viewBox="0 0 10 20">
      <g>
        <rect class="i" width="10" height="20"/>
        <rect class="h" width="5" height="20"/>
        <rect class="i" x="5" width="5" height="20"/>
      </g>
    </pattern>
    <pattern id="e" data-name="Новый образец узора 1" patternTransform="translate(-1.31 -31815.48) rotate(-143) scale(3)" xlink:href="#c"/>
  </defs>
  <g id="b" data-name="13%">
    <g>
      <path class="f" d="M264.13,263.45l211.22,82.81c-15.75,36.92-40.78,69.76-72.52,95.09-14.85,11.85-30.96,21.94-47.91,30.01l-90.8-207.91Z"/>
      <path class="k" d="M268.83,267.98l203.19,79.66c-15.63,35.58-40.02,67.22-70.76,91.75-14.02,11.19-29.17,20.79-45.09,28.58l-87.34-200M259.42,258.92l94.24,215.79c17.9-8.29,34.92-18.79,50.73-31.41,33.19-26.48,58.46-60.26,74.26-98.44l-219.23-85.95h0Z"/>
    </g>
  </g>
  <g id="d" data-name="0.208">
    <g>
      <path class="j" d="M261.85,246.45L401.45,57.15c14.74,11.63,28.21,25.04,40.06,39.89,40.82,51.15,59.28,115.13,51.97,180.17-2.12,18.85-6.38,37.36-12.67,55.09l-218.96-85.85Z"/>
      <path class="k" d="M401.92,60.73c13.8,11.13,26.45,23.86,37.63,37.87,40.4,50.63,58.67,113.96,51.44,178.33-2,17.79-5.93,35.29-11.69,52.09l-213.51-83.71L401.92,60.73M400.96,53.6l-143.06,193.98,224.39,87.97c6.79-18.52,11.42-37.97,13.67-58.07,7.38-65.7-11.27-130.33-52.51-182.01-12.62-15.81-26.89-29.83-42.5-41.88h0Z"/>
    </g>
  </g>
  <g class="g">
    <path class="k" d="M243.18,246.49L389.39,48.23c-32.98-22.85-71.66-37.3-112.04-41.84C212.32-.91,148.34,17.55,97.18,58.37,46.03,99.19,13.84,157.48,6.54,222.52c-7.3,65.03,11.15,129.02,51.97,180.17,40.82,51.15,99.12,83.34,164.15,90.65,40.38,4.54,81.3-.98,118.53-15.94l-98.59-225.75.58-5.15ZM238.84,74.47c2.16-19.21,19.48-33.03,38.69-30.87,19.21,2.16,33.03,19.48,30.87,38.69s-19.48,33.03-38.69,30.87-33.03-19.48-30.87-38.69Z"/>
  </g>
  <circle class="k" cx="285.9" cy="92.32" r="17.09"/>
  <path class="l" d="M321.63,206.69c1.96-3.96,5.09-6.26,9.4-6.9,2.13-.31,4.35-.05,6.65.79s4.33,2.63,6.1,5.36c2.19,3.44,3.75,8.39,4.7,14.82,1.01,6.88.83,12.29-.54,16.21-.61,2-1.62,3.66-3.01,5-1.39,1.34-2.64,2.23-3.76,2.66s-2.22.76-3.33.97c-1.15.17-2.33.21-3.52.11s-2.65-.61-4.38-1.53c-1.72-.93-3.16-2.23-4.32-3.92-2.45-3.36-4.18-8.48-5.19-15.36-1.14-7.73-.74-13.8,1.2-18.21ZM336.5,203.68c-1.54-1.22-3.22-1.7-5.04-1.44s-3.36,1.22-4.48,2.84c-.94,1.32-1.44,3.02-1.49,5.12-.05,2.09.4,6.38,1.35,12.87,1.03,7.02,1.89,11.61,2.57,13.78.68,2.17,1.74,3.8,3.17,4.91,1.44,1.15,3.07,1.59,4.89,1.32s3.19-1.15,4.24-2.67c1.09-1.52,1.62-3.5,1.57-5.95s-.53-6.98-1.46-13.6c-.95-6.44-1.75-10.65-2.41-12.64-.66-1.99-1.63-3.5-2.91-4.54ZM359.21,236.88c-.16-1.07.08-2.05.72-2.96s1.53-1.45,2.69-1.62c1.07-.16,2.05.06,2.95.65s1.47,1.49,1.69,2.68c.16,1.11-.07,2.12-.71,3.03s-1.53,1.45-2.69,1.62-2.16-.07-3.03-.71c-.87-.64-1.41-1.54-1.62-2.69ZM376.51,209.22c-1.2.18-2.21-.08-3.04-.78-.83-.69-1.33-1.62-1.5-2.77-.46-3.15.31-6.06,2.32-8.71,2.01-2.66,4.77-4.24,8.28-4.76,4.04-.6,7.6.15,10.67,2.24s4.93,5.1,5.55,9.05c.28,1.91.11,3.8-.53,5.66s-1.48,3.53-2.53,5-2.59,3.38-4.6,5.71c-1.4,1.61-3.32,3.98-5.76,7.11l-3.38,4.31,5.07-.68c6.97-1.03,10.66-1.68,11.07-1.97.3-.13.54-2.19.73-6.16l-.03-.2,2.66-.39.03.2c-.02.14-.02,2.2.03,6.19.04,3.99.01,6.08-.1,6.28l.03.2-24.71,3.64-.19-1.27-.12-.8c-.05-.31.04-.66.25-1.06s.77-1.27,1.65-2.63c1.08-1.61,2.01-3.02,2.78-4.22.33-.5.97-1.44,1.9-2.8s1.57-2.3,1.9-2.8.87-1.33,1.61-2.48c.74-1.15,1.25-2,1.53-2.54.28-.54.7-1.28,1.24-2.22s.9-1.72,1.08-2.34.42-1.31.71-2.08.48-1.52.55-2.26.13-1.43.17-2.07,0-1.38-.12-2.23c-.41-2.8-1.52-5.11-3.33-6.93s-4.11-2.52-6.91-2.11c-1.47.22-2.7.78-3.7,1.7s-1.67,1.77-2.01,2.54-.5,1.23-.48,1.36c0,.04.12.05.34.02.8-.12,1.67.07,2.6.57s1.51,1.46,1.72,2.88c.16,1.11-.05,2.09-.65,2.95s-1.54,1.41-2.82,1.64ZM407.75,194.01c1.96-3.96,5.09-6.26,9.4-6.9,2.13-.31,4.35-.05,6.65.79s4.33,2.63,6.1,5.36c2.19,3.44,3.75,8.39,4.7,14.82,1.01,6.88.83,12.29-.54,16.21-.61,2-1.62,3.66-3.01,5-1.39,1.34-2.64,2.23-3.76,2.66s-2.22.76-3.33.97c-1.15.17-2.33.21-3.52.11s-2.65-.61-4.38-1.53c-1.72-.93-3.16-2.23-4.32-3.92-2.45-3.36-4.18-8.48-5.19-15.36-1.14-7.73-.74-13.8,1.2-18.21ZM422.62,191c-1.54-1.22-3.22-1.7-5.04-1.44s-3.36,1.22-4.48,2.84c-.94,1.32-1.44,3.02-1.49,5.12-.05,2.09.4,6.38,1.35,12.87,1.03,7.02,1.89,11.61,2.57,13.78.68,2.17,1.74,3.8,3.17,4.91,1.44,1.15,3.07,1.59,4.89,1.32s3.19-1.15,4.24-2.67c1.09-1.52,1.62-3.5,1.57-5.95s-.53-6.98-1.46-13.6c-.95-6.44-1.75-10.65-2.41-12.64-.66-1.99-1.63-3.5-2.91-4.54ZM440.55,195.37c-.5-3.42.29-6.35,2.38-8.79s4.69-3.91,7.79-4.41c3.15-.46,6.09.06,8.8,1.56s4.29,3.75,4.73,6.72c.2,1.33.14,2.61-.18,3.84s-.76,2.24-1.32,3.05-1.16,1.53-1.79,2.17-1.15,1.12-1.56,1.45-.62.55-.65.64l1.02.46c.69.35,1.37.71,2.06,1.06s1.08.54,1.17.58c3.72,2.13,5.87,5.19,6.46,9.19.52,3.51-.32,6.74-2.52,9.69-2.2,2.95-5.33,4.76-9.41,5.4-4,.59-7.45-.06-10.36-1.95-2.91-1.89-4.61-4.49-5.1-7.82-.71-4.8,1.57-9.21,6.83-13.25l-1.33-.69c-1.02-.44-1.68-.8-1.99-1.07-2.85-1.8-4.53-4.41-5.03-7.83,0,0,.5,3.42,0,0ZM456,200.45l.36-.33c.24-.22.42-.38.54-.49s.32-.3.6-.56.51-.53.7-.78.39-.56.62-.91.42-.67.61-.97.35-.69.51-1.16.3-.88.43-1.22.18-.8.14-1.38-.07-1.08-.08-1.49c-.28-1.91-1.16-3.44-2.65-4.58s-3.1-1.77-4.84-1.87c-.32,0-1.05.09-2.21.26-1.82.27-3.45,1.1-4.87,2.49s-2.04,2.95-1.83,4.69c.15,1.02.58,1.91,1.28,2.67s1.37,1.32,2.02,1.68,1.86.91,3.64,1.64c.34.18.61.3.8.36l4.24,1.96ZM457.18,225.11c2.58-.38,4.68-1.46,6.33-3.25,1.64-1.78,2.31-3.74,1.99-5.87-.11-.75-.33-1.45-.65-2.08s-.67-1.15-1.04-1.55-.94-.81-1.68-1.25-1.31-.76-1.71-.97-1.1-.54-2.12-.98c-1.02-.44-1.67-.73-1.97-.87-.68-.31-1.41-.63-2.18-.97s-1.41-.63-1.9-.88l-.58-.25c-.27.04-.85.51-1.76,1.42s-1.8,2.28-2.66,4.13c-.86,1.85-1.17,3.76-.93,5.72.39,2.62,1.66,4.63,3.82,6.04,2.16,1.41,4.51,1.95,7.04,1.62Z"/>
  <path class="l" d="M345.99,315.17l-.84-.43c-.59-.32-1.35-.84-2.3-1.57s-1.93-1.59-2.96-2.61l-.85-.96,2.32-2.07.85.96c1.47,1.52,3.03,2.75,4.66,3.71s2.88,1.53,3.72,1.74,1.64.35,2.37.42c.16-.02.39.13.69.47.27.3.42.68.46,1.13l-15.06,13.43-15.06,13.53c-.03.44,0,.78.09,1.01s.37.69.88,1.39,1.4,1.77,2.68,3.21l1.17,1.31-2.32,2.07-.49-.55c-.53-.79-2.86-3.51-6.99-8.14s-6.47-7.16-7.2-7.77l-.54-.6,2.32-2.07,1.17,1.31,1.71,1.91c.48.54.87.94,1.17,1.21s.59.5.87.67.43.28.46.31.2.06.52.08.47.06.47.12l26.04-23.22ZM359.02,341.44c-.81-.91-1.15-1.87-1.03-2.88s.62-1.94,1.5-2.78c1.85-1.65,4.21-2.31,7.09-1.98s5.34,1.63,7.38,3.91c1.05,1.18,1.69,1.93,1.93,2.26,1.81,2.84,2.62,5.53,2.41,8.07s-1.1,4.54-2.69,6.01c-1.75,1.56-3.95,2.5-6.61,2.82s-5.26-.19-7.8-1.55l-.24-.06s.05.23.25.59.49.98.85,1.86.58,1.83.65,2.86c.68,4.34-.45,7.81-3.37,10.42-2.65,2.37-5.9,3.39-9.73,3.08-3.84-.31-7.18-2.07-10.02-5.26-2.4-2.69-3.74-5.65-4.03-8.88-.29-3.23.67-5.84,2.88-7.82.94-.84,1.97-1.21,3.07-1.11s2.09.58,2.93,1.46c.84.94,1.22,1.98,1.16,3.13s-.55,2.12-1.46,2.93c-.37.33-.75.58-1.14.75s-.77.29-1.12.37-.72.07-1.1-.01-.69-.17-.94-.25-.47-.19-.65-.32c-.18-.14-.35-.23-.51-.27l-.23-.16c.02,3.06,1.12,5.82,3.3,8.27,1.65,1.85,3.78,2.45,6.4,1.8,1.62-.42,3.57-1.64,5.85-3.68l1.01-.9c3.19-2.84,4.36-5.82,3.52-8.93-.25-.68-1.04-1.81-2.39-3.39l-1.84-2.16-.03-.24c.04-.16.28-.43.72-.82.6-.54,1.03-.67,1.27-.41.84.94,1.79,1.84,2.86,2.7,1.19.99,2.82,1.4,4.9,1.24s4.38-1.37,6.9-3.62l.4-.36c1.91-1.71,2.72-3.48,2.41-5.31-.19-1.16-.66-2.16-1.41-3-.96-1.07-2.03-1.9-3.2-2.48s-2.13-.87-2.87-.88-1.1-.01-1.1-.01l.13.15c.06.13.14.29.26.49s.18.44.2.73.08.59.19.92.07.66-.1,1-.31.7-.4,1.08-.38.73-.87,1.05c-.74.66-1.6,1.01-2.59,1.05s-1.97-.45-2.93-1.46ZM404.03,377.52c-1.11-1.24-2.02-2.57-2.74-3.98s-1.22-2.59-1.52-3.53-.46-1.43-.49-1.46c-.72,1.42-2.09,3.04-4.1,4.83-3.02,2.69-6.04,4.21-9.05,4.55s-5.32-.35-6.91-2.07c-1.71-1.91-2.3-4.43-1.77-7.56.53-3.12,2.31-6.07,5.33-8.82,2.99-2.67,6.1-4.08,9.32-4.25s5.7.68,7.41,2.53c1.17,1.31,1.7,2.95,1.58,4.92.02,5.23,1.6,9.6,4.75,13.13,3.47,3.89,7.77,5.67,12.89,5.32.9-.08,1.45-.03,1.66.14.09.04.19.11.27.21.27.3.38.66.32,1.07s-.27.75-.63,1.02c-41.37,5.86-62.27,8.72-62.67,8.61-.25-.01-.47-.12-.65-.32-.39-.44-.47-.9-.25-1.4.15-.44.45-.71.91-.81.13-.06,9-1.3,26.6-3.74,8.48-1.17,14.97-2.08,19.46-2.71,4.5-.64,6.75-.95,6.75-.95-2.43-1.03-4.58-2.6-6.47-4.72ZM381.36,374.41c.84.94,2.38,1.25,4.63.93,2.25-.32,4.71-1.64,7.4-3.97,2.32-2.07,3.89-4.22,4.72-6.47.83-2.25.63-4.09-.59-5.53-.21-.24-.47-.43-.78-.57s-.78-.3-1.41-.46-1.43-.05-2.41.34-2.06.97-3.25,1.73c-.73.53-1.89,1.5-3.46,2.91l-1.06.94c-3.06,2.72-4.64,5.14-4.76,7.23-.07,1.14.2,2.05.8,2.72l.18.2ZM382.49,399.9c2.95-2.64,6.03-4.05,9.23-4.25,3.2-.2,5.7.68,7.5,2.63,1.56,1.75,1.98,4.08,1.27,7-.71,2.92-2.58,5.76-5.6,8.52-3.03,2.76-6.06,4.29-9.1,4.59-3.04.3-5.35-.39-6.91-2.07-1.68-1.88-2.25-4.41-1.72-7.6s2.31-6.13,5.33-8.82ZM381.01,414.87c.84.94,2.38,1.25,4.63.93s4.73-1.66,7.45-4.02c2.32-2.07,3.89-4.22,4.72-6.47.83-2.25.62-4.08-.64-5.49-.21-.24-.47-.43-.78-.57s-.78-.3-1.41-.46-1.43-.05-2.41.34c-.98.39-2.06.97-3.25,1.73-.43.33-1.56,1.3-3.37,2.91l-1.11.99c-4.77,4.25-6.1,7.55-4.01,9.9l.18.2Z"/>
  <path class="k" d="M249.53,9.98c9.04,0,18.21.52,27.26,1.53,37.78,4.24,74.14,17.39,105.48,38.09l-143.12,194.07-.8,1.08-.15,1.33-.58,5.15-.15,1.33.54,1.23,96.51,220.98c-26.85,10.12-55.18,15.25-84.3,15.25-8.99,0-18.07-.51-27-1.51-63.71-7.15-120.81-38.69-160.8-88.8C22.43,349.61,4.35,286.93,11.51,223.22c7.15-63.71,38.69-120.81,88.8-160.8,21.33-17.02,45.02-30.17,70.42-39.08,25.3-8.87,51.81-13.37,78.81-13.37M273.66,118.53c20.36,0,37.43-15.28,39.71-35.54,1.19-10.62-1.82-21.06-8.49-29.42-6.66-8.35-16.18-13.61-26.8-14.8-1.5-.17-3.01-.25-4.51-.25-20.36,0-37.43,15.28-39.71,35.54-1.19,10.62,1.82,21.06,8.49,29.42,6.66,8.35,16.18,13.61,26.8,14.8,1.5.17,3.01.25,4.51.25M249.53,4.98c-55.27,0-108.51,18.56-152.35,53.54C46.03,99.34,13.84,157.63,6.54,222.67c-7.3,65.03,11.15,129.02,51.97,180.17,40.82,51.15,99.12,83.34,164.15,90.65,9.17,1.03,18.38,1.54,27.56,1.54,31.23,0,62.2-5.92,90.97-17.48l-98.59-225.75.58-5.15L389.39,48.38c-32.98-22.85-71.66-37.3-112.04-41.84-9.3-1.04-18.59-1.56-27.82-1.56h0ZM273.66,113.53c-1.3,0-2.62-.07-3.95-.22-19.21-2.16-33.03-19.48-30.87-38.69,2.01-17.88,17.16-31.1,34.74-31.1,1.3,0,2.62.07,3.95.22,19.21,2.16,33.03,19.48,30.87,38.69-2.01,17.88-17.16,31.1-34.74,31.1h0Z"/>
  <path class="l" d="M98.6,248.32l93.26,8.49.82-8.95-93.26-8.49-.82,8.95ZM135.84,118.55c-2.69-.24-4.74-1.33-6.17-3.27-1.43-1.94-2.03-4.2-1.79-6.78.64-7.06,3.84-12.94,9.58-17.63,5.74-4.69,12.54-6.68,20.4-5.97,9.05.82,16.36,4.3,21.92,10.42,5.56,6.12,7.99,13.62,7.28,22.48-.39,4.28-1.76,8.27-4.1,11.96s-5.04,6.86-8.09,9.5-7.36,5.95-12.94,9.96c-3.86,2.76-9.25,6.88-16.17,12.37l-9.56,7.55,11.33,1.18c15.62,1.42,23.95,1.93,24.99,1.52.71-.14,2.31-4.45,4.79-12.95l.04-.45,5.97.54-.04.45c-.13.29-1.19,4.76-3.18,13.4-1.99,8.65-3.15,13.15-3.49,13.52l-.04.45-55.36-5.04.26-2.84.16-1.79c.06-.7.43-1.42,1.1-2.16s2.32-2.35,4.95-4.82c3.17-2.92,5.92-5.48,8.22-7.68.99-.91,2.84-2.6,5.58-5.06s4.59-4.15,5.58-5.06,2.58-2.42,4.78-4.53c2.2-2.11,3.74-3.67,4.64-4.69.9-1.02,2.18-2.41,3.84-4.16s2.85-3.25,3.57-4.49,1.59-2.61,2.63-4.12,1.83-3.04,2.37-4.6,1.03-3.02,1.45-4.38.72-2.99.9-4.88c.57-6.27-.63-11.84-3.59-16.73s-7.58-7.61-13.85-8.18c-3.28-.3-6.24.28-8.89,1.75s-4.53,2.95-5.67,4.45-1.72,2.4-1.75,2.7c0,.1.24.17.73.22,1.79.16,3.57,1.03,5.33,2.59s2.5,3.94,2.21,7.12c-.23,2.49-1.21,4.5-2.96,6.05s-4.07,2.24-6.96,2.07ZM120.49,316.97c-2.69-.24-4.7-1.28-6.04-3.11s-1.93-4.09-1.79-6.78c.5-5.47,3.33-10.13,8.49-13.97s11.13-5.46,17.89-4.84c3.48.32,5.67.57,6.55.75,7.25,1.86,12.63,5.01,16.14,9.44,3.51,4.43,5.1,9.04,4.76,13.82-.47,5.17-2.62,10.04-6.45,14.61s-8.82,7.67-14.99,9.32l-.47.26c0,.1.43.29,1.3.57s2.28.86,4.21,1.74,3.72,2.09,5.39,3.65c7.68,6.02,11.12,13.35,10.33,22.01-.72,7.86-4.42,14.44-11.13,19.75-6.7,5.31-14.78,7.53-24.23,6.67-7.96-.72-14.63-3.49-20.01-8.29-5.38-4.8-7.77-10.49-7.17-17.05.25-2.79,1.35-4.94,3.3-6.47s4.26-2.22,6.96-2.07c2.79.25,4.99,1.36,6.62,3.31s2.32,4.27,2.07,6.96c-.1,1.09-.34,2.08-.72,2.94s-.8,1.63-1.26,2.29-1.06,1.21-1.8,1.64-1.37.78-1.9,1.03-1.04.41-1.55.46c-.51.05-.92.17-1.23.34l-.61.09c4.67,4.94,10.63,7.74,17.89,8.4,5.47.5,9.84-1.76,13.11-6.78,1.99-3.13,3.29-8.08,3.91-14.84l.27-2.98c.86-9.45-1.75-16.06-7.82-19.82-1.44-.73-4.44-1.36-9.01-1.87l-6.25-.72-.42-.34c-.17-.32-.2-1.12-.08-2.41.16-1.79.64-2.65,1.44-2.58,2.79.25,5.69.27,8.72.04,3.43-.19,6.7-2,9.82-5.43s5.02-8.87,5.7-16.33l.11-1.19c.52-5.67-.87-9.76-4.15-12.26-2.06-1.59-4.34-2.5-6.82-2.73-3.18-.29-6.17,0-8.95.84-2.79.85-4.78,1.82-5.98,2.92s-1.8,1.64-1.8,1.64l.45.04c.29.13.68.26,1.17.41s.96.44,1.42.88,1.03.85,1.7,1.21,1.12.95,1.34,1.78.56,1.61.99,2.35.49,1.75.18,3.03c-.2,2.19-1.07,4.07-2.62,5.63s-3.87,2.26-6.96,2.07Z"/>
</svg>