<?xml version="1.0" encoding="UTF-8"?>
<svg xmlns="http://www.w3.org/2000/svg" width="1000" height="178" viewBox="0 0 1000 178">
  <path d="M50,0h900v144.7H50V0Z" fill="#7b7b7b" isolation="isolate" opacity=".3"/>
  <g data-name="Austria">
    <path d="M773,20h157.1v34.9h-157.1V20ZM773,89.8h157.1v34.9h-157.1v-34.9Z" fill="#ed2839"/>
    <path d="M773,54.9h157.1v34.9h-157.1v-34.9Z" fill="#fff"/>
  </g>
  <g data-name="Armenia">
    <path d="M597.3,20h157.1v34.9h-157.1V20Z" fill="#d90011"/>
    <path d="M597.3,89.8h157.1v34.9h-157.1v-34.9Z" fill="#f3a801"/>
    <path d="M597.3,54.9h157.1v34.9h-157.1v-34.9Z" fill="#0033a0"/>
  </g>
  <g data-name="Bulgaria">
    <path d="M421.5,20h157.1v34.9h-157.1V20Z" fill="#fff"/>
    <path d="M421.5,89.8h157.1v34.9h-157.1v-34.9Z" fill="#d62511"/>
    <path d="M421.5,54.9h157.1v34.9h-157.1v-34.9Z" fill="#00976e"/>
  </g>
  <g data-name="Netherlands">
    <path d="M245.7,20h157.1v34.9h-157.1V20Z" fill="#ae1c28"/>
    <path d="M245.7,89.8h157.1v34.9h-157.1v-34.9Z" fill="#21468b"/>
    <path d="M245.7,54.9h157.1v34.9h-157.1v-34.9Z" fill="#fff"/>
  </g>
  <g data-name="Russia">
    <path d="M69.9,20h157.1v34.9H69.9V20Z" fill="#fff"/>
    <path d="M69.9,89.8h157.1v34.9H69.9v-34.9Z" fill="#d52b1e"/>
    <path d="M69.9,54.9h157.1v34.9H69.9v-34.9Z" fill="#0039a6"/>
  </g>
  <text transform="translate(115.51 168.2)" fill="#7b7b7b" font-family="ArialMT, Arial" font-size="20.02">Россия</text>
  <text transform="translate(264.71 166.32)" fill="#7b7b7b" font-family="ArialMT, Arial" font-size="20.02">Нидерланды</text>
  <text transform="translate(456.56 166.32)" fill="#7b7b7b" font-family="ArialMT, Arial" font-size="20.02">Болгария</text>
  <text transform="translate(635.29 166.32)" fill="#7b7b7b" font-family="ArialMT, Arial" font-size="20.02">Армения</text>
  <text transform="translate(814.17 166.32)" fill="#7b7b7b" font-family="ArialMT, Arial" font-size="20.02">Австрия</text>
</svg>