<?xml version="1.0" encoding="UTF-8"?>
<svg xmlns="http://www.w3.org/2000/svg" viewBox="0 0 1529 1519">
  <defs>
    <style>
      .cls-1 {
        stroke-width: 12px;
      }

      .cls-1, .cls-2 {
        fill: none;
        stroke-linecap: round;
        stroke-miterlimit: 12;
      }

      .cls-1, .cls-2, .cls-3, .cls-4 {
        stroke: #8c8c8c;
      }

      .cls-5 {
        opacity: .25;
        stroke-width: 0px;
      }

      .cls-5, .cls-3, .cls-4 {
        fill: #8c8c8c;
      }

      .cls-2 {
        stroke-width: 6px;
      }

      .cls-3 {
        stroke-miterlimit: 1.98;
        stroke-width: 4.95px;
      }

      .cls-4 {
        stroke-width: 10px;
      }
    </style>
  </defs>
  <g>
    <path class="cls-5" d="M152.29,521.39c243.83-26.47,491.56-43.89,784.65-55.34,64.83-4.26,89.69,28.99,96.69,83.95,20.32,239.93,41.22,486.31,55.34,784.65,1.33,53.06-26.44,86.87-83.95,96.69-283.3,33.91-583.95,55.17-784.65,55.34-50.85,3.76-101.68-29.62-96.69-83.95-5.1-230.31-23.17-447.93-55.34-784.65-8.12-68.07,18.43-96.29,83.95-96.69"/>
    <path class="cls-1" d="M152.29,521.39c185.4-14.07,365.99-27.09,784.65-55.34M152.29,521.39c164.9-10.64,328.93-18.46,784.65-55.34M936.94,466.05c64.01-4.57,97.19,25.08,96.69,83.95M936.94,466.05c64.13-10.45,88.97,21.15,96.69,83.95M1033.63,550c17.86,210.6,30.02,417.26,55.34,784.65M1033.63,550c10.93,173.93,24.41,345.72,55.34,784.65M1088.96,1334.65c-1.07,63.67-24.61,97.84-83.95,96.69M1088.96,1334.65c5.13,62.21-19.57,97.37-83.95,96.69M1005.02,1431.34c-232.87,16.62-458.27,30.19-784.65,55.34M1005.02,1431.34c-185.39,12.59-372.96,23.55-784.65,55.34M220.37,1486.68c-65.67,1.48-87.82-20.19-96.69-83.95M220.37,1486.68c-57.25,5.91-94.78-19.41-96.69-83.95M123.68,1402.73c-18.52-310.51-39.17-630.26-55.34-784.65M123.68,1402.73c-20.35-227.07-36.6-455.37-55.34-784.65M68.34,618.08c1.5-56.01,25.6-94.33,83.95-96.69M68.34,618.08c-9.8-62.11,21.39-88.05,83.95-96.69"/>
  </g>
  <g>
    <path class="cls-2" d="M1148.6,478.74h0M1148.6,478.74h0M1145.62,557.98c23.49-33.71,51.49-73.13,85.09-113.05M1145.62,557.98c32.69-42.02,66.58-87.58,85.09-113.05M1151.17,625.89c31.73-49.64,69.21-94.09,139.53-185.39M1151.17,625.89c44.07-56.01,86.32-110.95,139.53-185.39M1155.02,696.08c59.61-84.59,121.38-171.66,195.68-259.98M1155.02,696.08c63.83-80.27,123.27-163.74,195.68-259.98M1160.57,763.99c86.1-109.69,157.42-216.86,241.61-321.03M1160.57,763.99c66.92-83.52,127.1-167.72,241.61-321.03M1166.1,831.9c96.07-128.29,193.02-255.85,267.13-354.94M1166.1,831.9c78.46-105.72,157.3-210.93,267.13-354.94M1169.94,902.09c103.38-144.95,212.11-286.04,272.24-361.74M1169.94,902.09c99.98-139.6,204.24-278.2,272.24-361.74M1175.5,970c103.86-133.32,199.71-263.19,272.24-361.71M1175.5,970c92.88-124.92,192.24-256.02,272.24-361.71M1179.34,1040.19c95.37-128.24,184.44-253.29,272.24-361.74M1179.34,1040.19c54.88-74.9,106.08-148.06,272.24-361.74M1184.9,1108.1c64.38-87.03,125.66-162.01,272.24-361.74M1184.9,1108.1c85.27-115.42,173.8-231.97,272.24-361.74M1190.42,1176.02c80.17-114.04,167.62-223.03,272.24-361.71M1190.42,1176.02c104.76-137.41,213.93-277.49,272.24-361.71M1194.27,1246.2c100.76-136.99,197.03-268.22,272.24-361.74M1194.27,1246.2c68.61-86.62,128.62-175.94,272.24-361.74M1199.82,1314.11c70.6-89.71,132.72-174.22,272.24-361.74M1199.82,1314.11c80.53-113.86,165.08-222.06,272.24-361.74M1208.78,1377.5c82.33-113.99,180.31-228.49,268.81-357.18M1208.78,1377.5c89.51-120.79,181.88-239.66,268.81-357.18M1241.54,1409.26c90.04-108.41,165.8-232.37,239.9-318.78M1241.54,1409.26c55.87-72.1,116.12-148.48,239.9-318.78M1298.13,1409.35c41.67-54.65,82.92-118.15,188.86-250.96M1298.13,1409.35c52.95-72.86,108-147.77,188.86-250.96M1358.12,1404.92c43.1-52.54,84.9-105.72,134.42-178.59M1358.12,1404.92c48.29-60.53,94.69-125.36,134.42-178.59M1418.12,1400.49c21.67-31.77,47.77-67.08,78.27-104M1418.12,1400.49c32.08-37.46,58.56-77.43,78.27-104M1232.53,1404.25h0M1232.53,1404.25h0M1291.4,1391.9c-28.34-23.73-59.8-47.15-74.59-56.15M1291.4,1391.9c-30.19-19.91-55.48-46.21-74.59-56.15M1361.59,1388.06c-50.81-35.96-96.92-71.88-149.21-112.3M1361.59,1388.06c-43.8-34.3-91.25-65.61-149.21-112.3M1447.59,1396.15c-60.75-51.4-129.84-96.36-237.39-178.67M1447.59,1396.15c-57.05-46.01-119.74-91.06-237.39-178.67M1486.12,1368.47c-57.14-41.18-109.93-80.26-280.35-210.98M1486.12,1368.47c-85.16-65.73-167.12-123.4-280.35-210.98M1497.5,1320.38c-64.77-53.3-141.92-105.44-296.17-222.88M1497.5,1320.38c-103.09-80.12-204.19-155.96-296.17-222.88M1493.07,1260.39c-109.82-84.33-227.88-175.62-296.14-222.88M1493.07,1260.39c-81.63-64.33-162.07-128.58-296.14-222.88M1488.65,1200.4c-82.95-65.35-176.79-137.87-296.14-222.88M1488.65,1200.4c-104.39-76.06-198.95-151.56-296.14-222.88M1484.22,1140.4c-62.36-49.61-118.37-94.62-296.14-222.88M1484.22,1140.4c-108.61-78.09-216.94-160.88-296.14-222.88M1479.81,1080.41c-74.07-59.25-153.88-116.59-296.17-222.88M1479.81,1080.41c-68.1-55.05-141.81-108.79-296.17-222.88M1475.38,1020.42c-111.31-91.43-231.19-170.28-296.17-222.88M1475.38,1020.42c-93.11-64.63-186.24-137.09-296.17-222.88M1470.96,960.43c-106.7-85.97-221.1-163.19-296.17-222.88M1470.96,960.43c-63.28-50.28-122.87-95.97-296.17-222.88M1466.53,900.43c-78.89-62.8-164.93-131.75-296.17-222.88M1466.53,900.43c-95.49-76.18-190.73-142.78-296.17-222.88M1462.1,840.44c-62.49-46.25-129.76-101.27-296.17-222.88M1462.1,840.44c-105.69-79.29-209.67-157.56-296.17-222.88M1457.67,780.45c-76.41-55.06-152.9-116.75-293.89-221.2M1457.67,780.45c-69.62-51.22-137.13-100.7-293.89-221.2M1455.51,722.17c-92.24-67.1-173.68-133.55-302.96-227.99M1455.51,722.17c-93.1-69.25-180.13-135.28-302.96-227.99M1451.08,662.18c-88.28-67.69-169.92-134.15-280.35-210.98M1451.08,662.18c-91.47-69.85-187.93-139.32-280.35-210.98M1446.65,602.19c-52.96-36.66-99.21-68.6-226.07-170.16M1446.65,602.19c-49.65-35.16-96.54-74.57-226.07-170.16M1442.22,542.19c-61.8-50.19-120.4-86.36-153.73-115.72M1442.22,542.19c-48.94-41.96-102.86-79.69-153.73-115.72M1440.04,483.89c-24.53-18.78-43.66-32.29-74.59-56.15M1440.04,483.89c-18.69-10.4-34.31-23.17-74.59-56.15"/>
    <path class="cls-1" d="M1210.18,445.84c31.14.3,70.23-2.43,149.59-10.55M1210.18,445.84c28.85-2.72,61.04-3.26,149.59-10.55M1359.77,435.29c51.5-3.41,76.25,16.89,80.07,69.52M1359.77,435.29c45.62-7.53,78.16,18.66,80.07,69.52M1439.84,504.81c26.3,315.75,45.87,633.17,57.53,815.7M1439.84,504.81c15.04,189.58,27.18,376.53,57.53,815.7M1497.37,1320.5c1.07,46.47-24.38,75.44-69.52,80.07M1497.37,1320.5c2.41,51.85-24.81,81.43-69.52,80.07M1427.85,1400.57c-32.04,4.59-71.47,8.59-149.59,10.55M1427.85,1400.57c-33.21,2.48-66.17,6.06-149.59,10.55M1278.26,1411.12c-47.76,5.78-71.59-15.69-80.07-69.52M1278.26,1411.12c-52.42,5.57-79.57-21.39-80.07-69.52M1198.19,1341.6c-15.78-254.77-28.05-507.09-57.53-815.7M1198.19,1341.6c-20.13-281.78-40.51-563.48-57.53-815.7M1140.66,525.91c0-54.97,20.72-73.82,69.52-80.07M1140.66,525.91c-7.05-50.96,20.63-73.5,69.52-80.07"/>
  </g>
  <g>
    <path class="cls-2" d="M962.43,66.11h0M962.43,66.11h0M883.19,63.13c45.41,32.54,90.53,60.56,113.05,85.09M883.19,63.13c31.29,20.91,62.92,44.66,113.05,85.09M815.28,68.69c67.32,48.83,142.95,108.51,185.39,139.53M815.28,68.69c42.19,28.34,76.85,58.8,185.39,139.53M745.09,72.53c74.12,55.47,154.06,116.78,259.98,195.68M745.09,72.53c67.3,49.32,131.65,97.03,259.98,195.68M677.18,78.09c96.34,69,189.2,141.27,321.03,241.61M677.18,78.09c110.65,85.69,229.1,173.29,321.03,241.61M609.27,83.62c128.9,103.15,254.93,202.13,354.94,267.13M609.27,83.62c102.27,75.87,210.44,157.59,354.94,267.13M539.08,87.46c129.68,97.2,252.7,187.74,361.74,272.24M539.08,87.46c89.27,67.62,175.57,130.58,361.74,272.24M471.17,93.01c135.94,97.18,278.9,207.36,361.71,272.24M471.17,93.01c132.02,101.51,259.36,194.87,361.71,272.24M400.98,96.86c102.28,74.76,210.76,162.99,361.74,272.24M400.98,96.86c112.62,84.22,221.22,167.38,361.74,272.24M333.07,102.41c122.8,87.04,231.74,177.39,361.74,272.24M333.07,102.41c113.8,86.88,226.18,171.29,361.74,272.24M265.16,107.94c89.69,66.29,177.29,134.03,361.71,272.24M265.16,107.94c76.34,59.69,151.75,116.57,361.71,272.24M194.97,111.78c92.91,68.13,189.36,143.11,361.74,272.24M194.97,111.78c126.76,95.22,252.14,192.74,361.74,272.24M127.06,117.34c83.49,63.35,157.99,120.22,361.74,272.24M127.06,117.34c78.13,58.43,164.88,120.21,361.74,272.24M63.67,126.29c93.01,79.3,193.76,142.32,357.18,268.81M63.67,126.29c132.7,100.73,267.21,201.69,357.18,268.81M31.91,159.05c74.05,53.66,142.74,106.63,318.78,239.9M31.91,159.05c69.22,52.76,140.26,102.09,318.78,239.9M31.82,215.65c73.93,48.85,140.14,99.55,250.96,188.86M31.82,215.65c93.92,70.08,186.72,140.6,250.96,188.86M36.25,275.64c60.33,49.41,133.34,103.32,178.59,134.42M36.25,275.64c52.01,36.5,103.29,71.77,178.59,134.42M40.68,335.63c24.58,17.04,49.57,46.09,104,78.27M40.68,335.63c31.84,19.54,56.41,41.69,104,78.27M36.92,150.05h0M36.92,150.05h0M33.94,229.26c32.72-42.76,58.36-72.25,85.07-113.02M33.94,229.26c28.84-35.85,53.88-68.56,85.07-113.02M37.78,299.44c30.01-43.47,64.28-96.01,141.21-187.64M37.78,299.44c48.43-65.76,102.83-133.48,141.21-187.64M45.02,365.11c48.29-60.16,82.34-119.52,193.99-257.74M45.02,365.11c64.31-86.43,127.39-164.51,193.99-257.74M70.99,405.88c76.09-103.57,163.27-206.3,228.02-302.94M70.99,405.88c87.29-115.25,174.84-230.94,228.02-302.94M120.79,415.02c71.05-89.71,124.95-175.68,238.21-316.51M120.79,415.02c82.89-108.9,167.85-218.96,238.21-316.51M180.78,410.59c73.19-91.17,142.73-179.78,238.21-316.51M180.78,410.59c76.92-111.14,160.16-218.25,238.21-316.51M240.77,406.16c58.7-66.66,113.12-139.56,238.21-316.51M240.77,406.16c97.14-126.07,194.21-252.73,238.21-316.51M300.77,401.73c66.12-89.62,131.54-169.62,238.21-316.51M300.77,401.73c76.89-101.1,153.68-202.76,238.21-316.51M360.76,397.33c63.91-81.94,115.78-159.38,238.21-316.51M360.76,397.33c74.6-98.61,147.41-199.54,238.21-316.51M420.75,392.9c80.12-107.48,166.19-225.62,236.5-314.26M420.75,392.9c88.12-112.78,172.5-231.57,236.5-314.26M480.74,388.47c71.73-109.9,161.7-215.29,236.5-314.26M480.74,388.47c85.12-115.46,170.25-227.61,236.5-314.26M540.74,384.04c93.27-120.92,183.97-243.78,236.5-314.26M540.74,384.04c55.27-76.63,117.54-156.1,236.5-314.26M600.73,379.61c58.06-81.3,121.88-150.45,236.5-314.26M600.73,379.61c67.52-93.54,138.61-184.02,236.5-314.26M660.72,375.18c59.61-82.97,115.08-157.57,236.5-314.23M660.72,375.18c66.71-94.17,132.95-184.56,236.5-314.23M719,373.03c91.43-112.82,171.93-226.37,233.1-309.74M719,373.03c57.59-77.92,115.49-147.33,233.1-309.74M778.99,368.6c77.76-96,150-202.58,207.58-275.83M778.99,368.6c71.41-95.89,143.31-186.03,207.58-275.83M838.98,364.17c51.19-61.62,99.89-131.31,158.26-210.26M838.98,364.17c34.99-46.46,68.23-92.77,158.26-210.26M898.98,359.74c25.61-40.24,52.78-70.44,103.79-137.91M898.98,359.74c38.41-54.67,80.49-109.49,103.79-137.91M960.68,353.06c13.88-12.67,29.65-33.69,44.24-58.8M960.68,353.06c9.66-18.69,25.53-33.77,44.24-58.8"/>
    <path class="cls-1" d="M995.33,127.7c5.3,34.94,6.71,74.64,10.55,149.59M995.33,127.7c-.8,43.4,4.05,83.96,10.55,149.59M1005.88,277.29c.48,48.64-21.94,80.63-69.52,80.07M1005.88,277.29c8.82,49.05-16.19,78.15-69.52,80.07M936.36,357.36c-286.19,11.45-576.59,32.44-815.7,57.53M936.36,357.36c-295.29,26.07-589.9,46-815.7,57.53M120.67,414.89c-55.36-.29-72.25-25.34-80.07-69.52M120.67,414.89c-56.15.13-72.95-13.95-80.07-69.52M40.6,345.37c-1.42-50.76-3.01-96.97-10.55-149.59M40.6,345.37c-1.99-43.14-6.99-90.73-10.55-149.59M30.05,195.78c-3.86-51.18,14.42-79.08,69.52-80.07M30.05,195.78c-4.94-50.4,22.81-72.69,69.52-80.07M99.57,115.7c177.52-7.05,358.92-19.07,815.7-57.53M99.57,115.7c280.46-25.99,565.67-44.46,815.7-57.53M915.26,58.18c52.02.44,81.83,18.4,80.07,69.52M915.26,58.18c45.23-2.96,75.61,15.18,80.07,69.52"/>
  </g>
  <g>
    <path class="cls-2" d="M1127.03,65.4h0M1127.03,65.4h0M1115.54,155.92c14.65-23.9,33.68-52.1,85.09-113.05M1115.54,155.92c19.35-27.74,44.77-57.34,85.09-113.05M1121.1,223.84c36.94-47.73,75.62-91.73,139.53-185.39M1121.1,223.84c42.24-58.26,84.3-117.08,139.53-185.39M1130.05,287.22c43.25-53.99,88.23-119.63,190.57-253.21M1130.05,287.22c52.07-64.03,98.11-131.13,190.57-253.21M1156.02,328.03c80-106.85,163.68-220.28,217.77-289.39M1156.02,328.03c49.52-67.23,97.44-132.59,217.77-289.39M1205.79,337.17c53.72-67.55,103-144.32,199.08-264.5M1205.79,337.17c64.22-92.04,133.18-185.68,199.08-264.5M1264.1,334.98c36.02-47.05,72.84-99.42,149.72-198.93M1264.1,334.98c50.77-66.81,102.85-134.36,149.72-198.93M1324.09,330.55c27.28-35.03,45.95-57.93,95.29-126.59M1324.09,330.55c29.87-34.56,51.48-72.81,95.29-126.59M1390.87,317.11c10.2-12.29,10.01-14.52,28.92-38.43M1390.87,317.11c8.89-12.77,21.24-27.79,28.92-38.43"/>
    <path class="cls-1" d="M1181.73,42.22c33.69-4.5,77.48-8.98,151.45-10.68M1181.73,42.22c46.33-3.49,98.3-7.84,151.45-10.68M1333.18,31.54c44,2.03,70.33,22.7,79.07,68.65M1333.18,31.54c43.19-1,81.04,13.29,79.07,68.65M1412.25,100.19c2.21,34.19,6.52,70.74,10.42,147.7M1412.25,100.19c.39,50.63,5.8,99.18,10.42,147.7M1422.67,247.89c-1.23,51.8-19.36,80.25-68.65,79.07M1422.67,247.89c7.18,51.15-18.18,79.71-68.65,79.07M1354.01,326.97c-52.3,4.11-114.14,4.9-151.45,10.68M1354.01,326.97c-31.18,5.18-64.61,7.28-151.45,10.68M1202.56,337.65c-44.16,1.27-77.81-20.61-79.07-68.65M1202.56,337.65c-51.73,4.95-70.89-24.24-79.07-68.65M1123.49,268.99c.51-37.42-3.72-82.48-10.42-147.7M1123.49,268.99c-5.24-54.18-6.81-110.6-10.42-147.7M1113.07,121.29c1.99-52.22,17.24-80.18,68.65-79.07M1113.07,121.29c-8.51-53.04,17.85-70.7,68.65-79.07"/>
  </g>
  <g>
    <path id="MJMATHI-78" class="cls-4" d="M349.76,1028.09c1.71-17.96,11.67-39.27,29.9-63.92,18.23-24.65,41.91-38.21,71.04-40.69,14.79-1.04,28.59,1.81,41.38,8.55,12.79,6.74,22.55,15.61,29.28,26.61,15.87-27.88,36.28-42.7,61.22-44.46,15.64-1.1,29.49,2.59,41.56,11.09,12.07,8.49,18.87,20.55,20.39,36.16.86,12.26-1.39,22.4-6.77,30.43-5.38,8.03-10.76,13.08-16.13,15.16s-10.18,3.27-14.4,3.56c-8.03.57-14.75-1.3-20.15-5.59s-8.37-10.24-8.91-17.85c-1.37-19.44,8.26-33.5,28.88-42.18-5.04-5.17-13.68-7.32-25.94-6.45-5.49.39-9.48,1.09-11.96,2.12-15.59,7.9-26.44,22.68-32.55,44.35-18.77,95.2-27.61,150.62-26.51,166.26.83,11.84,4.81,20.05,11.93,24.65s14.7,6.61,22.73,6.04c15.64-1.1,30.58-9.17,44.81-24.19,14.23-15.02,23.38-32.87,27.45-53.55.97-4.32,2.07-6.73,3.31-7.24s4.59-1.17,10.05-1.98l2.54-.18c6.34-.45,9.63,1.02,9.87,4.4.03.42-.23,2.78-.78,7.06-5.06,24.57-16.66,46.84-34.79,66.81-18.13,19.97-40.09,30.86-65.87,32.68-29.59,2.09-52.93-9.65-70.02-35.2-15.48,27.43-34.42,41.93-56.83,43.51l-3.8.27c-20.71,1.46-35.89-2.99-45.54-13.35-9.65-10.36-15.12-21.66-16.41-33.89-.95-13.53,2.29-24.8,9.72-33.82,7.43-9.02,16.65-13.92,27.64-14.69,18.18-1.28,27.89,6.95,29.14,24.71.6,8.45-1.42,16.03-6.04,22.73-4.63,6.7-9.19,11.27-13.69,13.71s-7.17,3.69-8.02,3.75l-1.86.77c.03.42,1.36,1.18,3.98,2.27s6.11,2.33,10.46,3.72,8.41,1.74,12.18,1.05c15.22-1.07,27.65-11.51,37.3-31.3,3.33-7.03,7.17-21.75,11.54-44.14,4.37-22.4,8.68-45.64,12.92-69.73,4.25-24.09,6.65-38.27,7.19-42.56,1.31-11.56,1.78-19.88,1.43-24.95-.83-11.84-4.6-20.07-11.3-24.69s-14.06-6.65-22.09-6.09c-16.91,1.19-32.28,9.07-46.12,23.64-13.84,14.57-22.97,32.63-27.4,54.18-.58,3.86-1.48,6.05-2.72,6.56s-4.59,1.17-10.05,1.98l-8.88.63c-2.71-2.36-4.15-4.59-4.3-6.71Z"/>
    <path id="MJMAIN-32" class="cls-3" d="M701.58,789.08c-5.65.4-10.28-1.17-13.89-4.7-3.61-3.53-5.61-8.01-6-13.45-1.05-14.85,3.59-28.11,13.91-39.77,10.32-11.66,23.75-18.07,40.27-19.24,19.04-1.34,35.35,3.39,48.94,14.21,13.59,10.82,21.14,25.53,22.67,44.13.63,9-.85,17.72-4.46,26.18-3.61,8.45-8.13,15.92-13.56,22.4-5.43,6.48-13.25,14.81-23.47,24.99-7.07,7.02-16.86,17.38-29.35,31.09l-17.28,18.88,23.87-1.37c32.85-2.32,50.28-4.07,52.3-5.27,1.44-.52,3.29-10.01,5.56-28.46l-.07-.94,12.55-.89.07.94c-.16.64-.85,10.26-2.07,28.85-1.21,18.59-2.1,28.32-2.67,29.2l.07.94-116.43,8.21-.42-5.96-.27-3.77c-.1-1.46.41-3.08,1.55-4.84s4.02-5.64,8.64-11.65c5.6-7.12,10.41-13.35,14.45-18.68,1.74-2.22,5.02-6.35,9.85-12.36,4.83-6.02,8.12-10.14,9.85-12.36s4.53-5.89,8.37-11c3.84-5.11,6.52-8.87,8.03-11.29,1.51-2.42,3.7-5.73,6.55-9.92s4.82-7.7,5.88-10.51,2.42-5.95,4.07-9.43,2.77-6.92,3.37-10.33,1.11-6.6,1.53-9.57.49-6.45.21-10.42c-.93-13.18-5.29-24.33-13.08-33.45-7.79-9.12-18.28-13.22-31.46-12.29-6.9.49-12.85,2.69-17.83,6.62s-8.4,7.64-10.25,11.13-2.76,5.56-2.72,6.18c.01.21.55.28,1.59.2,3.77-.27,7.74.93,11.92,3.57s6.51,7.32,6.98,14.02c.37,5.23-.99,9.74-4.09,13.53-3.1,3.79-7.67,6.01-13.72,6.64Z"/>
  </g>
</svg>